<svg width="640" height="424" viewBox="0 0 640 424" fill="none" xmlns="http://www.w3.org/2000/svg">
<path d="M0.900391 36.2999V30.3999C4.00039 32.6999 7.8004 33.7999 12.1004 33.7999C16.4004 33.7999 16.8004 33.1 18.7004 31.7C20.5004 30.3 21.5004 28.3 21.5004 26C21.5004 21.6 18.0004 18.5 12.6004 18.5C7.2004 18.5 9.20039 18.7999 7.70039 19.3999V15.2999L18.1004 5.29993H2.5004V0H26.2004V4.59998L16.3004 14.1C19.4004 14.4 22.1004 15.6999 24.4004 17.8999C26.7004 20.0999 27.8004 22.8 27.8004 26.2C27.8004 29.6 26.4004 33.3999 23.4004 35.7999C20.5004 38.1999 16.9004 39.3999 12.6004 39.3999C8.3004 39.3999 4.2004 38.4 1.1004 36.5L0.900391 36.2999Z" fill="black"/>
<path d="M47.7002 37V31.7999C50.1002 33.1999 52.7002 33.8999 55.4002 33.8999C60.3002 33.8999 64.1002 31.2 64.8002 27.2H53.4002V22.3999H64.8002C63.9002 18.3999 60.3002 15.8999 55.4002 15.8999C50.5002 15.8999 50.5002 16.5 48.3002 17.7V12.5C50.7002 11.3 53.3002 10.7 56.4002 10.7C59.5002 10.7 63.9002 12 66.7002 14.7C69.5002 17.4 70.9002 20.7999 70.9002 24.8999C70.9002 28.9999 69.5002 32.5 66.7002 35.2C63.9002 37.9 60.4002 39.2 56.4002 39.2C52.4002 39.2 50.3002 38.5 47.8002 37H47.7002Z" fill="black"/>
<path d="M82.7 38.5V16.7H73.5V11.5H97.7V16.7H88.6V38.5H82.6H82.7Z" fill="black"/>
<path d="M130.1 33.3999V37.8999C129.3 38.4999 128.1 38.7999 126.6 38.7999C123.6 38.7999 121.6 37.4999 120.9 34.8999C118.4 37.6999 115.1 39.1 110.9 39.1C106.7 39.1 105.6 38.3 103.6 36.7C101.7 35.1 100.7 32.8 100.7 30C100.7 27.2 101.7 24.8999 103.8 23.3999C105.9 21.7999 108.5 21 111.5 21C114.5 21 117.7 21.7 120.2 23.1V21.6C120.2 17.7 117.6 15.7 112.3 15.7C107 15.7 106.3 16.5 103.8 18.1V12.8999C106.5 11.3999 109.8 10.6 113.7 10.6C121.2 10.6 126.2 14.4 126.2 21V31.1C126.2 32.8 127.1 33.7999 128.5 33.7999C129.9 33.7999 129.6 33.6999 130.1 33.3999ZM120.4 27.5C118.1 26.2 115.7 25.6 113.2 25.6C109.2 25.6 106.9 27.0999 106.9 29.7999C106.9 32.4999 109.3 34.1 112.7 34.1C116.1 34.1 118.7 32.6999 120.4 30.7999V27.5Z" fill="black"/>
<path d="M133.301 38.5L146.201 24L134.801 11.3999H141.801L151.301 22V11.3999H157.301V22L166.801 11.3999H173.801L162.301 24L175.301 38.5H167.901L157.301 26.3999V38.5H151.301V26.3999L140.601 38.5H133.301Z" fill="black"/>
<path d="M211.2 210.6H7.2002V313H211.2V210.6Z" fill="#ABABAB"/>
<path d="M357.3 168.3H283.2V197.3H357.3V168.3Z" fill="#ABABAB"/>
<path d="M631.9 105.1H486.3V215.6H631.9V105.1Z" fill="#ABABAB"/>
<path d="M631.9 304.7H486.3V418.7H631.9V304.7Z" fill="#ABABAB"/>
<path d="M636.8 210.6H427.8V311.5H636.8V210.6Z" fill="#ABABAB"/>
<path d="M430.5 194.6H211.2V330.6H430.5V194.6Z" fill="#ABABAB"/>
<path d="M359.501 327.2H281.601V361.7H359.501V327.2Z" fill="#ABABAB"/>
<path d="M205.601 203.2H151.301V205.5H205.601V203.2Z" fill="white"/>
<path d="M278.801 188.7H203.301V191H278.801V188.7Z" fill="white"/>
<path d="M362.9 161.4H276.5V163.7H362.9V161.4Z" fill="white"/>
<path d="M434.601 188.7H363.101V191H434.601V188.7Z" fill="white"/>
<path d="M481.8 203.3H436.9V205.6H481.8V203.3Z" fill="white"/>
<path d="M636.8 97.7999H479.5V100.1H636.8V97.7999Z" fill="white"/>
<path d="M205.601 203.6V191H203.301V203.6H205.601Z" fill="white"/>
<path d="M278.801 189.2V163.7H276.501V189.2H278.801Z" fill="white"/>
<path d="M365.2 191V161.4H362.9V191H365.2Z" fill="white"/>
<path d="M436.9 205.5V188.7H434.6V205.5H436.9Z" fill="white"/>
<path d="M481.7 315.2H435.9V317.5H481.7V315.2Z" fill="white"/>
<path d="M437 333.4H362.9V335.7H437V333.4Z" fill="white"/>
<path d="M365.201 361.7H276.801V364H365.201V361.7Z" fill="white"/>
<path d="M437 333.7V315.3H434.7V333.7H437Z" fill="white"/>
<path d="M365.301 362.5V335.3H363.001V362.5H365.301Z" fill="white"/>
<path d="M277.701 333.4H205.601V335.7H277.701V333.4Z" fill="white"/>
<path d="M204.501 317.8H151.301V320.1H204.501V317.8Z" fill="white"/>
<path d="M205.601 335.7V317.8H203.301V335.7H205.601Z" fill="white"/>
<path d="M279.101 361.7V333.4H276.801V361.7H279.101Z" fill="white"/>
<path d="M481.801 203.8V100H479.501V203.8H481.801Z" fill="white"/>
<path d="M639.101 287.5V97.7H636.801V287.5H639.101Z" fill="white"/>
<path d="M639 421.5V286.2H636.7V421.5H639Z" fill="white"/>
<path d="M639.1 421.5H481.8V423.8H639.1V421.5Z" fill="white"/>
<path d="M481.801 423.8V315.5H479.501V423.8H481.801Z" fill="white"/>
<path d="M208.401 208.3H154.101V241.4H208.401V208.3Z" fill="#696D6D"/>
<path d="M359.501 167.8H281.301V200.9H359.501V167.8Z" fill="#696D6D"/>
<path d="M535.701 205.7H430.101V239H535.701V205.7Z" fill="#696D6D"/>
<path d="M432.501 193.8H394.601V239.7H432.501V193.8Z" fill="#696D6D"/>
<path d="M634 102.7H486.7V208.1H634V102.7Z" fill="#696D6D"/>
<path d="M631.9 172.6H560.4V242.8H631.9V172.6Z" fill="#696D6D"/>
<path d="M632.901 277.9H561.601V418.6H632.901V277.9Z" fill="#696D6D"/>
<path d="M619.7 322.2H560.4V417.4H619.7V322.2Z" fill="#696D6D"/>
<path d="M557.8 312.9H484.7V417.4H557.8V312.9Z" fill="#696D6D"/>
<path d="M540.5 277.3H433.5V315H540.5V277.3Z" fill="#696D6D"/>
<path d="M432.101 264.1H360.101V331.4H432.101V264.1Z" fill="#696D6D"/>
<path d="M357.3 223.4H284.5V361.7H357.3V223.4Z" fill="#696D6D"/>
<path d="M283.301 265.2H211.301V332.5H283.301V265.2Z" fill="#696D6D"/>
<path d="M208.401 277H154.101V315.3H208.401V277Z" fill="#696D6D"/>
<path d="M243.601 196.3H210.301V238.6H243.601V196.3Z" fill="#696D6D"/>
<path d="M487.401 205.5H434.601V211.1H487.401V205.5Z" fill="#1D1D1B"/>
<path d="M636.8 415.9H481.8V421.5H636.8V415.9Z" fill="#1D1D1B"/>
<path d="M636.8 100.1H481.8V105.7H636.8V100.1Z" fill="#1D1D1B"/>
<path d="M487.4 243.3V105.7H481.8V243.3H487.4Z" fill="#1D1D1B"/>
<path d="M636.801 420.4V267.8H631.201V420.4H636.801Z" fill="#1D1D1B"/>
<path d="M487.4 309.6H434.2V315.2H487.4V309.6Z" fill="#1D1D1B"/>
<path d="M536.9 238.7H486.3V243.2H536.9V238.7Z" fill="#1D1D1B"/>
<path d="M558.2 206H487.4V210.5H558.2V206Z" fill="#1D1D1B"/>
<path d="M533.4 206.2V243.2H537.9V206.2H533.4Z" fill="#1D1D1B"/>
<path d="M561.7 277.6V263H557.2V277.6H561.7Z" fill="#1D1D1B"/>
<path d="M561.601 239.8V105.2H557.101V239.8H561.601Z" fill="#1D1D1B"/>
<path d="M631.901 238.7H557.101V243.2H631.901V238.7Z" fill="#1D1D1B"/>
<path d="M631.201 273.7H557.101V278.2H631.201V273.7Z" fill="#1D1D1B"/>
<path d="M634.601 318.2H559.301V322.7H634.601V318.2Z" fill="#1D1D1B"/>
<path d="M631.801 195.1H561.601V199.6H631.801V195.1Z" fill="#1D1D1B"/>
<path d="M543.7 273.7H434.2V278.2H543.7V273.7Z" fill="#1D1D1B"/>
<path d="M561.5 249.3V235.6H557V249.3H561.5Z" fill="#1D1D1B"/>
<path d="M636.801 268.9V100H631.201V268.9H636.801Z" fill="#1D1D1B"/>
<path d="M561.601 415.8V276H557.101V415.8H561.601Z" fill="#1D1D1B"/>
<path d="M557.7 310.7H487.4V315.2H557.7V310.7Z" fill="#1D1D1B"/>
<path d="M434.601 327.8H357.301V333.4H434.601V327.8Z" fill="#1D1D1B"/>
<path d="M484.2 238.7H393.7V243.2H484.2V238.7Z" fill="#1D1D1B"/>
<path d="M543.7 310.8V278.3H539.2V310.8H543.7Z" fill="#1D1D1B"/>
<path d="M434.801 333.5V263H429.201V333.5H434.801Z" fill="#1D1D1B"/>
<path d="M434.601 243.2V191H429.001V243.2H434.601Z" fill="#1D1D1B"/>
<path d="M399.301 243.2V191H393.701V243.2H399.301Z" fill="#1D1D1B"/>
<path d="M431.801 191H357.301V196.6H431.801V191Z" fill="#1D1D1B"/>
<path d="M487.4 415.9V274.8H481.8V415.9H487.4Z" fill="#1D1D1B"/>
<path d="M363 359.9V262.9H357.4V359.9H363Z" fill="#1D1D1B"/>
<path d="M362.9 361.7V223.4H357.3V361.7H362.9Z" fill="#1D1D1B"/>
<path d="M362.9 203.2V163.7H357.3V203.2H362.9Z" fill="#1D1D1B"/>
<path d="M360.101 163.7H278.801V169.3H360.101V163.7Z" fill="#1D1D1B"/>
<path d="M359.501 198.7H278.801V203.2H359.501V198.7Z" fill="#1D1D1B"/>
<path d="M246.401 238.7H151.301V243.2H246.401V238.7Z" fill="#1D1D1B"/>
<path d="M284.701 262.9H205.601V267.6H284.701V262.9Z" fill="#1D1D1B"/>
<path d="M434.801 262.8H357.301V267.5H434.801V262.8Z" fill="#1D1D1B"/>
<path d="M284.4 203.3V167.4H278.8V203.3H284.4Z" fill="#1D1D1B"/>
<path d="M284.601 361.7V223.4H279.001V361.7H284.601Z" fill="#1D1D1B"/>
<path d="M358.1 223.4H284.5V227.9H358.1V223.4Z" fill="#1D1D1B"/>
<path d="M349.5 356.1H284.7V361.7H349.5V356.1Z" fill="#1D1D1B"/>
<path d="M279.8 327.8H210.4V333.4H279.8V327.8Z" fill="#1D1D1B"/>
<path d="M357.3 356.1H345.7V361.7H357.3V356.1Z" fill="#1D1D1B"/>
<path d="M211.2 333.4V263.1H205.6V333.4H211.2Z" fill="#1D1D1B"/>
<path d="M211.2 243.2V191.4H205.6V243.2H211.2Z" fill="#1D1D1B"/>
<path d="M246.4 242.6V191.4H240.8V242.6H246.4Z" fill="#1D1D1B"/>
<path d="M284.401 191H205.601V196.6H284.401V191Z" fill="#1D1D1B"/>
<path d="M157 243.3V208.7H151.4V243.3H157Z" fill="#1D1D1B"/>
<path d="M156.9 315V273.9H151.3V315H156.9Z" fill="#1D1D1B"/>
<path d="M205.801 312.2H151.301V317.8H205.801V312.2Z" fill="#1D1D1B"/>
<path d="M206.201 205.5H151.301V211.1H206.201V205.5Z" fill="#1D1D1B"/>
<path d="M616.7 255.9H616.4C616.4 255.8 616.4 255.6 616.4 255.5L616 254.1C616 254.1 616 254 616 253.9V252C616 252 616.1 252 616.2 252C616.5 252 616.8 251.7 616.8 251.4V250C616.8 249.8 616.8 249.6 616.6 249.5L615.7 248.8C615.5 248.7 615.3 248.6 615.1 248.5C615.3 248.3 615.4 248 615.4 247.7C615.4 247.1 614.9 246.7 614.4 246.7C613.9 246.7 613.4 247.2 613.4 247.7C613.4 248.2 613.7 248.5 614.1 248.6C614 248.6 613.8 248.8 613.7 248.9L613.1 249.6H612.6C612.3 249.6 612 249.9 612 250.2C612 250.5 612.3 250.8 612.6 250.8H613.4H613.6C613.6 250.7 613.6 251.5 613.6 251.5L613 251.8C612.8 251.8 612.6 252.1 612.6 252.4V254C612.6 254 612.6 254.1 612.6 254.2H612.2V252.8C612.2 252.7 612.2 252.6 612 252.6H610V251.2C610 251.1 610 251 609.8 251H607.4C607.3 251 607.2 251 607.2 251.2C607.2 251.4 607.2 251.4 607.4 251.4H609.6V252.8C609.6 252.9 609.6 253 609.8 253H611.8V254.4C611.8 254.5 611.8 254.6 612 254.6H614V256C614 256.1 614 256.2 614.2 256.2H616.6C616.7 256.2 616.8 256.2 616.8 256C616.8 255.8 616.8 255.8 616.6 255.8L616.7 255.9ZM616 255.7C616 255.7 616 255.8 616 255.9C616 256 616 255.9 615.9 256C615.8 256 615.7 256 615.6 255.9L615.1 254.5C615.1 254.5 615.1 254.4 615.1 254.3V252.7C615.2 252.7 615.4 252.6 615.5 252.4V254C615.5 254.1 615.5 254.2 615.5 254.3L615.9 255.7H616ZM613.6 247.8C613.6 247.5 613.9 247.2 614.2 247.2C614.5 247.2 614.8 247.5 614.8 247.8C614.8 248.1 614.5 248.4 614.2 248.4C613.9 248.4 613.6 248.1 613.6 247.8ZM613.2 250.7H612.4C612.3 250.7 612.2 250.7 612.2 250.5C612.2 250.3 612.2 250.3 612.4 250.3H613C613 250.3 613.1 250.3 613.2 250.3L613.5 249.9V250.6L613.2 250.8V250.7ZM613 254.1V252.5C613 252.5 613 252.3 613.1 252.3L613.9 252C613.9 252 614 251.9 614 251.8L613.8 249.3C613.9 249.1 614.1 249 614.3 249C614.6 249 614.9 249 615.2 249.2L616.1 249.9C616.1 249.9 616.1 249.9 616.1 250.1V251.5C616.1 251.6 616.1 251.7 615.9 251.7H615.8C615.8 251.7 615.8 251.7 615.8 251.6V250.3C615.8 250.3 615.8 250.2 615.8 250.1L615.3 249.6C615.3 249.6 615.1 249.6 615 249.6C615 249.6 615 249.8 615 249.9L615.5 250.3V251.5C615.4 252.1 615.1 252.2 614.8 252.3L613.6 252.7C613.6 252.7 613.5 252.8 613.5 252.9V254.1C613.5 254.2 613.5 254.3 613.3 254.3C613.1 254.3 613.1 254.3 613.1 254.1H613ZM614.4 254.5C614.4 254.4 614.4 254.3 614.2 254.3H613.8C613.8 254.3 613.8 254.2 613.8 254.1V253L614.6 252.7V254.1C614.6 254.2 614.6 254.3 614.6 254.4L615.1 255.8H614.4V254.4V254.5Z" fill="black"/>
<path d="M570.801 269.9C570.801 270 570.801 270.1 571.001 270.1H573.401C573.501 270.1 573.601 270.1 573.601 269.9V268.5H575.601C575.701 268.5 575.801 268.5 575.801 268.3V266.9H577.801C577.901 266.9 578.001 266.9 578.001 266.7V265.3H580.201C580.301 265.3 580.401 265.3 580.401 265.1C580.401 264.9 580.401 264.9 580.201 264.9H577.801C577.701 264.9 577.601 264.9 577.601 265.1V266.5H575.601C575.501 266.5 575.401 266.5 575.401 266.7V268.1H575.001C575.001 268.1 575.001 268 575.001 267.9V266.3C575.001 266.1 574.901 265.8 574.601 265.7L574.001 265.4V264.6L574.301 264.7H575.101C575.401 264.7 575.701 264.4 575.701 264.1C575.701 263.8 575.401 263.5 575.101 263.5H574.601L574.001 262.8C573.901 262.7 573.801 262.6 573.601 262.5C574.001 262.4 574.301 262 574.301 261.6C574.301 261 573.801 260.6 573.301 260.6C572.801 260.6 572.301 261.1 572.301 261.6C572.301 262.1 572.401 262.2 572.601 262.4C572.401 262.4 572.201 262.5 572.001 262.7L571.101 263.4C570.901 263.5 570.901 263.7 570.901 263.9V265.3C570.901 265.6 571.201 265.9 571.501 265.9C571.801 265.9 571.601 265.9 571.701 265.9V267.8C571.701 267.8 571.701 267.9 571.701 268L571.301 269.4C571.301 269.5 571.301 269.7 571.301 269.8H571.001C570.901 269.8 570.801 269.8 570.801 270V269.9ZM572.101 268.1C572.101 268 572.101 267.9 572.101 267.8V266.2C572.201 266.3 572.401 266.4 572.501 266.5V268.1C572.501 268.1 572.501 268.2 572.501 268.3L572.001 269.7C572.001 269.8 571.801 269.9 571.701 269.8C571.701 269.8 571.701 269.8 571.601 269.7C571.501 269.6 571.601 269.6 571.601 269.5L572.001 268.1H572.101ZM573.401 262.2C573.101 262.2 572.801 261.9 572.801 261.6C572.801 261.3 573.101 261 573.401 261C573.701 261 574.001 261.3 574.001 261.6C574.001 261.9 573.701 262.2 573.401 262.2ZM574.101 264.3V263.6L574.401 264C574.401 264 574.401 264 574.601 264H575.201C575.301 264 575.401 264 575.401 264.2C575.401 264.4 575.401 264.4 575.201 264.4H574.401L574.101 264.2V264.3ZM574.401 268.1C574.301 268.1 574.201 268.1 574.201 267.9V266.7C574.201 266.7 574.201 266.5 574.101 266.5L572.901 266.1C572.601 266.1 572.401 265.8 572.201 265.3V264.1L572.701 263.7C572.701 263.7 572.701 263.5 572.701 263.4C572.701 263.4 572.501 263.4 572.401 263.4L571.901 263.9C571.901 263.9 571.901 263.9 571.901 264.1V265.4V265.5C571.901 265.5 571.901 265.5 571.801 265.5C571.701 265.5 571.601 265.5 571.601 265.3V263.9C571.601 263.9 571.601 263.8 571.601 263.7L572.501 263C572.701 262.8 573.101 262.7 573.401 262.8C573.601 262.8 573.801 263 573.901 263.1L573.701 265.6C573.701 265.6 573.701 265.8 573.801 265.8L574.601 266.1C574.601 266.1 574.701 266.2 574.701 266.3V267.9C574.701 268 574.701 268.1 574.501 268.1H574.401ZM573.201 269.7H572.501L573.001 268.3C573.001 268.2 573.001 268.1 573.001 268V266.6L573.801 266.9V268C573.801 268 573.801 268.1 573.801 268.2H573.401C573.301 268.2 573.201 268.2 573.201 268.4V269.8V269.7Z" fill="black"/>
<path d="M604.5 274.8V243.3H603.7V274.8H604.5Z" fill="#1D1D1B"/>
<path d="M583.4 259.4H604.5V258.6H583.4V259.4Z" fill="#1D1D1B"/>
<path d="M601 274.7V243.2H600.2V274.7H601Z" fill="#1D1D1B"/>
<path d="M597.5 274.7V243.2H596.7V274.7H597.5Z" fill="#1D1D1B"/>
<path d="M594 274.7V243.2H593.2V274.7H594Z" fill="#1D1D1B"/>
<path d="M590.4 274.7V243.2H589.6V274.7H590.4Z" fill="#1D1D1B"/>
<path d="M586.9 274.7V243.2H586.1V274.7H586.9Z" fill="#1D1D1B"/>
<path d="M583.4 274.8V243.3H582.6V274.8H583.4Z" fill="#1D1D1B"/>
<path d="M172.7 227.8V226.6C173.3 227.1 174.1 227.3 175 227.3C175.9 227.3 176 227.2 176.4 226.9C176.8 226.6 177 226.2 177 225.7C177 224.8 176.3 224.2 175.2 224.2C174.1 224.2 174.5 224.2 174.2 224.4V223.5L176.3 221.4H173.1V220.3H178V221.2L176 223.2C176.6 223.2 177.2 223.5 177.7 224C178.2 224.4 178.4 225 178.4 225.7C178.4 226.4 178.1 227.2 177.5 227.7C176.9 228.2 176.2 228.5 175.3 228.5C174.4 228.5 173.6 228.3 172.9 227.9L172.7 227.8Z" fill="white"/>
<path d="M180.801 228.3V221.7L179.101 222.6V221.4L181.001 220.3H182.101V228.3H180.901H180.801Z" fill="white"/>
<path d="M184.6 227.4C184.1 226.7 183.8 225.8 183.8 224.7C183.8 223.6 184.1 222.3 184.7 221.5C185.3 220.6 186.2 220.2 187.3 220.2C188.4 220.2 188.6 220.4 189.1 220.7V221.8C188.6 221.5 188.1 221.3 187.5 221.3C186.9 221.3 186.1 221.6 185.7 222.1C185.3 222.6 185.1 223.3 185.1 224C185.6 223.4 186.2 223.1 187.2 223.1C188.2 223.1 188.5 223.3 189 223.8C189.5 224.3 189.7 224.9 189.7 225.6C189.7 226.3 189.4 227.1 188.9 227.6C188.4 228.1 187.7 228.4 186.9 228.4C186.1 228.4 185.2 228.1 184.6 227.4ZM188 226.9C188.3 226.6 188.5 226.2 188.5 225.7C188.5 225.2 188.3 224.9 188 224.6C187.7 224.3 187.3 224.2 186.8 224.2C186.3 224.2 186 224.3 185.7 224.6C185.4 224.8 185.1 225.1 185 225.5C185 226.7 185.7 227.4 186.8 227.4C187.9 227.4 187.7 227.3 188 226.9Z" fill="white"/>
<path d="M172.7 298.8V297.6C173.3 298.1 174.1 298.3 175 298.3C175.9 298.3 176 298.2 176.4 297.9C176.8 297.6 177 297.2 177 296.7C177 295.8 176.3 295.2 175.2 295.2C174.1 295.2 174.5 295.2 174.2 295.4V294.5L176.3 292.4H173.1V291.3H178V292.2L176 294.2C176.6 294.2 177.2 294.5 177.7 295C178.2 295.4 178.4 296 178.4 296.7C178.4 297.4 178.1 298.2 177.5 298.7C176.9 299.2 176.2 299.5 175.3 299.5C174.4 299.5 173.6 299.3 172.9 298.9L172.7 298.8Z" fill="white"/>
<path d="M180.801 299.3V292.7L179.101 293.6V292.4L181.001 291.3H182.101V299.3H180.901H180.801Z" fill="white"/>
<path d="M184.201 299.3L187.601 292.5H183.601V291.4H189.001V292.4L185.501 299.4H184.201V299.3Z" fill="white"/>
<path d="M234.601 298.8V297.6C235.201 298.1 236.001 298.3 236.901 298.3C237.801 298.3 237.901 298.2 238.301 297.9C238.701 297.6 238.901 297.2 238.901 296.7C238.901 295.8 238.201 295.2 237.101 295.2C236.001 295.2 236.401 295.2 236.101 295.4V294.5L238.201 292.4H235.001V291.3H239.901V292.2L237.901 294.2C238.501 294.2 239.101 294.5 239.601 295C240.101 295.4 240.301 296 240.301 296.7C240.301 297.4 240.001 298.2 239.401 298.7C238.801 299.2 238.101 299.5 237.201 299.5C236.301 299.5 235.501 299.3 234.801 298.9L234.601 298.8Z" fill="white"/>
<path d="M242.701 299.3V292.7L241.001 293.6V292.4L242.901 291.3H244.001V299.3H242.801H242.701Z" fill="white"/>
<path d="M245.601 298.9V297.7C246.201 298.1 247.001 298.3 247.801 298.3C248.601 298.3 248.901 298.2 249.201 297.9C249.601 297.6 249.801 297.2 249.801 296.7C249.801 295.8 249.001 295.1 247.801 295.1C246.601 295.1 246.501 295.2 245.901 295.4L246.401 291.2H250.501V292.3H247.301L247.101 294.1C247.401 294.1 247.701 294 248.101 294C249.001 294 249.701 294.2 250.201 294.7C250.801 295.2 251.001 295.8 251.001 296.6C251.001 297.4 250.701 298.1 250.101 298.6C249.501 299.1 248.701 299.3 247.801 299.3C246.901 299.3 246.201 299.1 245.601 298.8V298.9Z" fill="white"/>
<path d="M217.9 224.2V223C218.5 223.5 219.3 223.7 220.2 223.7C221.1 223.7 221.2 223.6 221.6 223.3C222 223 222.2 222.6 222.2 222.1C222.2 221.2 221.5 220.6 220.4 220.6C219.3 220.6 219.7 220.6 219.4 220.8V219.9L221.5 217.8H218.3V216.7H223.2V217.6L221.2 219.6C221.8 219.6 222.4 219.9 222.9 220.4C223.4 220.8 223.6 221.4 223.6 222.1C223.6 222.8 223.3 223.6 222.7 224.1C222.1 224.6 221.4 224.9 220.5 224.9C219.6 224.9 218.8 224.7 218.1 224.3L217.9 224.2Z" fill="white"/>
<path d="M226.001 224.7V218.1L224.301 219V217.8L226.201 216.7H227.301V224.7H226.101H226.001Z" fill="white"/>
<path d="M232.8 224.7V222.6H228.7V221.6L232.8 216.7H234V221.5H235.2V222.6H234V224.7H232.8ZM230.1 221.5H232.8V218.3L230.1 221.5Z" fill="white"/>
<path d="M311.5 298.8V297.6C312.1 298.1 312.9 298.3 313.8 298.3C314.7 298.3 314.8 298.2 315.2 297.9C315.6 297.6 315.8 297.2 315.8 296.7C315.8 295.8 315.1 295.2 314 295.2C312.9 295.2 313.3 295.2 313 295.4V294.5L315.1 292.4H311.9V291.3H316.8V292.2L314.8 294.2C315.4 294.2 316 294.5 316.5 295C317 295.4 317.2 296 317.2 296.7C317.2 297.4 316.9 298.2 316.3 298.7C315.7 299.2 315 299.5 314.1 299.5C313.2 299.5 312.4 299.3 311.7 298.9L311.5 298.8Z" fill="white"/>
<path d="M319.6 299.3V292.7L317.9 293.6V292.4L319.8 291.3H320.9V299.3H319.7H319.6Z" fill="white"/>
<path d="M322.4 298.8V297.6C323 298.1 323.8 298.3 324.7 298.3C325.6 298.3 325.7 298.2 326.1 297.9C326.5 297.6 326.7 297.2 326.7 296.7C326.7 295.8 326 295.2 324.9 295.2C323.8 295.2 324.2 295.2 323.9 295.4V294.5L326 292.4H322.8V291.3H327.7V292.2L325.7 294.2C326.3 294.2 326.9 294.5 327.4 295C327.9 295.4 328.1 296 328.1 296.7C328.1 297.4 327.8 298.2 327.2 298.7C326.6 299.2 325.9 299.5 325 299.5C324.1 299.5 323.3 299.3 322.6 298.9L322.4 298.8Z" fill="white"/>
<path d="M311.9 188.3V187.1C312.5 187.6 313.3 187.8 314.2 187.8C315.1 187.8 315.2 187.7 315.6 187.4C316 187.1 316.2 186.7 316.2 186.2C316.2 185.3 315.5 184.7 314.4 184.7C313.3 184.7 313.7 184.7 313.4 184.9V184L315.5 181.9H312.3V180.8H317.2V181.7L315.2 183.7C315.8 183.7 316.4 184 316.9 184.5C317.4 184.9 317.6 185.5 317.6 186.2C317.6 186.9 317.3 187.7 316.7 188.2C316.1 188.7 315.4 189 314.5 189C313.6 189 312.8 188.8 312.1 188.4L311.9 188.3Z" fill="white"/>
<path d="M320.1 188.7V182.1L318.4 183V181.8L320.3 180.7H321.4V188.7H320.2H320.1Z" fill="white"/>
<path d="M322.801 188.7V187.8L325.301 185.5C325.901 185 326.201 184.6 326.501 184.2C326.701 183.9 326.801 183.5 326.801 183.1C326.801 182.3 326.201 181.8 325.201 181.8C324.201 181.8 323.701 182.1 323.001 182.8V181.5C323.701 180.9 324.401 180.7 325.401 180.7C326.401 180.7 326.801 180.9 327.301 181.3C327.801 181.7 328.101 182.3 328.101 183C328.101 183.7 328.001 184 327.701 184.5C327.401 184.9 327.001 185.4 326.401 186L324.701 187.6H328.401V188.7H322.901H322.801Z" fill="white"/>
<path d="M404.301 224.2V223C404.901 223.5 405.701 223.7 406.601 223.7C407.501 223.7 407.601 223.6 408.001 223.3C408.401 223 408.601 222.6 408.601 222.1C408.601 221.2 407.901 220.6 406.801 220.6C405.701 220.6 406.101 220.6 405.801 220.8V219.9L407.901 217.8H404.701V216.7H409.601V217.6L407.601 219.6C408.201 219.6 408.801 219.9 409.301 220.4C409.801 220.8 410.001 221.4 410.001 222.1C410.001 222.8 409.701 223.6 409.101 224.1C408.501 224.6 407.801 224.9 406.901 224.9C406.001 224.9 405.201 224.7 404.501 224.3L404.301 224.2Z" fill="white"/>
<path d="M412.401 224.7V218.1L410.701 219V217.8L412.601 216.7H413.701V224.7H412.501H412.401Z" fill="white"/>
<path d="M416.3 223.6C415.7 222.8 415.4 221.8 415.4 220.7C415.4 219.6 415.7 218.6 416.3 217.8C416.9 217 417.7 216.6 418.7 216.6C419.7 216.6 420.5 217 421.1 217.8C421.7 218.6 422 219.6 422 220.7C422 221.8 421.7 222.8 421.1 223.6C420.5 224.4 419.7 224.8 418.7 224.8C417.7 224.8 416.9 224.4 416.3 223.6ZM420.3 222.8C420.7 222.2 420.9 221.5 420.9 220.7C420.9 219.9 420.7 219.2 420.3 218.6C419.9 218 419.4 217.7 418.8 217.7C418.2 217.7 417.7 218 417.3 218.6C416.9 219.2 416.7 219.9 416.7 220.7C416.7 221.5 416.9 222.2 417.3 222.8C417.7 223.4 418.2 223.7 418.8 223.7C419.4 223.7 419.9 223.4 420.3 222.8Z" fill="white"/>
<path d="M448.7 298.8V297.6C449.3 298.1 450.1 298.3 451 298.3C451.9 298.3 452 298.2 452.4 297.9C452.8 297.6 453 297.2 453 296.7C453 295.8 452.3 295.2 451.2 295.2C450.1 295.2 450.5 295.2 450.2 295.4V294.5L452.3 292.4H449.1V291.3H454V292.2L452 294.2C452.6 294.2 453.2 294.5 453.7 295C454.2 295.5 454.4 296 454.4 296.7C454.4 297.4 454.1 298.2 453.5 298.7C452.9 299.2 452.2 299.5 451.3 299.5C450.4 299.5 449.6 299.3 448.9 298.9L448.7 298.8Z" fill="white"/>
<path d="M456.4 298.2C455.8 297.4 455.5 296.4 455.5 295.3C455.5 294.2 455.8 293.2 456.4 292.4C457 291.6 457.8 291.2 458.8 291.2C459.8 291.2 460.6 291.6 461.2 292.4C461.8 293.2 462.1 294.2 462.1 295.3C462.1 296.4 461.8 297.4 461.2 298.2C460.6 299 459.8 299.4 458.8 299.4C457.8 299.4 457 299 456.4 298.2ZM460.3 297.4C460.7 296.8 460.9 296.1 460.9 295.3C460.9 294.5 460.7 293.8 460.3 293.2C459.9 292.6 459.4 292.3 458.8 292.3C458.2 292.3 457.7 292.6 457.3 293.2C456.9 293.8 456.7 294.5 456.7 295.3C456.7 296.1 456.9 296.8 457.3 297.4C457.7 298 458.2 298.3 458.8 298.3C459.4 298.3 459.9 298 460.3 297.4Z" fill="white"/>
<path d="M468.601 292.2C469.201 292.9 469.401 293.8 469.401 294.9C469.401 296 469.101 297.3 468.501 298.1C467.901 299 467.001 299.4 465.901 299.4C464.801 299.4 464.601 299.2 464.101 298.9V297.8C464.601 298.1 465.101 298.3 465.701 298.3C466.301 298.3 467.101 298 467.501 297.5C467.901 297 468.101 296.3 468.201 295.6C467.701 296.2 467.101 296.5 466.101 296.5C465.101 296.5 464.801 296.3 464.301 295.8C463.801 295.3 463.601 294.7 463.601 294C463.601 293.3 463.901 292.5 464.401 292C464.901 291.5 465.601 291.2 466.401 291.2C467.201 291.2 468.101 291.5 468.701 292.2H468.601ZM465.201 292.7C464.901 293 464.701 293.4 464.701 293.9C464.701 294.4 464.901 294.7 465.201 295C465.501 295.3 465.901 295.4 466.401 295.4C466.901 295.4 467.201 295.3 467.501 295C467.801 294.8 468.101 294.5 468.201 294.1C468.201 292.9 467.501 292.2 466.401 292.2C465.301 292.2 465.501 292.4 465.201 292.7Z" fill="white"/>
<path d="M387.7 299V297.8C388.3 298.3 389.1 298.5 390 298.5C390.9 298.5 391 298.4 391.4 298.1C391.8 297.8 392 297.4 392 296.9C392 296 391.3 295.4 390.2 295.4C389.1 295.4 389.5 295.4 389.2 295.6V294.7L391.3 292.6H388.1V291.5H393V292.4L391 294.4C391.6 294.4 392.2 294.7 392.7 295.2C393.2 295.6 393.4 296.2 393.4 296.9C393.4 297.6 393.1 298.4 392.5 298.9C391.9 299.4 391.2 299.7 390.3 299.7C389.4 299.7 388.6 299.5 387.9 299.1L387.7 299Z" fill="white"/>
<path d="M395.801 299.4V292.8L394.101 293.7V292.5L396.001 291.4H397.101V299.4H395.901H395.801Z" fill="white"/>
<path d="M400.1 299.4V292.8L398.4 293.7V292.5L400.3 291.4H401.4V299.4H400.2H400.1Z" fill="white"/>
<path d="M448.101 226.6V225.4C448.701 225.9 449.501 226.1 450.401 226.1C451.301 226.1 451.401 226 451.801 225.7C452.201 225.4 452.401 225 452.401 224.5C452.401 223.6 451.701 223 450.601 223C449.501 223 449.901 223 449.601 223.2V222.3L451.701 220.2H448.501V219.1H453.401V220L451.401 222C452.001 222 452.601 222.3 453.101 222.8C453.601 223.2 453.801 223.8 453.801 224.5C453.801 225.2 453.501 226 452.901 226.5C452.301 227 451.601 227.3 450.701 227.3C449.801 227.3 449.001 227.1 448.301 226.7L448.101 226.6Z" fill="white"/>
<path d="M455.8 226.1C455.2 225.3 454.9 224.3 454.9 223.2C454.9 222.1 455.2 221.1 455.8 220.3C456.4 219.5 457.2 219.1 458.2 219.1C459.2 219.1 460 219.5 460.6 220.3C461.2 221.1 461.5 222.1 461.5 223.2C461.5 224.3 461.2 225.3 460.6 226.1C460 226.9 459.2 227.3 458.2 227.3C457.2 227.3 456.4 226.9 455.8 226.1ZM459.8 225.2C460.2 224.6 460.4 223.9 460.4 223.1C460.4 222.3 460.2 221.6 459.8 221C459.4 220.4 458.9 220.1 458.3 220.1C457.7 220.1 457.2 220.4 456.8 221C456.4 221.6 456.2 222.3 456.2 223.1C456.2 223.9 456.4 224.6 456.8 225.2C457.2 225.8 457.7 226.1 458.3 226.1C458.9 226.1 459.4 225.8 459.8 225.2Z" fill="white"/>
<path d="M469.001 224.9C469.001 225.6 468.701 226.2 468.101 226.6C467.501 227 466.801 227.2 465.901 227.2C465.001 227.2 464.301 227 463.701 226.6C463.101 226.2 462.801 225.6 462.801 224.9C462.801 224.2 463.401 223.2 464.401 222.9C463.701 222.6 463.201 222 463.201 221.2C463.201 220.4 463.501 220.1 464.001 219.7C464.501 219.3 465.201 219.1 466.001 219.1C466.801 219.1 467.401 219.3 467.901 219.7C468.401 220.1 468.701 220.6 468.701 221.2C468.701 221.8 468.201 222.6 467.501 222.9C468.501 223.2 469.101 224 469.101 224.9H469.001ZM467.201 223.8C466.901 223.5 466.401 223.4 465.901 223.4C465.401 223.4 464.901 223.5 464.601 223.8C464.201 224.1 464.101 224.4 464.101 224.8C464.101 225.2 464.301 225.5 464.601 225.8C465.001 226.1 465.401 226.2 465.901 226.2C466.401 226.2 466.801 226.1 467.201 225.8C467.601 225.5 467.701 225.2 467.701 224.8C467.701 224.4 467.501 224.1 467.201 223.8ZM467.501 221.2C467.501 220.5 466.801 220 466.001 220C465.201 220 464.501 220.5 464.501 221.2C464.501 221.9 465.201 222.4 466.001 222.4C466.801 222.4 467.501 221.9 467.501 221.2Z" fill="white"/>
<path d="M512.9 140.9V139.7C513.5 140.2 514.3 140.4 515.2 140.4C516.1 140.4 516.2 140.3 516.6 140C517 139.7 517.2 139.3 517.2 138.8C517.2 137.9 516.5 137.3 515.4 137.3C514.3 137.3 514.7 137.3 514.4 137.5V136.6L516.5 134.5H513.3V133.4H518.2V134.3L516.2 136.3C516.8 136.3 517.4 136.6 517.9 137.1C518.4 137.6 518.6 138.1 518.6 138.8C518.6 139.5 518.3 140.3 517.7 140.8C517.1 141.3 516.4 141.6 515.5 141.6C514.6 141.6 513.8 141.4 513.1 141L512.9 140.9Z" fill="white"/>
<path d="M520.6 140.3C520 139.5 519.7 138.5 519.7 137.4C519.7 136.3 520 135.3 520.6 134.5C521.2 133.7 522 133.3 523 133.3C524 133.3 524.8 133.7 525.4 134.5C526 135.3 526.3 136.3 526.3 137.4C526.3 138.5 526 139.5 525.4 140.3C524.8 141.1 524 141.5 523 141.5C522 141.5 521.2 141.1 520.6 140.3ZM524.6 139.4C525 138.8 525.2 138.1 525.2 137.3C525.2 136.5 525 135.8 524.6 135.2C524.2 134.6 523.7 134.3 523.1 134.3C522.5 134.3 522 134.6 521.6 135.2C521.2 135.8 521 136.5 521 137.3C521 138.1 521.2 138.8 521.6 139.4C522 140 522.5 140.3 523.1 140.3C523.7 140.3 524.2 140 524.6 139.4Z" fill="white"/>
<path d="M531.5 141.3V139.2H527.4V138.2L531.5 133.3H532.7V138.1H533.9V139.2H532.7V141.3H531.5ZM528.8 138.2H531.5V135L528.8 138.2Z" fill="white"/>
<path d="M585 140.9V139.7C585.6 140.2 586.4 140.4 587.3 140.4C588.2 140.4 588.3 140.3 588.7 140C589.1 139.7 589.3 139.3 589.3 138.8C589.3 137.9 588.6 137.3 587.5 137.3C586.4 137.3 586.8 137.3 586.5 137.5V136.6L588.6 134.5H585.4V133.4H590.3V134.3L588.3 136.3C588.9 136.3 589.5 136.6 590 137.1C590.5 137.5 590.7 138.1 590.7 138.8C590.7 139.5 590.4 140.3 589.8 140.8C589.2 141.3 588.5 141.6 587.6 141.6C586.7 141.6 585.9 141.4 585.2 141L585 140.9Z" fill="white"/>
<path d="M592.7 140.3C592.1 139.5 591.8 138.5 591.8 137.4C591.8 136.3 592.1 135.3 592.7 134.5C593.3 133.7 594.1 133.3 595.1 133.3C596.1 133.3 596.9 133.7 597.5 134.5C598.1 135.3 598.4 136.3 598.4 137.4C598.4 138.5 598.1 139.5 597.5 140.3C596.9 141.1 596.1 141.5 595.1 141.5C594.1 141.5 593.3 141.1 592.7 140.3ZM596.6 139.4C597 138.8 597.2 138.1 597.2 137.3C597.2 136.5 597 135.8 596.6 135.2C596.2 134.6 595.7 134.3 595.1 134.3C594.5 134.3 594 134.6 593.6 135.2C593.2 135.8 593 136.5 593 137.3C593 138.1 593.2 138.8 593.6 139.4C594 140 594.5 140.3 595.1 140.3C595.7 140.3 596.2 140 596.6 139.4Z" fill="white"/>
<path d="M599.6 141.3V140.4L602.1 138.1C602.7 137.6 603 137.2 603.3 136.8C603.5 136.5 603.6 136.1 603.6 135.7C603.6 134.9 603 134.4 602 134.4C601 134.4 600.5 134.7 599.8 135.4V134.1C600.5 133.5 601.2 133.3 602.2 133.3C603.2 133.3 603.6 133.5 604.1 133.9C604.6 134.3 604.9 134.9 604.9 135.6C604.9 136.3 604.8 136.6 604.5 137.1C604.2 137.5 603.8 138 603.2 138.6L601.5 140.2H605.2V141.3H599.7H599.6Z" fill="white"/>
<path d="M585 225.3V224.1C585.6 224.6 586.4 224.8 587.3 224.8C588.2 224.8 588.3 224.7 588.7 224.4C589.1 224.1 589.3 223.7 589.3 223.2C589.3 222.3 588.6 221.7 587.5 221.7C586.4 221.7 586.8 221.7 586.5 221.9V221L588.6 218.9H585.4V217.8H590.3V218.7L588.3 220.7C588.9 220.7 589.5 221 590 221.5C590.5 222 590.7 222.5 590.7 223.2C590.7 223.9 590.4 224.7 589.8 225.2C589.2 225.7 588.5 226 587.6 226C586.7 226 585.9 225.8 585.2 225.4L585 225.3Z" fill="white"/>
<path d="M592.7 224.7C592.1 223.9 591.8 222.9 591.8 221.8C591.8 220.7 592.1 219.7 592.7 218.9C593.3 218.1 594.1 217.7 595.1 217.7C596.1 217.7 596.9 218.1 597.5 218.9C598.1 219.7 598.4 220.7 598.4 221.8C598.4 222.9 598.1 223.9 597.5 224.7C596.9 225.5 596.1 225.9 595.1 225.9C594.1 225.9 593.3 225.5 592.7 224.7ZM596.6 223.9C597 223.3 597.2 222.6 597.2 221.8C597.2 221 597 220.3 596.6 219.7C596.2 219.1 595.7 218.8 595.1 218.8C594.5 218.8 594 219.1 593.6 219.7C593.2 220.3 593 221 593 221.8C593 222.6 593.2 223.3 593.6 223.9C594 224.5 594.5 224.8 595.1 224.8C595.7 224.8 596.2 224.5 596.6 223.9Z" fill="white"/>
<path d="M600.7 224.7C600.1 223.9 599.8 222.9 599.8 221.8C599.8 220.7 600.1 219.7 600.7 218.9C601.3 218.1 602.1 217.7 603.1 217.7C604.1 217.7 604.9 218.1 605.5 218.9C606.1 219.7 606.4 220.7 606.4 221.8C606.4 222.9 606.1 223.9 605.5 224.7C604.9 225.5 604.1 225.9 603.1 225.9C602.1 225.9 601.3 225.5 600.7 224.7ZM604.7 223.9C605.1 223.3 605.3 222.6 605.3 221.8C605.3 221 605.1 220.3 604.7 219.7C604.3 219.1 603.8 218.8 603.2 218.8C602.6 218.8 602.1 219.1 601.7 219.7C601.3 220.3 601.1 221 601.1 221.8C601.1 222.6 601.3 223.3 601.7 223.9C602.1 224.5 602.6 224.8 603.2 224.8C603.8 224.8 604.3 224.5 604.7 223.9Z" fill="white"/>
<path d="M585 298.7V297.5C585.6 298 586.4 298.2 587.3 298.2C588.2 298.2 588.3 298.1 588.7 297.8C589.1 297.5 589.3 297.1 589.3 296.6C589.3 295.7 588.6 295.1 587.5 295.1C586.4 295.1 586.8 295.1 586.5 295.3V294.4L588.6 292.3H585.4V291.2H590.3V292.1L588.3 294.1C588.9 294.1 589.5 294.4 590 294.9C590.5 295.4 590.7 295.9 590.7 296.6C590.7 297.3 590.4 298.1 589.8 298.6C589.2 299.1 588.5 299.4 587.6 299.4C586.7 299.4 585.9 299.2 585.2 298.8L585 298.7Z" fill="white"/>
<path d="M592.7 298.1C592.1 297.3 591.8 296.3 591.8 295.2C591.8 294.1 592.1 293.1 592.7 292.3C593.3 291.5 594.1 291.1 595.1 291.1C596.1 291.1 596.9 291.5 597.5 292.3C598.1 293.1 598.4 294.1 598.4 295.2C598.4 296.3 598.1 297.3 597.5 298.1C596.9 298.9 596.1 299.3 595.1 299.3C594.1 299.3 593.3 298.9 592.7 298.1ZM596.6 297.3C597 296.7 597.2 296 597.2 295.2C597.2 294.4 597 293.7 596.6 293.1C596.2 292.5 595.7 292.2 595.1 292.2C594.5 292.2 594 292.5 593.6 293.1C593.2 293.7 593 294.4 593 295.2C593 296 593.2 296.7 593.6 297.3C594 297.9 594.5 298.2 595.1 298.2C595.7 298.2 596.2 297.9 596.6 297.3Z" fill="white"/>
<path d="M601.2 299.2V292.6L599.5 293.5V292.3L601.4 291.2H602.5V299.2H601.3H601.2Z" fill="white"/>
<path d="M585 380.4V379.2C585.6 379.7 586.4 379.9 587.3 379.9C588.2 379.9 588.3 379.8 588.7 379.5C589.1 379.2 589.3 378.8 589.3 378.3C589.3 377.4 588.6 376.8 587.5 376.8C586.4 376.8 586.8 376.8 586.5 377V376.1L588.6 374H585.4V372.9H590.3V373.8L588.3 375.8C588.9 375.8 589.5 376.1 590 376.6C590.5 377 590.7 377.6 590.7 378.3C590.7 379 590.4 379.8 589.8 380.3C589.2 380.8 588.5 381.1 587.6 381.1C586.7 381.1 585.9 380.9 585.2 380.5L585 380.4Z" fill="white"/>
<path d="M592.7 379.8C592.1 379 591.8 378 591.8 376.9C591.8 375.8 592.1 374.8 592.7 374C593.3 373.2 594.1 372.8 595.1 372.8C596.1 372.8 596.9 373.2 597.5 374C598.1 374.8 598.4 375.8 598.4 376.9C598.4 378 598.1 379 597.5 379.8C596.9 380.6 596.1 381 595.1 381C594.1 381 593.3 380.6 592.7 379.8ZM596.6 379C597 378.4 597.2 377.7 597.2 376.9C597.2 376.1 597 375.4 596.6 374.8C596.2 374.2 595.7 373.9 595.1 373.9C594.5 373.9 594 374.2 593.6 374.8C593.2 375.4 593 376.1 593 376.9C593 377.7 593.2 378.4 593.6 379C594 379.6 594.5 379.9 595.1 379.9C595.7 379.9 596.2 379.6 596.6 379Z" fill="white"/>
<path d="M599.6 380.4V379.2C600.2 379.7 601 379.9 601.9 379.9C602.8 379.9 602.9 379.8 603.3 379.5C603.7 379.2 603.9 378.8 603.9 378.3C603.9 377.4 603.2 376.8 602.1 376.8C601 376.8 601.4 376.8 601.1 377V376.1L603.2 374H600V372.9H604.9V373.8L602.9 375.8C603.5 375.8 604.1 376.1 604.6 376.6C605.1 377 605.3 377.6 605.3 378.3C605.3 379 605 379.8 604.4 380.3C603.8 380.8 603.1 381.1 602.2 381.1C601.3 381.1 600.5 380.9 599.8 380.5L599.6 380.4Z" fill="white"/>
<path d="M512.9 380.4V379.2C513.5 379.7 514.3 379.9 515.2 379.9C516.1 379.9 516.2 379.8 516.6 379.5C517 379.2 517.2 378.8 517.2 378.3C517.2 377.4 516.5 376.8 515.4 376.8C514.3 376.8 514.7 376.8 514.4 377V376.1L516.5 374H513.3V372.9H518.2V373.8L516.2 375.8C516.8 375.8 517.4 376.1 517.9 376.6C518.4 377 518.6 377.6 518.6 378.3C518.6 379 518.3 379.8 517.7 380.3C517.1 380.8 516.4 381.1 515.5 381.1C514.6 381.1 513.8 380.9 513.1 380.5L512.9 380.4Z" fill="white"/>
<path d="M520.6 379.8C520 379 519.7 378 519.7 376.9C519.7 375.8 520 374.8 520.6 374C521.2 373.2 522 372.8 523 372.8C524 372.8 524.8 373.2 525.4 374C526 374.8 526.3 375.8 526.3 376.9C526.3 378 526 379 525.4 379.8C524.8 380.6 524 381 523 381C522 381 521.2 380.6 520.6 379.8ZM524.6 379C525 378.4 525.2 377.7 525.2 376.9C525.2 376.1 525 375.4 524.6 374.8C524.2 374.2 523.7 373.9 523.1 373.9C522.5 373.9 522 374.2 521.6 374.8C521.2 375.4 521 376.1 521 376.9C521 377.7 521.2 378.4 521.6 379C522 379.6 522.5 379.9 523.1 379.9C523.7 379.9 524.2 379.6 524.6 379Z" fill="white"/>
<path d="M527.7 380.4V379.2C528.3 379.6 529.1 379.8 529.9 379.8C530.7 379.8 531 379.7 531.3 379.4C531.7 379.1 531.9 378.7 531.9 378.2C531.9 377.3 531.1 376.6 529.9 376.6C528.7 376.6 528.6 376.7 528 376.9L528.5 372.7H532.6V373.8H529.4L529.2 375.6C529.5 375.6 529.8 375.5 530.2 375.5C531.1 375.5 531.8 375.7 532.3 376.2C532.9 376.7 533.1 377.3 533.1 378.1C533.1 378.9 532.8 379.6 532.2 380.1C531.6 380.6 530.8 380.8 529.9 380.8C529 380.8 528.3 380.6 527.7 380.3V380.4Z" fill="white"/>
<path d="M509.701 302.6L508.601 299.4H509.301L510.001 301.5L510.701 299.4H511.201L511.901 301.5L512.601 299.4H513.301L512.201 302.6H511.601L510.901 300.5L510.201 302.6H509.601H509.701Z" fill="white"/>
<path d="M513.9 302.2C513.6 301.9 513.4 301.5 513.4 301C513.4 300.5 513.6 300.1 513.9 299.8C514.2 299.5 514.6 299.3 515.1 299.3C515.6 299.3 515.7 299.3 515.9 299.5V300.2C515.7 300 515.4 300 515.1 300C514.8 300 514.5 300 514.3 300.3C514.1 300.5 514 300.7 514 301C514 301.3 514.1 301.6 514.3 301.7C514.5 301.9 514.8 302 515.1 302C515.4 302 515.7 302 516 301.7V302.4C515.7 302.6 515.4 302.6 515.1 302.6C514.6 302.6 514.2 302.4 513.9 302.1V302.2Z" fill="white"/>
<path d="M513.3 288C513.3 287.5 512.9 287 512.3 287C511.7 287 511.3 287.4 511.3 288C511.3 288.6 511.7 289 512.3 289C512.9 289 513.3 288.6 513.3 288ZM512.4 288.6C512.1 288.6 511.8 288.3 511.8 288C511.8 287.7 512.1 287.4 512.4 287.4C512.7 287.4 513 287.7 513 288C513 288.3 512.7 288.6 512.4 288.6Z" fill="white"/>
<path d="M513.3 288.9H511.4C510.8 288.9 510.2 289.4 510.2 290.1V292.5C510.2 292.9 510.5 293.2 510.9 293.2C511 293.2 511.1 293.2 511.2 293.2V297C511.2 297.4 511.5 297.7 511.9 297.7C512.1 297.7 512.3 297.7 512.4 297.5C512.7 297.8 513.1 297.8 513.4 297.5C513.5 297.4 513.6 297.2 513.6 297V293.2C513.9 293.4 514.3 293.2 514.5 292.9C514.5 292.9 514.5 292.7 514.5 292.6V290.2C514.5 289.6 514 289 513.3 289V288.9ZM512.2 296.9C512.2 297.1 512.1 297.2 511.9 297.2C511.7 297.2 511.6 297.1 511.6 296.9V293.5H512.2V296.9ZM513.1 296.9C513.1 297.1 513 297.2 512.8 297.2C512.6 297.2 512.5 297.1 512.5 296.9V293.5H513.1V296.9ZM514.1 292.5C514.1 292.7 514 292.8 513.8 292.8C513.6 292.8 513.5 292.7 513.5 292.5V290.1C513.5 290 513.5 289.9 513.3 289.9C513.1 289.9 513.1 289.9 513.1 290.1V293.2H511.6V290.1C511.6 290 511.6 289.9 511.4 289.9C511.2 289.9 511.2 289.9 511.2 290.1V292.5C511.2 292.7 511.1 292.8 510.9 292.8C510.7 292.8 510.6 292.7 510.6 292.5V290.1C510.6 289.7 510.9 289.3 511.4 289.3H513.3C513.7 289.3 514.1 289.6 514.1 290.1V292.5Z" fill="white"/>
<path d="M508.201 232.4L507.101 229.2H507.801L508.501 231.3L509.201 229.2H509.701L510.401 231.3L511.101 229.2H511.801L510.701 232.4H510.101L509.401 230.3L508.701 232.4H508.101H508.201Z" fill="white"/>
<path d="M512.501 232C512.201 231.7 512.001 231.3 512.001 230.8C512.001 230.3 512.201 229.9 512.501 229.6C512.801 229.3 513.201 229.1 513.701 229.1C514.201 229.1 514.301 229.1 514.501 229.3V230C514.301 229.8 514.001 229.8 513.701 229.8C513.401 229.8 513.101 229.8 512.901 230.1C512.701 230.3 512.601 230.5 512.601 230.8C512.601 231.1 512.701 231.4 512.901 231.5C513.101 231.7 513.401 231.8 513.701 231.8C514.001 231.8 514.301 231.8 514.601 231.5V232.2C514.301 232.4 514.001 232.4 513.701 232.4C513.201 232.4 512.801 232.2 512.501 231.9V232Z" fill="white"/>
<path d="M513.8 222.1L513 219.4C513 219.1 512.6 218.8 512.3 218.8H510.5C510 218.8 509.5 219.1 509.4 219.6L508.7 222C508.6 222.4 508.8 222.7 509.2 222.8C509.2 222.8 509.4 222.8 509.5 222.8L509.3 223.6C509.3 223.8 509.3 224 509.6 224.1C509.6 224.1 509.6 224.1 509.7 224.1H510.2V226.7C510.2 227.1 510.5 227.4 510.9 227.4C511.1 227.4 511.3 227.4 511.4 227.2C511.7 227.5 512.1 227.5 512.4 227.2C512.5 227.1 512.6 226.9 512.6 226.7V224.1H513.1C513.3 224.1 513.5 223.9 513.5 223.7C513.5 223.7 513.5 223.7 513.5 223.6L513.3 222.8C513.4 222.8 513.5 222.8 513.6 222.8C514 222.7 514.2 222.3 514.1 222L513.8 222.1ZM511 226.9C511 227.1 510.9 227.2 510.7 227.2C510.5 227.2 510.4 227.1 510.4 226.9V224.3H511V226.9ZM512 226.9C512 227.1 511.9 227.2 511.7 227.2C511.5 227.2 511.4 227.1 511.4 226.9V224.3H512V226.9ZM513.2 222.6C513 222.6 512.9 222.6 512.8 222.4L512.1 220C512.1 219.9 512 219.8 511.9 219.9C511.9 219.9 511.7 220 511.8 220.1L512.9 223.9H509.6L510.7 220.1C510.7 220 510.7 219.9 510.6 219.9C510.5 219.9 510.4 219.9 510.4 220L509.7 222.4C509.7 222.6 509.5 222.6 509.3 222.6C509.1 222.6 509.1 222.4 509.1 222.2L509.8 219.8C509.8 219.5 510.2 219.2 510.5 219.2H512.3C512.5 219.2 512.6 219.3 512.7 219.5L513.5 222.2C513.5 222.4 513.5 222.5 513.3 222.6H513.2Z" fill="white"/>
<path d="M511.2 218.9C511.7 218.9 512.2 218.5 512.2 217.9C512.2 217.3 511.8 216.9 511.2 216.9C510.6 216.9 510.2 217.3 510.2 217.9C510.2 218.5 510.6 218.9 511.2 218.9ZM511.2 217.3C511.5 217.3 511.8 217.6 511.8 217.9C511.8 218.2 511.5 218.5 511.2 218.5C510.9 218.5 510.6 218.2 510.6 217.9C510.6 217.6 510.9 217.3 511.2 217.3Z" fill="white"/>
<path d="M7.20038 215.9L152.4 215.9V105.7L7.20038 105.7V215.9Z" fill="#ABABAB"/>
<path d="M7.20038 418.5H152.4V304.8H7.20038V418.5Z" fill="#ABABAB"/>
<path d="M2.30019 100.7L159.2 100.7V98.3999L2.30019 98.3999V100.7Z" fill="white"/>
<path d="M159.2 204.2V100.7H156.9V204.2H159.2Z" fill="white"/>
<path d="M2.40039 287.7L2.40039 98.3999H0.100342L0.100342 287.7H2.40039Z" fill="white"/>
<path d="M2.30078 421.3L2.30078 286.3H0.000732422L0.000732422 421.3H2.30078Z" fill="white"/>
<path d="M0.000396729 423.5H156.9V421.2H0.000396729V423.5Z" fill="white"/>
<path d="M159.3 423.5V317.7H157V423.5H159.3Z" fill="white"/>
<path d="M103.101 239.3H155.801V206H103.101V239.3Z" fill="#696D6D"/>
<path d="M5.10001 208.5L152 208.5V103.4L5.10001 103.4V208.5Z" fill="#696D6D"/>
<path d="M7.30058 243.1H78.6006L78.6006 173.1H7.30058L7.30058 243.1Z" fill="#696D6D"/>
<path d="M6.30039 418.5H77.4004L77.4004 278.1H6.30039L6.30039 418.5Z" fill="#696D6D"/>
<path d="M19.4006 417.3H78.6006L78.6006 322.3H19.4006L19.4006 417.3Z" fill="#696D6D"/>
<path d="M81.1 417.3H154V313.1H81.1L81.1 417.3Z" fill="#696D6D"/>
<path d="M98.3004 315.1H156.9V277.5H98.3004V315.1Z" fill="#696D6D"/>
<path d="M2.3004 421.3H156.9V415.7H2.3004V421.3Z" fill="#1D1D1B"/>
<path d="M2.3004 106.3L156.9 106.3V100.7L2.3004 100.7V106.3Z" fill="#1D1D1B"/>
<path d="M157 243.5V106.3H151.4V243.5H157Z" fill="#1D1D1B"/>
<path d="M8 420.2L8 268H2.40002L2.40002 420.2H8Z" fill="#1D1D1B"/>
<path d="M102 243.4L246.4 243.4V238.9L102 238.9V243.4Z" fill="#1D1D1B"/>
<path d="M80.8004 210.9H128.4V206.4H80.8004V210.9Z" fill="#1D1D1B"/>
<path d="M101.9 206.6V243.5H106.4V206.6H101.9Z" fill="#1D1D1B"/>
<path d="M123.9 206.5V243.4H128.4V206.5H123.9Z" fill="#1D1D1B"/>
<path d="M123.801 276.8V313.7H128.301V276.8H123.801Z" fill="#1D1D1B"/>
<path d="M81.8008 277.6V263.1H77.3008V277.6H81.8008Z" fill="#1D1D1B"/>
<path d="M81.7998 240L81.7998 105.8H77.2998L77.2998 240H81.7998Z" fill="#1D1D1B"/>
<path d="M7.30038 243.4H81.9004V238.9H7.30038V243.4Z" fill="#1D1D1B"/>
<path d="M8.00038 278.5H81.9004V274H8.00038V278.5Z" fill="#1D1D1B"/>
<path d="M4.5006 322.8H79.6006V318.3H4.5006V322.8Z" fill="#1D1D1B"/>
<path d="M7.30077 200H77.3008V195.5H7.30077V200Z" fill="#1D1D1B"/>
<path d="M95.2004 278.5H205.9V274H95.2004V278.5Z" fill="#1D1D1B"/>
<path d="M81.7998 249.7V236H77.2998V249.7H81.7998Z" fill="#1D1D1B"/>
<path d="M8 269.2L8 100.7H2.40002L2.40002 269.2H8Z" fill="#1D1D1B"/>
<path d="M81.8008 415.7L81.8008 276.2H77.3008L77.3008 415.7H81.8008Z" fill="#1D1D1B"/>
<path d="M81.2008 315.3H151.801V310.8H81.2008V315.3Z" fill="#1D1D1B"/>
<path d="M99.8008 310.9V278.5H95.3008V310.9H99.8008Z" fill="#1D1D1B"/>
<path d="M157 415.6V274.9H151.4V415.6H157Z" fill="#1D1D1B"/>
<path d="M22.4008 256.2H22.7008C22.7008 256.1 22.7008 255.9 22.7008 255.8L23.1008 254.4C23.1008 254.4 23.1008 254.3 23.1008 254.2V252.3C23.1008 252.3 23.0008 252.3 22.9008 252.3C22.6008 252.3 22.3008 252 22.3008 251.7V250.3C22.3008 250.1 22.3008 249.9 22.5008 249.8L23.4008 249.1C23.6008 249 23.8008 248.9 24.0008 248.8C23.8008 248.6 23.7008 248.3 23.7008 248C23.7008 247.4 24.2008 247 24.7008 247C25.2008 247 25.7008 247.5 25.7008 248C25.7008 248.5 25.4008 248.8 25.0008 248.9C25.1008 248.9 25.3008 249.1 25.4008 249.2L26.0008 249.9H26.5008C26.8008 249.9 27.1008 250.2 27.1008 250.5C27.1008 250.8 26.8008 251.1 26.5008 251.1H25.7008H25.5008C25.5008 251 25.5008 251.8 25.5008 251.8L26.1008 252.1C26.3008 252.1 26.5008 252.4 26.5008 252.7V254.2C26.5008 254.2 26.5008 254.3 26.5008 254.4H26.9008V253C26.9008 252.9 26.9008 252.8 27.1008 252.8H29.1008V251.4C29.1008 251.3 29.1008 251.2 29.3008 251.2H31.7008C31.8008 251.2 31.9008 251.2 31.9008 251.4C31.9008 251.6 31.9008 251.6 31.7008 251.6H29.5008V253C29.5008 253.1 29.5008 253.2 29.3008 253.2H27.3008V254.6C27.3008 254.7 27.3008 254.8 27.1008 254.8H25.1008V256.2C25.1008 256.3 25.1008 256.4 24.9008 256.4H22.5008C22.4008 256.4 22.3008 256.4 22.3008 256.2C22.3008 256 22.3008 256 22.5008 256L22.4008 256.2ZM23.1008 255.9C23.1008 255.9 23.1008 256 23.1008 256.1C23.1008 256.2 23.1008 256.1 23.2008 256.2C23.3008 256.2 23.4008 256.2 23.5008 256.1L24.0008 254.7C24.0008 254.7 24.0008 254.6 24.0008 254.5V252.9C23.9008 252.9 23.7008 252.8 23.6008 252.6V254.2C23.6008 254.3 23.6008 254.4 23.6008 254.5L23.2008 255.9H23.1008ZM25.4008 248.1C25.4008 247.8 25.1008 247.5 24.8008 247.5C24.5008 247.5 24.2008 247.8 24.2008 248.1C24.2008 248.4 24.5008 248.7 24.8008 248.7C25.1008 248.7 25.4008 248.4 25.4008 248.1ZM25.9008 250.9H26.7008C26.8008 250.9 26.9008 250.9 26.9008 250.7C26.9008 250.5 26.9008 250.5 26.7008 250.5H26.1008C26.1008 250.5 26.0008 250.5 25.9008 250.5L25.6008 250.1V250.8L25.9008 251V250.9ZM26.1008 254.4V252.9C26.1008 252.9 26.1008 252.7 26.0008 252.7L25.2008 252.4C25.2008 252.4 25.1008 252.3 25.1008 252.2L25.3008 249.7C25.2008 249.5 25.0008 249.4 24.8008 249.4C24.5008 249.4 24.2008 249.4 23.9008 249.6L23.0008 250.3C23.0008 250.3 23.0008 250.3 23.0008 250.5V251.9C23.0008 252 23.0008 252.1 23.2008 252.1H23.3008C23.3008 252.1 23.3008 252.1 23.3008 252V250.7C23.3008 250.7 23.3008 250.6 23.3008 250.5L23.8008 250C23.8008 250 24.0008 250 24.1008 250C24.1008 250 24.1008 250.2 24.1008 250.3L23.6008 250.7V251.8C23.7008 252.4 24.0008 252.5 24.3008 252.6L25.5008 253C25.5008 253 25.6008 253.1 25.6008 253.2V254.4C25.6008 254.5 25.6008 254.6 25.8008 254.6C26.0008 254.6 26.0008 254.6 26.0008 254.4H26.1008ZM24.6008 254.8C24.6008 254.7 24.6008 254.6 24.8008 254.6H25.2008C25.2008 254.6 25.2008 254.5 25.2008 254.4V253.3L24.4008 253V254.4C24.4008 254.5 24.4008 254.6 24.4008 254.7L23.9008 256.1H24.6008V254.7V254.8Z" fill="black"/>
<path d="M68.2006 270.1C68.2006 270.2 68.2006 270.3 68.0006 270.3H65.6006C65.5006 270.3 65.4006 270.3 65.4006 270.1V268.7H63.4006C63.3006 268.7 63.2006 268.7 63.2006 268.5V267.1H61.2006C61.1006 267.1 61.0006 267.1 61.0006 266.9V265.5H58.8006C58.7006 265.5 58.6006 265.5 58.6006 265.3C58.6006 265.1 58.6006 265.1 58.8006 265.1H61.2006C61.3006 265.1 61.4006 265.1 61.4006 265.3V266.7H63.4006C63.5006 266.7 63.6006 266.7 63.6006 266.9V268.3H64.0006C64.0006 268.3 64.0006 268.2 64.0006 268.1V266.6C64.0006 266.4 64.1006 266.1 64.4006 266L65.0006 265.7V264.9L64.7006 265H63.9006C63.6006 265 63.3006 264.7 63.3006 264.4C63.3006 264.1 63.6006 263.8 63.9006 263.8H64.4006L65.0006 263.1C65.1006 263 65.2006 262.9 65.4006 262.8C65.0006 262.7 64.7006 262.3 64.7006 261.9C64.7006 261.5 65.2006 260.9 65.7006 260.9C66.2006 260.9 66.7006 261.4 66.7006 261.9C66.7006 262.4 66.6006 262.5 66.4006 262.7C66.6006 262.7 66.8006 262.8 67.0006 263L67.9006 263.7C68.0006 263.8 68.1006 264 68.1006 264.2V265.6C68.1006 265.9 67.8006 266.2 67.5006 266.2C67.2006 266.2 67.4006 266.2 67.3006 266.2V268.1C67.3006 268.1 67.3006 268.2 67.3006 268.3L67.7006 269.7C67.7006 269.8 67.7006 270 67.7006 270.1H68.0006C68.1006 270.1 68.2006 270.1 68.2006 270.3V270.1ZM66.8006 268.3C66.8006 268.2 66.8006 268.1 66.8006 268V266.4C66.7006 266.5 66.5006 266.6 66.4006 266.7V268.3C66.4006 268.3 66.4006 268.4 66.4006 268.5L66.9006 269.9C66.9006 270 67.1006 270.1 67.2006 270C67.2006 270 67.2006 270 67.3006 269.9C67.4006 269.8 67.3006 269.8 67.3006 269.7L66.9006 268.3H66.8006ZM65.6006 262.4C65.9006 262.4 66.2006 262.1 66.2006 261.8C66.2006 261.5 65.9006 261.2 65.6006 261.2C65.3006 261.2 65.0006 261.5 65.0006 261.8C65.0006 262.1 65.3006 262.4 65.6006 262.4ZM64.8006 264.5V263.8L64.5006 264.2C64.5006 264.2 64.5006 264.2 64.3006 264.2H63.7006C63.6006 264.2 63.5006 264.2 63.5006 264.4C63.5006 264.6 63.5006 264.6 63.7006 264.6H64.5006L64.8006 264.4V264.5ZM64.5006 268.3C64.6006 268.3 64.7006 268.3 64.7006 268.1V266.9C64.7006 266.9 64.7006 266.7 64.8006 266.7L66.0006 266.3C66.3006 266.3 66.5006 266 66.7006 265.5V264.4L66.2006 264C66.2006 264 66.2006 263.8 66.2006 263.7C66.2006 263.7 66.4006 263.7 66.5006 263.7L67.0006 264.2C67.0006 264.2 67.0006 264.2 67.0006 264.4V265.7V265.8C67.0006 265.8 67.0006 265.8 67.1006 265.8C67.2006 265.8 67.3006 265.8 67.3006 265.6V264.2C67.3006 264.2 67.3006 264.1 67.3006 264L66.4006 263.3C66.2006 263.1 65.8006 263 65.5006 263.1C65.3006 263.1 65.1006 263.3 65.0006 263.4L65.2006 265.9C65.2006 265.9 65.2006 266.1 65.1006 266.1L64.3006 266.4C64.3006 266.4 64.2006 266.5 64.2006 266.6V268.1C64.2006 268.2 64.2006 268.3 64.4006 268.3H64.5006ZM65.8006 269.9H66.5006L66.0006 268.5C66.0006 268.4 66.0006 268.3 66.0006 268.2V266.8L65.2006 267.1V268.2C65.2006 268.2 65.2006 268.3 65.2006 268.4H65.6006C65.7006 268.4 65.8006 268.4 65.8006 268.6V270V269.9Z" fill="black"/>
<path d="M35.3008 275V243.5H34.5007V275H35.3008Z" fill="#1D1D1B"/>
<path d="M55.5 258.8H34.5V259.6H55.5V258.8Z" fill="#1D1D1B"/>
<path d="M38.9004 275V243.5H38.1003V275H38.9004Z" fill="#1D1D1B"/>
<path d="M42.4004 275V243.5H41.6003V275H42.4004Z" fill="#1D1D1B"/>
<path d="M45.9004 275V243.5H45.1003V275H45.9004Z" fill="#1D1D1B"/>
<path d="M49.4004 275V243.5H48.6003V275H49.4004Z" fill="#1D1D1B"/>
<path d="M52.9004 275V243.5H52.1003V275H52.9004Z" fill="#1D1D1B"/>
<path d="M56.4004 275V243.5H55.6003V275H56.4004Z" fill="#1D1D1B"/>
<path d="M112.6 232.4L111.5 229.2H112.2L112.9 231.3L113.6 229.2H114.1L114.8 231.3L115.5 229.2H116.2L115.1 232.4H114.5L113.8 230.3L113.1 232.4H112.5H112.6Z" fill="white"/>
<path d="M116.9 232C116.6 231.7 116.4 231.3 116.4 230.8C116.4 230.3 116.6 229.9 116.9 229.6C117.2 229.3 117.6 229.1 118.1 229.1C118.6 229.1 118.7 229.1 118.9 229.3V230C118.7 229.8 118.4 229.8 118.1 229.8C117.8 229.8 117.5 229.8 117.3 230.1C117.1 230.3 117 230.5 117 230.8C117 231.1 117.1 231.4 117.3 231.5C117.5 231.7 117.8 231.8 118.1 231.8C118.4 231.8 118.7 231.8 119 231.5V232.2C118.7 232.4 118.4 232.4 118.1 232.4C117.6 232.4 117.2 232.2 116.9 231.9V232Z" fill="white"/>
<path d="M116.3 217.8C116.3 217.3 115.9 216.8 115.3 216.8C114.7 216.8 114.3 217.2 114.3 217.8C114.3 218.4 114.7 218.8 115.3 218.8C115.9 218.8 116.3 218.4 116.3 217.8ZM115.3 218.4C115 218.4 114.7 218.1 114.7 217.8C114.7 217.5 115 217.2 115.3 217.2C115.6 217.2 115.9 217.5 115.9 217.8C115.9 218.1 115.6 218.4 115.3 218.4Z" fill="white"/>
<path d="M116.3 218.8H114.4C113.8 218.8 113.2 219.3 113.2 220V222.4C113.2 222.8 113.5 223.1 113.9 223.1C114 223.1 114.1 223.1 114.2 223.1V226.9C114.2 227.3 114.5 227.6 114.9 227.6C115.1 227.6 115.3 227.6 115.4 227.4C115.7 227.7 116.1 227.7 116.4 227.4C116.5 227.3 116.6 227.1 116.6 226.9V223.1C116.9 223.3 117.3 223.1 117.5 222.8C117.5 222.8 117.5 222.6 117.5 222.5V220.1C117.5 219.5 117 218.9 116.3 218.9V218.8ZM115.1 226.8C115.1 227 115 227.1 114.8 227.1C114.6 227.1 114.5 227 114.5 226.8V223.4H115.1V226.8ZM116.1 226.8C116.1 227 116 227.1 115.8 227.1C115.6 227.1 115.5 227 115.5 226.8V223.4H116.1V226.8ZM117 222.4C117 222.6 116.9 222.7 116.7 222.7C116.5 222.7 116.4 222.6 116.4 222.4V220C116.4 219.9 116.4 219.8 116.2 219.8C116 219.8 116 219.8 116 220V223.1H114.5V220C114.5 219.9 114.5 219.8 114.3 219.8C114.1 219.8 114.1 219.8 114.1 220V222.4C114.1 222.6 114 222.7 113.8 222.7C113.6 222.7 113.5 222.6 113.5 222.4V220C113.5 219.6 113.8 219.2 114.3 219.2H116.2C116.6 219.2 117 219.5 117 220V222.4Z" fill="white"/>
<path d="M109.1 302.6L108 299.4H108.7L109.4 301.5L110.1 299.4H110.6L111.3 301.5L112 299.4H112.7L111.6 302.6H111L110.3 300.5L109.6 302.6H109H109.1Z" fill="white"/>
<path d="M113.3 302.2C113 301.9 112.8 301.5 112.8 301C112.8 300.5 113 300.1 113.3 299.8C113.6 299.5 114 299.3 114.5 299.3C115 299.3 115.1 299.3 115.3 299.5V300.2C115.1 300 114.8 300 114.5 300C114.2 300 113.9 300 113.7 300.3C113.5 300.5 113.4 300.7 113.4 301C113.4 301.3 113.5 301.6 113.7 301.7C113.9 301.9 114.2 302 114.5 302C114.8 302 115.1 302 115.4 301.7V302.4C115.1 302.6 114.8 302.6 114.5 302.6C114 302.6 113.6 302.4 113.3 302.1V302.2Z" fill="white"/>
<path d="M114.6 292.3L113.8 289.6C113.8 289.3 113.4 289 113.1 289H111.3C110.8 289 110.3 289.3 110.2 289.8L109.5 292.2C109.4 292.6 109.6 292.9 110 293C110 293 110.2 293 110.3 293L110.1 293.8C110.1 294 110.1 294.2 110.4 294.3C110.4 294.3 110.4 294.3 110.5 294.3H111V296.9C111 297.3 111.3 297.6 111.7 297.6C111.9 297.6 112.1 297.6 112.2 297.4C112.5 297.7 112.9 297.7 113.2 297.4C113.3 297.3 113.4 297.1 113.4 296.9V294.3H113.9C114.1 294.3 114.3 294.1 114.3 293.9C114.3 293.9 114.3 293.9 114.3 293.8L114.1 293C114.2 293 114.3 293 114.4 293C114.8 292.9 115 292.5 114.9 292.2L114.6 292.3ZM111.9 297C111.9 297.2 111.8 297.3 111.6 297.3C111.4 297.3 111.3 297.2 111.3 297V294.4H111.9V297ZM112.8 297C112.8 297.2 112.7 297.3 112.5 297.3C112.3 297.3 112.2 297.2 112.2 297V294.4H112.8V297ZM114.1 292.7C113.9 292.7 113.8 292.7 113.7 292.5L113 290.1C113 290 112.9 289.9 112.8 290C112.8 290 112.6 290.1 112.7 290.2L113.8 294H110.5L111.6 290.2C111.6 290.1 111.6 290 111.5 290C111.4 290 111.3 290 111.3 290.1L110.6 292.5C110.6 292.7 110.4 292.7 110.2 292.7C110 292.7 110 292.5 110 292.3L110.7 289.9C110.7 289.6 111.1 289.3 111.4 289.3H113.2C113.4 289.3 113.5 289.4 113.6 289.6L114.4 292.3C114.4 292.5 114.4 292.6 114.2 292.7H114.1Z" fill="white"/>
<path d="M112.1 289C112.6 289 113.1 288.6 113.1 288C113.1 287.4 112.7 287 112.1 287C111.5 287 111.1 287.4 111.1 288C111.1 288.6 111.5 289 112.1 289ZM112.1 287.5C112.4 287.5 112.7 287.8 112.7 288.1C112.7 288.4 112.4 288.7 112.1 288.7C111.8 288.7 111.5 288.4 111.5 288.1C111.5 287.8 111.8 287.5 112.1 287.5Z" fill="white"/>
<path d="M32.6006 142.4V141.2C33.2006 141.7 34.0006 141.9 34.9006 141.9C35.8006 141.9 35.9006 141.8 36.2006 141.5C36.6006 141.2 36.8006 140.8 36.8006 140.3C36.8006 139.4 36.1006 138.8 35.0006 138.8C33.9006 138.8 34.3006 138.8 34.0006 139V138.2L36.1006 136.1H32.9006V135H37.8006V135.9L35.8006 137.8C36.4006 137.8 37.0006 138.1 37.5006 138.6C38.0006 139 38.2006 139.6 38.2006 140.3C38.2006 141 37.9006 141.8 37.3006 142.3C36.7006 142.8 36.0006 143 35.1006 143C34.2006 143 33.4006 142.8 32.7006 142.4H32.6006Z" fill="white"/>
<path d="M39.001 142.8V141.9L41.501 139.6C42.101 139.1 42.401 138.7 42.701 138.3C42.901 138 43.001 137.6 43.001 137.2C43.001 136.4 42.401 135.9 41.401 135.9C40.401 135.9 39.901 136.2 39.201 136.9V135.6C39.901 135 40.601 134.8 41.501 134.8C42.401 134.8 42.901 135 43.401 135.4C43.901 135.8 44.201 136.4 44.201 137.1C44.201 137.8 44.101 138.1 43.801 138.6C43.501 139 43.101 139.5 42.501 140.1L40.801 141.7H44.501V142.8H39.001Z" fill="white"/>
<path d="M45.6006 142.8V141.9L48.1006 139.6C48.7006 139.1 49.0006 138.7 49.3006 138.3C49.5006 138 49.6006 137.6 49.6006 137.2C49.6006 136.4 49.0006 135.9 48.0006 135.9C47.0006 135.9 46.5006 136.2 45.8006 136.9V135.6C46.5006 135 47.2006 134.8 48.1006 134.8C49.0006 134.8 49.5006 135 50.0006 135.4C50.5006 135.8 50.8006 136.4 50.8006 137.1C50.8006 137.8 50.7006 138.1 50.4006 138.6C50.1006 139 49.7006 139.5 49.1006 140.1L47.4006 141.7H51.1006V142.8H45.6006Z" fill="white"/>
<path d="M32.3008 224.7V223.5C32.9008 224 33.7008 224.2 34.6008 224.2C35.5008 224.2 35.6008 224.1 35.9008 223.8C36.3008 223.5 36.5008 223.1 36.5008 222.6C36.5008 221.7 35.8008 221.1 34.7008 221.1C33.6008 221.1 34.0008 221.1 33.7008 221.3V220.5L35.8008 218.4H32.6008V217.3H37.5008V218.2L35.5008 220.1C36.1008 220.1 36.7008 220.4 37.2008 220.9C37.7008 221.3 37.9008 221.9 37.9008 222.6C37.9008 223.3 37.6008 224.1 37.0008 224.6C36.4008 225.1 35.7008 225.3 34.8008 225.3C33.9008 225.3 33.1008 225.1 32.4008 224.7H32.3008Z" fill="white"/>
<path d="M38.8008 225.2V224.3L41.3008 222C41.9008 221.5 42.2008 221.1 42.5008 220.7C42.7008 220.4 42.8008 220 42.8008 219.6C42.8008 218.8 42.2008 218.3 41.2008 218.3C40.2008 218.3 39.7008 218.6 39.0008 219.3V218C39.7008 217.4 40.4008 217.2 41.3008 217.2C42.2008 217.2 42.7008 217.4 43.2008 217.8C43.7008 218.2 44.0008 218.8 44.0008 219.5C44.0008 220.2 43.9008 220.5 43.6008 221C43.3008 221.4 42.9008 221.9 42.3008 222.5L40.6008 224.1H44.3008V225.2H38.8008Z" fill="white"/>
<path d="M49.101 225.2V223.1H45.001V222.2L49.101 217.3H50.301V222.1H51.501V223.2H50.301V225.3H49.101V225.2ZM46.401 222.1H49.101V218.9L46.401 222.1Z" fill="white"/>
<path d="M32.6006 300.2V299C33.2006 299.5 34.0006 299.7 34.9006 299.7C35.8006 299.7 35.9006 299.6 36.2006 299.3C36.6006 299 36.8006 298.6 36.8006 298.1C36.8006 297.2 36.1006 296.6 35.0006 296.6C33.9006 296.6 34.3006 296.6 34.0006 296.8V296L36.1006 293.9H32.9006V292.8H37.8006V293.7L35.8006 295.6C36.4006 295.6 37.0006 295.9 37.5006 296.4C38.0006 296.8 38.2006 297.4 38.2006 298.1C38.2006 298.8 37.9006 299.6 37.3006 300.1C36.7006 300.6 36.0006 300.8 35.1006 300.8C34.2006 300.8 33.4006 300.6 32.7006 300.2H32.6006Z" fill="white"/>
<path d="M39.1006 300.7V299.8L41.6006 297.5C42.2006 297 42.5006 296.6 42.8006 296.2C43.0006 295.9 43.1006 295.5 43.1006 295.1C43.1006 294.3 42.5006 293.8 41.5006 293.8C40.5006 293.8 40.0006 294.1 39.3006 294.8V293.5C40.0006 292.9 40.7006 292.7 41.6006 292.7C42.5006 292.7 43.0006 292.9 43.5006 293.3C44.0006 293.7 44.3006 294.3 44.3006 295C44.3006 295.7 44.2006 296 43.9006 296.5C43.6006 296.9 43.2006 297.4 42.6006 298L40.9006 299.6H44.6006V300.7H39.1006Z" fill="white"/>
<path d="M46.2006 300.7L49.6006 293.9H45.6006V292.8H51.0006V293.8L47.5006 300.7H46.2006Z" fill="white"/>
<path d="M32.5 381.9V380.7C33.1 381.2 33.9 381.4 34.8 381.4C35.7 381.4 35.8 381.3 36.1 381C36.5 380.7 36.7 380.3 36.7 379.8C36.7 378.9 36 378.3 34.9 378.3C33.8 378.3 34.2 378.3 33.9 378.5V377.7L36 375.6H32.8V374.5H37.7V375.4L35.7 377.3C36.3 377.3 36.9 377.6 37.4 378.1C37.9 378.5 38.1 379.1 38.1 379.8C38.1 380.5 37.8 381.3 37.2 381.8C36.6 382.3 35.9 382.5 35 382.5C34.1 382.5 33.3 382.3 32.6 381.9H32.5Z" fill="white"/>
<path d="M39 382.3V381.4L41.5 379.1C42.1 378.6 42.4 378.2 42.7 377.8C42.9 377.5 43 377.1 43 376.7C43 375.9 42.4 375.4 41.4 375.4C40.4 375.4 39.9 375.7 39.2 376.4V375.1C39.9 374.5 40.6 374.3 41.5 374.3C42.4 374.3 42.9 374.5 43.4 374.9C43.9 375.3 44.2 375.9 44.2 376.6C44.2 377.3 44.1 377.6 43.8 378.1C43.5 378.5 43.1 379 42.5 379.6L40.8 381.2H44.5V382.3H39Z" fill="white"/>
<path d="M45.5996 381.9V380.7C46.1996 381.1 46.9996 381.3 47.7996 381.3C48.5996 381.3 48.8996 381.2 49.1996 380.9C49.5996 380.6 49.7996 380.2 49.7996 379.7C49.7996 378.8 48.9996 378.1 47.7996 378.1C46.5996 378.1 46.5996 378.2 45.8996 378.4L46.3996 374.3H50.4996V375.4H47.2996L47.0996 377.2C47.3996 377.2 47.6996 377.1 48.0996 377.1C48.9996 377.1 49.6996 377.3 50.1996 377.8C50.7996 378.3 50.9996 378.9 50.9996 379.7C50.9996 380.5 50.6996 381.2 50.0996 381.7C49.4996 382.2 48.6996 382.4 47.7996 382.4C46.8996 382.4 46.1996 382.2 45.5996 381.9Z" fill="white"/>
<path d="M106.7 381.9V380.7C107.3 381.2 108.1 381.4 109 381.4C109.9 381.4 110 381.3 110.3 381C110.7 380.7 110.9 380.3 110.9 379.8C110.9 378.9 110.2 378.3 109.1 378.3C108 378.3 108.4 378.3 108.1 378.5V377.7L110.2 375.6H107V374.5H111.9V375.4L109.9 377.3C110.5 377.3 111.1 377.6 111.6 378.1C112.1 378.5 112.3 379.1 112.3 379.8C112.3 380.5 112 381.3 111.4 381.8C110.8 382.3 110.1 382.5 109.2 382.5C108.3 382.5 107.5 382.3 106.8 381.9H106.7Z" fill="white"/>
<path d="M113.2 382.3V381.4L115.7 379.1C116.3 378.6 116.6 378.2 116.9 377.8C117.1 377.5 117.2 377.1 117.2 376.7C117.2 375.9 116.6 375.4 115.6 375.4C114.6 375.4 114.1 375.7 113.4 376.4V375.1C114.1 374.5 114.8 374.3 115.7 374.3C116.6 374.3 117.1 374.5 117.6 374.9C118.1 375.3 118.4 375.9 118.4 376.6C118.4 377.3 118.3 377.6 118 378.1C117.7 378.5 117.3 379 116.7 379.6L115 381.2H118.7V382.3H113.2Z" fill="white"/>
<path d="M119.7 381.9V380.7C120.3 381.2 121.1 381.4 122 381.4C122.9 381.4 123 381.3 123.3 381C123.7 380.7 123.9 380.3 123.9 379.8C123.9 378.9 123.2 378.3 122.1 378.3C121 378.3 121.4 378.3 121.1 378.5V377.7L123.2 375.6H120V374.5H124.9V375.4L122.9 377.3C123.5 377.3 124.1 377.6 124.6 378.1C125.1 378.5 125.3 379.1 125.3 379.8C125.3 380.5 125 381.3 124.4 381.8C123.8 382.3 123.1 382.5 122.2 382.5C121.3 382.5 120.5 382.3 119.8 381.9H119.7Z" fill="white"/>
<path d="M105.9 142.4V141.2C106.5 141.7 107.3 141.9 108.2 141.9C109.1 141.9 109.2 141.8 109.5 141.5C109.9 141.2 110.1 140.8 110.1 140.3C110.1 139.4 109.4 138.8 108.3 138.8C107.2 138.8 107.6 138.8 107.3 139V138.2L109.4 136.1H106.2V135H111.1V135.9L109.1 137.8C109.7 137.8 110.3 138.1 110.8 138.6C111.3 139 111.5 139.6 111.5 140.3C111.5 141 111.2 141.8 110.6 142.3C110 142.8 109.3 143 108.4 143C107.5 143 106.7 142.8 106 142.4H105.9Z" fill="white"/>
<path d="M112.4 142.8V141.9L114.9 139.6C115.5 139.1 115.8 138.7 116.1 138.3C116.3 138 116.4 137.6 116.4 137.2C116.4 136.4 115.8 135.9 114.8 135.9C113.8 135.9 113.3 136.2 112.6 136.9V135.6C113.3 135 114 134.8 114.9 134.8C115.8 134.8 116.3 135 116.8 135.4C117.3 135.8 117.6 136.4 117.6 137.1C117.6 137.8 117.5 138.1 117.2 138.6C116.9 139 116.5 139.5 115.9 140.1L114.2 141.7H117.9V142.8H112.4Z" fill="white"/>
<path d="M120.1 141.8C119.5 141 119.2 140 119.2 138.9C119.2 137.8 119.5 136.8 120.1 136C120.7 135.2 121.5 134.8 122.5 134.8C123.5 134.8 124.3 135.2 124.9 136C125.5 136.8 125.8 137.8 125.8 138.9C125.8 140 125.5 141 124.9 141.8C124.3 142.6 123.5 143 122.5 143C121.5 143 120.7 142.6 120.1 141.8ZM124 141C124.4 140.4 124.6 139.7 124.6 138.9C124.6 138.1 124.4 137.4 124 136.8C123.6 136.2 123.1 136 122.5 136C121.9 136 121.4 136.3 121 136.9C120.6 137.5 120.4 138.2 120.4 139C120.4 139.8 120.6 140.5 121 141.1C121.4 141.7 121.9 141.9 122.5 141.9C123.1 141.9 123.6 141.6 124 141.1V141Z" fill="white"/>
<path d="M142.801 295.6C142.801 295.5 142.801 295.3 142.801 295.2C142.801 295.1 142.801 294.9 142.801 294.8L143.701 294.1C143.701 294.1 143.801 293.9 143.701 293.8L142.801 292.3C142.801 292.3 142.601 292.2 142.501 292.3L141.401 292.7C141.201 292.5 140.901 292.4 140.701 292.3L140.501 291.2C140.501 291.1 140.401 291 140.301 291H138.601C138.501 291 138.401 291 138.401 291.2L138.201 292.3C137.901 292.4 137.701 292.6 137.501 292.7L136.401 292.3C136.401 292.3 136.201 292.3 136.101 292.3L135.201 293.8C135.201 293.8 135.201 294 135.201 294.1L136.101 294.8C136.101 294.9 136.101 295.1 136.101 295.2C136.101 295.3 136.101 295.5 136.101 295.6L135.201 296.3C135.201 296.3 135.101 296.5 135.201 296.6L136.101 298.1C136.101 298.1 136.301 298.2 136.401 298.1L137.501 297.7C137.701 297.9 138.001 298 138.201 298.1L138.401 299.2C138.401 299.3 138.501 299.4 138.601 299.4H140.301C140.401 299.4 140.501 299.4 140.501 299.2L140.701 298.1C141.001 298 141.201 297.8 141.401 297.7L142.501 298.1C142.501 298.1 142.701 298.1 142.801 298.1L143.701 296.6C143.701 296.6 143.701 296.4 143.701 296.3L142.801 295.6ZM139.601 296.7C138.801 296.7 138.101 296 138.101 295.2C138.101 294.4 138.801 293.7 139.601 293.7C140.401 293.7 141.101 294.4 141.101 295.2C141.101 296 140.401 296.7 139.601 296.7Z" stroke="white" stroke-width="0.5" stroke-linecap="round" stroke-linejoin="round"/>
</svg>
