<svg width="637" height="423" viewBox="0 0 637 423" fill="none" xmlns="http://www.w3.org/2000/svg">
<path d="M159.4 185.2H95.7998V299.4H159.4V185.2Z" fill="#ABABAB"/>
<path d="M322.2 138.1H239.6V170.5H322.2V138.1Z" fill="#ABABAB"/>
<path d="M628.099 67.6H465.899V190.8H628.099V67.6Z" fill="#ABABAB"/>
<path d="M628.099 290.2H465.899V417.3H628.099V290.2Z" fill="#ABABAB"/>
<path d="M633.6 185.2H400.7V297.7H633.6V185.2Z" fill="#ABABAB"/>
<path d="M403.799 167.4H159.399V319.1H403.799V167.4Z" fill="#ABABAB"/>
<path d="M324.6 315.3H237.8V353.7H324.6V315.3Z" fill="#ABABAB"/>
<path d="M153.2 177H92.7002V179.5H153.2V177Z" fill="white"/>
<path d="M234.7 160.8H150.6V163.3H234.7V160.8Z" fill="white"/>
<path d="M328.5 130.4H232.2V132.9H328.5V130.4Z" fill="white"/>
<path d="M408.4 160.8H328.7V163.3H408.4V160.8Z" fill="white"/>
<path d="M460.899 177.1H410.899V179.6H460.899V177.1Z" fill="white"/>
<path d="M633.6 59.4H458.3V61.9H633.6V59.4Z" fill="white"/>
<path d="M153.2 177.4V163.3H150.7V177.4H153.2Z" fill="white"/>
<path d="M234.8 161.3V132.9H232.3V161.3H234.8Z" fill="white"/>
<path d="M331 163.4V130.4H328.5V163.4H331Z" fill="white"/>
<path d="M410.899 179.6V160.9H408.399V179.6H410.899Z" fill="white"/>
<path d="M460.9 301.9H409.8V304.4H460.9V301.9Z" fill="white"/>
<path d="M411.1 322.2H328.5V324.7H411.1V322.2Z" fill="white"/>
<path d="M330.899 353.7H232.399V356.2H330.899V353.7Z" fill="white"/>
<path d="M411 322.4V301.9H408.5V322.4H411Z" fill="white"/>
<path d="M331 354.5V324.2H328.5V354.5H331Z" fill="white"/>
<path d="M233.5 322.2H153.1V324.7H233.5V322.2Z" fill="white"/>
<path d="M151.9 304.7H92.5996V307.2H151.9V304.7Z" fill="white"/>
<path d="M153.1 324.8V304.8H150.6V324.8H153.1Z" fill="white"/>
<path d="M92.5996 307.3L92.5996 177H90.0996L90.0996 307.3H92.5996Z" fill="white"/>
<path d="M235 353.7V322.2H232.5V353.7H235Z" fill="white"/>
<path d="M460.899 177.6V61.9H458.399V177.6H460.899Z" fill="white"/>
<path d="M636.2 271.1V59.4H633.7V271.1H636.2Z" fill="white"/>
<path d="M636.1 420.4V269.5H633.6V420.4H636.1Z" fill="white"/>
<path d="M636.199 420.4H460.899V422.9H636.199V420.4Z" fill="white"/>
<path d="M460.8 423V302.2H458.3V423H460.8Z" fill="white"/>
<path d="M156.3 182.7H95.7998V219.6H156.3V182.7Z" fill="#696D6D"/>
<path d="M324.599 137.5H237.399V174.4H324.599V137.5Z" fill="#696D6D"/>
<path d="M521 179.8H403.3V217H521V179.8Z" fill="#696D6D"/>
<path d="M405.9 166.5H324.6V217.7H405.9V166.5Z" fill="#696D6D"/>
<path d="M630.4 64.9H466.3V182.5H630.4V64.9Z" fill="#696D6D"/>
<path d="M628.2 142.8H548.5V221.1H628.2V142.8Z" fill="#696D6D"/>
<path d="M629.2 260.2H549.8V417.2H629.2V260.2Z" fill="#696D6D"/>
<path d="M614.6 310.3H548.5V415.9H614.6V310.3Z" fill="#696D6D"/>
<path d="M545.5 299.4H464.1V416H545.5V299.4Z" fill="#696D6D"/>
<path d="M526.3 259.6H407.1V301.7H526.3V259.6Z" fill="#696D6D"/>
<path d="M405.6 244.9H325.3V320H405.6V244.9Z" fill="#696D6D"/>
<path d="M322.2 248.1H241.1V353.7H322.2V248.1Z" fill="#696D6D"/>
<path d="M239.699 246.1H159.399V321.2H239.699V246.1Z" fill="#696D6D"/>
<path d="M156.3 259.3H95.7998V302H156.3V259.3Z" fill="#696D6D"/>
<path d="M322.199 169.3H158.399V216.5H322.199V169.3Z" fill="#696D6D"/>
<path d="M467.1 179.5H408.3V185.7H467.1V179.5Z" fill="#1D1D1B"/>
<path d="M633.599 414.2H460.899V420.4H633.599V414.2Z" fill="#1D1D1B"/>
<path d="M633.599 61.9H460.899V68.1H633.599V61.9Z" fill="#1D1D1B"/>
<path d="M467.1 221.6V68.2H460.9V221.6H467.1Z" fill="#1D1D1B"/>
<path d="M633.6 419.2V249H627.4V419.2H633.6Z" fill="#1D1D1B"/>
<path d="M467.1 295.7H407.8V301.9H467.1V295.7Z" fill="#1D1D1B"/>
<path d="M522.199 216.5H465.899V221.6H522.199V216.5Z" fill="#1D1D1B"/>
<path d="M546.1 180.1H467.2V185.2H546.1V180.1Z" fill="#1D1D1B"/>
<path d="M518.399 180.3V221.6H523.499V180.3H518.399Z" fill="#1D1D1B"/>
<path d="M549.8 259.8V243.6H544.7V259.8H549.8Z" fill="#1D1D1B"/>
<path d="M549.8 217.7V67.6H544.7V217.7H549.8Z" fill="#1D1D1B"/>
<path d="M628.2 216.5H544.8V221.6H628.2V216.5Z" fill="#1D1D1B"/>
<path d="M627.4 255.7H544.8V260.8H627.4V255.7Z" fill="#1D1D1B"/>
<path d="M631.2 305.2H548.5V310.3H631.2V305.2Z" fill="#1D1D1B"/>
<path d="M628 167.9H549.8V173H628V167.9Z" fill="#1D1D1B"/>
<path d="M529.8 255.7H407.8V260.8H529.8V255.7Z" fill="#1D1D1B"/>
<path d="M549.8 228.4V213.1H544.8V228.4H549.8Z" fill="#1D1D1B"/>
<path d="M633.6 250.3V61.9H627.4V250.3H633.6Z" fill="#1D1D1B"/>
<path d="M549.8 414.1V259.8H544.7V414.1H549.8Z" fill="#1D1D1B"/>
<path d="M545.6 296.8H467.2V301.9H545.6V296.8Z" fill="#1D1D1B"/>
<path d="M408.3 316H322.2V322.2H408.3V316Z" fill="#1D1D1B"/>
<path d="M463.5 216.5H407.1V221.6H463.5V216.5Z" fill="#1D1D1B"/>
<path d="M529.899 297V260.7H524.799V297H529.899Z" fill="#1D1D1B"/>
<path d="M408.5 322.2V243.6H402.3V322.2H408.5Z" fill="#1D1D1B"/>
<path d="M408.3 221.6V163.4H402.1V221.6H408.3Z" fill="#1D1D1B"/>
<path d="M406.8 163.4H323.8V169.6H406.8V163.4Z" fill="#1D1D1B"/>
<path d="M467.1 414.2V256.8H460.9V414.2H467.1Z" fill="#1D1D1B"/>
<path d="M328.399 351.8V243.6H322.199V351.8H328.399Z" fill="#1D1D1B"/>
<path d="M328.5 353.7V244.9H322.3V353.7H328.5Z" fill="#1D1D1B"/>
<path d="M328.5 216.5V132.9H322.3V216.5H328.5Z" fill="#1D1D1B"/>
<path d="M325.3 132.9H234.7V139.1H325.3V132.9Z" fill="#1D1D1B"/>
<path d="M403.2 216.5H227.1V221.6H403.2V216.5Z" fill="#1D1D1B"/>
<path d="M234.7 216.5H92.7002V221.6H234.7V216.5Z" fill="#1D1D1B"/>
<path d="M403.7 243.6H153.1V248.8H403.7V243.6Z" fill="#1D1D1B"/>
<path d="M241 219.1V137H234.8V219.1H241Z" fill="#1D1D1B"/>
<path d="M241.3 353.8V243.8H235.1V353.8H241.3Z" fill="#1D1D1B"/>
<path d="M328.499 243.8H159.399V248.9H328.499V243.8Z" fill="#1D1D1B"/>
<path d="M313.4 347.5H241.2V353.7H313.4V347.5Z" fill="#1D1D1B"/>
<path d="M235.8 316H158.5V322.2H235.8V316Z" fill="#1D1D1B"/>
<path d="M322.2 347.5H309.3V353.7H322.2V347.5Z" fill="#1D1D1B"/>
<path d="M159.399 322.3V243.8H153.199V322.3H159.399Z" fill="#1D1D1B"/>
<path d="M159.3 221.5V163.7H153.1V221.5H159.3Z" fill="#1D1D1B"/>
<path d="M240.9 163.4H153.1V169.6H240.9V163.4Z" fill="#1D1D1B"/>
<path d="M98.8994 221.6V183H92.6994V221.6H98.8994Z" fill="#1D1D1B"/>
<path d="M99 301.7V219.1H92.8V301.7H99Z" fill="#1D1D1B"/>
<path d="M157.9 255.6H94.2002V260.7H157.9V255.6Z" fill="#1D1D1B"/>
<path d="M153.5 298.5H92.7002V304.7H153.5V298.5Z" fill="#1D1D1B"/>
<path d="M153.9 179.5H92.7002V185.7H153.9V179.5Z" fill="#1D1D1B"/>
<path d="M611.199 235.8H610.799C610.799 235.7 610.799 235.5 610.799 235.3L610.299 233.8C610.299 233.8 610.299 233.7 610.299 233.6V231.4C610.299 231.4 610.399 231.4 610.499 231.4C610.899 231.4 611.199 231.1 611.199 230.7V229.1C611.199 228.9 611.199 228.7 610.899 228.6L609.799 227.8C609.599 227.7 609.399 227.5 609.099 227.5C609.299 227.3 609.499 227 609.499 226.6C609.499 226 608.999 225.5 608.399 225.5C607.799 225.5 607.299 226 607.299 226.6C607.299 227.2 607.599 227.5 607.999 227.7C607.799 227.7 607.699 227.9 607.599 228.1L606.999 228.9H606.399C605.999 228.9 605.699 229.2 605.699 229.6C605.699 230 605.999 230.3 606.399 230.3H607.299H607.599C607.599 230.2 607.599 231.1 607.599 231.1L606.899 231.4C606.599 231.5 606.499 231.8 606.499 232V233.7V233.9H605.999V232.3C605.999 232.2 605.899 232.1 605.799 232.1H603.499V230.5C603.499 230.4 603.399 230.3 603.299 230.3H600.599C600.499 230.3 600.399 230.4 600.399 230.5C600.399 230.6 600.499 230.7 600.599 230.7H603.099V232.3C603.099 232.4 603.199 232.5 603.299 232.5H605.599V234.1C605.599 234.2 605.699 234.3 605.799 234.3H608.099V235.9C608.099 236 608.199 236.1 608.299 236.1H610.999C611.099 236.1 611.199 236 611.199 235.9C611.199 235.8 611.099 235.7 610.999 235.7L611.199 235.8ZM610.399 235.5C610.399 235.5 610.399 235.6 610.399 235.7C610.399 235.8 610.399 235.7 610.299 235.8C610.199 235.8 609.999 235.8 609.999 235.6L609.499 234C609.499 234 609.499 233.9 609.499 233.8V232.1C609.599 232.1 609.799 231.9 609.999 231.8V233.6C609.999 233.7 609.999 233.8 609.999 233.9L610.499 235.4L610.399 235.5ZM607.799 226.7C607.799 226.3 608.099 226 608.499 226C608.899 226 609.199 226.3 609.199 226.7C609.199 227.1 608.899 227.4 608.499 227.4C608.099 227.4 607.799 227.1 607.799 226.7ZM607.299 229.9H606.399C606.299 229.9 606.199 229.8 606.199 229.7C606.199 229.6 606.299 229.5 606.399 229.5H607.099C607.099 229.5 607.199 229.5 607.299 229.5L607.599 229.1V229.9L607.299 230.1V229.9ZM607.099 233.8V232.1C607.099 232.1 607.099 231.9 607.199 231.9L608.099 231.6C608.099 231.6 608.199 231.5 608.199 231.4L607.999 228.6C608.199 228.4 608.399 228.3 608.599 228.2C608.899 228.2 609.299 228.2 609.599 228.4L610.699 229.2C610.699 229.2 610.699 229.3 610.699 229.4V231C610.699 231.1 610.599 231.2 610.499 231.2C610.499 231.2 610.399 231.2 610.299 231.2C610.299 231.2 610.299 231.2 610.299 231V229.6C610.299 229.6 610.299 229.5 610.299 229.4L609.699 228.9C609.699 228.9 609.499 228.9 609.399 228.9C609.399 228.9 609.399 229.1 609.399 229.2L609.899 229.6V230.9C609.799 231.5 609.499 231.7 609.199 231.8L607.799 232.3C607.799 232.3 607.599 232.4 607.599 232.5V233.9C607.599 234 607.499 234.1 607.399 234.1C607.299 234.1 607.199 234 607.199 233.9L607.099 233.8ZM608.699 234.2C608.699 234.1 608.599 234 608.499 234H607.999C607.999 234 607.999 233.9 607.999 233.8V232.6L608.899 232.3V233.9C608.899 234 608.899 234.1 608.899 234.2L609.399 235.8H608.599V234.2H608.699Z" fill="black"/>
<path d="M560 251.4C560 251.5 560.1 251.6 560.2 251.6H562.9C563 251.6 563.1 251.5 563.1 251.4V249.8H565.4C565.5 249.8 565.6 249.7 565.6 249.6V248H567.9C568 248 568.1 247.9 568.1 247.8V246.2H570.6C570.7 246.2 570.8 246.1 570.8 246C570.8 245.9 570.7 245.8 570.6 245.8H567.9C567.8 245.8 567.7 245.9 567.7 246V247.6H565.4C565.3 247.6 565.2 247.7 565.2 247.8V249.4H564.7C564.7 249.4 564.7 249.3 564.7 249.2V247.5C564.7 247.2 564.5 247 564.3 246.9L563.6 246.6V245.7L563.9 245.8H564.8C565.2 245.8 565.5 245.5 565.5 245.1C565.5 244.7 565.2 244.4 564.8 244.4H564.2L563.6 243.6C563.5 243.5 563.3 243.3 563.2 243.2C563.6 243 563.9 242.6 563.9 242.1C563.9 241.5 563.4 241 562.8 241C562.2 241 561.7 241.5 561.7 242.1C561.7 242.7 561.9 242.7 562.1 243C561.9 243 561.6 243.1 561.4 243.3L560.3 244.1C560.1 244.2 560 244.4 560 244.6V246.2C560 246.6 560.3 246.9 560.7 246.9C561.1 246.9 560.9 246.9 560.9 246.9V249.1C560.9 249.1 560.9 249.2 560.9 249.3L560.4 250.8C560.4 250.9 560.4 251.1 560.4 251.3H560C559.9 251.3 559.8 251.4 559.8 251.5L560 251.4ZM561.6 249.3C561.6 249.2 561.6 249.1 561.6 249V247.2C561.7 247.4 561.9 247.4 562.1 247.5V249.2C562.1 249.2 562.1 249.3 562.1 249.4L561.6 251C561.6 251.1 561.4 251.2 561.3 251.2C561.3 251.2 561.2 251.2 561.2 251.1C561.2 251 561.2 251 561.2 250.9L561.7 249.4L561.6 249.3ZM563 242.8C562.6 242.8 562.3 242.5 562.3 242.1C562.3 241.7 562.6 241.4 563 241.4C563.4 241.4 563.7 241.7 563.7 242.1C563.7 242.5 563.4 242.8 563 242.8ZM563.8 245.1V244.3L564.2 244.7C564.2 244.7 564.3 244.7 564.4 244.7H565.1C565.2 244.7 565.3 244.8 565.3 244.9C565.3 245 565.2 245.1 565.1 245.1H564.2L563.8 244.9V245.1ZM564.1 249.3C564 249.3 563.9 249.2 563.9 249.1V247.7C563.9 247.7 563.9 247.5 563.7 247.5L562.3 247C562 246.9 561.7 246.7 561.6 246.1V244.8L562.1 244.4C562.1 244.4 562.2 244.2 562.1 244.1C562.1 244.1 561.9 244 561.8 244.1L561.2 244.6C561.2 244.6 561.2 244.7 561.2 244.8V246.2C561.2 246.2 561.2 246.3 561.2 246.4C561.2 246.4 561.2 246.4 561 246.4C560.9 246.4 560.8 246.3 560.8 246.2V244.6C560.8 244.6 560.8 244.5 560.8 244.4L561.9 243.6C562.2 243.4 562.5 243.3 562.9 243.4C563.1 243.4 563.3 243.6 563.5 243.8L563.3 246.6C563.3 246.6 563.3 246.8 563.4 246.8L564.3 247.1C564.3 247.1 564.4 247.2 564.4 247.3V249C564.4 249.1 564.3 249.2 564.2 249.2L564.1 249.3ZM562.8 251.1H562L562.5 249.5C562.5 249.4 562.5 249.3 562.5 249.2V247.6L563.4 247.9V249.1V249.3H562.9C562.8 249.3 562.7 249.4 562.7 249.5V251.1H562.8Z" fill="black"/>
<path d="M597.6 256.8V221.6H596.8V256.8H597.6Z" fill="#1D1D1B"/>
<path d="M574.1 239.6H597.6V238.8H574.1V239.6Z" fill="#1D1D1B"/>
<path d="M593.7 256.8V221.6H592.9V256.8H593.7Z" fill="#1D1D1B"/>
<path d="M589.8 256.8V221.6H589V256.8H589.8Z" fill="#1D1D1B"/>
<path d="M585.8 256.8V221.6H585V256.8H585.8Z" fill="#1D1D1B"/>
<path d="M581.899 256.8V221.6H581.099V256.8H581.899Z" fill="#1D1D1B"/>
<path d="M578 256.8V221.6H577.2V256.8H578Z" fill="#1D1D1B"/>
<path d="M574.1 256.8V221.6H573.3V256.8H574.1Z" fill="#1D1D1B"/>
<path d="M115.7 204.9V203.9L118.4 201.3C119 200.7 119.4 200.3 119.7 199.9C119.9 199.5 120.1 199.1 120.1 198.7C120.1 197.8 119.4 197.2 118.4 197.2C117.4 197.2 116.7 197.6 116 198.3V196.9C116.7 196.3 117.6 196 118.6 196C119.6 196 120.1 196.2 120.7 196.7C121.3 197.2 121.6 197.8 121.6 198.6C121.6 199.4 121.5 199.7 121.2 200.2C120.9 200.7 120.4 201.2 119.7 201.9L117.8 203.7H121.9V204.9H115.8H115.7Z" fill="white"/>
<path d="M124.7 204.9V197.6L122.8 198.6V197.3L124.9 196.1H126.1V204.8H124.8L124.7 204.9Z" fill="white"/>
<path d="M128.8 204C128.2 203.3 127.9 202.3 127.9 201C127.9 199.7 128.2 198.4 128.9 197.5C129.6 196.5 130.5 196.1 131.8 196.1C133.1 196.1 133.2 196.3 133.7 196.6V197.8C133.2 197.4 132.6 197.3 131.9 197.3C131.2 197.3 130.4 197.6 130 198.2C129.6 198.8 129.3 199.5 129.3 200.3C129.8 199.6 130.6 199.3 131.6 199.3C132.6 199.3 133.1 199.6 133.6 200.1C134.1 200.6 134.4 201.3 134.4 202.1C134.4 202.9 134.1 203.7 133.5 204.3C132.9 204.9 132.2 205.1 131.3 205.1C130.4 205.1 129.4 204.7 128.8 204ZM132.5 203.4C132.8 203.1 133 202.6 133 202.1C133 201.6 132.8 201.2 132.5 200.9C132.2 200.6 131.7 200.4 131.2 200.4C130.7 200.4 130.4 200.5 130 200.8C129.6 201.1 129.4 201.4 129.3 201.8C129.3 203.1 130.1 203.9 131.2 203.9C132.3 203.9 132.1 203.7 132.5 203.4Z" fill="white"/>
<path d="M116.5 284.1V283.1L119.3 280.5C119.9 279.9 120.4 279.4 120.6 279.1C120.9 278.7 121 278.3 121 277.9C121 277 120.3 276.4 119.2 276.4C118.1 276.4 117.5 276.8 116.7 277.5V276C117.4 275.4 118.3 275.1 119.3 275.1C120.3 275.1 120.8 275.3 121.4 275.8C122 276.3 122.3 276.9 122.3 277.7C122.3 278.5 122.1 278.9 121.9 279.3C121.6 279.8 121.1 280.4 120.4 281L118.5 282.8H122.7V284H116.5V284.1Z" fill="white"/>
<path d="M125.6 284.1V276.7L123.7 277.7V276.3L125.8 275.1H127V284H125.6V284.1Z" fill="white"/>
<path d="M129.3 284.1L133.1 276.5H128.6V275.2H134.7V276.3L130.8 284.1H129.3Z" fill="white"/>
<path d="M185.399 284.1V283.1L188.199 280.5C188.799 279.9 189.299 279.4 189.499 279.1C189.799 278.7 189.899 278.3 189.899 277.9C189.899 277 189.199 276.4 188.099 276.4C186.999 276.4 186.399 276.8 185.599 277.5V276C186.299 275.4 187.199 275.1 188.199 275.1C189.199 275.1 189.699 275.3 190.299 275.8C190.899 276.3 191.199 276.9 191.199 277.7C191.199 278.5 190.999 278.9 190.799 279.3C190.499 279.8 189.999 280.4 189.299 281L187.399 282.8H191.599V284H185.399V284.1Z" fill="white"/>
<path d="M194.5 284.1V276.7L192.6 277.7V276.3L194.7 275.1H195.9V284H194.5V284.1Z" fill="white"/>
<path d="M197.8 283.7V282.4C198.5 282.8 199.3 283.1 200.2 283.1C201.1 283.1 201.4 282.9 201.8 282.6C202.2 282.3 202.5 281.8 202.5 281.3C202.5 280.3 201.6 279.5 200.3 279.5C199 279.5 198.9 279.6 198.2 279.9L198.8 275.3H203.4V276.5H199.8L199.5 278.5C199.8 278.5 200.2 278.4 200.6 278.4C201.6 278.4 202.4 278.7 203 279.2C203.6 279.7 203.9 280.4 203.9 281.3C203.9 282.2 203.6 283 202.9 283.5C202.2 284 201.4 284.3 200.3 284.3C199.2 284.3 198.5 284.1 197.8 283.7Z" fill="white"/>
<path d="M185.399 200.9V199.9L188.199 197.3C188.799 196.7 189.299 196.2 189.499 195.9C189.799 195.5 189.899 195.1 189.899 194.7C189.899 193.8 189.199 193.2 188.099 193.2C186.999 193.2 186.399 193.6 185.599 194.3V192.8C186.299 192.2 187.199 191.9 188.199 191.9C189.199 191.9 189.699 192.1 190.299 192.6C190.899 193.1 191.199 193.7 191.199 194.5C191.199 195.3 190.999 195.7 190.799 196.1C190.499 196.6 189.999 197.2 189.299 197.8L187.399 199.6H191.599V200.8H185.399V200.9Z" fill="white"/>
<path d="M194.5 200.9V193.5L192.6 194.5V193.1L194.7 191.9H195.9V200.8H194.5V200.9Z" fill="white"/>
<path d="M201.999 200.9V198.6H197.399V197.5L201.999 192H203.399V197.4H204.799V198.6H203.399V200.9H201.999ZM198.999 197.4H201.999V193.8L198.999 197.4Z" fill="white"/>
<path d="M271.1 284.1V283.1L273.9 280.5C274.5 279.9 275 279.4 275.2 279.1C275.5 278.7 275.6 278.3 275.6 277.9C275.6 277 274.9 276.4 273.8 276.4C272.7 276.4 272.1 276.8 271.3 277.5V276C272 275.4 272.9 275.1 273.9 275.1C274.9 275.1 275.4 275.3 276 275.8C276.6 276.3 276.9 276.9 276.9 277.7C276.9 278.5 276.7 278.9 276.5 279.3C276.2 279.8 275.7 280.4 275 281L273.1 282.8H277.3V284H271.1V284.1Z" fill="white"/>
<path d="M280.2 284.1V276.7L278.3 277.7V276.3L280.4 275.1H281.6V284H280.2V284.1Z" fill="white"/>
<path d="M283.299 283.6V282.2C283.999 282.7 284.899 283 285.899 283C286.899 283 286.999 282.8 287.399 282.5C287.799 282.2 287.999 281.7 287.999 281.2C287.999 280.2 287.199 279.5 285.899 279.5C284.599 279.5 285.099 279.5 284.799 279.7V278.7L287.199 276.4H283.599V275.2H288.999V276.3L286.699 278.5C287.399 278.5 287.999 278.9 288.599 279.4C289.199 279.9 289.399 280.5 289.399 281.3C289.399 282.1 289.099 282.9 288.399 283.5C287.699 284.1 286.899 284.3 285.899 284.3C284.899 284.3 283.999 284.1 283.199 283.6H283.299Z" fill="white"/>
<path d="M271.1 200.9V199.9L273.9 197.3C274.5 196.7 275 196.2 275.2 195.9C275.5 195.5 275.6 195.1 275.6 194.7C275.6 193.8 274.9 193.2 273.8 193.2C272.7 193.2 272.1 193.6 271.3 194.3V192.8C272 192.2 272.9 191.9 273.9 191.9C274.9 191.9 275.4 192.1 276 192.6C276.6 193.1 276.9 193.7 276.9 194.5C276.9 195.3 276.7 195.7 276.5 196.1C276.2 196.6 275.7 197.2 275 197.8L273.1 199.6H277.3V200.8H271.1V200.9Z" fill="white"/>
<path d="M280.2 200.9V193.5L278.3 194.5V193.1L280.4 191.9H281.6V200.8H280.2V200.9Z" fill="white"/>
<path d="M283.3 200.9V199.9L286.1 197.3C286.7 196.7 287.2 196.2 287.4 195.9C287.7 195.5 287.8 195.1 287.8 194.7C287.8 193.8 287.1 193.2 286 193.2C284.9 193.2 284.3 193.6 283.5 194.3V192.8C284.2 192.2 285.1 191.9 286.1 191.9C287.1 191.9 287.6 192.1 288.2 192.6C288.8 193.1 289.1 193.7 289.1 194.5C289.1 195.3 288.9 195.7 288.7 196.1C288.4 196.6 287.9 197.2 287.2 197.8L285.3 199.6H289.5V200.8H283.3V200.9Z" fill="white"/>
<path d="M356 200.9V199.9L358.8 197.3C359.4 196.7 359.9 196.2 360.1 195.9C360.4 195.5 360.5 195.1 360.5 194.7C360.5 193.8 359.8 193.2 358.7 193.2C357.6 193.2 357 193.6 356.2 194.3V192.8C356.9 192.2 357.8 191.9 358.8 191.9C359.8 191.9 360.3 192.1 360.9 192.6C361.5 193.1 361.8 193.7 361.8 194.5C361.8 195.3 361.6 195.7 361.4 196.1C361.1 196.6 360.6 197.2 359.9 197.8L358 199.6H362.2V200.8H356V200.9Z" fill="white"/>
<path d="M365.1 200.9V193.5L363.2 194.5V193.1L365.3 191.9H366.5V200.8H365.1V200.9Z" fill="white"/>
<path d="M369.4 199.7C368.7 198.8 368.4 197.7 368.4 196.4C368.4 195.1 368.7 194 369.4 193.1C370.1 192.2 371 191.8 372.1 191.8C373.2 191.8 374.1 192.2 374.8 193.1C375.5 194 375.8 195.1 375.8 196.4C375.8 197.7 375.5 198.8 374.8 199.7C374.1 200.6 373.2 201 372.1 201C371 201 370.1 200.6 369.4 199.7ZM373.8 198.8C374.2 198.2 374.4 197.4 374.4 196.5C374.4 195.6 374.2 194.8 373.8 194.2C373.4 193.6 372.8 193.2 372.1 193.2C371.4 193.2 370.8 193.5 370.4 194.2C370 194.8 369.8 195.6 369.8 196.5C369.8 197.4 370 198.2 370.4 198.8C370.8 199.4 371.4 199.8 372.1 199.8C372.8 199.8 373.4 199.5 373.8 198.8Z" fill="white"/>
<path d="M424 284.1V283.1L426.8 280.5C427.4 279.9 427.9 279.4 428.1 279.1C428.4 278.7 428.5 278.3 428.5 277.9C428.5 277 427.8 276.4 426.7 276.4C425.6 276.4 425 276.8 424.2 277.5V276C424.9 275.4 425.8 275.1 426.8 275.1C427.8 275.1 428.3 275.3 428.9 275.8C429.5 276.3 429.8 276.9 429.8 277.7C429.8 278.5 429.6 278.9 429.4 279.3C429.1 279.8 428.6 280.4 427.9 281L426 282.8H430.2V284H424V284.1Z" fill="white"/>
<path d="M432.6 283C431.9 282.1 431.6 281 431.6 279.7C431.6 278.4 431.9 277.3 432.6 276.4C433.3 275.5 434.2 275.1 435.3 275.1C436.4 275.1 437.3 275.5 438 276.4C438.7 277.3 439 278.4 439 279.7C439 281 438.7 282.1 438 283C437.3 283.9 436.4 284.3 435.3 284.3C434.2 284.3 433.3 283.9 432.6 283ZM437 282C437.4 281.4 437.6 280.6 437.6 279.7C437.6 278.8 437.4 278 437 277.4C436.6 276.8 436 276.4 435.3 276.4C434.6 276.4 434 276.7 433.6 277.4C433.2 278 433 278.8 433 279.7C433 280.6 433.2 281.4 433.6 282C434 282.6 434.6 283 435.3 283C436 283 436.6 282.7 437 282Z" fill="white"/>
<path d="M446.2 276.2C446.8 276.9 447.1 278 447.1 279.3C447.1 280.6 446.7 281.9 446 282.9C445.3 283.9 444.3 284.3 443.1 284.3C441.9 284.3 441.7 284.1 441.1 283.7V282.4C441.6 282.8 442.3 283 442.9 283C443.5 283 444.4 282.7 444.9 282.1C445.4 281.5 445.6 280.8 445.6 279.9C445.1 280.6 444.3 280.9 443.3 280.9C442.3 280.9 441.8 280.6 441.3 280.1C440.8 279.6 440.5 278.9 440.5 278C440.5 277.1 440.8 276.4 441.4 275.8C442 275.2 442.7 274.9 443.6 274.9C444.5 274.9 445.5 275.3 446.1 276L446.2 276.2ZM442.5 276.8C442.2 277.1 442 277.6 442 278.1C442 278.6 442.2 279 442.5 279.4C442.9 279.7 443.3 279.9 443.8 279.9C444.3 279.9 444.7 279.8 445 279.5C445.4 279.2 445.6 278.9 445.7 278.5C445.6 277.2 444.9 276.4 443.7 276.4C442.5 276.4 442.7 276.6 442.4 276.9L442.5 276.8Z" fill="white"/>
<path d="M356 284.3V283.3L358.8 280.7C359.4 280.1 359.9 279.6 360.1 279.3C360.4 278.9 360.5 278.5 360.5 278.1C360.5 277.2 359.8 276.6 358.7 276.6C357.6 276.6 357 277 356.2 277.7V276.2C356.9 275.6 357.8 275.3 358.8 275.3C359.8 275.3 360.3 275.5 360.9 276C361.5 276.5 361.8 277.1 361.8 277.9C361.8 278.7 361.6 279.1 361.4 279.5C361.1 280 360.6 280.6 359.9 281.2L358 283H362.2V284.2H356V284.3Z" fill="white"/>
<path d="M365.1 284.3V276.9L363.2 277.9V276.5L365.3 275.3H366.5V284.2H365.1V284.3Z" fill="white"/>
<path d="M369.9 284.3V276.9L368 277.9V276.5L370.1 275.3H371.3V284.2H369.9V284.3Z" fill="white"/>
<path d="M410.899 193.3V192.8L412.299 191.5C412.599 191.2 412.799 191 412.999 190.8C413.099 190.6 413.199 190.4 413.199 190.2C413.199 189.7 412.799 189.4 412.299 189.4C411.799 189.4 411.399 189.6 410.999 190V189.3C411.399 189 411.799 188.8 412.299 188.8C412.799 188.8 413.099 188.9 413.399 189.2C413.699 189.4 413.899 189.8 413.899 190.2C413.899 190.6 413.899 190.8 413.699 191C413.599 191.2 413.299 191.5 412.899 191.9L411.899 192.8H413.999V193.4H410.899V193.3Z" fill="white"/>
<path d="M415.3 192.7C415 192.2 414.8 191.7 414.8 191C414.8 190.3 415 189.8 415.3 189.3C415.6 188.8 416.1 188.6 416.7 188.6C417.3 188.6 417.7 188.8 418.1 189.3C418.4 189.8 418.6 190.3 418.6 191C418.6 191.7 418.4 192.2 418.1 192.7C417.8 193.2 417.3 193.4 416.7 193.4C416.1 193.4 415.7 193.2 415.3 192.7ZM417.6 192.2C417.8 191.9 417.9 191.5 417.9 191C417.9 190.5 417.8 190.1 417.6 189.8C417.4 189.5 417.1 189.3 416.7 189.3C416.3 189.3 416.1 189.5 415.8 189.8C415.6 190.1 415.5 190.5 415.5 191C415.5 191.5 415.6 191.9 415.8 192.2C416 192.5 416.3 192.7 416.7 192.7C417.1 192.7 417.3 192.5 417.6 192.2Z" fill="white"/>
<path d="M422.799 192C422.799 192.4 422.599 192.7 422.299 193C421.999 193.2 421.499 193.4 420.999 193.4C420.499 193.4 420.099 193.3 419.699 193C419.399 192.8 419.199 192.4 419.199 192C419.199 191.6 419.599 191 420.099 190.9C419.699 190.7 419.399 190.4 419.399 189.9C419.399 189.4 419.499 189.2 419.799 189C420.099 188.8 420.499 188.7 420.899 188.7C421.299 188.7 421.699 188.8 421.999 189C422.299 189.2 422.399 189.5 422.399 189.9C422.399 190.3 422.099 190.7 421.699 190.9C422.199 191.1 422.599 191.5 422.599 192H422.799ZM421.799 191.4C421.599 191.3 421.399 191.2 421.099 191.2C420.799 191.2 420.599 191.2 420.399 191.4C420.199 191.5 420.099 191.7 420.099 192C420.099 192.3 420.099 192.4 420.399 192.6C420.599 192.7 420.899 192.8 421.099 192.8C421.299 192.8 421.599 192.8 421.799 192.6C421.999 192.5 422.099 192.3 422.099 192C422.099 191.7 422.099 191.6 421.799 191.4ZM421.899 190C421.899 189.6 421.499 189.3 420.999 189.3C420.499 189.3 420.099 189.6 420.099 190C420.099 190.4 420.499 190.7 420.999 190.7C421.499 190.7 421.899 190.4 421.899 190Z" fill="white"/>
<path d="M495.6 109.9V108.9L498.4 106.3C499 105.7 499.5 105.2 499.7 104.9C500 104.5 500.1 104.1 500.1 103.7C500.1 102.8 499.4 102.2 498.3 102.2C497.2 102.2 496.6 102.6 495.8 103.3V101.8C496.5 101.2 497.4 100.9 498.4 100.9C499.4 100.9 499.9 101.1 500.5 101.6C501.1 102.1 501.4 102.7 501.4 103.5C501.4 104.3 501.2 104.7 501 105.1C500.7 105.6 500.2 106.2 499.5 106.8L497.6 108.6H501.8V109.8H495.6V109.9Z" fill="white"/>
<path d="M504.199 108.8C503.499 107.9 503.199 106.8 503.199 105.5C503.199 104.2 503.499 103.1 504.199 102.2C504.899 101.3 505.799 100.9 506.899 100.9C507.999 100.9 508.899 101.3 509.599 102.2C510.299 103.1 510.599 104.2 510.599 105.5C510.599 106.8 510.299 107.9 509.599 108.8C508.899 109.7 507.999 110.1 506.899 110.1C505.799 110.1 504.899 109.7 504.199 108.8ZM508.599 107.8C508.999 107.2 509.199 106.4 509.199 105.5C509.199 104.6 508.999 103.8 508.599 103.2C508.199 102.6 507.599 102.2 506.899 102.2C506.199 102.2 505.599 102.5 505.199 103.2C504.799 103.8 504.599 104.6 504.599 105.5C504.599 106.4 504.799 107.2 505.199 107.8C505.599 108.4 506.199 108.8 506.899 108.8C507.599 108.8 508.199 108.5 508.599 107.8Z" fill="white"/>
<path d="M516.299 109.9V107.6H511.699V106.5L516.299 101H517.699V106.4H519.099V107.6H517.699V109.9H516.299ZM513.299 106.4H516.299V102.8L513.299 106.4Z" fill="white"/>
<path d="M575.899 109.1V108.1L578.699 105.5C579.299 104.9 579.799 104.4 579.999 104.1C580.299 103.7 580.399 103.3 580.399 102.9C580.399 102 579.699 101.4 578.599 101.4C577.499 101.4 576.899 101.8 576.099 102.5V101C576.799 100.4 577.699 100.1 578.699 100.1C579.699 100.1 580.199 100.3 580.799 100.8C581.399 101.3 581.699 101.9 581.699 102.7C581.699 103.5 581.499 103.9 581.299 104.3C580.999 104.8 580.499 105.4 579.799 106L577.899 107.8H582.099V109H575.899V109.1Z" fill="white"/>
<path d="M584.499 108C583.799 107.1 583.499 106 583.499 104.7C583.499 103.4 583.799 102.3 584.499 101.4C585.199 100.5 586.099 100.1 587.199 100.1C588.299 100.1 589.199 100.5 589.899 101.4C590.599 102.3 590.899 103.4 590.899 104.7C590.899 106 590.599 107.1 589.899 108C589.199 108.9 588.299 109.3 587.199 109.3C586.099 109.3 585.199 108.9 584.499 108ZM588.899 107C589.299 106.4 589.499 105.6 589.499 104.7C589.499 103.8 589.299 103 588.899 102.4C588.499 101.8 587.899 101.4 587.199 101.4C586.499 101.4 585.899 101.7 585.499 102.4C585.099 103 584.899 103.8 584.899 104.7C584.899 105.6 585.099 106.4 585.499 107C585.899 107.6 586.499 108 587.199 108C587.899 108 588.499 107.7 588.899 107Z" fill="white"/>
<path d="M592.199 109.1V108.1L594.999 105.5C595.599 104.9 596.099 104.4 596.299 104.1C596.599 103.7 596.699 103.3 596.699 102.9C596.699 102 595.999 101.4 594.899 101.4C593.799 101.4 593.199 101.8 592.399 102.5V101C593.099 100.4 593.999 100.1 594.999 100.1C595.999 100.1 596.499 100.3 597.099 100.8C597.699 101.3 597.999 101.9 597.999 102.7C597.999 103.5 597.799 103.9 597.599 104.3C597.299 104.8 596.799 105.4 596.099 106L594.199 107.8H598.399V109H592.199V109.1Z" fill="white"/>
<path d="M575.899 200.9V199.9L578.699 197.3C579.299 196.7 579.799 196.2 579.999 195.9C580.299 195.5 580.399 195.1 580.399 194.7C580.399 193.8 579.699 193.2 578.599 193.2C577.499 193.2 576.899 193.6 576.099 194.3V192.8C576.799 192.2 577.699 191.9 578.699 191.9C579.699 191.9 580.199 192.1 580.799 192.6C581.399 193.1 581.699 193.7 581.699 194.5C581.699 195.3 581.499 195.7 581.299 196.1C580.999 196.6 580.499 197.2 579.799 197.8L577.899 199.6H582.099V200.8H575.899V200.9Z" fill="white"/>
<path d="M584.499 199.7C583.799 198.8 583.499 197.7 583.499 196.4C583.499 195.1 583.799 194 584.499 193.1C585.199 192.2 586.099 191.8 587.199 191.8C588.299 191.8 589.199 192.2 589.899 193.1C590.599 194 590.899 195.1 590.899 196.4C590.899 197.7 590.599 198.8 589.899 199.7C589.199 200.6 588.299 201 587.199 201C586.099 201 585.199 200.6 584.499 199.7ZM588.899 198.8C589.299 198.2 589.499 197.4 589.499 196.5C589.499 195.6 589.299 194.8 588.899 194.2C588.499 193.6 587.899 193.2 587.199 193.2C586.499 193.2 585.899 193.5 585.499 194.2C585.099 194.8 584.899 195.6 584.899 196.5C584.899 197.4 585.099 198.2 585.499 198.8C585.899 199.4 586.499 199.8 587.199 199.8C587.899 199.8 588.499 199.5 588.899 198.8Z" fill="white"/>
<path d="M593.499 199.7C592.799 198.8 592.499 197.7 592.499 196.4C592.499 195.1 592.799 194 593.499 193.1C594.199 192.2 595.099 191.8 596.199 191.8C597.299 191.8 598.199 192.2 598.899 193.1C599.599 194 599.899 195.1 599.899 196.4C599.899 197.7 599.599 198.8 598.899 199.7C598.199 200.6 597.299 201 596.199 201C595.099 201 594.199 200.6 593.499 199.7ZM597.899 198.8C598.299 198.2 598.499 197.4 598.499 196.5C598.499 195.6 598.299 194.8 597.899 194.2C597.499 193.6 596.899 193.2 596.199 193.2C595.499 193.2 594.899 193.5 594.499 194.2C594.099 194.8 593.899 195.6 593.899 196.5C593.899 197.4 594.099 198.2 594.499 198.8C594.899 199.4 595.499 199.8 596.199 199.8C596.899 199.8 597.499 199.5 597.899 198.8Z" fill="white"/>
<path d="M575.899 284.3V283.3L578.699 280.7C579.299 280.1 579.799 279.6 579.999 279.3C580.299 278.9 580.399 278.5 580.399 278.1C580.399 277.2 579.699 276.6 578.599 276.6C577.499 276.6 576.899 277 576.099 277.7V276.2C576.799 275.6 577.699 275.3 578.699 275.3C579.699 275.3 580.199 275.5 580.799 276C581.399 276.5 581.699 277.1 581.699 277.9C581.699 278.7 581.499 279.1 581.299 279.5C580.999 280 580.499 280.6 579.799 281.2L577.899 283H582.099V284.2H575.899V284.3Z" fill="white"/>
<path d="M584.499 283.1C583.799 282.2 583.499 281.1 583.499 279.8C583.499 278.5 583.799 277.4 584.499 276.5C585.199 275.6 586.099 275.2 587.199 275.2C588.299 275.2 589.199 275.6 589.899 276.5C590.599 277.4 590.899 278.5 590.899 279.8C590.899 281.1 590.599 282.2 589.899 283.1C589.199 284 588.299 284.4 587.199 284.4C586.099 284.4 585.199 284 584.499 283.1ZM588.899 282.2C589.299 281.6 589.499 280.8 589.499 279.9C589.499 279 589.299 278.2 588.899 277.6C588.499 277 587.899 276.6 587.199 276.6C586.499 276.6 585.899 276.9 585.499 277.6C585.099 278.2 584.899 279 584.899 279.9C584.899 280.8 585.099 281.6 585.499 282.2C585.899 282.8 586.499 283.2 587.199 283.2C587.899 283.2 588.499 282.9 588.899 282.2Z" fill="white"/>
<path d="M594 284.3V276.9L592.1 277.9V276.5L594.2 275.3H595.4V284.2H594V284.3Z" fill="white"/>
<path d="M575.899 379.1V378.1L578.699 375.5C579.299 374.9 579.799 374.4 579.999 374.1C580.299 373.7 580.399 373.3 580.399 372.9C580.399 372 579.699 371.4 578.599 371.4C577.499 371.4 576.899 371.8 576.099 372.5V371C576.799 370.4 577.699 370.1 578.699 370.1C579.699 370.1 580.199 370.3 580.799 370.8C581.399 371.3 581.699 371.9 581.699 372.7C581.699 373.5 581.499 373.9 581.299 374.3C580.999 374.8 580.499 375.4 579.799 376L577.899 377.8H582.099V379H575.899V379.1Z" fill="white"/>
<path d="M584.499 378C583.799 377.1 583.499 376 583.499 374.7C583.499 373.4 583.799 372.3 584.499 371.4C585.199 370.5 586.099 370.1 587.199 370.1C588.299 370.1 589.199 370.5 589.899 371.4C590.599 372.3 590.899 373.4 590.899 374.7C590.899 376 590.599 377.1 589.899 378C589.199 378.9 588.299 379.3 587.199 379.3C586.099 379.3 585.199 378.9 584.499 378ZM588.899 377C589.299 376.4 589.499 375.6 589.499 374.7C589.499 373.8 589.299 373 588.899 372.4C588.499 371.8 587.899 371.4 587.199 371.4C586.499 371.4 585.899 371.7 585.499 372.4C585.099 373 584.899 373.8 584.899 374.7C584.899 375.6 585.099 376.4 585.499 377C585.899 377.6 586.499 378 587.199 378C587.899 378 588.499 377.7 588.899 377Z" fill="white"/>
<path d="M592.2 378.6V377.2C592.9 377.7 593.8 378 594.8 378C595.8 378 595.9 377.8 596.3 377.5C596.7 377.2 596.9 376.7 596.9 376.2C596.9 375.2 596.1 374.5 594.8 374.5C593.5 374.5 594 374.5 593.7 374.7V373.7L596.1 371.4H592.5V370.2H597.9V371.3L595.6 373.5C596.3 373.5 596.9 373.9 597.5 374.4C598 374.9 598.3 375.5 598.3 376.3C598.3 377.1 598 377.9 597.3 378.5C596.6 379.1 595.8 379.3 594.8 379.3C593.8 379.3 592.9 379.1 592.1 378.6H592.2Z" fill="white"/>
<path d="M495.6 379.8V378.8L498.4 376.2C499 375.6 499.5 375.1 499.7 374.8C500 374.4 500.1 374 500.1 373.6C500.1 372.7 499.4 372.1 498.3 372.1C497.2 372.1 496.6 372.5 495.8 373.2V371.7C496.5 371.1 497.4 370.8 498.4 370.8C499.4 370.8 499.9 371 500.5 371.5C501.1 372 501.4 372.6 501.4 373.4C501.4 374.2 501.2 374.6 501 375C500.7 375.5 500.2 376.1 499.5 376.7L497.6 378.5H501.8V379.7H495.6V379.8Z" fill="white"/>
<path d="M504.199 378.6C503.499 377.7 503.199 376.6 503.199 375.3C503.199 374 503.499 372.9 504.199 372C504.899 371.1 505.799 370.7 506.899 370.7C507.999 370.7 508.899 371.1 509.599 372C510.299 372.9 510.599 374 510.599 375.3C510.599 376.6 510.299 377.7 509.599 378.6C508.899 379.5 507.999 379.9 506.899 379.9C505.799 379.9 504.899 379.5 504.199 378.6ZM508.599 377.7C508.999 377.1 509.199 376.3 509.199 375.4C509.199 374.5 508.999 373.7 508.599 373.1C508.199 372.5 507.599 372.1 506.899 372.1C506.199 372.1 505.599 372.4 505.199 373.1C504.799 373.7 504.599 374.5 504.599 375.4C504.599 376.3 504.799 377.1 505.199 377.7C505.599 378.3 506.199 378.7 506.899 378.7C507.599 378.7 508.199 378.4 508.599 377.7Z" fill="white"/>
<path d="M512.1 379.3V378C512.8 378.4 513.6 378.7 514.5 378.7C515.4 378.7 515.7 378.5 516.1 378.2C516.5 377.9 516.8 377.4 516.8 376.9C516.8 375.9 515.9 375.1 514.6 375.1C513.3 375.1 513.2 375.2 512.5 375.5L513.1 370.9H517.7V372.1H514.1L513.8 374.1C514.1 374.1 514.5 374 514.9 374C515.9 374 516.7 374.3 517.3 374.8C517.9 375.3 518.2 376 518.2 376.9C518.2 377.8 517.9 378.6 517.2 379.1C516.5 379.6 515.7 379.9 514.6 379.9C513.5 379.9 512.8 379.7 512.1 379.3Z" fill="white"/>
<path d="M493.7 287.8L492.5 284.3H493.3L494 286.7L494.8 284.3H495.4L496.2 286.7L496.9 284.3H497.7L496.5 287.8H495.9L495.1 285.4L494.3 287.8H493.7Z" fill="white"/>
<path d="M498.4 287.4C498 287.1 497.9 286.6 497.9 286.1C497.9 285.6 498.1 285.1 498.4 284.8C498.8 284.5 499.2 284.3 499.8 284.3C500.4 284.3 500.5 284.3 500.7 284.5V285.2C500.4 285 500.1 284.9 499.8 284.9C499.5 284.9 499.2 285 499 285.2C498.8 285.4 498.7 285.7 498.7 286C498.7 286.3 498.8 286.6 499 286.8C499.2 287 499.5 287.1 499.9 287.1C500.3 287.1 500.6 287 500.9 286.8V287.5C500.6 287.7 500.3 287.8 499.9 287.8C499.4 287.8 498.9 287.6 498.5 287.3L498.4 287.4Z" fill="white"/>
<path d="M497.7 271.5C497.7 270.9 497.2 270.4 496.6 270.4C496 270.4 495.5 270.9 495.5 271.5C495.5 272.1 496 272.6 496.6 272.6C497.2 272.6 497.7 272.1 497.7 271.5ZM496.6 272.2C496.2 272.2 496 271.9 496 271.6C496 271.3 496.3 271 496.6 271C496.9 271 497.2 271.3 497.2 271.6C497.2 271.9 496.9 272.2 496.6 272.2Z" fill="white"/>
<path d="M497.7 272.6H495.6C494.9 272.6 494.3 273.2 494.3 273.9V276.6C494.3 277 494.6 277.4 495 277.4C495.1 277.4 495.2 277.4 495.3 277.4V281.7C495.3 282.1 495.6 282.5 496.1 282.5C496.3 282.5 496.5 282.5 496.6 282.3C496.9 282.6 497.4 282.6 497.7 282.3C497.8 282.2 497.9 282 497.9 281.8V277.5C498.3 277.7 498.7 277.5 498.9 277.1C498.9 277 498.9 276.9 498.9 276.8V274.1C498.9 273.4 498.3 272.8 497.6 272.8L497.7 272.6ZM496.4 281.5C496.4 281.7 496.3 281.8 496.1 281.8C495.9 281.8 495.8 281.7 495.8 281.5V277.7H496.4V281.5ZM497.5 281.5C497.5 281.7 497.4 281.8 497.2 281.8C497 281.8 496.9 281.7 496.9 281.5V277.7H497.5V281.5ZM498.6 276.6C498.6 276.8 498.5 276.9 498.3 276.9C498.1 276.9 498 276.8 498 276.6V273.9C498 273.8 498 273.7 497.8 273.7C497.6 273.7 497.6 273.7 497.6 273.9V277.3H495.9V273.9C495.9 273.8 495.9 273.7 495.7 273.7C495.5 273.7 495.5 273.7 495.5 273.9V276.6C495.5 276.8 495.4 276.9 495.2 276.9C495 276.9 494.9 276.8 494.9 276.6V273.9C494.9 273.4 495.3 273 495.8 273H497.9C498.4 273 498.8 273.4 498.8 273.9V276.6H498.6Z" fill="white"/>
<path d="M492 209.5L490.8 206H491.6L492.3 208.4L493.1 206H493.7L494.5 208.4L495.2 206H496L494.8 209.5H494.2L493.4 207.1L492.6 209.5H492Z" fill="white"/>
<path d="M496.8 209.1C496.4 208.8 496.3 208.3 496.3 207.8C496.3 207.3 496.5 206.8 496.8 206.5C497.2 206.2 497.6 206 498.2 206C498.8 206 498.9 206 499.1 206.2V206.9C498.8 206.7 498.5 206.6 498.2 206.6C497.9 206.6 497.6 206.7 497.4 206.9C497.2 207.1 497.1 207.4 497.1 207.7C497.1 208 497.2 208.3 497.4 208.5C497.6 208.7 497.9 208.8 498.3 208.8C498.7 208.8 499 208.7 499.3 208.5V209.2C499 209.4 498.7 209.5 498.3 209.5C497.8 209.5 497.3 209.3 496.9 209L496.8 209.1Z" fill="white"/>
<path d="M498.2 198L497.3 195C497.2 194.6 496.9 194.4 496.5 194.4H494.4C493.8 194.4 493.3 194.8 493.2 195.3L492.4 198C492.3 198.4 492.5 198.8 492.9 198.9C493 198.9 493.1 198.9 493.2 198.9L492.9 199.8C492.9 200 492.9 200.3 493.2 200.3C493.2 200.3 493.2 200.3 493.3 200.3H493.9V203.2C493.9 203.6 494.2 203.9 494.6 204C494.8 204 495 204 495.1 203.8C495.4 204.1 495.9 204.1 496.2 203.8C496.3 203.7 496.4 203.5 496.4 203.3V200.4H497C497.2 200.4 497.4 200.2 497.4 200C497.4 200 497.4 200 497.4 199.9L497.1 199C497.2 199 497.3 199 497.4 199C497.8 198.9 498 198.5 497.9 198.1L498.2 198ZM495.1 203.3C495.1 203.5 495 203.6 494.8 203.6C494.6 203.6 494.5 203.5 494.5 203.3V200.4H495.1V203.3ZM496.2 203.3C496.2 203.5 496.1 203.6 495.9 203.6C495.7 203.6 495.6 203.5 495.6 203.3V200.4H496.2V203.3ZM497.6 198.5C497.4 198.5 497.3 198.5 497.2 198.3L496.4 195.6C496.4 195.5 496.2 195.4 496.1 195.5C496 195.5 495.9 195.6 496 195.8L497.2 200H493.5L494.7 195.8C494.7 195.7 494.7 195.6 494.5 195.5C494.4 195.5 494.3 195.5 494.2 195.6L493.4 198.3C493.4 198.5 493.2 198.6 493 198.5C492.8 198.4 492.7 198.3 492.8 198.1L493.6 195.4C493.7 195 494 194.8 494.4 194.8H496.5C496.7 194.8 496.9 194.9 496.9 195.1L497.8 198.1C497.8 198.3 497.8 198.4 497.6 198.5Z" fill="white"/>
<path d="M495.4 194.4C496 194.4 496.5 193.9 496.5 193.3C496.5 192.7 496 192.2 495.4 192.2C494.8 192.2 494.3 192.7 494.3 193.3C494.3 193.9 494.8 194.4 495.4 194.4ZM495.4 192.6C495.8 192.6 496 192.9 496 193.2C496 193.5 495.7 193.8 495.4 193.8C495.1 193.8 494.8 193.5 494.8 193.2C494.8 192.9 495.1 192.6 495.4 192.6Z" fill="white"/>
<path d="M419.8 201V196H423.5V196.9H420.9V197.9H423V198.8H420.9V200.1H423.6V201H419.9H419.8Z" fill="white"/>
<path d="M423.899 202V200.1H424.399C424.599 199.8 424.799 199.3 424.899 198.8C424.999 198.3 425.099 197.6 425.099 196.8V196H428.599V200.1H429.299V202H428.299V201H424.899V202H423.899ZM427.599 200.1V196.9H426.099C426.099 198.2 425.999 199.2 425.599 200.1H427.599Z" fill="white"/>
<path d="M430 201V196H431V199.3L433.4 196H434.3V201H433.3V197.7L430.9 201H430Z" fill="white"/>
<path d="M435.5 201V196H436.5V197.9H438.8V196H439.8V201H438.8V198.8H436.5V201H435.5Z" fill="white"/>
<path d="M441.5 196.7C442 196.2 442.6 195.9 443.4 195.9C444.2 195.9 444.8 196.1 445.2 196.7C445.7 197.2 445.9 197.8 445.9 198.5C445.9 199.2 445.7 199.8 445.2 200.3C444.7 200.8 444.1 201.1 443.4 201.1C442.7 201.1 442 200.9 441.5 200.3C441 199.8 440.8 199.2 440.8 198.5C440.8 197.8 441 197.2 441.5 196.7ZM443.3 200.1C443.7 200.1 444.1 199.9 444.4 199.6C444.7 199.3 444.8 198.9 444.8 198.4C444.8 197.9 444.7 197.5 444.4 197.2C444.1 196.9 443.7 196.7 443.3 196.7C442.9 196.7 442.5 196.9 442.2 197.2C441.9 197.5 441.8 197.9 441.8 198.4C441.8 198.9 441.9 199.3 442.2 199.6C442.5 199.9 442.9 200.1 443.3 200.1Z" fill="white"/>
<path d="M446.8 201V196H450.5V196.9H447.9V197.9H450V198.8H447.9V200.1H450.6V201H446.9H446.8Z" fill="white"/>
<path d="M425 205.2C425.5 204.7 426.1 204.4 426.9 204.4C427.7 204.4 428.3 204.6 428.7 205.2C429.2 205.7 429.4 206.3 429.4 207C429.4 207.7 429.2 208.3 428.7 208.8C428.2 209.3 427.6 209.6 426.9 209.6C426.2 209.6 425.5 209.4 425 208.8C424.5 208.3 424.3 207.7 424.3 207C424.3 206.3 424.5 205.7 425 205.2ZM426.8 208.7C427.2 208.7 427.6 208.5 427.9 208.2C428.2 207.9 428.3 207.5 428.3 207C428.3 206.5 428.1 206.1 427.9 205.8C427.7 205.5 427.2 205.3 426.8 205.3C426.4 205.3 426 205.5 425.7 205.8C425.4 206.1 425.3 206.5 425.3 207C425.3 207.5 425.4 207.9 425.7 208.2C426 208.5 426.4 208.7 426.8 208.7Z" fill="white"/>
<path d="M430.399 209.6V204.6H431.399V206.6L433.199 204.6H434.499L432.399 206.9L434.899 209.6H433.599L431.499 207.3V209.6H430.499H430.399Z" fill="white"/>
<path d="M435.399 209.6V204.6H436.399V206.5H438.699V204.6H439.699V209.6H438.699V207.4H436.399V209.6H435.399Z" fill="white"/>
<path d="M441.4 205.2C441.9 204.7 442.5 204.4 443.3 204.4C444.1 204.4 444.7 204.6 445.1 205.2C445.6 205.7 445.8 206.3 445.8 207C445.8 207.7 445.6 208.3 445.1 208.8C444.6 209.3 444 209.6 443.3 209.6C442.6 209.6 441.9 209.4 441.4 208.8C440.9 208.3 440.7 207.7 440.7 207C440.7 206.3 440.9 205.7 441.4 205.2ZM443.2 208.7C443.6 208.7 444 208.5 444.3 208.2C444.6 207.9 444.7 207.5 444.7 207C444.7 206.5 444.5 206.1 444.3 205.8C444.1 205.5 443.6 205.3 443.2 205.3C442.8 205.3 442.4 205.5 442.1 205.8C441.8 206.1 441.7 206.5 441.7 207C441.7 207.5 441.8 207.9 442.1 208.2C442.4 208.5 442.8 208.7 443.2 208.7Z" fill="white"/>
<path d="M0 39.3V34.9L12.1 23.5C14.8 21 16.7 18.9 17.8 17.3C18.9 15.6 19.5 13.9 19.5 12C19.5 8.1 16.4 5.5 11.8 5.5C7.2 5.5 4.4 7.10005 1 10.3V4C4.2 1.3 8 0 12.4 0C16.8 0 19.1 1.00004 21.7 3.10004C24.3 5.20004 25.6 8.00005 25.6 11.3C25.6 14.6 24.9 16.3 23.7 18.4C22.4 20.4 20.3 23 17.2 25.9L8.9 33.8H27V39.2H0.100006L0 39.3Z" fill="black"/>
<path d="M46.9004 37.9V32.7C49.3004 34.1 51.9004 34.8 54.6004 34.8C59.5004 34.8 63.3004 32.1 64.0004 28.1H52.6004V23.3H64.0004C63.1004 19.3 59.5004 16.8 54.6004 16.8C49.7004 16.8 49.7004 17.4 47.5004 18.6V13.4C49.9004 12.2 52.5004 11.6 55.6004 11.6C58.7004 11.6 63.1004 12.9 65.9004 15.6C68.7004 18.3 70.1004 21.7 70.1004 25.8C70.1004 29.9 68.7004 33.4 65.9004 36.1C63.1004 38.8 59.6004 40.1 55.6004 40.1C51.6004 40.1 49.5004 39.4 47.0004 37.9H46.9004Z" fill="black"/>
<path d="M81.7996 39.3V17.5H72.5996V12.3H96.7996V17.5H87.6996V39.3H81.6996H81.7996Z" fill="black"/>
<path d="M129.3 34.3V38.8C128.5 39.4 127.3 39.7 125.8 39.7C122.8 39.7 120.8 38.4 120.1 35.8C117.6 38.6 114.3 40 110.1 40C105.9 40 104.8 39.2 102.8 37.6C100.9 36 99.9004 33.7 99.9004 30.9C99.9004 28.1 100.9 25.8 103 24.3C105.1 22.7 107.7 21.9 110.7 21.9C113.7 21.9 116.9 22.6 119.4 24V22.5C119.4 18.6 116.8 16.6 111.5 16.6C106.2 16.6 105.5 17.4 103 19V13.8C105.7 12.3 109 11.5 112.9 11.5C120.4 11.5 125.4 15.2 125.4 21.9V32C125.4 33.7 126.3 34.7 127.7 34.7C129.1 34.7 128.8 34.6 129.3 34.3ZM119.6 28.4C117.3 27.1 114.9 26.5 112.4 26.5C108.4 26.5 106.1 28 106.1 30.7C106.1 33.4 108.5 35 111.9 35C115.3 35 117.9 33.6 119.6 31.7V28.4Z" fill="black"/>
<path d="M132.5 39.3L145.4 24.8L134 12.2H141L150.5 22.8V12.2H156.5V22.8L166 12.2H173L161.5 24.8L174.5 39.3H167.1L156.5 27.2V39.3H150.5V27.2L139.8 39.3H132.5Z" fill="black"/>
</svg>
