<svg width="639" height="414" viewBox="0 0 639 414" fill="none" xmlns="http://www.w3.org/2000/svg">
<path d="M213.4 185.6H153.1V302.4H213.4V185.6Z" fill="#ABABAB"/>
<path d="M358.7 158.4H285V187.3H358.7V158.4Z" fill="#ABABAB"/>
<path d="M631.599 95.5H486.899V205.5H631.599V95.5Z" fill="#ABABAB"/>
<path d="M631.599 294.1H486.899V407.5H631.599V294.1Z" fill="#ABABAB"/>
<path d="M636.5 184.9H428.7V300.9H636.5V184.9Z" fill="#ABABAB"/>
<path d="M431.499 184.6H213.399V319.9H431.499V184.6Z" fill="#ABABAB"/>
<path d="M360.799 316.6H283.399V350.9H360.799V316.6Z" fill="#ABABAB"/>
<path d="M280.6 178.7H154.6V181H280.6V178.7Z" fill="white"/>
<path d="M364.2 151.6H278.3V153.9H364.2V151.6Z" fill="white"/>
<path d="M480.199 178.7H364.399V181H480.199V178.7Z" fill="white"/>
<path d="M558.3 94.3H485.5V221.3H558.3V94.3Z" fill="#696D6D"/>
<path d="M636.5 88.2001H480.1V90.5H636.5V88.2001Z" fill="white"/>
<path d="M280.5 179.2V153.9H278.2V179.2H280.5Z" fill="white"/>
<path d="M366.399 180.9V151.5H364.099V180.9H366.399Z" fill="white"/>
<path d="M480.3 322.7H364.2V325H480.3V322.7Z" fill="white"/>
<path d="M366.4 350.9H278.5V353.2H366.4V350.9Z" fill="white"/>
<path d="M366.399 351.7V324.6H364.099V351.7H366.399Z" fill="white"/>
<path d="M279.4 322.7H156.5V325H279.4V322.7Z" fill="white"/>
<path d="M280.8 350.8V322.7H278.5V350.8H280.8Z" fill="white"/>
<path d="M482.3 181.4V90.5H480V181.4H482.3Z" fill="white"/>
<path d="M638.7 277.1V88.2001H636.4V277.1H638.7Z" fill="white"/>
<path d="M638.699 410.4V275.7H636.399V410.4H638.699Z" fill="white"/>
<path d="M638.7 410.3H482.3V412.6H638.7V410.3Z" fill="white"/>
<path d="M482.3 412.6V304.8H480V412.6H482.3Z" fill="white"/>
<path d="M360.499 158.6H282.899V186.8H360.499V158.6Z" fill="#696D6D"/>
<path d="M632.9 93.1H560.1V231.3H632.9V93.1Z" fill="#696D6D"/>
<path d="M506.5 255.8H417.8V318.3H506.5V255.8Z" fill="#696D6D"/>
<path d="M529.099 183H361.399V230.7H529.099V183Z" fill="#696D6D"/>
<path d="M417.9 253.8H355.3V320.8H417.9V253.8Z" fill="#696D6D"/>
<path d="M358.7 254.4H286.3V350.9H358.7V254.4Z" fill="#696D6D"/>
<path d="M287.599 254.8H213.399V321.8H287.599V254.8Z" fill="#696D6D"/>
<path d="M358.699 184.4H150.399V318.6H358.699V184.4Z" fill="#696D6D"/>
<path d="M636.4 404.8H482.3V410.4H636.4V404.8Z" fill="#1D1D1B"/>
<path d="M636.4 90.5H482.3V96.1H636.4V90.5Z" fill="#1D1D1B"/>
<path d="M487.899 186.6V96.1H482.299V186.6H487.899Z" fill="#1D1D1B"/>
<path d="M636.399 409.3V257.4H630.799V409.3H636.399Z" fill="#1D1D1B"/>
<path d="M526.899 143.4V232.9H531.399V143.4H526.899Z" fill="#1D1D1B"/>
<path d="M561.7 267.1V252.6H557.2V267.1H561.7Z" fill="#1D1D1B"/>
<path d="M561.8 229.4V95.5H557.3V229.4H561.8Z" fill="#1D1D1B"/>
<path d="M510.1 206.7V143.5H505.6V206.7H510.1Z" fill="#1D1D1B"/>
<path d="M631.599 228.4H557.199V232.9H631.599V228.4Z" fill="#1D1D1B"/>
<path d="M630.899 263.3H557.199V267.8H630.899V263.3Z" fill="#1D1D1B"/>
<path d="M561.7 239.1V225.4H557.2V239.1H561.7Z" fill="#1D1D1B"/>
<path d="M636.5 258.6V90.5H630.9V258.6H636.5Z" fill="#1D1D1B"/>
<path d="M509 317.2H482.6V321.7H509V317.2Z" fill="#1D1D1B"/>
<path d="M560.4 219.1H527.1V223.6H560.4V219.1Z" fill="#1D1D1B"/>
<path d="M527.7 202.4H505.6V206.9H527.7V202.4Z" fill="#1D1D1B"/>
<path d="M530.2 143.5H509.7V148H530.2V143.5Z" fill="#1D1D1B"/>
<path d="M540.499 155.4H528.199V159.9H540.499V155.4Z" fill="#1D1D1B"/>
<path d="M558.6 155.4H548.3V159.9H558.6V155.4Z" fill="#1D1D1B"/>
<path d="M484.6 317.1H358.6V322.7H484.6V317.1Z" fill="#1D1D1B"/>
<path d="M528.3 228.4H359V232.9H528.3V228.4Z" fill="#1D1D1B"/>
<path d="M509 321.6V255.7H504.5V321.6H509Z" fill="#1D1D1B"/>
<path d="M478.1 287.2V253.2H472.5V287.2H478.1Z" fill="#1D1D1B"/>
<path d="M482.8 319V290.1H477.2V319H482.8Z" fill="#1D1D1B"/>
<path d="M364.199 233V181H358.599V233H364.199Z" fill="#1D1D1B"/>
<path d="M483.6 181H358.6V186.6H483.6V181Z" fill="#1D1D1B"/>
<path d="M487.899 404.7V317.1H482.299V404.7H487.899Z" fill="#1D1D1B"/>
<path d="M364.2 350.9V255.4H358.6V350.9H364.2Z" fill="#1D1D1B"/>
<path d="M364.2 186.6V153.9H358.6V186.6H364.2Z" fill="#1D1D1B"/>
<path d="M361.5 153.8H280.6V159.4H361.5V153.8Z" fill="#1D1D1B"/>
<path d="M509 252.6H358.6V257.3H509V252.6Z" fill="#1D1D1B"/>
<path d="M482.9 286.7H472.6V291.4H482.9V286.7Z" fill="#1D1D1B"/>
<path d="M286.1 186.5V157.5H280.5V186.5H286.1Z" fill="#1D1D1B"/>
<path d="M286.399 350.8V317.1H280.799V350.8H286.399Z" fill="#1D1D1B"/>
<path d="M350.799 345.3H286.399V350.9H350.799V345.3Z" fill="#1D1D1B"/>
<path d="M281.6 317.1H154.5V322.7H281.6V317.1Z" fill="#1D1D1B"/>
<path d="M358.6 345.3H347.1V350.9H358.6V345.3Z" fill="#1D1D1B"/>
<path d="M286.1 181H156V186.6H286.1V181Z" fill="#1D1D1B"/>
<path d="M616.5 245.6H616.2C616.2 245.5 616.2 245.3 616.2 245.2L615.8 243.8C615.8 243.8 615.8 243.7 615.8 243.6V241.7C615.8 241.7 615.9 241.7 616 241.7C616.3 241.7 616.6 241.4 616.6 241.1V239.7C616.6 239.5 616.6 239.3 616.4 239.2L615.5 238.5C615.3 238.4 615.1 238.3 614.9 238.2C615.1 238 615.2 237.7 615.2 237.4C615.2 236.8 614.7 236.4 614.2 236.4C613.7 236.4 613.2 236.9 613.2 237.4C613.2 237.9 613.5 238.2 613.9 238.3C613.8 238.3 613.6 238.5 613.5 238.6L612.9 239.3H612.4C612.1 239.3 611.8 239.6 611.8 239.9C611.8 240.2 612.1 240.5 612.4 240.5H613.2H613.4C613.4 240.4 613.4 241.2 613.4 241.2L612.8 241.5C612.6 241.5 612.4 241.8 612.4 242.1V243.6C612.4 243.6 612.4 243.7 612.4 243.8H612V242.4C612 242.3 612 242.2 611.8 242.2H609.8V240.8C609.8 240.7 609.8 240.6 609.6 240.6H607.2C607.1 240.6 607 240.6 607 240.8C607 241 607 241 607.2 241H609.4V242.4C609.4 242.5 609.4 242.6 609.6 242.6H611.6V244C611.6 244.1 611.6 244.2 611.8 244.2H613.8V245.6C613.8 245.7 613.8 245.8 614 245.8H616.4C616.5 245.8 616.6 245.8 616.6 245.6C616.6 245.4 616.6 245.4 616.4 245.4L616.5 245.6ZM615.8 245.3C615.8 245.3 615.8 245.4 615.8 245.5C615.8 245.6 615.8 245.5 615.7 245.6C615.6 245.6 615.5 245.6 615.4 245.5L614.9 244.1C614.9 244.1 614.9 244 614.9 243.9V242.3C615 242.3 615.2 242.2 615.3 242V243.6C615.3 243.7 615.3 243.8 615.3 243.9L615.7 245.3H615.8ZM613.4 237.5C613.4 237.2 613.7 236.9 614 236.9C614.3 236.9 614.6 237.2 614.6 237.5C614.6 237.8 614.3 238.1 614 238.1C613.7 238.1 613.4 237.8 613.4 237.5ZM613 240.4H612.2C612.1 240.4 612 240.4 612 240.2C612 240 612 240 612.2 240H612.8C612.8 240 612.9 240 613 240L613.3 239.6V240.3L613 240.5V240.4ZM612.8 243.8V242.3C612.8 242.3 612.8 242.1 612.9 242.1L613.7 241.8C613.7 241.8 613.8 241.7 613.8 241.6L613.6 239.1C613.7 238.9 613.9 238.8 614.1 238.8C614.4 238.8 614.7 238.8 615 239L615.9 239.7C615.9 239.7 615.9 239.7 615.9 239.9V241.3C615.9 241.4 615.9 241.5 615.7 241.5H615.6C615.6 241.5 615.6 241.5 615.6 241.4V240.1C615.6 240.1 615.6 240 615.6 239.9L615.1 239.4C615.1 239.4 614.9 239.4 614.8 239.4C614.8 239.4 614.8 239.6 614.8 239.7L615.3 240.1V241.2C615.2 241.8 614.9 241.9 614.6 242L613.4 242.4C613.4 242.4 613.3 242.5 613.3 242.6V243.8C613.3 243.9 613.3 244 613.1 244C612.9 244 612.9 244 612.9 243.8H612.8ZM614.3 244.2C614.3 244.1 614.3 244 614.1 244H613.7C613.7 244 613.7 243.9 613.7 243.8V242.7L614.5 242.4V243.8C614.5 243.9 614.5 244 614.5 244.1L615 245.5H614.3V244.1V244.2Z" fill="black"/>
<path d="M570.8 259.5C570.8 259.6 570.8 259.7 571 259.7H573.4C573.5 259.7 573.6 259.7 573.6 259.5V258.1H575.6C575.7 258.1 575.8 258.1 575.8 257.9V256.5H577.8C577.9 256.5 578 256.5 578 256.3V254.9H580.2C580.3 254.9 580.4 254.9 580.4 254.7C580.4 254.5 580.4 254.5 580.2 254.5H577.8C577.7 254.5 577.6 254.5 577.6 254.7V256.1H575.6C575.5 256.1 575.4 256.1 575.4 256.3V257.7H575C575 257.7 575 257.6 575 257.5V256C575 255.8 574.9 255.5 574.6 255.4L574 255.1V254.3L574.3 254.4H575.1C575.4 254.4 575.7 254.1 575.7 253.8C575.7 253.5 575.4 253.2 575.1 253.2H574.6L574 252.5C573.9 252.4 573.8 252.3 573.6 252.2C574 252.1 574.3 251.7 574.3 251.3C574.3 250.9 573.8 250.3 573.3 250.3C572.8 250.3 572.3 250.8 572.3 251.3C572.3 251.8 572.4 251.9 572.6 252.1C572.4 252.1 572.2 252.2 572 252.4L571.1 253.1C571 253.2 570.9 253.4 570.9 253.6V255C570.9 255.3 571.2 255.6 571.5 255.6C571.8 255.6 571.6 255.6 571.7 255.6V257.5C571.7 257.5 571.7 257.6 571.7 257.7L571.3 259.1C571.3 259.2 571.3 259.4 571.3 259.5H571C570.9 259.5 570.8 259.5 570.8 259.7V259.5ZM572.2 257.7C572.2 257.6 572.2 257.5 572.2 257.4V255.8C572.3 255.9 572.5 256 572.6 256.1V257.7C572.6 257.7 572.6 257.8 572.6 257.9L572.1 259.3C572.1 259.4 571.9 259.5 571.8 259.4C571.8 259.4 571.8 259.4 571.7 259.3C571.6 259.2 571.7 259.2 571.7 259.1L572.1 257.7H572.2ZM573.5 251.8C573.2 251.8 572.9 251.5 572.9 251.2C572.9 250.9 573.2 250.6 573.5 250.6C573.8 250.6 574.1 250.9 574.1 251.2C574.1 251.5 573.8 251.8 573.5 251.8ZM574.2 253.9V253.2L574.5 253.6C574.5 253.6 574.5 253.6 574.7 253.6H575.3C575.4 253.6 575.5 253.6 575.5 253.8C575.5 253.9 575.5 254 575.3 254H574.5L574.2 253.8V253.9ZM574.5 257.7C574.4 257.7 574.3 257.7 574.3 257.5V256.3C574.3 256.3 574.3 256.1 574.2 256.1L573 255.7C572.7 255.7 572.5 255.4 572.3 254.9V253.8L572.8 253.4C572.8 253.4 572.8 253.2 572.8 253.1C572.8 253.1 572.6 253.1 572.5 253.1L572 253.6C572 253.6 572 253.6 572 253.8V255.1V255.2C572 255.2 572 255.2 571.9 255.2C571.8 255.2 571.7 255.2 571.7 255V253.6C571.7 253.6 571.7 253.5 571.7 253.4L572.6 252.7C572.8 252.5 573.2 252.4 573.5 252.5C573.7 252.5 573.9 252.7 574 252.8L573.8 255.3C573.8 255.3 573.8 255.5 573.9 255.5L574.7 255.8C574.7 255.8 574.8 255.9 574.8 256V257.5C574.8 257.6 574.8 257.7 574.6 257.7H574.5ZM573.3 259.3H572.6L573.1 257.9C573.1 257.8 573.1 257.7 573.1 257.6V256.2L573.9 256.5V257.6C573.9 257.6 573.9 257.7 573.9 257.8H573.5C573.4 257.8 573.3 257.8 573.3 258V259.4V259.3Z" fill="black"/>
<path d="M604.3 264.4V233H603.5V264.4H604.3Z" fill="#1D1D1B"/>
<path d="M583.399 249H604.399V248.2H583.399V249Z" fill="#1D1D1B"/>
<path d="M600.8 264.4V233H600V264.4H600.8Z" fill="#1D1D1B"/>
<path d="M597.399 264.3V232.9H596.599V264.3H597.399Z" fill="#1D1D1B"/>
<path d="M593.899 264.3V232.9H593.099V264.3H593.899Z" fill="#1D1D1B"/>
<path d="M590.399 264.3V232.9H589.599V264.3H590.399Z" fill="#1D1D1B"/>
<path d="M586.899 264.3V232.9H586.099V264.3H586.899Z" fill="#1D1D1B"/>
<path d="M583.399 264.3V232.9H582.599V264.3H583.399Z" fill="#1D1D1B"/>
<path d="M490.8 291.2L489.7 288H490.4L491 290.1L491.7 288H492.2L492.9 290.1L493.5 288H494.2L493.1 291.2H492.5L491.8 289.1L491.1 291.2H490.5H490.8Z" fill="white"/>
<path d="M495.101 290.8C494.801 290.5 494.601 290.1 494.601 289.6C494.601 289.1 494.801 288.7 495.101 288.4C495.401 288.1 495.801 287.9 496.301 287.9C496.801 287.9 496.901 287.9 497.101 288.1V288.8C496.901 288.6 496.601 288.6 496.301 288.6C496.001 288.6 495.801 288.6 495.601 288.9C495.401 289.1 495.301 289.3 495.301 289.6C495.301 289.9 495.401 290.1 495.601 290.3C495.801 290.5 496.101 290.6 496.401 290.6C496.701 290.6 497.001 290.6 497.301 290.3V291C497.001 291.2 496.701 291.2 496.401 291.2C495.901 291.2 495.501 291 495.201 290.7L495.101 290.8Z" fill="white"/>
<path d="M494.399 276.7C494.399 276.2 493.999 275.7 493.399 275.7C492.799 275.7 492.399 276.1 492.399 276.7C492.399 277.3 492.799 277.7 493.399 277.7C493.999 277.7 494.399 277.3 494.399 276.7ZM493.499 277.2C493.199 277.2 492.899 276.9 492.899 276.6C492.899 276.3 493.199 276 493.499 276C493.799 276 494.099 276.3 494.099 276.6C494.099 276.9 493.799 277.2 493.499 277.2Z" fill="white"/>
<path d="M494.4 277.6H492.5C491.9 277.6 491.4 278.1 491.3 278.8V281.2C491.3 281.6 491.6 281.9 492 281.9C492.1 281.9 492.2 281.9 492.3 281.9V285.7C492.3 286.1 492.6 286.4 493 286.4C493.2 286.4 493.4 286.4 493.5 286.2C493.8 286.5 494.2 286.5 494.4 286.2C494.5 286.1 494.6 285.9 494.6 285.7V281.9C494.9 282.1 495.3 281.9 495.5 281.6C495.5 281.6 495.5 281.4 495.5 281.3V278.9C495.5 278.3 495 277.8 494.3 277.7L494.4 277.6ZM493.3 285.6C493.3 285.8 493.2 285.9 493 285.9C492.8 285.9 492.7 285.8 492.7 285.6V282.2H493.3V285.6ZM494.3 285.6C494.3 285.8 494.2 285.9 494 285.9C493.8 285.9 493.7 285.8 493.7 285.6V282.2H494.3V285.6ZM495.2 281.2C495.2 281.4 495.1 281.5 494.9 281.5C494.7 281.5 494.6 281.4 494.6 281.2V278.8C494.6 278.7 494.6 278.6 494.4 278.6C494.2 278.6 494.2 278.6 494.2 278.8V281.9H492.7V278.8C492.7 278.7 492.7 278.6 492.5 278.6C492.3 278.6 492.3 278.6 492.3 278.8V281.2C492.3 281.4 492.2 281.5 492 281.5C491.8 281.5 491.7 281.4 491.7 281.2V278.8C491.7 278.4 492 278 492.5 278H494.4C494.8 278 495.2 278.3 495.2 278.8V281.2Z" fill="white"/>
<path d="M515.7 183.4L514.6 180.2H515.3L515.9 182.3L516.6 180.2H517.1L517.8 182.3L518.4 180.2H519.1L518 183.4H517.4L516.7 181.3L516 183.4H515.4H515.7Z" fill="white"/>
<path d="M520 183C519.7 182.7 519.5 182.3 519.5 181.8C519.5 181.3 519.7 180.9 520 180.6C520.3 180.3 520.7 180.1 521.2 180.1C521.7 180.1 521.8 180.1 522 180.3V181C521.8 180.8 521.5 180.8 521.2 180.8C520.9 180.8 520.7 180.8 520.5 181.1C520.3 181.3 520.2 181.5 520.2 181.8C520.2 182.1 520.3 182.3 520.5 182.5C520.7 182.7 521 182.8 521.3 182.8C521.6 182.8 521.9 182.8 522.2 182.5V183.2C521.9 183.4 521.6 183.4 521.3 183.4C520.8 183.4 520.4 183.2 520.1 182.9L520 183Z" fill="white"/>
<path d="M521.2 173.2L520.4 170.5C520.4 170.2 520 169.9 519.7 169.9H517.9C517.4 169.9 516.9 170.2 516.8 170.7L516.1 173.1C516 173.5 516.2 173.8 516.6 173.9C516.6 173.9 516.8 173.9 516.9 173.9L516.7 174.7C516.7 174.9 516.7 175.1 517 175.2C517 175.2 517 175.2 517.1 175.2H517.6V177.8C517.6 178.2 517.9 178.5 518.3 178.5C518.5 178.5 518.7 178.5 518.8 178.3C519.1 178.6 519.5 178.6 519.7 178.3C519.8 178.2 519.9 178 519.9 177.8V175.2H520.4C520.6 175.2 520.8 175 520.8 174.8C520.8 174.8 520.8 174.8 520.8 174.7L520.6 173.9C520.7 173.9 520.8 173.9 520.9 173.9C521.3 173.8 521.5 173.4 521.4 173.1L521.2 173.2ZM518.5 177.9C518.5 178.1 518.4 178.2 518.2 178.2C518 178.2 517.9 178.1 517.9 177.9V175.3H518.5V177.9ZM519.4 177.9C519.4 178.1 519.3 178.2 519.1 178.2C518.9 178.2 518.8 178.1 518.8 177.9V175.3H519.4V177.9ZM520.7 173.6C520.5 173.6 520.4 173.6 520.3 173.4L519.6 171C519.6 170.9 519.5 170.8 519.4 170.9C519.4 170.9 519.2 171 519.3 171.1L520.4 174.9H517.1L518.2 171.1C518.2 171 518.2 170.9 518.1 170.9C518 170.9 517.9 170.9 517.9 171L517.2 173.4C517.2 173.6 517 173.6 516.8 173.6C516.6 173.6 516.6 173.4 516.6 173.2L517.3 170.8C517.3 170.5 517.7 170.2 518 170.2H519.8C520 170.2 520.1 170.3 520.2 170.5L521 173.2C521 173.4 521 173.5 520.8 173.6H520.7Z" fill="white"/>
<path d="M518.699 169.9C519.199 169.9 519.699 169.5 519.699 168.9C519.699 168.3 519.299 167.9 518.699 167.9C518.099 167.9 517.699 168.3 517.699 168.9C517.699 169.5 518.099 169.9 518.699 169.9ZM518.699 168.4C518.999 168.4 519.299 168.7 519.299 169C519.299 169.3 518.999 169.6 518.699 169.6C518.399 169.6 518.099 169.3 518.099 169C518.099 168.7 518.399 168.4 518.699 168.4Z" fill="white"/>
<path d="M158.699 180.9V88.6H156.399V180.9H158.699Z" fill="white"/>
<path d="M158.7 413V324.2H156.4V413H158.7Z" fill="white"/>
<path d="M151.599 96H6.89941V206H151.599V96Z" fill="#ABABAB"/>
<path d="M151.599 294.6H6.89941V408H151.599V294.6Z" fill="#ABABAB"/>
<path d="M156.5 88.7001H0.0996094V91H156.5V88.7001Z" fill="white"/>
<path d="M2.39941 306.3L2.39941 91H0.0993652L0.0993652 306.3H2.39941Z" fill="white"/>
<path d="M158.699 410.8H2.39941V413.1H158.699V410.8Z" fill="white"/>
<path d="M2.2998 413.1L2.2998 305.3H-0.000244141L-0.000244141 413.1H2.2998Z" fill="white"/>
<path d="M152.6 89.8H3.59961V408H152.6V89.8Z" fill="#696D6D"/>
<path d="M156.499 405.3H2.39941V410.9H156.499V405.3Z" fill="#1D1D1B"/>
<path d="M156.499 91H2.39941V96.6H156.499V91Z" fill="#1D1D1B"/>
<path d="M8 275.4L8 96.5H2.40002L2.40002 275.4H8Z" fill="#1D1D1B"/>
<path d="M156.5 409.7V317.1H150.9V409.7H156.5Z" fill="#1D1D1B"/>
<path d="M156.5 186.5V90.9H150.9V186.5H156.5Z" fill="#1D1D1B"/>
<path d="M7.89941 405.3L7.89941 264.9H2.29944L2.29944 405.3H7.89941Z" fill="#1D1D1B"/>
<path d="M170.7 251.6C169.8 250.7 169.3 249.6 169.3 248.2C169.3 246.8 169.8 245.7 170.7 244.8C171.6 243.9 172.8 243.5 174.3 243.5C175.8 243.5 176 243.7 176.7 244.1V246C176 245.5 175.2 245.3 174.3 245.3C173.4 245.3 172.7 245.6 172.1 246.2C171.5 246.8 171.2 247.5 171.2 248.4C171.2 249.3 171.5 250 172.1 250.6C172.7 251.2 173.4 251.4 174.3 251.4C175.2 251.4 176.1 251.1 176.8 250.6V252.5C176.1 252.9 175.2 253.2 174.2 253.2C172.8 253.2 171.6 252.8 170.6 251.9L170.7 251.6Z" fill="white"/>
<path d="M178.5 252.8V243.6H186.2V252.8H184.3V245.3H180.4V252.8H178.5Z" fill="white"/>
<path d="M189.299 244.8C190.199 243.9 191.299 243.4 192.699 243.4C194.099 243.4 195.199 243.9 196.099 244.8C196.999 245.7 197.499 246.8 197.499 248.2C197.499 249.6 196.999 250.7 196.099 251.6C195.199 252.5 194.099 253 192.699 253C191.299 253 190.199 252.5 189.299 251.6C188.399 250.7 187.899 249.5 187.899 248.2C187.899 246.9 188.299 245.7 189.299 244.8ZM192.699 251.2C193.499 251.2 194.199 250.9 194.699 250.3C195.199 249.7 195.499 249 195.499 248.1C195.499 247.2 195.199 246.5 194.699 245.9C194.199 245.3 193.499 245 192.699 245C191.899 245 191.199 245.3 190.699 245.9C190.199 246.5 189.899 247.2 189.899 248.1C189.899 249 190.199 249.7 190.699 250.3C191.199 250.9 191.899 251.2 192.699 251.2Z" fill="white"/>
<path d="M199.1 252.8V243.6H203.1C204.1 243.6 204.9 243.9 205.4 244.4C206 244.9 206.3 245.6 206.3 246.4C206.3 247.2 206 247.9 205.4 248.4C204.8 248.9 204 249.2 203.1 249.2H201V252.8H199.1ZM201 247.5H203C203.9 247.5 204.4 247.1 204.4 246.4C204.4 245.7 203.9 245.3 203 245.3H201V247.6V247.5Z" fill="white"/>
<path d="M207.2 243.6H214.9V245.3H212V252.8H210.1V245.3H207.2V243.6Z" fill="white"/>
<path d="M216.3 252.8V243.6H218.2V249.6L222.7 243.6H224.3V252.8H222.4V246.8L217.9 252.8H216.3Z" fill="white"/>
<path d="M226.3 252.8V243.6H230.6C232.3 243.6 233.4 244.4 233.4 245.9C233.4 247.4 232.9 247.5 232.2 247.7C232.7 247.8 233.1 248.1 233.5 248.5C233.9 248.9 234.1 249.5 234.1 250.1C234.1 250.7 233.8 251.5 233.2 252C232.6 252.5 231.8 252.7 230.9 252.7H226.3V252.8ZM228.2 247.2H230.3C231.1 247.2 231.6 246.8 231.6 246.2C231.6 245.6 231.1 245.2 230.3 245.2H228.2V247.2ZM228.2 251.1H230.6C231.5 251.1 232.1 250.7 232.1 249.9C232.1 249.1 231.5 248.7 230.6 248.7H228.2V251.1Z" fill="white"/>
<path d="M235.7 252.8V243.6H237.6V247H241.7V243.6H243.6V252.8H241.7V248.8H237.6V252.8H235.7Z" fill="white"/>
<path d="M245.6 252.8V243.6H247.5V246.6H249.2C250.3 246.6 251.2 246.9 251.8 247.5C252.4 248.1 252.8 248.8 252.8 249.7C252.8 250.6 252.5 251.4 251.8 251.9C251.2 252.5 250.3 252.8 249.2 252.8H245.6ZM247.5 251.1H249.1C250.2 251.1 250.9 250.6 250.9 249.7C250.9 248.8 250.2 248.2 249.1 248.2H247.5V251.1ZM253.9 252.8V243.6H255.8V252.8H253.9Z" fill="white"/>
<path d="M257.8 252.8V243.6H259.7V249.6L264.2 243.6H265.8V252.8H263.9V246.8L259.4 252.8H257.8ZM260.8 240.8C260.8 241.4 261.2 241.8 261.8 241.8C262.4 241.8 262.8 241.4 262.8 240.8H264.2C264.2 242.2 263.2 243 261.8 243C260.4 243 259.4 242.1 259.4 240.8H260.8Z" fill="white"/>
<path d="M206 267.8V266C206.8 266.6 208 266.9 209.1 266.9C210.2 266.9 211.3 266.4 211.3 265.6C211.3 264.8 210.6 264.5 209.3 264.5H208.1V262.9H209.5C210.5 262.9 211 262.6 211 261.9C211 261.2 210.3 260.9 209.3 260.9C208.3 260.9 207.3 261.1 206.4 261.6V259.9C207.3 259.4 208.3 259.2 209.4 259.2C210.5 259.2 211.3 259.4 211.9 259.9C212.5 260.4 212.9 261 212.9 261.8C212.9 262.6 212.3 263.4 211.7 263.6C212.6 263.9 213.3 264.7 213.3 265.8C213.3 266.9 212.9 267.3 212.2 267.9C211.5 268.5 210.5 268.7 209.4 268.7C208.3 268.7 207 268.4 206.1 267.8H206Z" fill="white"/>
<path d="M213.7 268.5L217.6 259.3H219.4L223.3 268.5H221.3L220.4 266.4H216.5L215.6 268.5H213.6H213.7ZM217.2 264.8H219.9L218.6 261.6L217.2 264.8Z" fill="white"/>
<path d="M223.7 266.7C223.9 266.7 224.1 266.8 224.4 266.8C224.9 266.8 225.2 266.5 225.4 265.8C225.6 265.1 225.7 263.9 225.7 262V259.3H232.2V268.5H230.3V261H227.5V262.9C227.4 265 227.1 266.5 226.7 267.4C226.3 268.2 225.5 268.6 224.4 268.6C223.3 268.6 223.8 268.6 223.6 268.5V266.8L223.7 266.7Z" fill="white"/>
<path d="M413 206.1L415.8 202.6L413.3 199.4H415L417.2 202.2V199.4H418.6V202.2L420.8 199.4H422.5L420 202.6L422.8 206.1H421L418.6 203.2V206.1H417.2V203.2L414.8 206.1H413Z" fill="white"/>
<path d="M423.5 206.1V199.4H428.4V200.6H424.9V201.9H427.7V203.1H424.9V204.8H428.5V206H423.5V206.1Z" fill="white"/>
<path d="M429.6 206.1V199.4H431V201.9H434V199.4H435.4V206.1H434V203.2H431V206.1H429.6Z" fill="white"/>
<path d="M437.6 205.2C436.9 204.5 436.6 203.7 436.6 202.7C436.6 201.7 436.9 200.9 437.6 200.2C438.3 199.6 439.2 199.2 440.2 199.2C441.2 199.2 441.4 199.3 442 199.6V201C441.5 200.7 440.9 200.5 440.2 200.5C439.5 200.5 439 200.7 438.6 201.1C438.2 201.5 438 202 438 202.7C438 203.4 438.2 203.9 438.6 204.3C439 204.7 439.6 204.9 440.2 204.9C440.8 204.9 441.5 204.7 442 204.3V205.7C441.5 206 440.8 206.2 440.1 206.2C439.1 206.2 438.2 205.9 437.5 205.2H437.6Z" fill="white"/>
<path d="M443.2 206.1V199.4H444.6V202L447.1 199.4H448.8L446 202.5L449.3 206.1H447.5L444.6 203V206.1H443.2Z" fill="white"/>
<path d="M449.399 206.1L452.299 199.4H453.599L456.499 206.1H454.999L454.299 204.6H451.499L450.799 206.1H449.399ZM451.899 203.4H453.899L452.899 201.1L451.899 203.4Z" fill="white"/>
<path d="M456.7 206.1L458.8 203.2C457.9 202.9 457.4 202.2 457.4 201.4C457.4 200.6 457.6 200.3 458 200C458.4 199.6 459 199.4 459.7 199.4H462.8V206.1H461.4V203.4H460.2L458.2 206.1H456.6H456.7ZM461.4 202.2V200.6H459.8C459.2 200.6 458.8 200.9 458.8 201.4C458.8 201.9 459.2 202.2 459.8 202.2H461.4Z" fill="white"/>
<path d="M406.3 217.5V210.8H409.2C409.9 210.8 410.5 211 410.9 211.4C411.3 211.8 411.5 212.2 411.5 212.8C411.5 213.4 411.3 213.9 410.9 214.3C410.5 214.7 409.9 214.9 409.2 214.9H407.7V217.5H406.3ZM407.7 213.7H409.1C409.8 213.7 410.1 213.4 410.1 212.9C410.1 212.4 409.7 212.1 409.1 212.1H407.7V213.8V213.7Z" fill="white"/>
<path d="M411.3 217.5L414.2 210.8H415.5L418.4 217.5H416.9L416.2 216H413.4L412.7 217.5H411.3ZM413.8 214.8H415.8L414.8 212.5L413.8 214.8Z" fill="white"/>
<path d="M418.8 217V215.7C419.4 216.1 420.3 216.4 421 216.4C421.7 216.4 422.6 216 422.6 215.4C422.6 214.8 422.1 214.6 421.2 214.6H420.4V213.4H421.4C422.1 213.4 422.5 213.2 422.5 212.7C422.5 212.2 422 212 421.3 212C420.6 212 419.8 212.2 419.2 212.5V211.2C419.8 210.9 420.6 210.7 421.4 210.7C422.2 210.7 422.8 210.9 423.2 211.2C423.7 211.6 423.9 212 423.9 212.6C423.9 213.2 423.5 213.7 423 213.9C423.6 214.1 424.1 214.7 424.1 215.5C424.1 216.3 423.8 216.6 423.3 217C422.8 217.4 422.1 217.6 421.2 217.6C420.3 217.6 419.4 217.4 418.8 217Z" fill="white"/>
<path d="M424.6 218.9V216.3H425.3C425.6 215.8 425.8 215.3 426 214.6C426.1 213.9 426.2 213 426.2 211.9V210.8H430.9V216.2H431.8V218.8H430.5V217.4H425.9V218.8H424.6V218.9ZM429.5 216.3V212.1H427.5C427.5 213.8 427.4 215.1 426.8 216.3H429.5Z" fill="white"/>
<path d="M432.8 217.5V210.8H437.7V212H434.2V213.3H437V214.5H434.2V216.2H437.8V217.4H432.8V217.5Z" fill="white"/>
<path d="M438.899 217.5V210.8H441.999C443.199 210.8 443.999 211.4 443.999 212.5C443.999 213.6 443.599 213.6 443.199 213.8C443.599 213.8 443.899 214.1 444.199 214.4C444.499 214.7 444.599 215.1 444.599 215.6C444.599 216.1 444.399 216.6 443.999 217C443.599 217.4 442.999 217.5 442.299 217.5H438.899ZM440.199 213.4H441.699C442.299 213.4 442.599 213.1 442.599 212.7C442.599 212.3 442.299 212 441.699 212H440.199V213.5V213.4ZM440.199 216.3H441.899C442.599 216.3 442.999 216 442.999 215.4C442.999 214.8 442.599 214.5 441.899 214.5H440.199V216.2V216.3Z" fill="white"/>
<path d="M445.1 217.5L448 210.8H449.3L452.2 217.5H450.7L450 216H447.2L446.5 217.5H445.1ZM447.6 214.8H449.6L448.6 212.5L447.6 214.8Z" fill="white"/>
<path d="M452.4 216.2C452.5 216.2 452.7 216.2 452.9 216.2C453.3 216.2 453.5 216 453.6 215.5C453.7 215 453.8 214.1 453.8 212.7V210.7H458.5V217.4H457.1V212H455.1V213.4C455.1 215 454.8 216 454.5 216.6C454.2 217.2 453.6 217.5 452.9 217.5C452.2 217.5 452.5 217.5 452.3 217.5V216.3L452.4 216.2Z" fill="white"/>
<path d="M460 217.5V210.8H461.4V213.4L463.9 210.8H465.6L462.8 213.9L466.1 217.5H464.3L461.4 214.4V217.5H460Z" fill="white"/>
<path d="M466.1 217.5L469 210.8H470.3L473.2 217.5H471.7L471 216H468.2L467.5 217.5H466.1ZM468.7 214.8H470.7L469.7 212.5L468.7 214.8Z" fill="white"/>
<path d="M547.5 197.4V190.2C547.5 189.5 547.2 188.8 546.7 188.4C546.2 187.9 545.5 187.6 544.9 187.6C544.3 187.6 543.5 187.9 543.1 188.4C542.6 188.9 542.4 189.5 542.3 190.2" stroke="white" stroke-width="0.7" stroke-linecap="round" stroke-linejoin="round"/>
<path d="M540.3 192.1C540.3 191.6 540.5 191.1 540.9 190.7C541.3 190.3 541.8 190.1 542.3 190.1C542.8 190.1 543.3 190.3 543.7 190.7C544.1 191.1 544.3 191.6 544.3 192.1H540.4H540.3Z" stroke="white" stroke-width="0.7" stroke-linecap="round" stroke-linejoin="round"/>
<path d="M540.6 193.4L540.3 194.4" stroke="white" stroke-width="0.7" stroke-linecap="round" stroke-linejoin="round"/>
<path d="M539.6 196.4L539.3 197.4" stroke="white" stroke-width="0.7" stroke-linecap="round" stroke-linejoin="round"/>
<path d="M543.899 193.4L544.199 194.4" stroke="white" stroke-width="0.7" stroke-linecap="round" stroke-linejoin="round"/>
<path d="M544.899 196.4L545.199 197.4" stroke="white" stroke-width="0.7" stroke-linecap="round" stroke-linejoin="round"/>
<path d="M542.2 193.4V194.4" stroke="white" stroke-width="0.7" stroke-linecap="round" stroke-linejoin="round"/>
<path d="M542.2 197.4V196.4" stroke="white" stroke-width="0.7" stroke-linecap="round" stroke-linejoin="round"/>
<path d="M392.2 288.1V254.1H386.6V288.1H392.2Z" fill="#1D1D1B"/>
<path d="M403.1 320.3V286.3H397.5V320.3H403.1Z" fill="#1D1D1B"/>
<path d="M403 286.1H386.7V290.8H403V286.1Z" fill="#1D1D1B"/>
<path d="M413.3 284.7V278H414.7L416.6 280.8L418.5 278H419.9V284.7H418.5V280.1L417 282.2H416.2L414.6 280.1V284.7H413.2H413.3Z" fill="white"/>
<path d="M421.3 284.6V283.4C421.5 283.5 421.8 283.6 422.1 283.6C422.4 283.6 422.6 283.6 422.8 283.4C423 283.3 423.1 283 423.3 282.7L420.8 278H422.3L424 281.3L425.5 278H427L424.5 283.2C424 284.3 423.3 284.8 422.4 284.8C421.5 284.8 421.6 284.8 421.4 284.6H421.3Z" fill="white"/>
<path d="M426.8 284.7L429.6 281.2L427.1 278H428.8L431 280.8V278H432.4V280.8L434.6 278H436.3L433.8 281.2L436.6 284.7H434.8L432.4 281.8V284.7H431V281.8L428.6 284.7H426.8Z" fill="white"/>
<path d="M437.7 283.8C437 283.1 436.7 282.3 436.7 281.3C436.7 280.3 437 279.5 437.7 278.8C438.4 278.2 439.3 277.8 440.3 277.8C441.3 277.8 441.5 277.9 442.1 278.2V279.6C441.6 279.3 441 279.1 440.3 279.1C439.6 279.1 439.1 279.3 438.7 279.7C438.3 280.1 438.1 280.6 438.1 281.3C438.1 282 438.3 282.5 438.7 282.9C439.1 283.3 439.7 283.5 440.3 283.5C440.9 283.5 441.6 283.3 442.1 282.9V284.3C441.6 284.6 440.9 284.8 440.2 284.8C439.2 284.8 438.3 284.5 437.6 283.8H437.7Z" fill="white"/>
<path d="M443.3 284.7V278H444.7V280.6L447.2 278H448.9L446.1 281.1L449.4 284.7H447.6L444.7 281.6V284.7H443.3Z" fill="white"/>
<path d="M449.5 284.7L452.4 278H453.7L456.6 284.7H455.1L454.4 283.2H451.6L450.9 284.7H449.5ZM452 282H454L453 279.7L452 282Z" fill="white"/>
<path d="M456.8 284.7L458.9 281.8C458 281.5 457.5 280.8 457.5 280C457.5 279.2 457.7 278.9 458.1 278.6C458.5 278.2 459.1 278 459.8 278H462.9V284.7H461.5V282H460.3L458.3 284.7H456.7H456.8ZM461.5 280.8V279.2H459.9C459.3 279.2 458.9 279.5 458.9 280C458.9 280.5 459.3 280.8 459.9 280.8H461.5Z" fill="white"/>
<path d="M406.2 296.1V289.4H409.1C409.8 289.4 410.4 289.6 410.8 290C411.2 290.4 411.4 290.8 411.4 291.4C411.4 292 411.2 292.5 410.8 292.9C410.4 293.3 409.8 293.5 409.1 293.5H407.6V296.1H406.2ZM407.6 292.3H409C409.7 292.3 410 292 410 291.5C410 291 409.6 290.7 409 290.7H407.6V292.4V292.3Z" fill="white"/>
<path d="M411.2 296.1L414.1 289.4H415.4L418.3 296.1H416.8L416.1 294.6H413.3L412.6 296.1H411.2ZM413.7 293.4H415.7L414.7 291.1L413.7 293.4Z" fill="white"/>
<path d="M418.7 295.6V294.3C419.3 294.7 420.2 295 420.9 295C421.6 295 422.5 294.6 422.5 294C422.5 293.4 422 293.2 421.1 293.2H420.3V292H421.3C422 292 422.4 291.8 422.4 291.3C422.4 290.8 421.9 290.6 421.2 290.6C420.5 290.6 419.7 290.8 419.1 291.1V289.8C419.7 289.5 420.5 289.3 421.3 289.3C422.1 289.3 422.7 289.5 423.1 289.8C423.6 290.2 423.8 290.6 423.8 291.2C423.8 291.8 423.4 292.3 422.9 292.5C423.5 292.7 424 293.3 424 294.1C424 294.9 423.7 295.2 423.2 295.6C422.7 296 422 296.2 421.1 296.2C420.2 296.2 419.3 296 418.7 295.6Z" fill="white"/>
<path d="M424.5 297.5V294.9H425.2C425.5 294.4 425.7 293.9 425.9 293.2C426 292.5 426.1 291.6 426.1 290.5V289.4H430.8V294.8H431.7V297.4H430.4V296H425.8V297.4H424.5V297.5ZM429.4 294.9V290.7H427.4C427.4 292.4 427.3 293.7 426.7 294.9H429.4Z" fill="white"/>
<path d="M432.601 296.1V289.4H437.501V290.6H434.001V291.9H436.801V293.1H434.001V294.8H437.601V296H432.601V296.1Z" fill="white"/>
<path d="M438.7 296.1V289.4H441.8C443 289.4 443.8 290 443.8 291.1C443.8 292.2 443.4 292.2 443 292.4C443.4 292.4 443.7 292.7 444 293C444.3 293.3 444.4 293.7 444.4 294.2C444.4 294.7 444.2 295.2 443.8 295.6C443.4 296 442.8 296.1 442.1 296.1H438.7ZM440.1 292H441.6C442.2 292 442.5 291.7 442.5 291.3C442.5 290.9 442.2 290.6 441.6 290.6H440.1V292.1V292ZM440.1 294.9H441.8C442.5 294.9 442.9 294.6 442.9 294C442.9 293.4 442.5 293.1 441.8 293.1H440.1V294.8V294.9Z" fill="white"/>
<path d="M445 296.1L447.9 289.4H449.2L452.1 296.1H450.6L449.9 294.6H447.1L446.4 296.1H445ZM447.5 293.4H449.5L448.5 291.1L447.5 293.4Z" fill="white"/>
<path d="M452.201 294.8C452.301 294.8 452.501 294.8 452.701 294.8C453.101 294.8 453.301 294.6 453.401 294.1C453.501 293.6 453.601 292.7 453.601 291.3V289.3H458.301V296H456.901V290.6H454.901V292C454.901 293.6 454.601 294.6 454.301 295.2C454.001 295.8 453.401 296.1 452.701 296.1C452.001 296.1 452.301 296.1 452.101 296.1V294.9L452.201 294.8Z" fill="white"/>
<path d="M459.9 296.1V289.4H461.3V292L463.8 289.4H465.5L462.7 292.5L466 296.1H464.2L461.3 293V296.1H459.9Z" fill="white"/>
<path d="M466 296.1L468.9 289.4H470.2L473.1 296.1H471.6L470.9 294.6H468.1L467.4 296.1H466ZM468.5 293.4H470.5L469.5 291.1L468.5 293.4Z" fill="white"/>
<path d="M375.199 306.2H370.199V305.2H372.199L370.199 303.4V302.1L372.499 304.2L375.199 301.7V303L372.899 305.1H375.199V306.1V306.2Z" fill="white"/>
<path d="M375.199 301.5L370.199 299.4V298.4L375.199 296.3V297.4L373.999 297.9V300L375.199 300.5V301.6V301.5ZM373.199 299.7V298.2L371.499 298.9L373.199 299.6V299.7Z" fill="white"/>
<path d="M375.399 293.7H374.799C374.799 295.3 373.699 296.1 372.599 296.1C371.499 296.1 371.499 295.9 371.099 295.5C370.699 295.1 370.399 294.5 370.399 293.7H369.899V292.7H370.399C370.399 291.9 370.699 291.3 371.099 290.9C371.499 290.5 371.999 290.3 372.599 290.3C373.699 290.3 374.699 291.1 374.799 292.7H375.399V293.7ZM373.899 292.7C373.899 291.8 373.399 291.3 372.599 291.3C371.799 291.3 371.399 291.8 371.299 292.7H373.799H373.899ZM371.399 293.7C371.399 294.6 371.899 295.1 372.699 295.1C373.499 295.1 373.899 294.6 373.999 293.7H371.499H371.399Z" fill="white"/>
<path d="M375.199 289.3H370.199V285.6H371.099V288.2H372.099V286.1H372.999V288.2H374.299V285.5H375.199V289.2V289.3Z" fill="white"/>
<path d="M376.199 285.2H374.299V284.7C373.899 284.5 373.499 284.3 372.999 284.2C372.499 284.1 371.799 284 370.999 284H370.199V280.5H374.299V279.8H376.199V280.8H375.199V284.2H376.199V285.2ZM374.199 281.5H370.999V283C372.299 283 373.299 283.1 374.199 283.5V281.5Z" fill="white"/>
<path d="M375.199 279.1H370.199V276.9C370.199 276.4 370.299 275.9 370.599 275.6C370.899 275.3 371.199 275.1 371.699 275.1C372.199 275.1 372.499 275.3 372.799 275.6C373.099 275.9 373.199 276.3 373.199 276.9V278.1H375.199V279.1ZM372.299 278V276.9C372.299 276.4 372.099 276.1 371.699 276.1C371.299 276.1 371.099 276.4 371.099 276.9V278H372.299Z" fill="white"/>
<path d="M375.199 275.4L370.199 273.3V272.3L375.199 270.2V271.3L373.999 271.8V273.9L375.199 274.4V275.5V275.4ZM373.199 273.5V272L371.499 272.7L373.199 273.4V273.5Z" fill="white"/>
<path d="M383.899 312.7H383.299C383.299 314.3 382.199 315.1 381.099 315.1C379.999 315.1 379.999 314.9 379.599 314.5C379.199 314.1 378.899 313.5 378.899 312.7H378.399V311.7H378.899C378.899 310.9 379.199 310.3 379.599 309.9C379.999 309.5 380.499 309.3 381.099 309.3C382.199 309.3 383.199 310.1 383.299 311.7H383.899V312.7ZM382.399 311.6C382.399 310.7 381.899 310.2 381.099 310.2C380.299 310.2 379.899 310.7 379.799 311.6H382.299H382.399ZM379.899 312.7C379.899 313.6 380.399 314.1 381.199 314.1C381.999 314.1 382.399 313.6 382.499 312.7H379.999H379.899Z" fill="white"/>
<path d="M383.699 308.3H378.699V307.3H381.999L378.699 304.9V304H383.699V305H380.399L383.699 307.4V308.3Z" fill="white"/>
<path d="M383.399 303.1H382.399C382.699 302.7 382.899 302 382.899 301.4C382.899 300.8 382.599 300.2 382.199 300.2C381.799 300.2 381.599 300.6 381.599 301.3V301.9H380.699V301.1C380.699 300.6 380.499 300.3 380.099 300.3C379.699 300.3 379.599 300.7 379.599 301.2C379.599 301.7 379.699 302.3 379.999 302.8H379.099C378.799 302.3 378.699 301.8 378.699 301.2C378.699 300.6 378.799 300.2 379.099 299.8C379.399 299.4 379.699 299.3 380.099 299.3C380.499 299.3 380.999 299.6 381.099 300C381.299 299.5 381.699 299.1 382.299 299.1C382.899 299.1 383.099 299.3 383.399 299.7C383.699 300.1 383.899 300.6 383.899 301.2C383.899 301.8 383.699 302.5 383.399 303V303.1Z" fill="white"/>
<path d="M383.699 298.3H378.699V297.3H380.699L378.699 295.5V294.2L380.999 296.3L383.699 293.8V295.1L381.399 297.2H383.699V298.2V298.3Z" fill="white"/>
<path d="M383.7 293.3H382.8C382.8 293.1 382.9 292.9 382.9 292.7C382.9 292.5 382.9 292.3 382.8 292.2C382.8 292.1 382.5 291.9 382.3 291.8L378.8 293.7V292.6L381.3 291.3L378.8 290.2V289.1L382.7 290.9C383.5 291.3 383.9 291.8 383.9 292.5C383.9 293.2 383.9 293.1 383.8 293.3H383.7Z" fill="white"/>
<path d="M382.8 289.5C382.8 289.4 382.8 289.3 382.8 289.1C382.8 288.8 382.6 288.6 382.2 288.6C381.8 288.6 381.1 288.4 380.1 288.4H378.6V284.9H383.6V285.9H379.5V287.4H380.5C381.7 287.4 382.5 287.6 382.9 287.8C383.3 288 383.6 288.4 383.6 289C383.6 289.6 383.6 289.3 383.6 289.4H382.7L382.8 289.5Z" fill="white"/>
<path d="M383.699 283.8H378.699V282.8H380.299V281.7C380.299 281.1 380.499 280.6 380.799 280.3C381.099 279.9 381.499 279.8 381.999 279.8C382.499 279.8 382.899 280 383.199 280.3C383.499 280.6 383.699 281.1 383.699 281.7V283.8ZM382.799 282.7V281.7C382.799 281.1 382.499 280.7 381.999 280.7C381.499 280.7 381.199 281.1 381.199 281.7V282.7H382.799Z" fill="white"/>
<path d="M378.699 279.9V275.7H379.599V277.3H383.699V278.3H379.599V279.9H378.699Z" fill="white"/>
<path d="M383.7 275H382.8C382.8 274.8 382.9 274.6 382.9 274.4C382.9 274.2 382.9 274 382.8 273.9C382.8 273.8 382.5 273.6 382.3 273.5L378.8 275.4V274.3L381.3 273L378.8 271.9V270.8L382.7 272.6C383.5 273 383.9 273.5 383.9 274.2C383.9 274.9 383.9 274.8 383.8 275H383.7Z" fill="white"/>
<path d="M383.699 270.2H378.699V268C378.699 267.5 378.799 267 379.099 266.7C379.399 266.4 379.699 266.2 380.199 266.2C380.699 266.2 380.999 266.4 381.299 266.7C381.599 267 381.699 267.4 381.699 268V269.2H383.699V270.2ZM380.899 269.2V268.1C380.899 267.6 380.699 267.3 380.299 267.3C379.899 267.3 379.699 267.6 379.699 268.1V269.2H380.899Z" fill="white"/>
<path d="M383.699 261H378.699V260H383.699V261ZM383.699 265.5H378.699V264.5H380.299V263.6C380.299 263 380.499 262.5 380.799 262.2C381.099 261.8 381.499 261.7 381.999 261.7C382.499 261.7 382.899 261.9 383.199 262.2C383.499 262.5 383.699 263 383.699 263.6V265.6V265.5ZM382.799 264.4V263.5C382.799 262.9 382.499 262.5 381.999 262.5C381.499 262.5 381.199 262.9 381.199 263.5V264.4H382.799Z" fill="white"/>
<path d="M530.899 364.2V357.5H532.299V360.1L534.799 357.5H536.499L533.699 360.6L536.999 364.2H535.199L532.299 361.1V364.2H530.899Z" fill="black"/>
<path d="M536.999 364.2L539.899 357.5H541.199L544.099 364.2H542.599L541.899 362.7H539.099L538.399 364.2H536.999ZM539.499 361.5H541.499L540.499 359.2L539.499 361.5Z" fill="black"/>
<path d="M547.5 364.5V363.8C545.3 363.8 544.3 362.3 544.3 360.9C544.3 359.5 544.6 359.5 545.1 358.9C545.7 358.3 546.5 358 547.5 358V357.4H548.9V358C549.9 358 550.7 358.3 551.3 358.9C551.9 359.5 552.1 360.1 552.1 360.9C552.1 362.3 551.1 363.7 548.9 363.8V364.5H547.5ZM547.5 359.1C546.3 359.1 545.7 359.8 545.7 360.8C545.7 361.8 546.4 362.4 547.5 362.5V359.1ZM548.9 362.5C550.1 362.5 550.7 361.8 550.7 360.8C550.7 359.8 550 359.1 548.9 359.1V362.5Z" fill="black"/>
<path d="M553.3 364.2V357.5H558.2V358.7H554.7V360H557.5V361.2H554.7V362.9H558.3V364.1H553.3V364.2Z" fill="black"/>
<path d="M558.999 357.5H564.599V358.7H562.499V364.1H561.099V358.7H558.999V357.5Z" fill="black"/>
<path d="M565.6 364.2V357.5H570.5V358.7H567V360H569.8V361.2H567V362.9H570.6V364.1H565.6V364.2Z" fill="black"/>
<path d="M571.699 364.2V357.5H574.599C575.299 357.5 575.899 357.7 576.299 358.1C576.699 358.5 576.899 358.9 576.899 359.5C576.899 360.1 576.699 360.6 576.299 361C575.899 361.4 575.299 361.6 574.599 361.6H573.099V364.2H571.699ZM572.999 360.4H574.399C575.099 360.4 575.399 360.1 575.399 359.6C575.399 359.1 574.999 358.8 574.399 358.8H572.999V360.5V360.4Z" fill="black"/>
<path d="M577.999 364.2V357.5H579.399V361.8L582.599 357.5H583.799V364.2H582.399V359.8L579.099 364.2H577.899H577.999Z" fill="black"/>
<path d="M585.2 364.2V357.5H586.6V361.8L589.8 357.5H591V364.2H589.6V359.8L586.3 364.2H585.1H585.2ZM587.4 355.5C587.4 355.9 587.7 356.2 588.1 356.2C588.5 356.2 588.8 355.9 588.8 355.5H589.8C589.8 356.5 589.1 357.1 588.1 357.1C587.1 357.1 586.4 356.5 586.4 355.5H587.4Z" fill="black"/>
<path d="M21.0996 38.6V28.5H1.09961V23.9L21.0996 0H27.0996V23.3H33.0996V28.5H27.0996V38.6H21.0996ZM7.89961 23.3H20.9996V7.70007L7.89961 23.3Z" fill="black"/>
<path d="M51.8994 37.2001V32C54.2994 33.4 56.8994 34.1 59.5994 34.1C64.4994 34.1 68.2994 31.4 68.9994 27.4H57.5994V22.6H68.9994C68.0994 18.6 64.4994 16.1 59.5994 16.1C54.6994 16.1 54.6994 16.7 52.4994 17.9V12.7001C54.8994 11.5001 57.4994 10.9 60.5994 10.9C63.6994 10.9 68.0994 12.2 70.8994 14.9C73.6994 17.5 75.0994 21 75.0994 25.1C75.0994 29.2 73.6994 32.7 70.8994 35.4C68.0994 38.1 64.5994 39.4 60.5994 39.4C56.5994 39.4 54.4994 38.7001 51.9994 37.2001H51.8994Z" fill="black"/>
<path d="M86.8992 38.6V16.8H77.6992V11.6H101.899V16.8H92.7992V38.6H86.7992H86.8992Z" fill="black"/>
<path d="M134.299 33.6V38.1C133.499 38.7 132.299 39 130.799 39C127.799 39 125.799 37.7 125.099 35.1C122.599 37.9 119.299 39.3 115.099 39.3C110.899 39.3 109.799 38.5 107.799 36.9C105.899 35.3 104.899 33.0001 104.899 30.2001C104.899 27.4001 105.899 25.1 107.999 23.6C110.099 22 112.699 21.2001 115.699 21.2001C118.699 21.2001 121.899 21.9 124.399 23.3V21.8C124.399 17.9 121.799 15.9 116.499 15.9C111.199 15.9 110.499 16.7 107.999 18.3V13.1C110.699 11.6 113.999 10.8 117.899 10.8C125.399 10.8 130.399 14.6001 130.399 21.2001V31.3C130.399 33 131.299 34 132.699 34C134.099 34 133.799 33.9 134.299 33.6ZM124.599 27.6C122.299 26.3 119.899 25.7001 117.399 25.7001C113.399 25.7001 111.099 27.2 111.099 29.9C111.099 32.6 113.499 34.2001 116.899 34.2001C120.299 34.2001 122.899 32.8 124.599 30.9V27.6Z" fill="black"/>
<path d="M137.5 38.6L150.4 24.1L139 11.5H146L155.5 22.1V11.5H161.5V22.1L171 11.5H178L166.5 24.1L179.5 38.6H172.1L161.5 26.5V38.6H155.5V26.5L144.8 38.6H137.5Z" fill="black"/>
<path d="M590.8 165.8V163.4H586.1V162.3L590.8 156.7H592.2V162.2H593.6V163.4H592.2V165.8H590.8ZM587.7 162.3H590.8V158.7L587.7 162.3Z" fill="white"/>
<path d="M595.8 164.7C595.1 163.8 594.8 162.7 594.8 161.4C594.8 160.1 595.1 159 595.8 158.1C596.5 157.2 597.4 156.7 598.6 156.7C599.8 156.7 600.7 157.2 601.4 158.1C602.1 159 602.4 160.1 602.4 161.4C602.4 162.7 602.1 163.8 601.4 164.7C600.7 165.6 599.8 166.1 598.6 166.1C597.4 166.1 596.5 165.6 595.8 164.7ZM600.3 163.7C600.7 163.1 601 162.3 601 161.3C601 160.3 600.8 159.6 600.3 158.9C599.8 158.2 599.3 157.9 598.6 157.9C597.9 157.9 597.3 158.2 596.9 158.9C596.5 159.5 596.2 160.3 596.2 161.3C596.2 162.3 596.4 163 596.9 163.7C597.3 164.3 597.9 164.7 598.6 164.7C599.3 164.7 599.9 164.4 600.3 163.7Z" fill="white"/>
<path d="M605.399 165.8V158.3L603.399 159.4V158L605.499 156.8H606.699V165.8H605.299H605.399Z" fill="white"/>
</svg>
