<svg width="689" height="425" viewBox="0 0 689 425" fill="none" xmlns="http://www.w3.org/2000/svg">
<path d="M157.8 186.4H94.2002V300.6H157.8V186.4Z" fill="#ABABAB"/>
<path d="M320.701 139.3H238.101V171.7H320.701V139.3Z" fill="#ABABAB"/>
<path d="M402.8 167.1H320.2V189.8H402.8V167.1Z" fill="#ABABAB"/>
<path d="M626.6 68.7999H464.4V192H626.6V68.7999Z" fill="#ABABAB"/>
<path d="M626.6 291.4H464.4V418.5H626.6V291.4Z" fill="#ABABAB"/>
<path d="M632.001 186.4H399.101V298.9H632.001V186.4Z" fill="#ABABAB"/>
<path d="M402.201 168.7H157.801V320.4H402.201V168.7Z" fill="#ABABAB"/>
<path d="M323.101 316.5H236.301V354.9H323.101V316.5Z" fill="#ABABAB"/>
<path d="M314.801 350.8H246.101V412H314.801V350.8Z" fill="#ABABAB"/>
<path d="M151.601 178.2H91.1006V180.7H151.601V178.2Z" fill="white"/>
<path d="M233.101 162.1H149.001V164.6H233.101V162.1Z" fill="white"/>
<path d="M326.901 131.6H230.601V134.1H326.901V131.6Z" fill="white"/>
<path d="M406.8 162.1H326.9V164.6H406.8V162.1Z" fill="white"/>
<path d="M459.301 178.4H409.301V180.9H459.301V178.4Z" fill="white"/>
<path d="M632 60.6H456.7V63.1H632V60.6Z" fill="white"/>
<path d="M687.701 206.4H634.601V208.9H687.701V206.4Z" fill="white"/>
<path d="M688.101 268.6H632.001V271.1H688.101V268.6Z" fill="white"/>
<path d="M151.501 178.6V164.5H149.001V178.6H151.501Z" fill="white"/>
<path d="M233.101 162.6V134.2H230.601V162.6H233.101Z" fill="white"/>
<path d="M329.501 164.7V131.7H327.001V164.7H329.501Z" fill="white"/>
<path d="M409.301 180.8V162.1H406.801V180.8H409.301Z" fill="white"/>
<path d="M459.3 303.1H408.2V305.6H459.3V303.1Z" fill="white"/>
<path d="M409.5 323.4H326.9V325.9H409.5V323.4Z" fill="white"/>
<path d="M317.301 412.4H243.101V414.9H317.301V412.4Z" fill="white"/>
<path d="M329.401 355.1H316.801V357.6H329.401V355.1Z" fill="white"/>
<path d="M243.4 355H230.9V357.5H243.4V355Z" fill="white"/>
<path d="M409.501 323.7V303.2H407.001V323.7H409.501Z" fill="white"/>
<path d="M329.4 355.8V325.5H326.9V355.8H329.4Z" fill="white"/>
<path d="M317.301 412.4V355.1H314.801V412.4H317.301Z" fill="white"/>
<path d="M245.7 412.3V355H243.2V412.3H245.7Z" fill="white"/>
<path d="M569.301 363.4H543.801V417.3H569.301V363.4Z" fill="#696D6D"/>
<path d="M231.901 323.4H151.501V325.9H231.901V323.4Z" fill="white"/>
<path d="M150.301 306H91.001V308.5H150.301V306Z" fill="white"/>
<path d="M151.601 326V306H149.101V326H151.601Z" fill="white"/>
<path d="M91.1006 308.6L91.1006 178.3H88.6006L88.6006 308.6H91.1006Z" fill="white"/>
<path d="M233.4 355V323.5H230.9V355H233.4Z" fill="white"/>
<path d="M459.301 178.8V63.1H456.801V178.8H459.301Z" fill="white"/>
<path d="M634.601 209.8V60.6H632.101V209.8H634.601Z" fill="white"/>
<path d="M634.601 421.6V270.7H632.101V421.6H634.601Z" fill="white"/>
<path d="M634.601 421.7H459.301V424.2H634.601V421.7Z" fill="white"/>
<path d="M459.301 424.2V303.4H456.801V424.2H459.301Z" fill="white"/>
<path d="M154.7 183.9H94.2002V220.8H154.7V183.9Z" fill="#696D6D"/>
<path d="M323.1 138.8H235.9V175.7H323.1V138.8Z" fill="#696D6D"/>
<path d="M519.4 181H401.7V218.2H519.4V181Z" fill="#696D6D"/>
<path d="M518.8 144.4H463.2V181.6H518.8V144.4Z" fill="#696D6D"/>
<path d="M628.901 66.1H464.801V144.4H628.901V66.1Z" fill="#696D6D"/>
<path d="M626.6 144H546.9V222.3H626.6V144Z" fill="#696D6D"/>
<path d="M627.701 261.5H568.501V418.5H627.701V261.5Z" fill="#696D6D"/>
<path d="M544.001 300.6H462.601V417.2H544.001V300.6Z" fill="#696D6D"/>
<path d="M524.701 260.8H405.501V302.9H524.701V260.8Z" fill="#696D6D"/>
<path d="M404.101 246.2H323.801V321.3H404.101V246.2Z" fill="#696D6D"/>
<path d="M238.2 247.3H157.9V322.4H238.2V247.3Z" fill="#696D6D"/>
<path d="M154.7 260.5H94.2002V303.2H154.7V260.5Z" fill="#696D6D"/>
<path d="M403.501 168.4H156.801V217.8H403.501V168.4Z" fill="#696D6D"/>
<path d="M465.601 180.8H406.801V187H465.601V180.8Z" fill="#1D1D1B"/>
<path d="M632.001 415.4H459.301V421.6H632.001V415.4Z" fill="#1D1D1B"/>
<path d="M632.001 63.1H459.301V69.3H632.001V63.1Z" fill="#1D1D1B"/>
<path d="M465.501 222.8V69.3999H459.301V222.8H465.501Z" fill="#1D1D1B"/>
<path d="M632.001 420.5V250.3H625.801V420.5H632.001Z" fill="#1D1D1B"/>
<path d="M465.601 296.9H406.301V303.1H465.601V296.9Z" fill="#1D1D1B"/>
<path d="M545.7 142.3H464.9V147.4H545.7V142.3Z" fill="#1D1D1B"/>
<path d="M520.7 217.8H464.4V222.9H520.7V217.8Z" fill="#1D1D1B"/>
<path d="M518.701 181.4H465.601V186.5H518.701V181.4Z" fill="#1D1D1B"/>
<path d="M516.9 147.4V222.8H522V147.4H516.9Z" fill="#1D1D1B"/>
<path d="M548.301 261V244.8H543.201V261H548.301Z" fill="#1D1D1B"/>
<path d="M548.301 218.9V68.8H543.201V218.9H548.301Z" fill="#1D1D1B"/>
<path d="M626.6 217.8H543.2V222.9H626.6V217.8Z" fill="#1D1D1B"/>
<path d="M625.8 256.9H543.2V262H625.8V256.9Z" fill="#1D1D1B"/>
<path d="M626.501 169.2H548.301V174.3H626.501V169.2Z" fill="#1D1D1B"/>
<path d="M528.301 256.9H406.301V262H528.301V256.9Z" fill="#1D1D1B"/>
<path d="M548.2 229.7V214.4H543.2V229.7H548.2Z" fill="#1D1D1B"/>
<path d="M632.001 258.3V63.1H625.801V258.3H632.001Z" fill="#1D1D1B"/>
<path d="M548.301 415.4V298.1H543.201V415.4H548.301Z" fill="#1D1D1B"/>
<path d="M544.001 336.1H465.601V341.2H544.001V336.1Z" fill="#1D1D1B"/>
<path d="M568.6 360.8H548.2V365.9H568.6V360.8Z" fill="#1D1D1B"/>
<path d="M571.001 418.5V262H565.901V418.5H571.001Z" fill="#1D1D1B"/>
<path d="M544.001 298.1H465.601V303.2H544.001V298.1Z" fill="#1D1D1B"/>
<path d="M406.701 317.2H320.601V323.4H406.701V317.2Z" fill="#1D1D1B"/>
<path d="M461.901 217.8H405.501V222.9H461.901V217.8Z" fill="#1D1D1B"/>
<path d="M493.101 217.7V186.4H488.001V217.7H493.101Z" fill="#1D1D1B"/>
<path d="M490.601 298.2V261.9H485.501V298.2H490.601Z" fill="#1D1D1B"/>
<path d="M528.2 298.2V261.9H523.1V298.2H528.2Z" fill="#1D1D1B"/>
<path d="M407.001 323.4V244.8H400.801V323.4H407.001Z" fill="#1D1D1B"/>
<path d="M406.801 222.8V164.6H400.601V222.8H406.801Z" fill="#1D1D1B"/>
<path d="M403.601 164.6H320.601V170.8H403.601V164.6Z" fill="#1D1D1B"/>
<path d="M465.501 415.4V258H459.301V415.4H465.501Z" fill="#1D1D1B"/>
<path d="M326.9 353.1V244.9H320.7V353.1H326.9Z" fill="#1D1D1B"/>
<path d="M326.9 355V245H320.7V355H326.9Z" fill="#1D1D1B"/>
<path d="M326.9 217.7V134.1H320.7V217.7H326.9Z" fill="#1D1D1B"/>
<path d="M323.701 134.1H233.101V140.3H323.701V134.1Z" fill="#1D1D1B"/>
<path d="M401.601 217.8H225.501V222.9H401.601V217.8Z" fill="#1D1D1B"/>
<path d="M203.401 217.8H91.1006V222.9H203.401V217.8Z" fill="#1D1D1B"/>
<path d="M402.2 244.8H325.9V250H402.2V244.8Z" fill="#1D1D1B"/>
<path d="M239.4 170.9V138.3H233.2V170.9H239.4Z" fill="#1D1D1B"/>
<path d="M239.601 355V245H233.401V355H239.601Z" fill="#1D1D1B"/>
<path d="M238.201 245H157.801V250.1H238.201V245Z" fill="#1D1D1B"/>
<path d="M253.401 348.7H239.601V354.9H253.401V348.7Z" fill="#1D1D1B"/>
<path d="M234.2 317.2H156.9V323.4H234.2V317.2Z" fill="#1D1D1B"/>
<path d="M320.6 348.7H307.7V354.9H320.6V348.7Z" fill="#1D1D1B"/>
<path d="M284.401 348.7H277.501V354.9H284.401V348.7Z" fill="#1D1D1B"/>
<path d="M157.801 323.5V245H151.601V323.5H157.801Z" fill="#1D1D1B"/>
<path d="M157.801 222.8V165H151.601V222.8H157.801Z" fill="#1D1D1B"/>
<path d="M239.301 164.6H151.501V170.8H239.301V164.6Z" fill="#1D1D1B"/>
<path d="M200.501 317.1V250H195.401V317.1H200.501Z" fill="#1D1D1B"/>
<path d="M97.4004 222.8V184.2H91.2004V222.8H97.4004Z" fill="#1D1D1B"/>
<path d="M97.3008 302.9V220.3H91.1008V302.9H97.3008Z" fill="#1D1D1B"/>
<path d="M156.301 256.9H92.6006V262H156.301V256.9Z" fill="#1D1D1B"/>
<path d="M151.901 299.7H91.1006V305.9H151.901V299.7Z" fill="#1D1D1B"/>
<path d="M152.301 180.8H91.1006V187H152.301V180.8Z" fill="#1D1D1B"/>
<path d="M127.601 283C127.601 282.9 127.601 282.7 127.601 282.6C127.601 282.5 127.601 282.3 127.601 282.2L128.5 281.5C128.5 281.5 128.6 281.3 128.5 281.2L127.601 279.7C127.601 279.7 127.401 279.6 127.301 279.7L126.2 280.1C126 279.9 125.7 279.8 125.5 279.7L125.301 278.6C125.301 278.5 125.201 278.4 125.101 278.4H123.401C123.301 278.4 123.2 278.4 123.2 278.6L123 279.7C122.7 279.8 122.501 280 122.301 280.1L121.2 279.7C121.2 279.7 121.001 279.7 120.901 279.7L120 281.2C120 281.2 120 281.4 120 281.5L120.901 282.2C120.901 282.3 120.901 282.5 120.901 282.6C120.901 282.7 120.901 282.9 120.901 283L120 283.7C120 283.7 119.9 283.9 120 284L120.901 285.5C120.901 285.5 121.1 285.6 121.2 285.5L122.301 285.1C122.501 285.3 122.8 285.4 123 285.5L123.2 286.6C123.2 286.7 123.301 286.8 123.401 286.8H125.101C125.201 286.8 125.301 286.8 125.301 286.6L125.5 285.5C125.8 285.4 126 285.2 126.2 285.1L127.301 285.5C127.301 285.5 127.501 285.5 127.601 285.5L128.5 284C128.5 284 128.5 283.8 128.5 283.7L127.601 283ZM124.301 284.1C123.501 284.1 122.801 283.4 122.801 282.6C122.801 281.8 123.501 281.1 124.301 281.1C125.101 281.1 125.801 281.8 125.801 282.6C125.801 283.4 125.101 284.1 124.301 284.1Z" stroke="white" stroke-width="0.5" stroke-linecap="round" stroke-linejoin="round"/>
<path d="M560.301 388.5C560.301 388.4 560.301 388.2 560.301 388.1C560.301 388 560.301 387.8 560.301 387.7L561.201 387C561.201 387 561.301 386.8 561.201 386.7L560.301 385.2C560.301 385.2 560.101 385.1 560.001 385.2L558.901 385.6C558.701 385.4 558.401 385.3 558.201 385.2L558.001 384.1C558.001 384 557.901 383.9 557.801 383.9H556.101C556.001 383.9 555.901 383.9 555.901 384.1L555.701 385.2C555.401 385.3 555.201 385.5 555.001 385.6L553.901 385.2C553.901 385.2 553.701 385.2 553.601 385.2L552.701 386.7C552.701 386.7 552.701 386.9 552.701 387L553.601 387.7C553.601 387.8 553.601 388 553.601 388.1C553.601 388.2 553.601 388.4 553.601 388.5L552.701 389.2C552.701 389.2 552.601 389.4 552.701 389.5L553.601 391C553.601 391 553.801 391.1 553.901 391L555.001 390.6C555.201 390.8 555.501 390.9 555.701 391L555.901 392.1C555.901 392.2 556.001 392.3 556.101 392.3H557.801C557.901 392.3 558.001 392.3 558.001 392.1L558.201 391C558.501 390.9 558.701 390.7 558.901 390.6L560.001 391C560.001 391 560.201 391 560.301 391L561.201 389.5C561.201 389.5 561.201 389.3 561.201 389.2L560.301 388.5ZM557.101 389.6C556.301 389.6 555.601 388.9 555.601 388.1C555.601 387.3 556.301 386.6 557.101 386.6C557.901 386.6 558.601 387.3 558.601 388.1C558.601 388.9 557.901 389.6 557.101 389.6Z" stroke="white" stroke-width="0.5" stroke-linecap="round" stroke-linejoin="round"/>
<path d="M590.6 197.9C590.6 197.8 590.6 197.6 590.6 197.5C590.6 197.4 590.6 197.2 590.6 197.1L591.5 196.4C591.5 196.4 591.6 196.2 591.5 196.1L590.6 194.6C590.6 194.6 590.4 194.5 590.3 194.6L589.201 195C589.001 194.8 588.7 194.7 588.5 194.6L588.3 193.5C588.3 193.4 588.2 193.3 588.1 193.3H586.4C586.3 193.3 586.201 193.3 586.201 193.5L586 194.6C585.7 194.7 585.5 194.9 585.3 195L584.201 194.6C584.201 194.6 584 194.6 583.9 194.6L583 196.1C583 196.1 583 196.3 583 196.4L583.9 197.1C583.9 197.2 583.9 197.4 583.9 197.5C583.9 197.6 583.9 197.8 583.9 197.9L583 198.6C583 198.6 582.9 198.8 583 198.9L583.9 200.4C583.9 200.4 584.101 200.5 584.201 200.4L585.3 200C585.5 200.2 585.8 200.3 586 200.4L586.201 201.5C586.201 201.6 586.3 201.7 586.4 201.7H588.1C588.2 201.7 588.3 201.7 588.3 201.5L588.5 200.4C588.8 200.3 589.001 200.1 589.201 200L590.3 200.4C590.3 200.4 590.5 200.4 590.6 200.4L591.5 198.9C591.5 198.9 591.5 198.7 591.5 198.6L590.6 197.9ZM587.3 199C586.5 199 585.8 198.3 585.8 197.5C585.8 196.7 586.5 196 587.3 196C588.1 196 588.8 196.7 588.8 197.5C588.8 198.3 588.1 199 587.3 199Z" stroke="white" stroke-width="0.5" stroke-linecap="round" stroke-linejoin="round"/>
<path d="M479.001 279.4C479.001 279.3 479.001 279.1 479.001 279C479.001 278.9 479.001 278.7 479.001 278.6L479.901 277.9C479.901 277.9 480.001 277.7 479.901 277.6L479.001 276.1C479.001 276.1 478.801 276 478.701 276.1L477.601 276.5C477.401 276.3 477.101 276.2 476.901 276.1L476.701 275C476.701 274.9 476.601 274.8 476.501 274.8H474.801C474.701 274.8 474.601 274.8 474.601 275L474.401 276.1C474.101 276.2 473.901 276.4 473.701 276.5L472.601 276.1C472.601 276.1 472.401 276.1 472.301 276.1L471.401 277.6C471.401 277.6 471.401 277.8 471.401 277.9L472.301 278.6C472.301 278.7 472.301 278.9 472.301 279C472.301 279.1 472.301 279.3 472.301 279.4L471.401 280.1C471.401 280.1 471.301 280.3 471.401 280.4L472.301 281.9C472.301 281.9 472.501 282 472.601 281.9L473.701 281.5C473.901 281.7 474.201 281.8 474.401 281.9L474.601 283C474.601 283.1 474.701 283.2 474.801 283.2H476.501C476.601 283.2 476.701 283.2 476.701 283L476.901 281.9C477.201 281.8 477.401 281.6 477.601 281.5L478.701 281.9C478.701 281.9 478.901 281.9 479.001 281.9L479.901 280.4C479.901 280.4 479.901 280.2 479.901 280.1L479.001 279.4ZM475.801 280.5C475.001 280.5 474.301 279.8 474.301 279C474.301 278.2 475.001 277.5 475.801 277.5C476.601 277.5 477.301 278.2 477.301 279C477.301 279.8 476.601 280.5 475.801 280.5Z" stroke="white" stroke-width="0.5" stroke-linecap="round" stroke-linejoin="round"/>
<path d="M286.7 374H286.3C286.3 373.9 286.3 373.7 286.3 373.5L285.8 372C285.8 372 285.8 371.9 285.8 371.8V369.6C285.8 369.6 285.9 369.6 286 369.6C286.4 369.6 286.7 369.3 286.7 368.9V367.3C286.7 367.1 286.7 366.9 286.4 366.8L285.3 366C285.1 365.9 284.9 365.7 284.6 365.7C284.8 365.5 285 365.2 285 364.8C285 364.2 284.5 363.7 283.9 363.7C283.3 363.7 282.8 364.2 282.8 364.8C282.8 365.4 283.1 365.7 283.5 365.9C283.3 365.9 283.2 366.1 283.1 366.3L282.5 367.1H281.9C281.5 367.1 281.2 367.4 281.2 367.8C281.2 368.2 281.5 368.5 281.9 368.5H282.8H283.1C283.1 368.4 283.1 369.3 283.1 369.3L282.4 369.6C282.1 369.7 282 370 282 370.2V371.9V372.1H281.5V370.5C281.5 370.4 281.4 370.3 281.3 370.3H279V368.7C279 368.6 278.9 368.5 278.8 368.5H276.1C276 368.5 275.9 368.6 275.9 368.7C275.9 368.8 276 368.9 276.1 368.9H278.6V370.5C278.6 370.6 278.7 370.7 278.8 370.7H281.1V372.3C281.1 372.4 281.2 372.5 281.3 372.5H283.6V374.1C283.6 374.2 283.7 374.3 283.8 374.3H286.5C286.6 374.3 286.7 374.2 286.7 374.1C286.7 374 286.6 373.9 286.5 373.9L286.7 374ZM285.9 373.7C285.9 373.7 285.9 373.8 285.9 373.9C285.9 374 285.9 373.9 285.8 374C285.7 374 285.5 374 285.5 373.8L285 372.2C285 372.2 285 372.1 285 372V370.3C285.1 370.3 285.3 370.1 285.5 370V371.8C285.5 371.9 285.5 372 285.5 372.1L286 373.6L285.9 373.7ZM283.3 365C283.3 364.6 283.6 364.3 284 364.3C284.4 364.3 284.7 364.6 284.7 365C284.7 365.4 284.4 365.7 284 365.7C283.6 365.7 283.3 365.4 283.3 365ZM282.8 368.1H281.9C281.8 368.1 281.7 368 281.7 367.9C281.7 367.8 281.8 367.7 281.9 367.7H282.6C282.6 367.7 282.7 367.7 282.8 367.7L283.1 367.3V368.1L282.8 368.3V368.1ZM282.6 372V370.3C282.6 370.3 282.6 370.1 282.7 370.1L283.6 369.8C283.6 369.8 283.7 369.7 283.7 369.6L283.5 366.8C283.7 366.6 283.9 366.5 284.1 366.4C284.4 366.4 284.8 366.4 285.1 366.6L286.2 367.4C286.2 367.4 286.2 367.5 286.2 367.6V369.2C286.2 369.3 286.1 369.4 286 369.4C286 369.4 285.9 369.4 285.8 369.4C285.8 369.4 285.8 369.4 285.8 369.2V367.8C285.8 367.8 285.8 367.7 285.8 367.6L285.2 367.1C285.2 367.1 285 367.1 284.9 367.1C284.9 367.1 284.9 367.3 284.9 367.4L285.4 367.8V369.1C285.3 369.7 285 369.9 284.7 370L283.3 370.5C283.3 370.5 283.1 370.6 283.1 370.7V372.1C283.1 372.2 283 372.3 282.9 372.3C282.8 372.3 282.7 372.2 282.7 372.1L282.6 372ZM284.2 372.4C284.2 372.3 284.1 372.2 284 372.2H283.5C283.5 372.2 283.5 372.1 283.5 372V370.8L284.4 370.5V372.1C284.4 372.2 284.4 372.3 284.4 372.4L284.9 374H284.1V372.4H284.2Z" fill="black"/>
<path d="M609.601 237H609.201C609.201 236.9 609.201 236.7 609.201 236.5L608.701 235C608.701 235 608.701 234.9 608.701 234.8V232.6C608.701 232.6 608.801 232.6 608.901 232.6C609.301 232.6 609.601 232.3 609.601 231.9V230.3C609.601 230.1 609.601 229.9 609.301 229.8L608.201 229C608.001 228.9 607.801 228.7 607.501 228.7C607.701 228.5 607.901 228.2 607.901 227.8C607.901 227.2 607.401 226.7 606.801 226.7C606.201 226.7 605.701 227.2 605.701 227.8C605.701 228.4 606.001 228.7 606.401 228.9C606.201 228.9 606.101 229.1 606.001 229.3L605.401 230.1H604.801C604.401 230.1 604.101 230.4 604.101 230.8C604.101 231.2 604.401 231.5 604.801 231.5H605.701H606.001C606.001 231.4 606.001 232.3 606.001 232.3L605.301 232.6C605.001 232.7 604.901 233 604.901 233.2V234.9V235.1H604.401V233.5C604.401 233.4 604.301 233.3 604.201 233.3H601.901V231.7C601.901 231.6 601.801 231.5 601.701 231.5H599.001C598.901 231.5 598.801 231.6 598.801 231.7C598.801 231.8 598.901 231.9 599.001 231.9H601.501V233.5C601.501 233.6 601.601 233.7 601.701 233.7H604.001V235.3C604.001 235.4 604.101 235.5 604.201 235.5H606.501V237.1C606.501 237.2 606.601 237.3 606.701 237.3H609.401C609.501 237.3 609.601 237.2 609.601 237.1C609.601 237 609.501 236.9 609.401 236.9L609.601 237ZM608.801 236.7C608.801 236.7 608.801 236.8 608.801 236.9C608.801 237 608.801 236.9 608.701 237C608.601 237 608.401 237 608.401 236.8L607.901 235.2C607.901 235.2 607.901 235.1 607.901 235V233.3C608.001 233.3 608.201 233.1 608.401 233V234.8C608.401 234.9 608.401 235 608.401 235.1L608.901 236.6L608.801 236.7ZM606.201 228C606.201 227.6 606.501 227.3 606.901 227.3C607.301 227.3 607.601 227.6 607.601 228C607.601 228.4 607.301 228.7 606.901 228.7C606.501 228.7 606.201 228.4 606.201 228ZM605.701 231.1H604.801C604.701 231.1 604.601 231 604.601 230.9C604.601 230.8 604.701 230.7 604.801 230.7H605.501C605.501 230.7 605.601 230.7 605.701 230.7L606.001 230.3V231.1L605.701 231.3V231.1ZM605.501 235V233.3C605.501 233.3 605.501 233.1 605.601 233.1L606.501 232.8C606.501 232.8 606.601 232.7 606.601 232.6L606.401 229.8C606.601 229.6 606.801 229.5 607.001 229.4C607.301 229.4 607.701 229.4 608.001 229.6L609.101 230.4C609.101 230.4 609.101 230.5 609.101 230.6V232.2C609.101 232.3 609.001 232.4 608.901 232.4C608.901 232.4 608.801 232.4 608.701 232.4C608.701 232.4 608.701 232.4 608.701 232.2V230.8C608.701 230.8 608.701 230.7 608.701 230.6L608.101 230.1C608.101 230.1 607.901 230.1 607.801 230.1C607.801 230.1 607.801 230.3 607.801 230.4L608.301 230.8V232.1C608.201 232.7 607.901 232.9 607.601 233L606.201 233.5C606.201 233.5 606.001 233.6 606.001 233.7V235.1C606.001 235.2 605.901 235.3 605.801 235.3C605.701 235.3 605.601 235.2 605.601 235.1L605.501 235ZM607.101 235.4C607.101 235.3 607.001 235.2 606.901 235.2H606.401C606.401 235.2 606.401 235.1 606.401 235V233.8L607.301 233.5V235.1C607.301 235.2 607.301 235.3 607.301 235.4L607.801 237H607.001V235.4H607.101Z" fill="black"/>
<path d="M558.501 252.6C558.501 252.7 558.601 252.8 558.701 252.8H561.401C561.501 252.8 561.601 252.7 561.601 252.6V251H563.901C564.001 251 564.101 250.9 564.101 250.8V249.2H566.401C566.501 249.2 566.601 249.1 566.601 249V247.4H569.101C569.201 247.4 569.301 247.3 569.301 247.2C569.301 247.1 569.201 247 569.101 247H566.401C566.301 247 566.201 247.1 566.201 247.2V248.8H563.901C563.801 248.8 563.701 248.9 563.701 249V250.6H563.201C563.201 250.6 563.201 250.5 563.201 250.4V248.7C563.201 248.4 563.001 248.2 562.801 248.1L562.101 247.8V246.9L562.401 247H563.301C563.701 247 564.001 246.7 564.001 246.3C564.001 245.9 563.701 245.6 563.301 245.6H562.701L562.101 244.8C562.001 244.7 561.801 244.5 561.701 244.4C562.101 244.2 562.401 243.8 562.401 243.3C562.401 242.8 561.901 242.2 561.301 242.2C560.701 242.2 560.201 242.7 560.201 243.3C560.201 243.9 560.401 243.9 560.601 244.2C560.401 244.2 560.101 244.3 559.901 244.5L558.801 245.3C558.601 245.4 558.501 245.6 558.501 245.8V247.4C558.501 247.8 558.801 248.1 559.201 248.1C559.601 248.1 559.401 248.1 559.401 248.1V250.3C559.401 250.3 559.401 250.4 559.401 250.5L558.901 252C558.901 252.1 558.901 252.3 558.901 252.5H558.501C558.401 252.5 558.301 252.6 558.301 252.7L558.501 252.6ZM560.001 250.5C560.001 250.4 560.001 250.3 560.001 250.2V248.4C560.101 248.6 560.301 248.6 560.501 248.7V250.4C560.501 250.4 560.501 250.5 560.501 250.6L560.001 252.2C560.001 252.3 559.801 252.4 559.701 252.4C559.701 252.4 559.601 252.4 559.601 252.3C559.601 252.2 559.601 252.2 559.601 252.1L560.101 250.6L560.001 250.5ZM561.401 244C561.001 244 560.701 243.7 560.701 243.3C560.701 242.9 561.001 242.6 561.401 242.6C561.801 242.6 562.101 242.9 562.101 243.3C562.101 243.7 561.801 244 561.401 244ZM562.201 246.3V245.5L562.601 245.9C562.601 245.9 562.701 245.9 562.801 245.9H563.501C563.601 245.9 563.701 246 563.701 246.1C563.701 246.2 563.601 246.3 563.501 246.3H562.601L562.201 246.1V246.3ZM562.501 250.6C562.401 250.6 562.301 250.5 562.301 250.4V249C562.301 249 562.301 248.8 562.101 248.8L560.701 248.3C560.401 248.2 560.101 248 560.001 247.4V246.1L560.501 245.7C560.501 245.7 560.601 245.5 560.501 245.4C560.501 245.4 560.301 245.3 560.201 245.4L559.601 245.9C559.601 245.9 559.601 246 559.601 246.1V247.5C559.601 247.5 559.601 247.6 559.601 247.7C559.601 247.7 559.601 247.7 559.401 247.7C559.301 247.7 559.201 247.6 559.201 247.5V245.9C559.201 245.9 559.201 245.8 559.201 245.7L560.301 244.9C560.601 244.7 560.901 244.6 561.301 244.7C561.501 244.7 561.701 244.9 561.901 245.1L561.701 247.9C561.701 247.9 561.701 248.1 561.801 248.1L562.701 248.4C562.701 248.4 562.801 248.5 562.801 248.6V250.3C562.801 250.4 562.701 250.5 562.601 250.5L562.501 250.6ZM561.201 252.4H560.401L560.901 250.8C560.901 250.7 560.901 250.6 560.901 250.5V248.9L561.801 249.2V250.4V250.6H561.301C561.201 250.6 561.101 250.7 561.101 250.8V252.4H561.201Z" fill="black"/>
<path d="M314.8 380.4H245.7V381.2H314.8V380.4Z" fill="#1D1D1B"/>
<path d="M246.5 412.3V351.5H245.7V412.3H246.5Z" fill="#1D1D1B"/>
<path d="M314.7 412.3V351.5H313.9V412.3H314.7Z" fill="#1D1D1B"/>
<path d="M314.8 411.6H245.7V412.4H314.8V411.6Z" fill="#1D1D1B"/>
<path d="M314.8 407.7H245.7V408.5H314.8V407.7Z" fill="#1D1D1B"/>
<path d="M314.8 403.8H245.7V404.6H314.8V403.8Z" fill="#1D1D1B"/>
<path d="M314.8 399.9H245.7V400.7H314.8V399.9Z" fill="#1D1D1B"/>
<path d="M314.8 396H245.7V396.8H314.8V396Z" fill="#1D1D1B"/>
<path d="M314.8 392.1H245.7V392.9H314.8V392.1Z" fill="#1D1D1B"/>
<path d="M314.8 388.2H245.7V389H314.8V388.2Z" fill="#1D1D1B"/>
<path d="M314.8 384.3H245.7V385.1H314.8V384.3Z" fill="#1D1D1B"/>
<path d="M596.101 258V222.8H595.301V258H596.101Z" fill="#1D1D1B"/>
<path d="M572.601 240.9H596.101V240.1H572.601V240.9Z" fill="#1D1D1B"/>
<path d="M592.101 258V222.8H591.301V258H592.101Z" fill="#1D1D1B"/>
<path d="M588.2 258V222.8H587.4V258H588.2Z" fill="#1D1D1B"/>
<path d="M584.301 258V222.8H583.501V258H584.301Z" fill="#1D1D1B"/>
<path d="M580.4 258.1V222.9H579.6V258.1H580.4Z" fill="#1D1D1B"/>
<path d="M576.501 258V222.8H575.701V258H576.501Z" fill="#1D1D1B"/>
<path d="M572.501 258V222.8H571.701V258H572.501Z" fill="#1D1D1B"/>
<path d="M362.001 277.6C362.001 277.1 362.501 276.6 363.101 276.6C363.701 276.6 364.201 277 364.201 277.6C364.201 278.2 364.201 278.1 364.001 278.2C363.701 278.5 363.301 278.9 363.301 279.3M363.101 279.5C363.501 279.5 363.801 279.5 364.101 279.8L367.801 282.3C368.501 282.7 368.101 283.7 367.301 283.7H359.001C358.201 283.7 357.801 282.8 358.501 282.3L362.001 279.8C362.301 279.6 362.701 279.5 363.001 279.5H363.101Z" stroke="white" stroke-width="0.7" stroke-miterlimit="133.3" stroke-linecap="round"/>
<path d="M116.6 206.2V198.8L114.7 199.8V198.4L116.8 197.2H118V206.1H116.6V206.2Z" fill="white"/>
<path d="M121.4 206.2V198.8L119.5 199.8V198.4L121.6 197.2H122.8V206.1H121.4V206.2Z" fill="white"/>
<path d="M125.7 205.2C125.1 204.5 124.8 203.4 124.8 202.1C124.8 200.8 125.2 199.5 125.9 198.5C126.6 197.5 127.6 197 128.8 197C130 197 130.2 197.2 130.8 197.6V198.9C130.3 198.5 129.6 198.3 129 198.3C128.4 198.3 127.5 198.6 127 199.2C126.6 199.8 126.3 200.5 126.3 201.4C126.8 200.7 127.6 200.4 128.6 200.4C129.6 200.4 130.1 200.7 130.6 201.2C131.1 201.7 131.4 202.4 131.4 203.2C131.4 204 131.1 204.8 130.5 205.4C129.9 206 129.2 206.2 128.3 206.2C127.4 206.2 126.4 205.8 125.8 205.1L125.7 205.2ZM129.5 204.6C129.8 204.3 130 203.8 130 203.3C130 202.8 129.8 202.4 129.5 202.1C129.2 201.8 128.7 201.6 128.2 201.6C127.7 201.6 127.4 201.7 127 202C126.6 202.3 126.4 202.6 126.3 203C126.4 204.3 127.1 205.1 128.3 205.1C129.5 205.1 129.3 204.9 129.6 204.6H129.5Z" fill="white"/>
<path d="M169.6 286.5V279.1L167.7 280.1V278.7L169.8 277.5H171V286.4H169.6V286.5Z" fill="white"/>
<path d="M174.501 286.5V279.1L172.601 280.1V278.7L174.701 277.5H175.901V286.4H174.501V286.5Z" fill="white"/>
<path d="M178.2 286.5L182 278.9H177.5V277.6H183.6V278.7L179.7 286.5H178.2Z" fill="white"/>
<path d="M211.3 286.5V279.1L209.4 280.1V278.7L211.5 277.5H212.7V286.4H211.3V286.5Z" fill="white"/>
<path d="M216.1 286.5V279.1L214.2 280.1V278.7L216.3 277.5H217.5V286.4H216.1V286.5Z" fill="white"/>
<path d="M219.4 286V284.7C220.1 285.1 220.9 285.4 221.8 285.4C222.7 285.4 223 285.2 223.4 284.9C223.8 284.6 224.1 284.1 224.1 283.6C224.1 282.6 223.2 281.8 221.9 281.8C220.6 281.8 220.5 281.9 219.8 282.2L220.4 277.6H225V278.8H221.4L221.1 280.8C221.4 280.8 221.8 280.7 222.2 280.7C223.2 280.7 224 281 224.6 281.5C225.2 282 225.5 282.7 225.5 283.6C225.5 284.5 225.2 285.3 224.5 285.8C223.8 286.3 223 286.6 221.9 286.6C220.8 286.6 220.1 286.4 219.4 286Z" fill="white"/>
<path d="M220.601 202.8C220.101 202.3 219.801 201.7 219.801 200.9C219.801 200.1 220.101 199.5 220.601 199C221.101 198.5 221.801 198.3 222.501 198.3C223.201 198.3 223.401 198.4 223.801 198.6V199.6C223.401 199.3 223.001 199.2 222.501 199.2C222.001 199.2 221.601 199.4 221.301 199.7C221.001 200 220.801 200.4 220.801 200.9C220.801 201.4 221.001 201.8 221.301 202.1C221.601 202.4 222.001 202.6 222.501 202.6C223.001 202.6 223.501 202.5 223.901 202.2V203.2C223.501 203.4 223.001 203.6 222.501 203.6C221.701 203.6 221.101 203.4 220.601 202.9V202.8Z" fill="white"/>
<path d="M224.501 198.4H228.701V199.3H227.101V203.4H226.101V199.3H224.501V198.4Z" fill="white"/>
<path d="M229.701 199.1C230.201 198.6 230.801 198.3 231.601 198.3C232.401 198.3 233.001 198.6 233.401 199.1C233.901 199.6 234.101 200.2 234.101 200.9C234.101 201.6 233.801 202.2 233.401 202.7C232.901 203.2 232.301 203.5 231.601 203.5C230.901 203.5 230.201 203.2 229.701 202.7C229.201 202.2 229.001 201.6 229.001 200.9C229.001 200.2 229.201 199.6 229.701 199.1ZM231.501 202.5C231.901 202.5 232.301 202.3 232.601 202C232.901 201.7 233.001 201.3 233.001 200.8C233.001 200.3 232.801 199.9 232.601 199.6C232.301 199.3 231.901 199.1 231.501 199.1C231.101 199.1 230.701 199.3 230.401 199.6C230.101 199.9 230.001 200.3 230.001 200.8C230.001 201.3 230.101 201.7 230.401 202C230.701 202.3 231.101 202.5 231.501 202.5Z" fill="white"/>
<path d="M234.4 202.4C234.5 202.4 234.6 202.4 234.8 202.4C235.1 202.4 235.3 202.2 235.3 201.9C235.3 201.5 235.5 200.8 235.5 199.8V198.3H239V203.3H238V199.2H236.5V200.2C236.5 201.4 236.3 202.2 236.1 202.6C235.9 203 235.5 203.3 234.9 203.3C234.3 203.3 234.6 203.3 234.5 203.3V202.4H234.4Z" fill="white"/>
<path d="M240.701 199.1C241.201 198.6 241.801 198.3 242.601 198.3C243.401 198.3 244.001 198.6 244.401 199.1C244.901 199.6 245.101 200.2 245.101 200.9C245.101 201.6 244.801 202.2 244.401 202.7C243.901 203.2 243.301 203.5 242.601 203.5C241.901 203.5 241.201 203.2 240.701 202.7C240.201 202.2 240.001 201.6 240.001 200.9C240.001 200.2 240.201 199.6 240.701 199.1ZM242.601 202.5C243.001 202.5 243.401 202.3 243.701 202C244.001 201.7 244.101 201.3 244.101 200.8C244.101 200.3 243.901 199.9 243.701 199.6C243.401 199.3 243.001 199.1 242.601 199.1C242.201 199.1 241.801 199.3 241.501 199.6C241.201 199.9 241.101 200.3 241.101 200.8C241.101 201.3 241.201 201.7 241.501 202C241.801 202.3 242.201 202.5 242.601 202.5Z" fill="white"/>
<path d="M246.101 203.4V198.4H248.401C249.301 198.4 249.901 198.9 249.901 199.6C249.901 200.3 249.601 200.4 249.301 200.6C249.601 200.6 249.801 200.8 250.001 201C250.201 201.2 250.301 201.5 250.301 201.9C250.301 202.3 250.101 202.7 249.801 202.9C249.501 203.2 249.101 203.3 248.501 203.3H246.001L246.101 203.4ZM247.101 200.4H248.301C248.701 200.4 249.001 200.2 249.001 199.9C249.001 199.6 248.701 199.3 248.301 199.3H247.101V200.4ZM247.101 202.5H248.401C248.901 202.5 249.201 202.3 249.201 201.9C249.201 201.5 248.901 201.2 248.401 201.2H247.101V202.5Z" fill="white"/>
<path d="M250.801 203.4L252.901 198.4H253.901L256.001 203.4H254.901L254.401 202.2H252.301L251.801 203.4H250.701H250.801ZM252.701 201.4H254.201L253.501 199.7L252.801 201.4H252.701Z" fill="white"/>
<path d="M256.301 203.4L257.901 201.3C257.201 201.1 256.901 200.6 256.901 199.9C256.901 199.2 257.101 199.1 257.401 198.8C257.701 198.5 258.101 198.4 258.701 198.4H261.001V203.4H260.001V201.4H259.101L257.601 203.4H256.401H256.301ZM259.801 200.5V199.3H258.601C258.101 199.3 257.901 199.5 257.901 199.9C257.901 200.3 258.201 200.5 258.601 200.5H259.801Z" fill="white"/>
<path d="M233.8 193.4V186L231.9 187V185.6L234 184.4H235.2V193.3H233.8V193.4Z" fill="white"/>
<path d="M238.701 193.4V186L236.801 187V185.6L238.901 184.4H240.101V193.3H238.701V193.4Z" fill="white"/>
<path d="M246.201 193.4V191.1H241.601V190L246.201 184.5H247.601V189.9H249.001V191.1H247.601V193.4H246.201ZM243.201 189.9H246.201V186.3L243.201 189.9Z" fill="white"/>
<path d="M423.701 284.7V277.3L421.801 278.3V276.9L423.901 275.7H425.101V284.6H423.701V284.7Z" fill="white"/>
<path d="M428.101 283.5C427.401 282.6 427.101 281.5 427.101 280.2C427.101 278.9 427.401 277.8 428.101 276.9C428.801 276 429.701 275.6 430.801 275.6C431.901 275.6 432.801 276 433.501 276.9C434.201 277.8 434.501 278.9 434.501 280.2C434.501 281.5 434.201 282.6 433.501 283.5C432.801 284.4 431.901 284.8 430.801 284.8C429.701 284.8 428.801 284.4 428.101 283.5ZM432.501 282.6C432.901 282 433.101 281.2 433.101 280.3C433.101 279.4 432.901 278.6 432.501 278C432.101 277.4 431.501 277 430.801 277C430.101 277 429.501 277.3 429.101 278C428.701 278.6 428.501 279.4 428.501 280.3C428.501 281.2 428.701 282 429.101 282.6C429.501 283.2 430.101 283.6 430.801 283.6C431.501 283.6 432.101 283.3 432.501 282.6Z" fill="white"/>
<path d="M441.701 276.8C442.301 277.5 442.601 278.6 442.601 279.9C442.601 281.2 442.201 282.5 441.501 283.5C440.801 284.5 439.801 284.9 438.601 284.9C437.401 284.9 437.201 284.7 436.601 284.3V283C437.101 283.4 437.801 283.6 438.401 283.6C439.001 283.6 439.901 283.3 440.401 282.7C440.901 282.1 441.101 281.4 441.101 280.5C440.601 281.2 439.801 281.5 438.801 281.5C437.801 281.5 437.301 281.2 436.801 280.7C436.301 280.2 436.001 279.5 436.001 278.6C436.001 277.7 436.301 277 436.901 276.4C437.501 275.8 438.201 275.5 439.101 275.5C440.001 275.5 441.001 275.9 441.601 276.6L441.701 276.8ZM437.901 277.4C437.601 277.7 437.401 278.2 437.401 278.7C437.401 279.2 437.601 279.6 437.901 280C438.301 280.3 438.701 280.5 439.201 280.5C439.701 280.5 440.101 280.4 440.401 280.1C440.801 279.8 441.001 279.5 441.101 279.1C441.001 277.8 440.301 277 439.101 277C437.901 277 438.101 277.2 437.801 277.5L437.901 277.4Z" fill="white"/>
<path d="M427.8 206.2V198.8L425.9 199.8V198.4L428 197.2H429.2V206.1H427.8V206.2Z" fill="white"/>
<path d="M432.6 206.2V198.8L430.7 199.8V198.4L432.8 197.2H434V206.1H432.6V206.2Z" fill="white"/>
<path d="M435.7 206.2V205.2L438.5 202.6C439.1 202 439.6 201.5 439.8 201.2C440.1 200.8 440.2 200.4 440.2 200C440.2 199.1 439.5 198.5 438.4 198.5C437.3 198.5 436.7 198.9 435.9 199.6V198.1C436.6 197.5 437.5 197.2 438.5 197.2C439.5 197.2 440 197.4 440.6 197.9C441.2 198.4 441.5 199 441.5 199.8C441.5 200.6 441.3 201 441.1 201.4C440.8 201.9 440.3 202.5 439.6 203.1L437.7 204.9H441.9V206.1H435.7V206.2Z" fill="white"/>
<path d="M482.201 167.7V160.3L480.301 161.3V159.9L482.401 158.7H483.601V167.6H482.201V167.7Z" fill="white"/>
<path d="M486.501 166.6C485.801 165.7 485.501 164.6 485.501 163.3C485.501 162 485.801 160.9 486.501 160C487.201 159.1 488.101 158.7 489.201 158.7C490.301 158.7 491.201 159.1 491.901 160C492.601 160.9 492.901 162 492.901 163.3C492.901 164.6 492.601 165.7 491.901 166.6C491.201 167.5 490.301 167.9 489.201 167.9C488.101 167.9 487.201 167.5 486.501 166.6ZM490.901 165.6C491.301 165 491.501 164.2 491.501 163.3C491.501 162.4 491.301 161.6 490.901 161C490.501 160.4 489.901 160 489.201 160C488.501 160 487.901 160.3 487.501 161C487.101 161.6 486.901 162.4 486.901 163.3C486.901 164.2 487.101 165 487.501 165.6C487.901 166.2 488.501 166.6 489.201 166.6C489.901 166.6 490.501 166.3 490.901 165.6Z" fill="white"/>
<path d="M495.401 166.8C494.801 166.1 494.501 165 494.501 163.7C494.501 162.4 494.901 161.1 495.601 160.1C496.301 159.1 497.301 158.6 498.501 158.6C499.701 158.6 499.901 158.8 500.501 159.2V160.5C500.001 160.1 499.301 159.9 498.701 159.9C498.101 159.9 497.201 160.2 496.701 160.8C496.301 161.4 496.001 162.1 496.001 163C496.501 162.3 497.301 162 498.301 162C499.301 162 499.801 162.3 500.301 162.8C500.801 163.3 501.101 164 501.101 164.8C501.101 165.6 500.801 166.4 500.201 167C499.601 167.6 498.901 167.8 498.001 167.8C497.101 167.8 496.101 167.4 495.501 166.7L495.401 166.8ZM499.201 166.1C499.501 165.8 499.701 165.3 499.701 164.8C499.701 164.3 499.501 163.9 499.201 163.6C498.901 163.3 498.401 163.1 497.901 163.1C497.401 163.1 497.101 163.2 496.701 163.5C496.301 163.8 496.101 164.1 496.001 164.5C496.101 165.8 496.801 166.6 498.001 166.6C499.201 166.6 499.001 166.4 499.301 166.1H499.201Z" fill="white"/>
<path d="M495.8 111.2V103.8L493.9 104.8V103.4L496 102.2H497.2V111.1H495.8V111.2Z" fill="white"/>
<path d="M500.101 110C499.401 109.1 499.101 108 499.101 106.7C499.101 105.4 499.401 104.3 500.101 103.4C500.801 102.5 501.701 102.1 502.801 102.1C503.901 102.1 504.801 102.5 505.501 103.4C506.201 104.3 506.501 105.4 506.501 106.7C506.501 108 506.201 109.1 505.501 110C504.801 110.9 503.901 111.3 502.801 111.3C501.701 111.3 500.801 110.9 500.101 110ZM504.501 109.1C504.901 108.5 505.101 107.7 505.101 106.8C505.101 105.9 504.901 105.1 504.501 104.5C504.101 103.9 503.501 103.5 502.801 103.5C502.101 103.5 501.501 103.8 501.101 104.5C500.701 105.1 500.501 105.9 500.501 106.8C500.501 107.7 500.701 108.5 501.101 109.1C501.501 109.7 502.101 110.1 502.801 110.1C503.501 110.1 504.101 109.8 504.501 109.1Z" fill="white"/>
<path d="M512.3 111.2V108.9H507.7V107.8L512.3 102.3H513.7V107.7H515.1V108.9H513.7V111.2H512.3ZM509.3 107.7H512.3V104.1L509.3 107.7Z" fill="white"/>
<path d="M580.901 111.2V103.8L579.001 104.8V103.4L581.101 102.2H582.301V111.1H580.901V111.2Z" fill="white"/>
<path d="M585.201 110C584.501 109.1 584.201 108 584.201 106.7C584.201 105.4 584.501 104.3 585.201 103.4C585.901 102.5 586.801 102.1 587.901 102.1C589.001 102.1 589.901 102.5 590.601 103.4C591.301 104.3 591.601 105.4 591.601 106.7C591.601 108 591.301 109.1 590.601 110C589.901 110.9 589.001 111.3 587.901 111.3C586.801 111.3 585.901 110.9 585.201 110ZM589.701 109.1C590.101 108.5 590.301 107.7 590.301 106.8C590.301 105.9 590.101 105.1 589.701 104.5C589.301 103.9 588.701 103.5 588.001 103.5C587.301 103.5 586.701 103.8 586.301 104.5C585.901 105.1 585.701 105.9 585.701 106.8C585.701 107.7 585.901 108.5 586.301 109.1C586.701 109.7 587.301 110.1 588.001 110.1C588.701 110.1 589.301 109.8 589.701 109.1Z" fill="white"/>
<path d="M592.901 111.2V110.2L595.701 107.6C596.301 107 596.801 106.5 597.001 106.2C597.301 105.8 597.401 105.4 597.401 105C597.401 104.1 596.701 103.5 595.601 103.5C594.501 103.5 593.901 103.9 593.101 104.6V103.1C593.801 102.5 594.701 102.2 595.701 102.2C596.701 102.2 597.201 102.4 597.801 102.9C598.401 103.4 598.701 104 598.701 104.8C598.701 105.6 598.501 106 598.301 106.4C598.001 106.9 597.501 107.5 596.801 108.1L594.901 109.9H599.101V111.1H592.901V111.2Z" fill="white"/>
<path d="M496.1 325.6V318.2L494.2 319.2V317.8L496.3 316.6H497.5V325.5H496.1V325.6Z" fill="white"/>
<path d="M500.4 324.4C499.7 323.5 499.4 322.4 499.4 321.1C499.4 319.8 499.7 318.7 500.4 317.8C501.1 316.9 502 316.5 503.1 316.5C504.2 316.5 505.1 316.9 505.8 317.8C506.5 318.7 506.8 319.8 506.8 321.1C506.8 322.4 506.5 323.5 505.8 324.4C505.1 325.3 504.2 325.7 503.1 325.7C502 325.7 501.1 325.3 500.4 324.4ZM504.8 323.5C505.2 322.9 505.4 322.1 505.4 321.2C505.4 320.3 505.2 319.5 504.8 318.9C504.4 318.3 503.8 317.9 503.1 317.9C502.4 317.9 501.8 318.2 501.4 318.9C501 319.5 500.8 320.3 500.8 321.2C500.8 322.1 501 322.9 501.4 323.5C501.8 324.1 502.4 324.5 503.1 324.5C503.8 324.5 504.4 324.2 504.8 323.5Z" fill="white"/>
<path d="M508.3 325.2V323.9C509 324.3 509.8 324.6 510.7 324.6C511.6 324.6 511.9 324.4 512.3 324.1C512.7 323.8 513 323.3 513 322.8C513 321.8 512.1 321 510.8 321C509.5 321 509.4 321.1 508.7 321.4L509.3 316.8H513.9V318H510.3L510 320C510.3 320 510.7 319.9 511.1 319.9C512.1 319.9 512.9 320.2 513.5 320.7C514.1 321.2 514.4 321.9 514.4 322.8C514.4 323.7 514.1 324.5 513.4 325C512.7 325.5 511.9 325.8 510.8 325.8C509.7 325.8 509 325.6 508.3 325.2Z" fill="white"/>
<path d="M590.501 333.7V326.3L588.601 327.3V325.9L590.701 324.7H591.901V333.6H590.501V333.7Z" fill="white"/>
<path d="M594.801 332.6C594.101 331.7 593.801 330.6 593.801 329.3C593.801 328 594.101 326.9 594.801 326C595.501 325.1 596.401 324.7 597.501 324.7C598.601 324.7 599.501 325.1 600.201 326C600.901 326.9 601.201 328 601.201 329.3C601.201 330.6 600.901 331.7 600.201 332.6C599.501 333.5 598.601 333.9 597.501 333.9C596.401 333.9 595.501 333.5 594.801 332.6ZM599.201 331.6C599.601 331 599.801 330.2 599.801 329.3C599.801 328.4 599.601 327.6 599.201 327C598.801 326.4 598.201 326 597.501 326C596.801 326 596.201 326.3 595.801 327C595.401 327.6 595.201 328.4 595.201 329.3C595.201 330.2 595.401 331 595.801 331.6C596.201 332.2 596.801 332.6 597.501 332.6C598.201 332.6 598.801 332.3 599.201 331.6Z" fill="white"/>
<path d="M604.3 333.7V326.3L602.4 327.3V325.9L604.5 324.7H605.7V333.6H604.3V333.7Z" fill="white"/>
<path d="M496.201 381V373.6L494.301 374.6V373.2L496.401 372H497.601V380.9H496.201V381Z" fill="white"/>
<path d="M500.501 379.8C499.801 378.9 499.501 377.8 499.501 376.5C499.501 375.2 499.801 374.1 500.501 373.2C501.201 372.3 502.101 371.9 503.201 371.9C504.301 371.9 505.201 372.3 505.901 373.2C506.601 374.1 506.901 375.2 506.901 376.5C506.901 377.8 506.601 378.9 505.901 379.8C505.201 380.7 504.301 381.1 503.201 381.1C502.101 381.1 501.201 380.7 500.501 379.8ZM504.901 378.9C505.301 378.3 505.501 377.5 505.501 376.6C505.501 375.7 505.301 374.9 504.901 374.3C504.501 373.7 503.901 373.3 503.201 373.3C502.501 373.3 501.901 373.6 501.501 374.3C501.101 374.9 500.901 375.7 500.901 376.6C500.901 377.5 501.101 378.3 501.501 378.9C501.901 379.5 502.501 379.9 503.201 379.9C503.901 379.9 504.501 379.6 504.901 378.9Z" fill="white"/>
<path d="M508.201 380.5V379.1C508.901 379.6 509.801 379.9 510.801 379.9C511.801 379.9 511.901 379.7 512.301 379.4C512.701 379.1 512.901 378.6 512.901 378.1C512.901 377.1 512.101 376.4 510.801 376.4C509.501 376.4 510.001 376.4 509.701 376.6V375.6L512.101 373.3H508.501V372.1H513.901V373.2L511.601 375.4C512.301 375.4 512.901 375.8 513.501 376.3C514.001 376.8 514.301 377.4 514.301 378.2C514.301 379 514.001 379.8 513.301 380.4C512.601 381 511.801 381.2 510.801 381.2C509.801 381.2 508.901 381 508.101 380.5H508.201Z" fill="white"/>
<path d="M472.801 205.2L471.101 200.2H472.201L473.201 203.6L474.301 200.2H475.101L476.201 203.6L477.201 200.2H478.301L476.601 205.2H475.701L474.601 201.9L473.501 205.2H472.601H472.801Z" fill="white"/>
<path d="M479.601 204.6C479.101 204.1 478.801 203.5 478.801 202.7C478.801 201.9 479.101 201.3 479.601 200.8C480.101 200.3 480.801 200.1 481.501 200.1C482.201 200.1 482.401 200.2 482.801 200.4V201.4C482.401 201.1 482.001 201 481.501 201C481.001 201 480.601 201.2 480.301 201.5C480.001 201.8 479.801 202.2 479.801 202.7C479.801 203.2 480.001 203.6 480.301 203.9C480.601 204.2 481.001 204.4 481.501 204.4C482.001 204.4 482.501 204.3 482.901 204V205C482.501 205.2 482.001 205.4 481.501 205.4C480.701 205.4 480.101 205.2 479.601 204.7V204.6Z" fill="white"/>
<path d="M502.501 210.8L501.301 207.3H502.101L502.801 209.7L503.601 207.3H504.201L505.001 209.7L505.701 207.3H506.501L505.301 210.8H504.701L503.901 208.4L503.101 210.8H502.501Z" fill="white"/>
<path d="M507.301 210.3C506.901 210 506.801 209.5 506.801 209C506.801 208.5 507.001 208 507.301 207.7C507.701 207.4 508.101 207.2 508.701 207.2C509.301 207.2 509.401 207.2 509.601 207.4V208.1C509.301 207.9 509.001 207.8 508.701 207.8C508.401 207.8 508.101 207.9 507.901 208.1C507.701 208.3 507.601 208.6 507.601 208.9C507.601 209.2 507.701 209.5 507.901 209.7C508.101 209.9 508.401 210 508.801 210C509.201 210 509.501 209.9 509.801 209.7V210.4C509.501 210.6 509.201 210.7 508.801 210.7C508.301 210.7 507.801 210.5 507.401 210.2L507.301 210.3Z" fill="white"/>
<path d="M504.201 289.1L503.001 285.6H503.801L504.501 288L505.301 285.6H505.901L506.701 288L507.401 285.6H508.201L507.001 289.1H506.401L505.601 286.7L504.801 289.1H504.201Z" fill="white"/>
<path d="M508.901 288.6C508.501 288.3 508.401 287.8 508.401 287.3C508.401 286.8 508.601 286.3 508.901 286C509.301 285.7 509.701 285.5 510.301 285.5C510.901 285.5 511.001 285.5 511.201 285.7V286.4C510.901 286.2 510.601 286.1 510.301 286.1C510.001 286.1 509.701 286.2 509.501 286.4C509.301 286.6 509.201 286.9 509.201 287.2C509.201 287.5 509.301 287.8 509.501 288C509.701 288.2 510.001 288.3 510.401 288.3C510.801 288.3 511.101 288.2 511.401 288V288.7C511.101 288.9 510.801 289 510.401 289C509.901 289 509.401 288.8 509.001 288.5L508.901 288.6Z" fill="white"/>
<path d="M177.401 263.1C177.401 262.9 177.401 262.7 177.401 262.7C177.401 262.7 177.301 262.6 177.201 262.5C177.201 262.5 177.001 262.5 176.801 262.5H175.601C175.401 262.5 175.201 262.5 175.201 262.5C175.201 262.5 175.101 262.6 175.001 262.7C175.001 262.7 175.001 262.9 175.001 263.1V264.3C175.001 264.5 175.001 264.7 175.001 264.7C175.001 264.7 174.901 264.8 174.801 264.9C174.801 264.9 174.601 264.9 174.401 264.9H173.201C173.001 264.9 172.801 264.9 172.801 264.9C172.801 264.9 172.701 265 172.601 265.1C172.601 265.1 172.601 265.3 172.601 265.5V266.7C172.601 266.9 172.601 267.1 172.601 267.1C172.601 267.1 172.701 267.2 172.801 267.3C172.801 267.3 173.001 267.3 173.201 267.3H174.401C174.601 267.3 174.801 267.3 174.801 267.3C174.801 267.3 174.901 267.4 175.001 267.5C175.001 267.5 175.001 267.7 175.001 267.9V269.1C175.001 269.3 175.001 269.5 175.001 269.5C175.001 269.5 175.101 269.6 175.201 269.7C175.201 269.7 175.401 269.7 175.601 269.7H176.801C177.001 269.7 177.201 269.7 177.201 269.7C177.201 269.7 177.301 269.6 177.401 269.5C177.401 269.5 177.401 269.3 177.401 269.1V267.9C177.401 267.7 177.401 267.5 177.401 267.5C177.401 267.5 177.501 267.4 177.601 267.3C177.601 267.3 177.801 267.3 178.001 267.3H179.201C179.401 267.3 179.601 267.3 179.601 267.3C179.601 267.3 179.701 267.2 179.801 267.1C179.801 267.1 179.801 266.9 179.801 266.7V265.5C179.801 265.3 179.801 265.1 179.801 265.1C179.801 265.1 179.701 265 179.601 264.9C179.601 264.9 179.401 264.9 179.201 264.9H178.001C177.801 264.9 177.601 264.9 177.601 264.9C177.601 264.9 177.501 264.8 177.401 264.7C177.401 264.7 177.401 264.5 177.401 264.3V263.1Z" stroke="white" stroke-width="0.7" stroke-linecap="round" stroke-linejoin="round"/>
<path d="M508.201 272.8C508.201 272.2 507.701 271.7 507.101 271.7C506.501 271.7 506.001 272.2 506.001 272.8C506.001 273.4 506.501 273.9 507.101 273.9C507.701 273.9 508.201 273.4 508.201 272.8ZM507.101 273.4C506.701 273.4 506.501 273.1 506.501 272.8C506.501 272.5 506.801 272.2 507.101 272.2C507.401 272.2 507.701 272.5 507.701 272.8C507.701 273.1 507.401 273.4 507.101 273.4Z" fill="white"/>
<path d="M508.201 273.8H506.101C505.401 273.8 504.801 274.4 504.801 275.1V277.8C504.801 278.2 505.101 278.6 505.501 278.6C505.601 278.6 505.701 278.6 505.801 278.6V282.9C505.801 283.3 506.101 283.7 506.601 283.7C506.801 283.7 507.001 283.7 507.101 283.5C507.401 283.8 507.901 283.8 508.201 283.5C508.301 283.4 508.401 283.2 508.401 283V278.7C508.801 278.9 509.201 278.7 509.401 278.3C509.401 278.2 509.401 278.1 509.401 278V275.3C509.401 274.6 508.801 274 508.101 274L508.201 273.8ZM506.901 282.8C506.901 283 506.801 283.1 506.601 283.1C506.401 283.1 506.301 283 506.301 282.8V279H506.901V282.8ZM508.001 282.8C508.001 283 507.901 283.1 507.701 283.1C507.501 283.1 507.401 283 507.401 282.8V279H508.001V282.8ZM509.101 277.8C509.101 278 509.001 278.1 508.801 278.1C508.601 278.1 508.501 278 508.501 277.8V275.1C508.501 275 508.501 274.9 508.301 274.9C508.101 274.9 508.101 274.9 508.101 275.1V278.5H506.401V275.1C506.401 275 506.401 274.9 506.201 274.9C506.001 274.9 506.001 274.9 506.001 275.1V277.8C506.001 278 505.901 278.1 505.701 278.1C505.501 278.1 505.401 278 505.401 277.8V275.1C505.401 274.6 505.801 274.2 506.301 274.2H508.401C508.901 274.2 509.301 274.6 509.301 275.1V277.8H509.101Z" fill="white"/>
<path d="M508.701 199.2L507.801 196.2C507.701 195.8 507.401 195.6 507.001 195.6H504.9C504.3 195.6 503.801 196 503.701 196.5L502.9 199.2C502.8 199.6 503 200 503.4 200.1C503.5 200.1 503.601 200.1 503.701 200.1L503.4 201C503.4 201.2 503.401 201.5 503.701 201.5C503.701 201.5 503.701 201.5 503.801 201.5H504.4V204.4C504.4 204.8 504.7 205.1 505.1 205.2C505.3 205.2 505.5 205.2 505.6 205C505.9 205.3 506.401 205.3 506.701 205C506.801 204.9 506.9 204.7 506.9 204.5V201.6H507.501C507.701 201.6 507.9 201.4 507.9 201.2C507.9 201.2 507.9 201.2 507.9 201.1L507.6 200.2C507.7 200.2 507.8 200.2 507.9 200.2C508.3 200.1 508.5 199.7 508.4 199.3L508.701 199.2ZM505.6 204.5C505.6 204.7 505.501 204.8 505.301 204.8C505.101 204.8 505.001 204.7 505.001 204.5V201.6H505.6V204.5ZM506.701 204.5C506.701 204.7 506.6 204.8 506.4 204.8C506.2 204.8 506.1 204.7 506.1 204.5V201.6H506.701V204.5ZM508.1 199.7C507.9 199.7 507.801 199.7 507.701 199.5L506.9 196.8C506.9 196.7 506.7 196.6 506.6 196.7C506.5 196.7 506.401 196.8 506.501 197L507.701 201.2H504.001L505.201 197C505.201 196.9 505.201 196.8 505.001 196.7C504.901 196.7 504.801 196.7 504.701 196.8L503.9 199.5C503.9 199.7 503.701 199.8 503.501 199.7C503.301 199.6 503.201 199.5 503.301 199.3L504.1 196.6C504.2 196.2 504.5 196 504.9 196H507.001C507.201 196 507.4 196.1 507.4 196.3L508.301 199.3C508.301 199.5 508.3 199.6 508.1 199.7Z" fill="white"/>
<path d="M505.8 195.6C506.4 195.6 506.9 195.1 506.9 194.5C506.9 193.9 506.4 193.4 505.8 193.4C505.2 193.4 504.7 193.9 504.7 194.5C504.7 195.1 505.2 195.6 505.8 195.6ZM505.8 193.9C506.2 193.9 506.4 194.2 506.4 194.5C506.4 194.8 506.1 195.1 505.8 195.1C505.5 195.1 505.2 194.8 505.2 194.5C505.2 194.2 505.5 193.9 505.8 193.9Z" fill="white"/>
<path d="M367.9 197.3C367.9 197.2 367.9 197 367.9 196.9C367.9 196.8 367.9 196.6 367.9 196.5L368.8 195.8C368.8 195.8 368.9 195.6 368.8 195.5L367.9 194C367.9 194 367.7 193.9 367.6 194L366.5 194.4C366.3 194.2 366 194.1 365.8 194L365.6 192.9C365.6 192.8 365.5 192.7 365.4 192.7H363.7C363.6 192.7 363.5 192.7 363.5 192.9L363.3 194C363 194.1 362.8 194.3 362.6 194.4L361.5 194C361.5 194 361.3 194 361.2 194L360.3 195.5C360.3 195.5 360.3 195.7 360.3 195.8L361.2 196.5C361.2 196.6 361.2 196.8 361.2 196.9C361.2 197 361.2 197.2 361.2 197.3L360.3 198C360.3 198 360.2 198.2 360.3 198.3L361.2 199.8C361.2 199.8 361.4 199.9 361.5 199.8L362.6 199.4C362.8 199.6 363.1 199.7 363.3 199.8L363.5 200.9C363.5 201 363.6 201.1 363.7 201.1H365.4C365.5 201.1 365.6 201.1 365.6 200.9L365.8 199.8C366.1 199.7 366.3 199.5 366.5 199.4L367.6 199.8C367.6 199.8 367.8 199.8 367.9 199.8L368.8 198.3C368.8 198.3 368.8 198.1 368.8 198L367.9 197.3ZM364.7 198.4C363.9 198.4 363.2 197.7 363.2 196.9C363.2 196.1 363.9 195.4 364.7 195.4C365.5 195.4 366.2 196.1 366.2 196.9C366.2 197.7 365.5 198.4 364.7 198.4Z" stroke="white" stroke-width="0.5" stroke-linecap="round" stroke-linejoin="round"/>
<path d="M8.4 38.6V6.5L0 11V5.1L9.10001 0H14.4V38.6H8.4Z" fill="black"/>
<path d="M36.9004 37.2V32C39.3004 33.4 41.9004 34.1 44.6004 34.1C49.5004 34.1 53.3004 31.4 54.0004 27.4H42.6004V22.6H54.0004C53.1004 18.6 49.5004 16.1 44.6004 16.1C39.7004 16.1 39.7004 16.7 37.5004 17.9V12.7C39.9004 11.5 42.5004 10.9 45.6004 10.9C48.7004 10.9 53.1004 12.2 55.9004 14.9C58.7004 17.6 60.1004 21 60.1004 25.1C60.1004 29.2 58.7004 32.7 55.9004 35.4C53.1004 38.1 49.6004 39.4 45.6004 39.4C41.6004 39.4 39.5004 38.7 37.0004 37.2H36.9004Z" fill="black"/>
<path d="M71.9002 38.6V16.8H62.7002V11.6H86.9002V16.8H77.8002V38.6H71.8002H71.9002Z" fill="black"/>
<path d="M119.4 33.6V38.1C118.6 38.7 117.4 39 115.9 39C112.9 39 110.9 37.7 110.2 35.1C107.7 37.9 104.4 39.3 100.2 39.3C96 39.3 94.9 38.5 92.9 36.9C91 35.3 90 33 90 30.2C90 27.4 91 25.1 93.1 23.6C95.2 22 97.8 21.2 100.8 21.2C103.8 21.2 107 21.9 109.5 23.3V21.8C109.5 17.9 106.9 15.9 101.6 15.9C96.3 15.9 95.6 16.7 93.1 18.3V13.1C95.8 11.6 99.1 10.8 103 10.8C110.5 10.8 115.5 14.6 115.5 21.2V31.3C115.5 33 116.4 34 117.8 34C119.2 34 118.9 33.9 119.4 33.6ZM109.6 27.6C107.3 26.3 104.9 25.7 102.4 25.7C98.4 25.7 96.1 27.2 96.1 29.9C96.1 32.6 98.5 34.2 101.9 34.2C105.3 34.2 107.9 32.8 109.6 30.9V27.6Z" fill="black"/>
<path d="M122.5 38.6L135.4 24.1L124 11.5H131L140.5 22.1V11.5H146.5V22.1L156 11.5H163L151.5 24.1L164.5 38.6H157.1L146.5 26.5V38.6H140.5V26.5L129.8 38.6H122.5Z" fill="black"/>
</svg>
