<svg width="21" height="16" viewBox="0 0 21 16" fill="none" xmlns="http://www.w3.org/2000/svg">
<path d="M5.4179 6.79035L3.04785 6.24631L2.74203 6.86807L2.75983 7.646L2.81849 10.21L3.96529 9.04421L5.11209 10.6763L5.31006 8.16068L5.4179 6.79035Z" fill="#FFD600"/>
<path fill-rule="evenodd" clip-rule="evenodd" d="M10.6167 0.261902L1.51878 4.2256L11.2283 6.40175L20.2498 2.43805L10.6167 0.261902ZM9.85219 2.12717L10.7696 1.73857L15.6626 2.74893L14.7452 3.21525L9.85219 2.12717Z" fill="#FFD600"/>
<path d="M10.7696 1.73857L9.85219 2.12717L14.7452 3.21525L15.6626 2.74893L10.7696 1.73857Z" fill="black"/>
<path d="M20.2498 2.43805L11.2283 6.40175L1.51878 4.2256C0.849452 5.28798 0.677068 5.94537 0.830699 7.25666L2.75983 7.646L2.74203 6.86807L3.04785 6.24631L5.4179 6.79035L5.31006 8.16068L11.2283 9.35509L20.2498 5.15823C19.9427 4.15744 20.0164 3.54683 20.2498 2.43805Z" fill="white"/>
<path d="M0.830699 7.25666C0.311881 8.31351 0.286584 8.90965 0.601339 9.97685L11.2283 12.3084L20.2498 8.1893C19.8158 7.00556 19.9247 6.34198 20.2498 5.15823L11.2283 9.35509L5.31006 8.16068L5.11209 10.6763L3.96529 9.04421L2.81849 10.21L2.75983 7.646L0.830699 7.25666Z" fill="white"/>
<path d="M0.601339 9.97685C0.143931 11.2652 0.0965625 11.9556 0.677792 13.0856L11.2283 15.2618L20.2498 11.1426C19.9916 9.98885 19.9871 9.34309 20.2498 8.1893L11.2283 12.3084L0.601339 9.97685Z" fill="white"/>
<path d="M0.830699 7.25666C0.677068 5.94537 0.849452 5.28798 1.51878 4.2256L10.6167 0.261902L20.2498 2.43805C20.0164 3.54683 19.9427 4.15744 20.2498 5.15823C19.9247 6.34198 19.8158 7.00556 20.2498 8.1893C19.9871 9.34309 19.9916 9.98885 20.2498 11.1426L11.2283 15.2618L0.677792 13.0856C0.0965625 11.9556 0.143931 11.2652 0.601339 9.97685M1.51878 4.2256L11.2283 6.40175L20.2498 2.43805M0.830699 7.25666C0.311881 8.31351 0.286584 8.90965 0.601339 9.97685M0.830699 7.25666L2.75983 7.646M0.601339 9.97685L11.2283 12.3084L20.2498 8.1893M20.2498 5.15823L11.2283 9.35509L5.31006 8.16068M5.31006 8.16068L5.11209 10.6763L3.96529 9.04421L2.81849 10.21L2.75983 7.646L2.74203 6.86807L3.04785 6.24631L5.4179 6.79035L5.31006 8.16068ZM10.7696 1.73857L9.85219 2.12717L14.7452 3.21525L15.6626 2.74893L10.7696 1.73857Z" stroke="black" stroke-width="0.5"/>
</svg>
