<svg width="21" height="15" viewBox="0 0 21 15" fill="none" xmlns="http://www.w3.org/2000/svg">
<path fill-rule="evenodd" clip-rule="evenodd" d="M20.25 1.84265C20.25 0.963052 19.5369 0.25 18.6574 0.25H1.84265C0.963052 0.25 0.25 0.963052 0.25 1.84265V12.6574C0.25 13.5369 0.963052 14.25 1.84265 14.25H18.6574C19.5369 14.25 20.25 13.5369 20.25 12.6574V1.84265ZM6.82785 9.53111C8.37964 9.3745 9.59066 8.0702 9.59066 6.48438C9.59066 4.793 8.21307 3.42188 6.51374 3.42188C4.8144 3.42188 3.43681 4.793 3.43681 6.48438C3.43681 8.05996 4.63225 9.35765 6.16961 9.52793C5.39866 9.62572 4.60608 10.0807 3.64695 10.9099C3.50837 11.0297 3.40828 11.1875 3.35426 11.3626C3.15345 12.0133 3.63993 12.6725 4.32092 12.6725H8.77209C9.47478 12.6725 9.95104 11.9573 9.68005 11.3089C9.62126 11.1683 9.53078 11.0427 9.41405 10.9446C8.42734 10.1157 7.61723 9.63843 6.82785 9.53111Z" fill="#FFD600"/>
<path d="M6.82785 9.53111C6.72457 9.54154 6.61978 9.54688 6.51374 9.54688C6.39741 9.54688 6.28259 9.54045 6.16961 9.52793C5.39866 9.62572 4.60608 10.0807 3.64695 10.9099C3.50837 11.0297 3.40828 11.1875 3.35426 11.3626C3.15345 12.0133 3.63993 12.6725 4.32092 12.6725H8.77209C9.47478 12.6725 9.95104 11.9573 9.68005 11.3089C9.62126 11.1683 9.53078 11.0427 9.41405 10.9446C8.42734 10.1157 7.61723 9.63843 6.82785 9.53111Z" fill="white"/>
<path d="M6.51374 3.42188C4.8144 3.42188 3.43681 4.793 3.43681 6.48438C3.43681 8.05996 4.63225 9.35765 6.16961 9.52793C6.38966 9.50002 6.60795 9.50122 6.82785 9.53111C8.37964 9.3745 9.59066 8.0702 9.59066 6.48438C9.59066 4.793 8.21307 3.42188 6.51374 3.42188Z" fill="white"/>
<path d="M11.8434 4.89844C11.8874 4.89844 15.1218 4.89844 16.7335 4.89844M11.8434 7.25H16.7335M11.8434 9.54688H14.5357M6.82785 9.53111C8.37964 9.3745 9.59066 8.0702 9.59066 6.48438C9.59066 4.793 8.21307 3.42188 6.51374 3.42188C4.8144 3.42188 3.43681 4.793 3.43681 6.48438C3.43681 8.05996 4.63225 9.35765 6.16961 9.52793M6.82785 9.53111C6.72457 9.54154 6.61978 9.54688 6.51374 9.54688C6.39741 9.54688 6.28259 9.54045 6.16961 9.52793M6.82785 9.53111C6.60795 9.50122 6.38966 9.50002 6.16961 9.52793M6.82785 9.53111C7.61723 9.63843 8.42734 10.1157 9.41405 10.9446C9.53078 11.0427 9.62126 11.1683 9.68005 11.3089C9.95104 11.9573 9.47478 12.6725 8.77209 12.6725H4.32092C3.63993 12.6725 3.15345 12.0133 3.35426 11.3626C3.40828 11.1875 3.50837 11.0297 3.64695 10.9099C4.60608 10.0807 5.39866 9.62572 6.16961 9.52793M1.84265 14.25H18.6574C19.5369 14.25 20.25 13.5369 20.25 12.6574V1.84265C20.25 0.963052 19.5369 0.25 18.6574 0.25H1.84265C0.963052 0.25 0.25 0.963052 0.25 1.84265V12.6574C0.25 13.5369 0.963052 14.25 1.84265 14.25Z" stroke="black" stroke-width="0.5"/>
</svg>
