<svg width="40" height="40" viewBox="0 0 40 40" fill="none" xmlns="http://www.w3.org/2000/svg">
<path d="M2.35294 17.3494C1.85241 17.1654 1.38747 16.0822 1.17647 13.2256C0.41498 15.3412 0 17.6221 0 20C0 29.9237 7.22755 38.1593 16.7059 39.73V35.9036L15.7647 33.0121C11.5294 32.7711 14.1176 29.6386 12 28.4337C10.1992 28.6989 8.47059 28.4337 7.05882 26.747C7.76471 25.3012 3.52941 28.4337 4.47059 20.241C3.55494 22.8834 1.88235 21.6868 2.35294 17.3494Z" fill="#FFD600"/>
<path d="M36.4706 13.7349C32.7059 19.0361 34.5882 11.5663 32.7059 15.1807C32.3079 16.8922 31.4828 17.1983 29.6471 17.3494C25.6471 19.5181 24.2353 16.1446 28.4706 14.4578C29.6471 10.1205 34.3529 10.4832 37.6471 10.4832C37.3579 9.94535 37.0439 9.42236 36.7059 8.91567C35.3005 9.9993 34.2992 10.8614 32.7059 7.71084C31.2764 6.4874 31.6825 5.97401 32.9412 4.75067C32.4149 4.30361 31.8652 3.8833 31.2941 3.49186C30.3066 3.83906 30.4308 4.44586 30.5882 5.54216C29.8156 7.77274 28.9242 8.62466 25.6471 8.67469C24.0257 11.1936 23.1076 12.3262 21.1765 5.54216C19.4971 5.10591 18.5882 3.37349 18.1176 1.44578C16.5286 1.83146 15.7101 1.8937 15.0588 0.615043C11.3317 1.56219 8.02237 3.55596 5.462 6.26507C7.10906 8.67471 11.5294 6.02409 9.17647 10.3614C11.7647 12.5301 12.9412 11.8072 12.9412 10.3614C15.7647 10.8434 19.2941 11.5663 17.4118 16.1446C14.3529 13.7349 13.8824 14.4578 15.7647 17.3494C14.3529 17.8313 11.0588 19.5181 11.0588 23.3735C7.05882 23.3735 8.47059 27.7568 12 26.747C14.187 25.0916 15.4168 24.1929 18.1176 26.747C20 25.5422 23.7647 28.6747 21.8824 31.8072C21.8614 32.9527 21.8824 33.9759 20.7059 35.1807C20.5443 36.6553 20.222 39.0718 20 40C24.2935 40 28.271 38.6471 31.5294 36.3444C30.4435 35.4378 30.2222 34.4088 31.5294 33.0121C31.8816 29.5611 31.9196 27.8698 29.6471 28.4337C26.7915 28.8668 25.6471 27.9518 24.2353 24.8193C24.595 21.1671 24.5875 18.9309 29.6471 19.5181C32.0441 17.9001 33.6471 18.5542 36.4706 17.3494C36.8181 15.4003 37.5533 14.7411 39.2475 14.4578C39.0868 13.8846 38.9012 13.3219 38.6916 12.7711C37.8574 12.6549 37.1524 12.7749 36.4706 13.7349Z" fill="#FFD600"/>
<path d="M39.2475 14.4578C37.5533 14.7411 36.8181 15.4003 36.4706 17.3494C33.6471 18.5542 32.0441 17.9001 29.6471 19.5181C24.5875 18.9309 24.595 21.1671 24.2353 24.8193C25.6471 27.9518 26.7915 28.8668 29.6471 28.4337C31.9196 27.8698 31.8816 29.5611 31.5294 33.0121C30.2222 34.4088 30.4435 35.4378 31.5294 36.3444C36.6539 32.7229 40 26.7522 40 20C40 18.0772 39.7409 16.2177 39.2475 14.4578Z" fill="white"/>
<path d="M32.7059 15.1807C34.5882 11.5663 32.7059 19.0361 36.4706 13.7349C37.1524 12.7749 37.8574 12.6549 38.6916 12.7711C38.3917 11.9831 38.0427 11.2192 37.6471 10.4832C34.3529 10.4832 29.6471 10.1205 28.4706 14.4578C24.2353 16.1446 25.6471 19.5181 29.6471 17.3494C31.4828 17.1983 32.3079 16.8922 32.7059 15.1807Z" fill="white"/>
<path d="M32.9412 4.75067C31.6825 5.97401 31.2764 6.4874 32.7059 7.71084C34.2992 10.8614 35.3005 9.9993 36.7059 8.91567C35.6681 7.35986 34.3621 5.95773 32.9412 4.75067Z" fill="white"/>
<path d="M25.6471 8.67469C28.9242 8.62466 29.8156 7.77274 30.5882 5.54216C30.4308 4.44586 30.3066 3.83906 31.2941 3.49186C28.0803 1.28888 24.1907 0 20 0C18.2947 0 16.6392 0.213433 15.0588 0.615043C15.7101 1.8937 16.5286 1.83146 18.1176 1.44578C18.5882 3.37349 19.4971 5.10591 21.1765 5.54216C23.1076 12.3262 24.0257 11.1936 25.6471 8.67469Z" fill="white"/>
<path d="M20 40C20.222 39.0718 20.5443 36.6553 20.7059 35.1807C21.8824 33.9759 21.8614 32.9527 21.8824 31.8072C23.7647 28.6747 20 25.5422 18.1176 26.747C15.4168 24.1929 14.187 25.0916 12 26.747C8.47059 27.7568 7.05882 23.3735 11.0588 23.3735C11.0588 19.5181 14.3529 17.8313 15.7647 17.3494C13.8824 14.4578 14.3529 13.7349 17.4118 16.1446C19.2941 11.5663 15.7647 10.8434 12.9412 10.3614C12.9412 11.8072 11.7647 12.5301 9.17647 10.3614C11.5294 6.02409 7.10906 8.67471 5.462 6.26507C3.58987 8.24595 2.1182 10.6093 1.17647 13.2256C1.38747 16.0822 1.85241 17.1654 2.35294 17.3494C1.88235 21.6868 3.55494 22.8834 4.47059 20.241C3.52941 28.4337 7.76471 25.3012 7.05882 26.747C8.47059 28.4337 10.1992 28.6989 12 28.4337C14.1176 29.6386 11.5294 32.7711 15.7647 33.0121L16.7059 35.9036V39.73C17.7775 39.9076 18.878 40 20 40Z" fill="white"/>
<path d="M5.4502 7.01562C5.89769 7.43723 6.42988 7.66287 6.94238 7.7959C7.278 7.88301 7.61368 7.93338 7.91699 7.97266C8.2322 8.01347 8.49274 8.0406 8.73145 8.08301C9.2493 8.17504 9.31718 8.28688 9.33789 8.3623C9.35815 8.43632 9.36871 8.59557 9.28027 8.89941C9.21491 9.12397 9.10221 9.40375 8.92969 9.75195L8.7373 10.123L8.54199 10.4824L8.85547 10.7451C9.52454 11.3057 10.1219 11.6964 10.6504 11.9355C11.1752 12.173 11.6651 12.2757 12.1016 12.2119C12.5572 12.1453 12.9115 11.9021 13.1387 11.5449C13.2541 11.3633 13.3311 11.1593 13.3789 10.9453C13.9149 11.0428 14.45 11.1546 14.9531 11.3037C15.6221 11.502 16.1988 11.7571 16.626 12.1045C17.0411 12.4421 17.3208 12.8704 17.4102 13.4531C17.4837 13.9325 17.4296 14.5455 17.1748 15.334C16.6442 14.9414 16.1935 14.6509 15.8252 14.4639C15.5835 14.3412 15.3491 14.2485 15.1338 14.2119C14.9292 14.1771 14.6325 14.1766 14.3984 14.3896C14.1647 14.6027 14.1382 14.897 14.1533 15.0996C14.1693 15.3132 14.2386 15.5475 14.333 15.7861C14.4773 16.1508 14.7092 16.5938 15.0195 17.1045C13.4361 17.7927 10.8039 19.5029 10.5762 22.8965C9.73172 22.9727 9.08299 23.2517 8.65918 23.6982C8.14795 24.237 8.03379 24.9452 8.22754 25.584C8.60337 26.823 10.0657 27.7344 11.9531 27.2764L12.1377 27.2275L12.2275 27.2021L12.3018 27.1455C12.8537 26.7277 13.3181 26.3794 13.7549 26.1191C14.1882 25.8609 14.563 25.7096 14.9268 25.665C15.62 25.5803 16.4587 25.8661 17.7744 27.1104L18.0576 27.3789L18.3867 27.168C18.702 26.9662 19.131 26.9236 19.623 27.0684C20.1147 27.2131 20.6277 27.5363 21.0439 27.9893C21.8194 28.8333 22.2058 30.0519 21.5908 31.2998L21.4541 31.5498L21.3848 31.6641L21.3828 31.7979C21.372 32.3888 21.3702 32.8651 21.2441 33.3447C21.1384 33.7472 20.9389 34.1662 20.5342 34.6299L20.3486 34.8311L20.2275 34.9551L20.209 35.126C20.0666 36.4253 19.8025 38.4242 19.5957 39.4961C18.7859 39.4796 17.9884 39.413 17.2061 39.3008V35.8242L17.1816 35.749L16.2402 32.8574L16.1348 32.5322L15.793 32.5127C14.7872 32.4555 14.2869 32.2304 14.0215 31.9922C13.7639 31.7611 13.6492 31.4489 13.582 31.0088C13.5476 30.783 13.5299 30.559 13.502 30.2959C13.4752 30.0445 13.4405 29.7689 13.3701 29.498C13.2237 28.9344 12.9212 28.3825 12.2471 27.999L12.0977 27.9141L11.9268 27.9395C11.0706 28.0655 10.2663 28.0598 9.52441 27.8428C8.85762 27.6476 8.21916 27.2728 7.62402 26.6289C7.62613 26.6172 7.62923 26.6056 7.63086 26.5938C7.65033 26.4511 7.63705 26.2723 7.52637 26.1084C7.42155 25.9532 7.27497 25.879 7.17285 25.8418C7.07136 25.8049 6.96631 25.7881 6.88574 25.7773C6.52446 25.7293 6.22725 25.7386 5.89844 25.5762C5.61735 25.4372 5.27881 25.1403 5.05762 24.3721C4.85864 23.6809 4.7614 22.626 4.89551 21.0205L4.96777 20.2979L3.99805 20.0771C3.7801 20.7061 3.54833 21.0027 3.40332 21.1025C3.36683 21.1276 3.34582 21.1335 3.33789 21.1348C3.33054 21.1324 3.30343 21.1204 3.25879 21.0723C3.12311 20.9258 2.95002 20.5717 2.85059 19.9268C2.7539 19.2994 2.73537 18.4563 2.84961 17.4033L2.89258 17.0146L2.52539 16.8799C2.52097 16.8779 2.47408 16.8552 2.40039 16.7471C2.32026 16.6294 2.22667 16.4374 2.13281 16.1396C1.94939 15.5578 1.78831 14.6491 1.68359 13.2949C2.53823 10.961 3.82553 8.83485 5.4502 7.01562ZM14.8213 1.19727C15.1595 1.71349 15.5783 2.03327 16.1396 2.14453C16.6228 2.24026 17.1679 2.16759 17.7598 2.04004C18.247 3.73508 19.1386 5.37111 20.7705 5.93945C21.2249 7.509 21.6296 8.65929 22.0098 9.46191C22.2103 9.88527 22.4122 10.2291 22.6221 10.4912C22.8301 10.7511 23.0694 10.9599 23.3535 11.0654C23.9886 11.3011 24.5221 10.9333 24.8945 10.5498C25.2338 10.2005 25.5741 9.70256 25.9229 9.16602C27.4441 9.1208 28.5309 8.89084 29.3389 8.33887C30.0971 7.82087 30.5445 7.0669 30.9092 6.12207L31.0605 5.70605L31.1006 5.59082L31.083 5.4707C31.0424 5.18764 31.008 4.96348 30.9912 4.76562C30.9745 4.56854 30.9794 4.43684 31 4.34277C31.018 4.26081 31.0477 4.20846 31.0957 4.16113C31.1253 4.13199 31.169 4.09766 31.2344 4.06152C31.5627 4.29337 31.8843 4.53395 32.1973 4.78516C32.0428 4.94343 31.9023 5.09537 31.7832 5.24316C31.57 5.50782 31.3865 5.80285 31.3242 6.13965C31.1938 6.84592 31.6331 7.43292 32.3037 8.02148C32.6965 8.78581 33.0712 9.34741 33.4492 9.73145C33.5786 9.86283 33.7119 9.97436 33.8477 10.0684C33.267 10.1256 32.6902 10.2169 32.1387 10.3604C31.2196 10.5995 30.3409 10.9898 29.6084 11.6309C28.9221 12.2315 28.3881 13.0347 28.0605 14.0889C27.0638 14.5185 26.3476 15.0527 25.9092 15.6211C25.4428 16.2259 25.2554 16.9266 25.5088 17.54C25.7666 18.1641 26.3987 18.5038 27.1504 18.5488C27.8787 18.5924 28.7758 18.3708 29.7881 17.8379C30.6581 17.7622 31.405 17.6407 31.9844 17.2715C32.6063 16.8751 32.9576 16.25 33.1738 15.3652C33.2394 15.2406 33.2988 15.1341 33.3516 15.043C33.3703 15.1126 33.3872 15.1814 33.4053 15.2393C33.4674 15.4381 33.567 15.7059 33.7539 15.9082C33.8546 16.0171 33.9896 16.1172 34.1631 16.1699C34.3377 16.223 34.5166 16.2173 34.6875 16.1719C35.0077 16.0867 35.3267 15.8534 35.6572 15.5254C35.9982 15.187 36.3993 14.6984 36.8779 14.0244C37.1759 13.6049 37.448 13.4108 37.6973 13.3184C37.8829 13.2496 38.0873 13.2262 38.3301 13.2383C38.4306 13.516 38.5252 13.7965 38.6133 14.0801C37.9699 14.2413 37.4281 14.4939 36.999 14.9277C36.5062 15.4259 36.2177 16.1054 36.0332 16.9844C34.7992 17.4765 33.819 17.6059 32.8105 17.7871C31.7706 17.974 30.7357 18.2181 29.5215 19.002C27.0659 18.7434 25.5973 19.1371 24.7725 20.2871C24.371 20.8471 24.1632 21.5367 24.0293 22.2783C23.9625 22.6481 23.9113 23.0468 23.8662 23.4648L23.7373 24.7705L23.7246 24.9033L23.7793 25.0244C24.4885 26.5981 25.1738 27.7245 26.1152 28.375C27.086 29.0456 28.2381 29.1527 29.7217 28.9277L29.7451 28.9248L29.7676 28.9189C30.2953 28.788 30.5898 28.8163 30.752 28.8857C30.8839 28.9423 31.0048 29.0594 31.0928 29.3584C31.1853 29.6728 31.2213 30.1266 31.2041 30.748C31.1881 31.3244 31.1269 32.0077 31.0469 32.8027C30.4284 33.5008 30.0974 34.1906 30.1328 34.8877C30.1598 35.4188 30.3963 35.8752 30.7432 36.2734C27.8214 38.2063 24.3505 39.374 20.6123 39.4893C20.814 38.3794 21.0473 36.6131 21.1836 35.3994C21.7488 34.7859 22.0539 34.1962 22.2109 33.5986C22.3613 33.0264 22.3703 32.4638 22.3789 31.9443C23.3652 30.1857 22.8116 28.4349 21.7803 27.3125C21.2555 26.7415 20.591 26.3111 19.9062 26.1094C19.3464 25.9446 18.7435 25.9254 18.2002 26.1436C16.9329 25.0081 15.8766 24.541 14.8057 24.6719C14.2512 24.7397 13.7397 24.9639 13.2432 25.2598C12.7751 25.5387 12.2921 25.8998 11.7812 26.2861C10.2767 26.6821 9.38146 25.9426 9.18457 25.2939C9.08422 24.9631 9.14601 24.6383 9.38477 24.3867C9.63345 24.1247 10.1414 23.8731 11.0586 23.873H11.5586V23.373C11.5588 19.8621 14.5572 18.2895 15.9258 17.8223L16.5342 17.6152L16.1836 17.0762C15.7198 16.3637 15.4173 15.8095 15.2627 15.4189C15.243 15.3691 15.2296 15.3223 15.2158 15.2812C15.2625 15.3016 15.3149 15.326 15.373 15.3555C15.774 15.5591 16.3467 15.9417 17.1025 16.5371L17.6221 16.9473L17.874 16.335C18.3649 15.141 18.5272 14.1416 18.3984 13.3018C18.2672 12.4463 17.8416 11.8047 17.2568 11.3291C16.6841 10.8633 15.9654 10.5606 15.2373 10.3447C14.6895 10.1824 14.1156 10.0631 13.5654 9.96289L13.0254 9.86816L12.4414 9.76855V10.3613C12.4414 10.6618 12.3789 10.8754 12.2949 11.0078C12.2206 11.1248 12.1189 11.198 11.957 11.2217C11.776 11.2482 11.4861 11.2161 11.0625 11.0244C10.7142 10.8668 10.2973 10.6108 9.80859 10.2295C10.0079 9.83078 10.1516 9.4833 10.2402 9.17871C10.354 8.78802 10.3916 8.42364 10.3027 8.09863C10.1049 7.37587 9.40483 7.18627 8.90625 7.09766C8.63677 7.04979 8.32649 7.01679 8.0459 6.98047C7.75314 6.94257 7.46691 6.89912 7.19336 6.82812C6.78567 6.72228 6.42605 6.5611 6.13672 6.28906C8.50322 3.89643 11.4832 2.11453 14.8213 1.19727ZM0.983398 15.665C1.04357 15.9582 1.10894 16.216 1.17969 16.4404C1.29078 16.7927 1.42004 17.0843 1.57422 17.3105C1.64755 17.4181 1.73184 17.5163 1.82617 17.6006C1.73879 18.5823 1.7596 19.4127 1.8623 20.0791C1.97273 20.7954 2.18738 21.3883 2.52539 21.7529C2.70169 21.943 2.93162 22.091 3.20996 22.127C3.43781 22.1563 3.6518 22.1032 3.84082 22.0029C3.8112 23.1321 3.90758 23.9915 4.09668 24.6484C4.38284 25.6423 4.88322 26.1899 5.45508 26.4727C5.83168 26.6588 6.23242 26.7146 6.50391 26.7422L6.4668 26.8193L6.67578 27.0684C7.44211 27.9838 8.31038 28.5288 9.24316 28.8018C10.1069 29.0545 11.0006 29.0648 11.8838 28.9521C12.1771 29.16 12.3179 29.4241 12.4023 29.749C12.4532 29.9449 12.4821 30.1597 12.5078 30.4014C12.5322 30.6312 12.5547 30.9043 12.5938 31.1602C12.6737 31.6837 12.8393 32.2748 13.3535 32.7363C13.8059 33.1423 14.4642 33.3889 15.3916 33.4824L16.2061 35.9834V39.1299C7.25274 37.3645 0.5 29.471 0.5 20C0.500001 18.5097 0.667036 17.0589 0.983398 15.665ZM38.8828 15.042C39.2858 16.624 39.5 18.285 39.5 20C39.5 26.4376 36.3798 32.1453 31.5684 35.6973C31.2758 35.3893 31.1446 35.107 31.1309 34.8369C31.1153 34.5309 31.2433 34.1256 31.6855 33.5908L31.8945 33.3535L32.0098 33.2305L32.0264 33.0625C32.1143 32.2004 32.185 31.431 32.2031 30.7754C32.2211 30.1268 32.1898 29.5454 32.0518 29.0762C31.9092 28.5915 31.6355 28.1766 31.1465 27.9668C30.6952 27.7732 30.153 27.796 29.5566 27.9404C28.1938 28.1452 27.3494 28.0117 26.6836 27.5518C26.0039 27.082 25.4244 26.217 24.7451 24.7305C24.8297 23.8609 24.8946 23.1101 25.0127 22.4561C25.1366 21.7699 25.311 21.2522 25.585 20.8701C26.091 20.1644 27.0966 19.7253 29.5898 20.0146L29.7734 20.0361L29.9268 19.9326C31.0424 19.1796 31.9643 18.9544 32.9873 18.7705C33.8919 18.6079 34.9013 18.4758 36.1279 18.0234L36.667 17.8096L36.915 17.7031L36.9629 17.4375C37.1295 16.5031 37.3754 15.9691 37.71 15.6309C37.9746 15.3633 38.3373 15.1753 38.8828 15.042ZM37.3418 10.9814C37.556 11.3952 37.7556 11.8174 37.9395 12.248C37.7439 12.267 37.547 12.3081 37.3506 12.3809C36.8684 12.5595 36.4462 12.905 36.0625 13.4453C35.6001 14.0964 35.2371 14.5346 34.9531 14.8164C34.7032 15.0644 34.5447 15.158 34.4648 15.1914C34.4382 15.1471 34.3996 15.07 34.3594 14.9414C34.2979 14.7448 34.2772 14.6217 34.2129 14.3955C34.1869 14.3043 34.1531 14.2005 34.1094 14.1045C34.0701 14.0184 33.9957 13.8778 33.8564 13.7744C33.6799 13.6434 33.4596 13.6151 33.2559 13.6904C33.0922 13.7511 32.9684 13.867 32.8809 13.9648C32.7452 14.1165 32.5984 14.3384 32.4336 14.6318L32.2627 14.9502L32.2334 15.0059L32.2188 15.0674C32.0354 15.8558 31.7794 16.217 31.4473 16.4287C31.1239 16.6347 30.663 16.7449 29.9346 16.8203L29.6064 16.8516L29.501 16.8594L29.4092 16.9102C28.4608 17.4243 27.716 17.5811 27.21 17.5508C26.7043 17.5205 26.4983 17.3173 26.4326 17.1582C26.3627 16.9886 26.3664 16.6655 26.7012 16.2314C27.0318 15.8028 27.653 15.321 28.6553 14.9219L28.8877 14.8301L28.9531 14.5889C29.2232 13.593 29.6876 12.8895 30.2666 12.3828C30.8502 11.8721 31.5746 11.5404 32.3906 11.3281C33.9477 10.923 35.7319 10.9738 37.3418 10.9814ZM20 0.5C23.8092 0.5 27.362 1.59189 30.3643 3.47949C30.1817 3.6708 30.0754 3.89194 30.0234 4.12891C29.9713 4.36694 29.9751 4.61487 29.9951 4.85059C30.0119 5.04851 30.043 5.26626 30.0752 5.48828C29.7108 6.5112 29.3458 7.12334 28.7744 7.51367C28.2464 7.8742 27.4778 8.09113 26.2129 8.15625L25.6396 8.1748L25.3721 8.17871L25.2266 8.4043C24.8149 9.04386 24.4806 9.54168 24.1777 9.85352C23.862 10.1785 23.7408 10.1422 23.7021 10.1279C23.6497 10.1085 23.5473 10.0473 23.4023 9.86621C23.259 9.68715 23.0955 9.41915 22.9131 9.03418C22.5481 8.26363 22.1378 7.09374 21.6572 5.40527L21.5791 5.12988L21.3018 5.05859L21.0488 4.97754C19.8112 4.51275 19.0395 3.11301 18.6035 1.32715L18.4854 0.841797L18 0.959961C17.1879 1.15708 16.6932 1.2352 16.334 1.16406C16.1801 1.13357 16.0349 1.07049 15.8896 0.935547C17.2145 0.651304 18.5893 0.5 20 0.5ZM36.5781 9.64062C36.6481 9.75229 36.7175 9.86436 36.7852 9.97754C36.5606 9.97585 36.3302 9.97528 36.0957 9.97559C36.2566 9.87404 36.4184 9.76004 36.5781 9.64062ZM32.9629 5.43457C34.1007 6.44151 35.1478 7.57391 36.0215 8.80762C35.8196 8.95996 35.6382 9.09222 35.4609 9.19531C35.1833 9.35676 34.9799 9.41394 34.8105 9.40234C34.6537 9.39159 34.4433 9.31581 34.1621 9.03027C33.8743 8.73789 33.5403 8.25249 33.1523 7.48535L33.1074 7.39551L33.0312 7.33105L32.7939 7.11719C32.3087 6.65502 32.2858 6.43941 32.3076 6.32129C32.3256 6.22409 32.3896 6.08456 32.5615 5.87109C32.6676 5.73947 32.8018 5.59768 32.9629 5.43457Z" stroke="black"/>
<path d="M5.4502 7.01562C5.89769 7.43723 6.42988 7.66287 6.94238 7.7959C7.278 7.88301 7.61368 7.93338 7.91699 7.97266C8.2322 8.01347 8.49274 8.0406 8.73145 8.08301C9.2493 8.17504 9.31718 8.28688 9.33789 8.3623C9.35815 8.43632 9.36871 8.59557 9.28027 8.89941C9.21491 9.12397 9.10221 9.40375 8.92969 9.75195L8.7373 10.123L8.54199 10.4824L8.85547 10.7451C9.52454 11.3057 10.1219 11.6964 10.6504 11.9355C11.1752 12.173 11.6651 12.2757 12.1016 12.2119C12.5572 12.1453 12.9115 11.9021 13.1387 11.5449C13.2541 11.3633 13.3311 11.1593 13.3789 10.9453C13.9149 11.0428 14.45 11.1546 14.9531 11.3037C15.6221 11.502 16.1988 11.7571 16.626 12.1045C17.0411 12.4421 17.3208 12.8704 17.4102 13.4531C17.4837 13.9325 17.4296 14.5455 17.1748 15.334C16.6442 14.9414 16.1935 14.6509 15.8252 14.4639C15.5835 14.3412 15.3491 14.2485 15.1338 14.2119C14.9292 14.1771 14.6325 14.1766 14.3984 14.3896C14.1647 14.6027 14.1382 14.897 14.1533 15.0996C14.1693 15.3132 14.2386 15.5475 14.333 15.7861C14.4773 16.1508 14.7092 16.5938 15.0195 17.1045C13.4361 17.7927 10.8039 19.5029 10.5762 22.8965C9.73172 22.9727 9.08299 23.2517 8.65918 23.6982C8.14795 24.237 8.03379 24.9452 8.22754 25.584C8.60337 26.823 10.0657 27.7344 11.9531 27.2764L12.1377 27.2275L12.2275 27.2021L12.3018 27.1455C12.8537 26.7277 13.3181 26.3794 13.7549 26.1191C14.1882 25.8609 14.563 25.7096 14.9268 25.665C15.62 25.5803 16.4587 25.8661 17.7744 27.1104L18.0576 27.3789L18.3867 27.168C18.702 26.9662 19.131 26.9236 19.623 27.0684C20.1147 27.2131 20.6277 27.5363 21.0439 27.9893C21.8194 28.8333 22.2058 30.0519 21.5908 31.2998L21.4541 31.5498L21.3848 31.6641L21.3828 31.7979C21.372 32.3888 21.3702 32.8651 21.2441 33.3447C21.1384 33.7472 20.9389 34.1662 20.5342 34.6299L20.3486 34.8311L20.2275 34.9551L20.209 35.126C20.0666 36.4253 19.8025 38.4242 19.5957 39.4961C18.7859 39.4796 17.9884 39.413 17.2061 39.3008V35.8242L17.1816 35.749L16.2402 32.8574L16.1348 32.5322L15.793 32.5127C14.7872 32.4555 14.2869 32.2304 14.0215 31.9922C13.7639 31.7611 13.6492 31.4489 13.582 31.0088C13.5476 30.783 13.5299 30.559 13.502 30.2959C13.4752 30.0445 13.4405 29.7689 13.3701 29.498C13.2237 28.9344 12.9212 28.3825 12.2471 27.999L12.0977 27.9141L11.9268 27.9395C11.0706 28.0655 10.2663 28.0598 9.52441 27.8428C8.85762 27.6476 8.21916 27.2728 7.62402 26.6289C7.62613 26.6172 7.62923 26.6056 7.63086 26.5938C7.65033 26.4511 7.63705 26.2723 7.52637 26.1084C7.42155 25.9532 7.27497 25.879 7.17285 25.8418C7.07136 25.8049 6.96631 25.7881 6.88574 25.7773C6.52446 25.7293 6.22725 25.7386 5.89844 25.5762C5.61735 25.4372 5.27881 25.1403 5.05762 24.3721C4.85864 23.6809 4.7614 22.626 4.89551 21.0205L4.96777 20.2979L3.99805 20.0771C3.7801 20.7061 3.54833 21.0027 3.40332 21.1025C3.36683 21.1276 3.34582 21.1335 3.33789 21.1348C3.33054 21.1324 3.30343 21.1204 3.25879 21.0723C3.12311 20.9258 2.95002 20.5717 2.85059 19.9268C2.7539 19.2994 2.73537 18.4563 2.84961 17.4033L2.89258 17.0146L2.52539 16.8799C2.52097 16.8779 2.47408 16.8552 2.40039 16.7471C2.32026 16.6294 2.22667 16.4374 2.13281 16.1396C1.94939 15.5578 1.78831 14.6491 1.68359 13.2949C2.53823 10.961 3.82553 8.83485 5.4502 7.01562ZM14.8213 1.19727C15.1595 1.71349 15.5783 2.03327 16.1396 2.14453C16.6228 2.24026 17.1679 2.16759 17.7598 2.04004C18.247 3.73508 19.1386 5.37111 20.7705 5.93945C21.2249 7.509 21.6296 8.65929 22.0098 9.46191C22.2103 9.88527 22.4122 10.2291 22.6221 10.4912C22.8301 10.7511 23.0694 10.9599 23.3535 11.0654C23.9886 11.3011 24.5221 10.9333 24.8945 10.5498C25.2338 10.2005 25.5741 9.70256 25.9229 9.16602C27.4441 9.1208 28.5309 8.89084 29.3389 8.33887C30.0971 7.82087 30.5445 7.0669 30.9092 6.12207L31.0605 5.70605L31.1006 5.59082L31.083 5.4707C31.0424 5.18764 31.008 4.96348 30.9912 4.76562C30.9745 4.56854 30.9794 4.43684 31 4.34277C31.018 4.26081 31.0477 4.20846 31.0957 4.16113C31.1253 4.13199 31.169 4.09766 31.2344 4.06152C31.5627 4.29337 31.8843 4.53395 32.1973 4.78516C32.0428 4.94343 31.9023 5.09537 31.7832 5.24316C31.57 5.50782 31.3865 5.80285 31.3242 6.13965C31.1938 6.84592 31.6331 7.43292 32.3037 8.02148C32.6965 8.78581 33.0712 9.34741 33.4492 9.73145C33.5786 9.86283 33.7119 9.97436 33.8477 10.0684C33.267 10.1256 32.6902 10.2169 32.1387 10.3604C31.2196 10.5995 30.3409 10.9898 29.6084 11.6309C28.9221 12.2315 28.3881 13.0347 28.0605 14.0889C27.0638 14.5185 26.3476 15.0527 25.9092 15.6211C25.4428 16.2259 25.2554 16.9266 25.5088 17.54C25.7666 18.1641 26.3987 18.5038 27.1504 18.5488C27.8787 18.5924 28.7758 18.3708 29.7881 17.8379C30.6581 17.7622 31.405 17.6407 31.9844 17.2715C32.6063 16.8751 32.9576 16.25 33.1738 15.3652C33.2394 15.2406 33.2988 15.1341 33.3516 15.043C33.3703 15.1126 33.3872 15.1814 33.4053 15.2393C33.4674 15.4381 33.567 15.7059 33.7539 15.9082C33.8546 16.0171 33.9896 16.1172 34.1631 16.1699C34.3377 16.223 34.5166 16.2173 34.6875 16.1719C35.0077 16.0867 35.3267 15.8534 35.6572 15.5254C35.9982 15.187 36.3993 14.6984 36.8779 14.0244C37.1759 13.6049 37.448 13.4108 37.6973 13.3184C37.8829 13.2496 38.0873 13.2262 38.3301 13.2383C38.4306 13.516 38.5252 13.7965 38.6133 14.0801C37.9699 14.2413 37.4281 14.4939 36.999 14.9277C36.5062 15.4259 36.2177 16.1054 36.0332 16.9844C34.7992 17.4765 33.819 17.6059 32.8105 17.7871C31.7706 17.974 30.7357 18.2181 29.5215 19.002C27.0659 18.7434 25.5973 19.1371 24.7725 20.2871C24.371 20.8471 24.1632 21.5367 24.0293 22.2783C23.9625 22.6481 23.9113 23.0468 23.8662 23.4648L23.7373 24.7705L23.7246 24.9033L23.7793 25.0244C24.4885 26.5981 25.1738 27.7245 26.1152 28.375C27.086 29.0456 28.2381 29.1527 29.7217 28.9277L29.7451 28.9248L29.7676 28.9189C30.2953 28.788 30.5898 28.8163 30.752 28.8857C30.8839 28.9423 31.0048 29.0594 31.0928 29.3584C31.1853 29.6728 31.2213 30.1266 31.2041 30.748C31.1881 31.3244 31.1269 32.0077 31.0469 32.8027C30.4284 33.5008 30.0974 34.1906 30.1328 34.8877C30.1598 35.4188 30.3963 35.8752 30.7432 36.2734C27.8214 38.2063 24.3505 39.374 20.6123 39.4893C20.814 38.3794 21.0473 36.6131 21.1836 35.3994C21.7488 34.7859 22.0539 34.1962 22.2109 33.5986C22.3613 33.0264 22.3703 32.4638 22.3789 31.9443C23.3652 30.1857 22.8116 28.4349 21.7803 27.3125C21.2555 26.7415 20.591 26.3111 19.9062 26.1094C19.3464 25.9446 18.7435 25.9254 18.2002 26.1436C16.9329 25.0081 15.8766 24.541 14.8057 24.6719C14.2512 24.7397 13.7397 24.9639 13.2432 25.2598C12.7751 25.5387 12.2921 25.8998 11.7812 26.2861C10.2767 26.6821 9.38146 25.9426 9.18457 25.2939C9.08422 24.9631 9.14601 24.6383 9.38477 24.3867C9.63345 24.1247 10.1414 23.8731 11.0586 23.873H11.5586V23.373C11.5588 19.8621 14.5572 18.2895 15.9258 17.8223L16.5342 17.6152L16.1836 17.0762C15.7198 16.3637 15.4173 15.8095 15.2627 15.4189C15.243 15.3691 15.2296 15.3223 15.2158 15.2812C15.2625 15.3016 15.3149 15.326 15.373 15.3555C15.774 15.5591 16.3467 15.9417 17.1025 16.5371L17.6221 16.9473L17.874 16.335C18.3649 15.141 18.5272 14.1416 18.3984 13.3018C18.2672 12.4463 17.8416 11.8047 17.2568 11.3291C16.6841 10.8633 15.9654 10.5606 15.2373 10.3447C14.6895 10.1824 14.1156 10.0631 13.5654 9.96289L13.0254 9.86816L12.4414 9.76855V10.3613C12.4414 10.6618 12.3789 10.8754 12.2949 11.0078C12.2206 11.1248 12.1189 11.198 11.957 11.2217C11.776 11.2482 11.4861 11.2161 11.0625 11.0244C10.7142 10.8668 10.2973 10.6108 9.80859 10.2295C10.0079 9.83078 10.1516 9.4833 10.2402 9.17871C10.354 8.78802 10.3916 8.42364 10.3027 8.09863C10.1049 7.37587 9.40483 7.18627 8.90625 7.09766C8.63677 7.04979 8.32649 7.01679 8.0459 6.98047C7.75314 6.94257 7.46691 6.89912 7.19336 6.82812C6.78567 6.72228 6.42605 6.5611 6.13672 6.28906C8.50322 3.89643 11.4832 2.11453 14.8213 1.19727ZM0.983398 15.665C1.04357 15.9582 1.10894 16.216 1.17969 16.4404C1.29078 16.7927 1.42004 17.0843 1.57422 17.3105C1.64755 17.4181 1.73184 17.5163 1.82617 17.6006C1.73879 18.5823 1.7596 19.4127 1.8623 20.0791C1.97273 20.7954 2.18738 21.3883 2.52539 21.7529C2.70169 21.943 2.93162 22.091 3.20996 22.127C3.43781 22.1563 3.6518 22.1032 3.84082 22.0029C3.8112 23.1321 3.90758 23.9915 4.09668 24.6484C4.38284 25.6423 4.88322 26.1899 5.45508 26.4727C5.83168 26.6588 6.23242 26.7146 6.50391 26.7422L6.4668 26.8193L6.67578 27.0684C7.44211 27.9838 8.31038 28.5288 9.24316 28.8018C10.1069 29.0545 11.0006 29.0648 11.8838 28.9521C12.1771 29.16 12.3179 29.4241 12.4023 29.749C12.4532 29.9449 12.4821 30.1597 12.5078 30.4014C12.5322 30.6312 12.5547 30.9043 12.5938 31.1602C12.6737 31.6837 12.8393 32.2748 13.3535 32.7363C13.8059 33.1423 14.4642 33.3889 15.3916 33.4824L16.2061 35.9834V39.1299C7.25274 37.3645 0.5 29.471 0.5 20C0.500001 18.5097 0.667036 17.0589 0.983398 15.665ZM38.8828 15.042C39.2858 16.624 39.5 18.285 39.5 20C39.5 26.4376 36.3798 32.1453 31.5684 35.6973C31.2758 35.3893 31.1446 35.107 31.1309 34.8369C31.1153 34.5309 31.2433 34.1256 31.6855 33.5908L31.8945 33.3535L32.0098 33.2305L32.0264 33.0625C32.1143 32.2004 32.185 31.431 32.2031 30.7754C32.2211 30.1268 32.1898 29.5454 32.0518 29.0762C31.9092 28.5915 31.6355 28.1766 31.1465 27.9668C30.6952 27.7732 30.153 27.796 29.5566 27.9404C28.1938 28.1452 27.3494 28.0117 26.6836 27.5518C26.0039 27.082 25.4244 26.217 24.7451 24.7305C24.8297 23.8609 24.8946 23.1101 25.0127 22.4561C25.1366 21.7699 25.311 21.2522 25.585 20.8701C26.091 20.1644 27.0966 19.7253 29.5898 20.0146L29.7734 20.0361L29.9268 19.9326C31.0424 19.1796 31.9643 18.9544 32.9873 18.7705C33.8919 18.6079 34.9013 18.4758 36.1279 18.0234L36.667 17.8096L36.915 17.7031L36.9629 17.4375C37.1295 16.5031 37.3754 15.9691 37.71 15.6309C37.9746 15.3633 38.3373 15.1753 38.8828 15.042ZM37.3418 10.9814C37.556 11.3952 37.7556 11.8174 37.9395 12.248C37.7439 12.267 37.547 12.3081 37.3506 12.3809C36.8684 12.5595 36.4462 12.905 36.0625 13.4453C35.6001 14.0964 35.2371 14.5346 34.9531 14.8164C34.7032 15.0644 34.5447 15.158 34.4648 15.1914C34.4382 15.1471 34.3996 15.07 34.3594 14.9414C34.2979 14.7448 34.2772 14.6217 34.2129 14.3955C34.1869 14.3043 34.1531 14.2005 34.1094 14.1045C34.0701 14.0184 33.9957 13.8778 33.8564 13.7744C33.6799 13.6434 33.4596 13.6151 33.2559 13.6904C33.0922 13.7511 32.9684 13.867 32.8809 13.9648C32.7452 14.1165 32.5984 14.3384 32.4336 14.6318L32.2627 14.9502L32.2334 15.0059L32.2188 15.0674C32.0354 15.8558 31.7794 16.217 31.4473 16.4287C31.1239 16.6347 30.663 16.7449 29.9346 16.8203L29.6064 16.8516L29.501 16.8594L29.4092 16.9102C28.4608 17.4243 27.716 17.5811 27.21 17.5508C26.7043 17.5205 26.4983 17.3173 26.4326 17.1582C26.3627 16.9886 26.3664 16.6655 26.7012 16.2314C27.0318 15.8028 27.653 15.321 28.6553 14.9219L28.8877 14.8301L28.9531 14.5889C29.2232 13.593 29.6876 12.8895 30.2666 12.3828C30.8502 11.8721 31.5746 11.5404 32.3906 11.3281C33.9477 10.923 35.7319 10.9738 37.3418 10.9814ZM20 0.5C23.8092 0.5 27.362 1.59189 30.3643 3.47949C30.1817 3.6708 30.0754 3.89194 30.0234 4.12891C29.9713 4.36694 29.9751 4.61487 29.9951 4.85059C30.0119 5.04851 30.043 5.26626 30.0752 5.48828C29.7108 6.5112 29.3458 7.12334 28.7744 7.51367C28.2464 7.8742 27.4778 8.09113 26.2129 8.15625L25.6396 8.1748L25.3721 8.17871L25.2266 8.4043C24.8149 9.04386 24.4806 9.54168 24.1777 9.85352C23.862 10.1785 23.7408 10.1422 23.7021 10.1279C23.6497 10.1085 23.5473 10.0473 23.4023 9.86621C23.259 9.68715 23.0955 9.41915 22.9131 9.03418C22.5481 8.26363 22.1378 7.09374 21.6572 5.40527L21.5791 5.12988L21.3018 5.05859L21.0488 4.97754C19.8112 4.51275 19.0395 3.11301 18.6035 1.32715L18.4854 0.841797L18 0.959961C17.1879 1.15708 16.6932 1.2352 16.334 1.16406C16.1801 1.13357 16.0349 1.07049 15.8896 0.935547C17.2145 0.651304 18.5893 0.5 20 0.5ZM36.5781 9.64062C36.6481 9.75229 36.7175 9.86436 36.7852 9.97754C36.5606 9.97585 36.3302 9.97528 36.0957 9.97559C36.2566 9.87404 36.4184 9.76004 36.5781 9.64062ZM32.9629 5.43457C34.1007 6.44151 35.1478 7.57391 36.0215 8.80762C35.8196 8.95996 35.6382 9.09222 35.4609 9.19531C35.1833 9.35676 34.9799 9.41394 34.8105 9.40234C34.6537 9.39159 34.4433 9.31581 34.1621 9.03027C33.8743 8.73789 33.5403 8.25249 33.1523 7.48535L33.1074 7.39551L33.0312 7.33105L32.7939 7.11719C32.3087 6.65502 32.2858 6.43941 32.3076 6.32129C32.3256 6.22409 32.3896 6.08456 32.5615 5.87109C32.6676 5.73947 32.8018 5.59768 32.9629 5.43457Z" stroke="white"/>
</svg>
