<svg width="15" height="18" viewBox="0 0 15 18" fill="none" xmlns="http://www.w3.org/2000/svg">
<path d="M5.5 16H9C8.38652 17.8458 6.11348 17.7853 5.5 16Z" stroke="black" stroke-linejoin="round"/>
<path d="M14.5 14.0387H0.5C2.42497 11.9154 3.01685 10.7864 2.60786 7.48866C3.1427 3.51945 4.36138 2.26613 7.64157 2.17694C11.2055 2.42854 12.0911 3.88547 12.5809 7.48866C12.3932 11.3041 13.0632 12.3205 14.5 14.0387Z" fill="#FFD600"/>
<path d="M7.64157 2.17694C11.2055 2.42854 12.0911 3.88547 12.5809 7.48866C12.3932 11.3041 13.0632 12.3205 14.5 14.0387C9.03266 14.0387 5.96734 14.0387 0.5 14.0387C2.42497 11.9154 3.01685 10.7864 2.60786 7.48866C3.1427 3.51945 4.36138 2.26613 7.64157 2.17694ZM7.64157 2.17694V0.5" stroke="black" stroke-linecap="round" stroke-linejoin="round"/>
</svg>
