<svg width="41" height="41" viewBox="0 0 41 41" fill="none" xmlns="http://www.w3.org/2000/svg">
<path fill-rule="evenodd" clip-rule="evenodd" d="M5.66853 33.9177C6.56113 29.2196 7.21158 26.3866 12.8595 22.6978C19.3652 27.2884 22.6127 26.9281 27.9157 22.6978C33.0917 25.9285 34.3707 28.7262 35.3315 33.9177C38.5435 30.3694 40.5 25.6631 40.5 20.5C40.5 9.45429 31.5457 0.5 20.5 0.5C9.45429 0.5 0.5 9.45429 0.5 20.5C0.5 25.6631 2.45648 30.3694 5.66853 33.9177ZM20.2753 22.6978C24.8673 22.6978 28.5899 19.0571 28.5899 14.566C28.5899 10.0748 24.8673 6.43409 20.2753 6.43409C15.6832 6.43409 11.9607 10.0748 11.9607 14.566C11.9607 19.0571 15.6832 22.6978 20.2753 22.6978Z" fill="#FFD600"/>
<path d="M28.5899 14.566C28.5899 19.0571 24.8673 22.6978 20.2753 22.6978C15.6832 22.6978 11.9607 19.0571 11.9607 14.566C11.9607 10.0748 15.6832 6.43409 20.2753 6.43409C24.8673 6.43409 28.5899 10.0748 28.5899 14.566Z" fill="white"/>
<path d="M12.8595 22.6978C7.21158 26.3866 6.56113 29.2196 5.66853 33.9177C9.3281 37.9604 14.6175 40.5 20.5 40.5C26.3825 40.5 31.6719 37.9603 35.3315 33.9177C34.3707 28.7262 33.0917 25.9285 27.9157 22.6978C22.6127 26.9281 19.3652 27.2884 12.8595 22.6978Z" fill="white"/>
<path d="M5.66853 33.9177C6.56113 29.2196 7.21158 26.3866 12.8595 22.6978C19.3652 27.2884 22.6127 26.9281 27.9157 22.6978C33.0917 25.9285 34.3707 28.7262 35.3315 33.9177M35.3315 33.9177C38.5435 30.3694 40.5 25.6631 40.5 20.5C40.5 9.45429 31.5457 0.5 20.5 0.5C9.45429 0.5 0.5 9.45429 0.5 20.5C0.5 25.6631 2.45648 30.3694 5.66853 33.9177C9.3281 37.9604 14.6175 40.5 20.5 40.5C26.3825 40.5 31.6719 37.9603 35.3315 33.9177ZM28.5899 14.566C28.5899 19.0571 24.8673 22.6978 20.2753 22.6978C15.6832 22.6978 11.9607 19.0571 11.9607 14.566C11.9607 10.0748 15.6832 6.43409 20.2753 6.43409C24.8673 6.43409 28.5899 10.0748 28.5899 14.566Z" stroke="white"/>
</svg>
