<svg width="50" height="50" viewBox="0 0 50 50" fill="none" xmlns="http://www.w3.org/2000/svg">
<path fill-rule="evenodd" clip-rule="evenodd" d="M6.46066 41.7721C7.57641 35.8995 8.38947 32.3582 15.4494 27.7473C23.5814 33.4856 27.6409 33.0351 34.2697 27.7473C40.7396 31.7857 42.3384 35.2827 43.5393 41.7721C47.5544 37.3367 50 31.4539 50 25C50 11.1929 38.8071 0 25 0C11.1929 0 0 11.1929 0 25C0 31.4539 2.44561 37.3367 6.46066 41.7721ZM24.7191 27.7473C30.4591 27.7473 35.1124 23.1963 35.1124 17.5824C35.1124 11.9686 30.4591 7.41761 24.7191 7.41761C18.979 7.41761 14.3258 11.9686 14.3258 17.5824C14.3258 23.1963 18.979 27.7473 24.7191 27.7473Z" fill="#C7C7CC"/>
<path d="M35.1124 17.5824C35.1124 23.1963 30.4591 27.7473 24.7191 27.7473C18.979 27.7473 14.3258 23.1963 14.3258 17.5824C14.3258 11.9686 18.979 7.41761 24.7191 7.41761C30.4591 7.41761 35.1124 11.9686 35.1124 17.5824Z" fill="white"/>
<path d="M15.4494 27.7473C8.38947 32.3582 7.57641 35.8995 6.46066 41.7721C11.0351 46.8254 17.6468 50 25 50C32.3532 50 38.9649 46.8254 43.5393 41.7721C42.3384 35.2827 40.7396 31.7857 34.2697 27.7473C27.6409 33.0351 23.5814 33.4856 15.4494 27.7473Z" fill="white"/>
</svg>
