<svg width="30" height="41" viewBox="0 0 30 41" fill="none" xmlns="http://www.w3.org/2000/svg">
<path d="M1 3.19998C1 17.5713 1 40 1 40H29V3.19998H21.6038V3.73331C21.6038 5.20606 20.5157 4.81478 19.1736 4.81478H11.883C10.5409 4.81478 8.66038 5.20606 8.66038 3.73331V3.19998H1Z" fill="#FFD600"/>
<path d="M8.66038 3.19998C5.69575 3.19998 1 3.19998 1 3.19998C1 17.5713 1 40 1 40H29V3.19998H21.6038M8.66038 3.73331V3.19998H1M21.6038 3.73331V3.19998C27.3669 3.19998 21.6742 3.19998 29 3.19998M8.66038 3.73331L8.66038 2.66664C8.66038 1.19388 10.5409 1.38885 11.883 1.38885H19.1736C20.5157 1.38885 21.6038 1.19388 21.6038 2.66664V3.73331M8.66038 3.73331C8.66038 5.20606 10.5409 4.81478 11.883 4.81478H19.1736C20.5157 4.81478 21.6038 5.20606 21.6038 3.73331" stroke="white" stroke-width="2"/>
<path d="M12.2322 11.4666H26.1014M12.2322 20.8H26.1014M12.2322 29.6H26.1014M4.23077 27.7333C4.23077 27.7333 4.23077 30.4889 4.23077 32H8.76491V27.7333H4.23077ZM4.23077 18.4V22.9333H8.76491V18.4H4.23077ZM4.23077 9.59998V13.8666H8.76491V9.59998H4.23077Z" stroke="white" stroke-width="2"/>
</svg>
