<svg width="661" height="527" viewBox="0 0 661 527" fill="none" xmlns="http://www.w3.org/2000/svg">
<g id="map_6">
<path id="Vector" d="M45.6 136C16.6 136 0 112.4 0 71.3C0 27.9 18.2 2 48.8 2C71.1 2 85 15.5001 86.8 39.1001V39.6001H69.2V39.2002C67.7 24.1002 60.5 16.1001 48.2 16.1001C29.2 16.1001 17.9 35.5 17.1 69.5C21.6 59.8 33.6 49.8 50.1 49.8C69.5 49.8 89 64.2002 89 91.7002C89 117.8 71.1 136 45.6 136ZM48.7 3C18.8 3 0.900002 28.5 0.900002 71.3C0.900002 111.8 17.2 135 45.5 135C70.5 135 87.9 117.2 87.9 91.7002C87.9 64.8002 68.8 50.8 49.9 50.8C33.4 50.8 21.5 61.2001 17.4 70.9001L17.3 71.2002H15.9V70.7002C16.5 35.5002 28.2 15.3 48 15.3C60.7 15.3 68.3 23.4 69.9 38.8H85.6C83.8 16 70.3 3 48.7 3ZM46.5 122.8C30.4 122.8 19.2 110.1 19.2 92C19.2 73.9 30.3 62.7002 46.1 62.7002C62 62.7002 72.7 74.7001 72.7 92.6001C72.7 110.5 62.1 122.8 46.5 122.8ZM46.1 63.7002C30.8 63.7002 20.1 75.4001 20.1 92.1001C20.1 109.7 30.9 121.9 46.4 121.9C61.9 121.9 71.6 110.1 71.6 92.6001C71.6 75.1001 61.6 63.7002 46.1 63.7002Z" fill="#20221D"/>
<path id="Vector_2" d="M147.8 0L89.1001 150.4L90.0001 150.8L148.7 0.400146L147.8 0Z" fill="#20221D"/>
<path id="Vector_3" d="M173.4 180.6C173.3 180.6 173.2 180.5 173.2 180.4V171.6L151.2 162.3C151.1 162.2 151 162.1 151.1 162C151.2 161.9 151.3 161.8 151.4 161.9L173.5 171.2C173.6 171.2 173.6 171.3 173.6 171.4V180.3C173.6 180.5 173.5 180.6 173.4 180.6Z" fill="white"/>
<path id="Vector_4" d="M510 526.5L509.8 526.4C481.5 511.5 454 496.8 427 482.6C409.9 473.5 393 464.6 376.3 455.7L373.5 459.5C371.4 462.3 369.3 465.2 367.2 468L367.1 468.2L366.9 468.1C361.3 465.1 355.7 462.1 350.2 459.1C342.6 455 335 451 327.5 446.9C326.4 448.3 325.3 449.7 324.2 451.2C322.6 453.2 321.1 455.2 319.5 457.2L319.4 457.4L319.2 457.3C318.1 456.7 316.9 456.1 315.8 455.5C314.7 454.9 313.5 454.3 312.4 453.6C311.5 454.7 310.7 455.8 309.8 456.8C309 457.8 308.3 458.7 307.5 459.7L307.4 459.8L307.2 459.7C302.7 457.2 298.2 454.7 293.7 452.3L293.5 452.2L293.7 452C295.5 449.8 297.1 447.9 298.5 446C295.5 444.3 292.4 442.7 289.4 441L285.9 439.1C284.3 441 282.6 443.1 281 445.1L280.9 445.2L280.7 445.1C277.7 443.5 274.8 441.9 271.9 440.3L267.3 437.7L267.5 437.5L302.9 396.9H303L380.2 308.2L380.4 308.3L391.3 313.4L425.5 329.4C444.2 338.1 463.2 347 482.4 356C502.3 328.4 521.8 301.4 539 277.5C537.2 276.7 535.4 276 533.7 275.2C532.4 274.6 531.1 274.1 529.7 273.5L529.4 273.4L529.7 273C530.1 272.4 530.5 271.8 531 271.2L533 268.4C538.4 261 543.8 253.7 549.1 246.6L549.2 246.4L549.4 246.5C554.4 248.6 559.6 250.7 564.7 252.8L570.3 255.1C571.7 253.2 573 251.3 574.4 249.3L576.9 245.7L660.3 278.5L660.2 278.7C658.3 281.8 656.4 284.9 654.5 288L653.5 289.6C653 290.4 652.6 291.2 652.1 291.9C647 300.2 642.7 307.3 638.6 314L637.3 316.1C636.9 316.8 636.4 317.5 636 318.2C632.6 323.7 629.1 329.4 625.8 334.9C623.9 338 622 341.2 620 344.3C621.4 344.9 622.8 345.5 624.1 346.1C626.1 347 628.1 347.9 630.2 348.8L630.4 348.9L630.3 349.1C627.9 353.1 625.4 357.2 623 361.3L620.2 365.9L620 365.8C616.5 364.3 613 362.7 609.6 361.2L609.5 361.4C608.3 363.4 607 365.4 605.8 367.5C609.1 369 612.4 370.5 615.8 371.9L616 372L615.9 372.2C614.3 374.9 612.7 377.5 611.1 380.2C609.3 383.2 607.5 386.2 605.7 389.3L605.6 389.5L605.4 389.4C604 388.8 602.5 388.1 601.1 387.4C599.1 386.5 597.2 385.6 595.3 384.7C593.1 388.3 590.9 391.9 588.7 395.5C587 398.3 585.3 401.1 583.6 403.9C583.6 403.9 583.6 403.9 583.7 403.9C583.8 403.9 583.9 404 583.9 404L584.1 404.1L584 404.3C571.6 424.6 559.2 444.9 548.7 462.2L537.6 480.4C528.6 495.2 519.4 510.3 510.1 525.7L510 526.5ZM376.2 455.1L376.4 455.2C393.1 464.1 410.1 473 427.3 482.1C454.2 496.3 481.7 510.9 509.9 525.8C519.2 510.5 528.4 495.4 537.3 480.7L548.4 462.5C558.9 445.3 571.2 425.1 583.5 404.9C583.4 404.9 583.3 404.8 583.2 404.8L583 404.7L583.1 404.5C584.9 401.6 586.6 398.7 588.3 395.9C590.5 392.2 592.8 388.5 595 384.9L595.1 384.7L595.3 384.8C597.3 385.7 599.3 386.6 601.3 387.6C602.7 388.2 604.1 388.9 605.4 389.5C607.2 386.5 609 383.6 610.7 380.6C612.2 378 613.8 375.4 615.3 372.8C612 371.3 608.6 369.8 605.3 368.3L605.1 368.2L605.2 368C606.5 365.9 607.7 363.8 609 361.7L609.3 361.1L609.5 361.2C612.9 362.7 616.4 364.3 619.9 365.8L622.4 361.6C624.8 357.6 627.2 353.6 629.6 349.7C627.6 348.9 625.7 348 623.8 347.2C622.3 346.6 620.9 345.9 619.4 345.3L619.2 345.2L619.3 345C621.3 341.8 623.2 338.5 625.2 335.3C628.6 329.8 632 324.1 635.4 318.6C635.8 317.9 636.2 317.2 636.7 316.5L638 314.4C642.1 307.6 646.4 300.6 651.5 292.3C651.9 291.6 652.4 290.8 652.9 290L653.9 288.4C655.8 285.4 657.6 282.3 659.4 279.3L576.9 246.8L574.6 250C573.2 252 571.8 253.9 570.4 255.9L570.3 256.1L564.4 253.7C559.3 251.6 554.2 249.5 549.2 247.5C543.9 254.6 538.6 261.9 533.2 269.2L531.2 272C530.7 272.6 530.3 273.1 530 273.7C531.2 274.2 532.5 274.7 533.7 275.3C535.5 276.1 537.4 276.9 539.3 277.7L539.6 277.8L539.4 278C522.1 302 502.4 329.1 482.5 356.9L482.4 357.1L482.2 357C462.9 348 443.8 339.1 425.1 330.4L390.4 314.2L380.2 309.4L303 398.1H302.9L267.9 438.2L272 440.5C274.9 442.1 277.7 443.6 280.6 445.2C282.2 443.2 283.9 441.1 285.5 439.2L285.6 439L289.4 441.1C292.5 442.8 295.6 444.5 298.7 446.2L298.9 446.3L298.7 446.5C297.2 448.4 295.6 450.3 293.9 452.5C298.3 454.9 302.6 457.2 307 459.7C307.7 458.8 308.4 457.9 309.2 457C310.1 455.9 311 454.8 311.9 453.6L312 453.5L312.2 453.6C313.4 454.3 314.6 454.9 315.8 455.6C316.9 456.2 317.9 456.8 319 457.4C320.5 455.5 322 453.5 323.6 451.6C324.7 450.1 325.9 448.7 327.1 447.2L327.2 447L327.4 447.1C335 451.2 342.6 455.2 350.3 459.4C355.8 462.3 361.3 465.3 366.8 468.3C368.9 465.5 370.9 462.8 373 460L376.2 455.1Z" fill="#20221D"/>
<path id="Vector_5" fill-rule="evenodd" clip-rule="evenodd" d="M558.2 422L654.2 268.6V282.3L558.2 437.2V422Z" fill="#20221D"/>
<path id="Vector_6" d="M558.2 437.5C558 437.5 558 437.4 558 437.3V422.1V422L654 268.6C654.1 268.5 654.2 268.5 654.3 268.5C654.4 268.5 654.5 268.6 654.5 268.7V282.4V282.5L558.5 437.4C558.4 437.4 558.3 437.5 558.2 437.5ZM558.5 422.1V436.4L654 282.2V269.4L558.5 422.1Z" fill="white"/>
<path id="Vector_7" fill-rule="evenodd" clip-rule="evenodd" d="M508.4 497.9L536.7 454.1V470.8L508.4 515.7V497.9Z" fill="#20221D"/>
<path id="Vector_8" d="M508.4 516C508.2 516 508.2 515.9 508.2 515.8V497.9C508.2 497.9 508.2 497.8 508.3 497.8L536.6 454C536.7 453.9 536.8 453.9 536.9 453.9C537 453.9 537.1 454 537.1 454.1V470.8V470.9L508.8 515.8C508.5 515.9 508.4 516 508.4 516ZM508.6 497.9V514.9L536.4 470.7V454.8L508.6 497.9Z" fill="white"/>
<path id="Vector_9" fill-rule="evenodd" clip-rule="evenodd" d="M386.6 357.6L403.2 337.4V351L386.6 371.4V357.6Z" fill="black"/>
<path id="Vector_10" d="M386.6 371.7C386.4 371.7 386.4 371.6 386.4 371.5V357.7C386.4 357.6 386.4 357.6 386.4 357.5L403 337.3C403.1 337.2 403.2 337.2 403.3 337.2C403.4 337.2 403.5 337.3 403.5 337.4V350.9C403.5 351 403.5 351 403.4 351.1L386.8 371.5C386.8 371.6 386.7 371.7 386.6 371.7ZM386.9 357.7V370.7L403 350.9V338.1L386.9 357.7Z" fill="white"/>
<path id="Vector_11" fill-rule="evenodd" clip-rule="evenodd" d="M486.5 390.4L570.1 276L570 286.9L486.5 406V390.4Z" fill="#20221D"/>
<path id="Vector_12" d="M486.5 406.3C486.3 406.3 486.3 406.2 486.3 406.1V390.5C486.3 390.5 486.3 390.4 486.4 390.4L570 276C570.1 275.9 570.2 275.9 570.3 275.9C570.4 275.9 570.5 276 570.5 276.1L570.4 287V287.1L486.9 406.2C486.6 406.2 486.6 406.3 486.5 406.3ZM486.7 390.5V405.3L569.7 286.9L569.8 276.8L486.7 390.5Z" fill="white"/>
<path id="Vector_13" fill-rule="evenodd" clip-rule="evenodd" d="M486.5 390.1L411.7 355.3V369.1L486.5 406V390.1Z" fill="#20221D"/>
<path id="Vector_14" d="M486.5 406.3L411.6 369.4C411.5 369.4 411.5 369.3 411.5 369.2V355.4C411.5 355.3 411.5 355.2 411.6 355.2C411.7 355.2 411.7 355.1 411.8 355.2L486.6 390C486.7 390 486.7 390.1 486.7 390.2V406.1C486.7 406.2 486.7 406.3 486.6 406.3C486.6 406.2 486.5 406.2 486.5 406.3ZM412 369L486.3 405.7V390.3L412 355.8V369Z" fill="white"/>
<path id="Vector_15" fill-rule="evenodd" clip-rule="evenodd" d="M373.5 374.8L341.9 412.1L508.4 497.9L536.7 454.1L373.5 374.8Z" fill="#20221D"/>
<path id="Vector_16" d="M508.4 498.1H508.3L341.8 412.3C341.7 412.3 341.7 412.2 341.7 412.1C341.7 412 341.7 412 341.8 411.9L373.4 374.6C373.5 374.5 373.6 374.5 373.7 374.5L536.9 453.8C537 453.8 537 453.9 537 453.9C537 454 537 454 537 454.1L508.7 497.9C508.5 498.1 508.4 498.1 508.4 498.1ZM342.3 412L508.3 497.5L536.3 454.1L373.6 375.1L342.3 412Z" fill="white"/>
<path id="Vector_17" fill-rule="evenodd" clip-rule="evenodd" d="M411.7 355.4L486.5 390.2L506.7 362.7L433.9 328.7L411.7 355.4Z" fill="#20221D"/>
<path id="Vector_18" d="M486.5 390.4L411.6 355.6C411.5 355.6 411.5 355.5 411.5 355.4C411.5 355.3 411.5 355.2 411.6 355.2L433.7 328.5C433.8 328.4 433.9 328.4 434 328.4L506.8 362.4C506.9 362.4 506.9 362.5 506.9 362.5C506.9 362.6 506.9 362.6 506.9 362.7L486.7 390.2C486.6 390.3 486.6 390.4 486.5 390.4ZM412.1 355.3L486.4 389.9L506.3 362.8L433.9 329L412.1 355.3Z" fill="white"/>
<path id="Vector_19" fill-rule="evenodd" clip-rule="evenodd" d="M558.2 422L506.7 399.5V414.5L558.2 437.2V422Z" fill="#20221D"/>
<path id="Vector_20" d="M558.2 437.5H558.1L506.6 414.8C506.5 414.8 506.5 414.7 506.5 414.6V399.6C506.5 399.5 506.5 399.5 506.6 399.4C506.7 399.4 506.7 399.3 506.8 399.4L558.3 421.9C558.4 421.9 558.4 422 558.4 422.1V437.3C558.4 437.4 558.4 437.4 558.3 437.5C558.3 437.5 558.3 437.5 558.2 437.5ZM506.9 414.4L558 436.9V422.2L506.9 399.9V414.4Z" fill="white"/>
<path id="Vector_21" fill-rule="evenodd" clip-rule="evenodd" d="M508.4 497.9L341.9 412.1V428.1L508.4 515.7V497.9Z" fill="#20221D"/>
<path id="Vector_22" d="M508.4 516H508.3L341.8 428.4C341.7 428.4 341.7 428.3 341.7 428.2V412.2C341.7 412.1 341.7 412 341.8 412C341.9 412 342 412 342 412L508.5 497.8C508.6 497.8 508.6 497.9 508.6 498V515.9C508.6 516 508.6 516.1 508.5 516.1C508.4 516 508.4 516 508.4 516ZM342.1 428L508.1 515.4V498.1L342.1 412.6V428Z" fill="white"/>
<path id="Vector_23" fill-rule="evenodd" clip-rule="evenodd" d="M609.4 250.3L506.7 399.5L558.2 422L654.2 268.6L609.4 250.3Z" fill="#20221D"/>
<path id="Vector_24" d="M558.2 422.3L506.6 399.8C506.5 399.8 506.5 399.7 506.5 399.7C506.5 399.7 506.5 399.6 506.5 399.5L609.2 250.2C609.3 250.1 609.4 250.1 609.5 250.1L654.3 268.4C654.4 268.4 654.4 268.5 654.4 268.5C654.4 268.6 654.4 268.6 654.4 268.7L558.4 422.1C558.4 422.2 558.3 422.3 558.2 422.3ZM507 399.4L558.1 421.7L653.8 268.7L609.5 250.6L507 399.4Z" fill="white"/>
<path id="Vector_25" fill-rule="evenodd" clip-rule="evenodd" d="M386.6 371.4L350 353.3V340.3L386.6 357.9V371.4Z" fill="black"/>
<path id="Vector_26" d="M386.6 371.7H386.5L349.9 353.7C349.8 353.7 349.8 353.6 349.8 353.5V340.5C349.8 340.4 349.8 340.3 349.9 340.3C350 340.3 350 340.2 350.1 340.3L386.7 357.9C386.8 357.9 386.8 358 386.8 358.1V371.6C386.8 371.7 386.8 371.8 386.7 371.8C386.7 371.6 386.7 371.7 386.6 371.7ZM350.3 353.2L386.4 371V358L350.3 340.7V353.2Z" fill="white"/>
<path id="Vector_27" d="M481.8 381.3C480.9 382.6 479.9 382.9 478.7 382.4C477.5 381.9 477.3 381 478.2 379.7C478.4 379.5 478.6 379.2 478.7 379C479.6 377.8 480.6 377.5 481.7 378C482.9 378.5 483.1 379.3 482.2 380.6C482.1 380.9 482 381.1 481.8 381.3ZM484 372.2C484.8 371.1 485.6 370.8 486.6 371.3C487.6 371.7 487.7 372.4 486.9 373.5C486.8 373.6 486.7 373.8 486.6 373.9C485.8 375.1 484.9 375.4 483.9 374.9C482.9 374.5 482.8 373.7 483.6 372.5C483.8 372.4 483.9 372.3 484 372.2ZM486.7 377.9C488.2 377.4 489.6 376.6 490.4 375.4C490.5 375.2 490.6 375.1 490.7 374.9C491.7 373.5 491.9 372.2 491.6 371C491.3 369.8 490.3 368.8 488.8 368.2C487.3 367.5 485.7 367.4 484.3 367.8C482.9 368.2 481.5 369.1 480.6 370.4C480.5 370.6 480.4 370.7 480.2 370.9C479.4 372 479.1 373.4 479.4 374.7C477.8 375 476.1 375.9 475.1 377.3C474.9 377.6 474.7 377.8 474.5 378.1C473.3 379.7 473 381.2 473.3 382.5C473.6 383.8 474.6 385 476.3 385.7C478 386.5 479.7 386.6 481.3 386.2C482.9 385.7 484.4 384.7 485.5 383.1C485.7 382.8 485.9 382.6 486 382.3C487.1 380.8 487.3 379.2 486.7 377.9ZM478.5 364C476.7 364.1 474.9 364.2 473.1 364.3C472.3 365.4 471.4 366.5 470.5 367.7C471.7 367.6 472.8 367.6 474 367.6C472.5 369.6 470.9 371.7 469.4 373.7C467.8 375.8 466.2 377.9 464.6 380C465.8 380.6 467.1 381.1 468.3 381.7C470.4 378.8 472.6 375.9 474.6 373.1C476.6 370.3 478.7 367.6 480.6 364.9C480 364.6 479.2 364.3 478.5 364ZM460.2 372C459.5 372.9 458.5 373.2 457.5 372.8C456.6 372.4 456.4 371.6 457.2 370.6C457.7 369.9 458.3 369.2 458.8 368.5C459.5 367.6 460.5 367.3 461.5 367.7C462.4 368.1 462.5 368.9 461.8 369.9C461.3 370.6 460.8 371.3 460.2 372ZM464.4 365.2C463.7 364.9 462.7 364.7 461.9 364.8C462.4 364.1 463 363.5 463.5 362.8C464.2 361.9 465.1 361.7 466 362.1C466.9 362.5 466.9 363.2 466.3 364.1C467.5 364.6 468.7 365.2 469.9 365.7C470.9 364.3 471.2 363 470.9 361.9C470.6 360.8 469.7 359.8 468.3 359.2C466.8 358.5 465.2 358.4 463.8 358.8C462.3 359.2 461 360 459.9 361.3C458.9 362.6 457.8 363.9 456.8 365.1C455.8 366.4 454.7 367.7 453.6 369C452.5 370.4 452.1 371.8 452.3 373C452.5 374.2 453.5 375.3 455 376C456.6 376.7 458.2 376.8 459.8 376.4C461.4 376 462.8 375.1 463.9 373.7C464.5 372.9 465.1 372.1 465.7 371.3C467.5 368.9 467.1 366.4 464.4 365.2Z" fill="white"/>
<path id="Vector_28" d="M507.6 362.7H505.6V377.8H507.6V362.7Z" fill="white"/>
<path id="Vector_29" fill-rule="evenodd" clip-rule="evenodd" d="M565.2 276L572.2 266.5L568.3 265.5L561.3 274.7L565.2 276Z" fill="black"/>
<path id="Vector_30" d="M565.2 276.2L561.3 274.9C561.2 274.9 561.2 274.8 561.2 274.7C561.2 274.6 561.2 274.6 561.2 274.5L568.2 265.3C568.3 265.2 568.3 265.2 568.4 265.2L572.3 266.2C572.4 266.2 572.4 266.3 572.5 266.4C572.5 266.5 572.5 266.5 572.5 266.6L565.5 276C565.4 276.2 565.3 276.2 565.2 276.2ZM561.8 274.6L565.1 275.7L571.8 266.7L568.4 265.8L561.8 274.6Z" fill="white"/>
<path id="Vector_31" fill-rule="evenodd" clip-rule="evenodd" d="M561.3 271.9L568.3 262.5L561 260.3L557.8 270.8L561.3 271.9Z" fill="black"/>
<path id="Vector_32" d="M561.3 272.1L557.8 270.9C557.7 270.9 557.6 270.7 557.6 270.6L560.9 260.1C560.9 260 561.1 259.9 561.2 259.9L568.5 262.1C568.6 262.1 568.6 262.2 568.7 262.3C568.7 262.4 568.7 262.4 568.7 262.5L561.7 271.9C561.5 272.1 561.4 272.2 561.3 272.1ZM558.2 270.6L561.3 271.6L568 262.6L561.3 260.6L558.2 270.6Z" fill="white"/>
<path id="Vector_33" fill-rule="evenodd" clip-rule="evenodd" d="M561.6 271.6L568.4 262.5V265.5L561.6 274.8V271.6Z" fill="black"/>
<path id="Vector_34" d="M561.6 275C561.4 275 561.4 274.9 561.4 274.8V271.6C561.4 271.5 561.4 271.5 561.4 271.5L568.2 262.4C568.3 262.3 568.4 262.3 568.5 262.3C568.6 262.3 568.7 262.4 568.7 262.5V265.5V265.6L561.9 274.9C561.7 275 561.7 275.1 561.6 275ZM561.8 271.7V274.1L568.1 265.4V263.2L561.8 271.7Z" fill="white"/>
<path id="Vector_35" fill-rule="evenodd" clip-rule="evenodd" d="M557.6 267.9L564.6 258.5L557.3 256.3L554 266.6L557.6 267.9Z" fill="black"/>
<path id="Vector_36" d="M557.6 268.1L554 266.7C553.9 266.7 553.8 266.5 553.9 266.4L557.2 256.1C557.2 256 557.4 255.9 557.5 255.9L564.8 258.1C564.9 258.1 564.9 258.2 565 258.2C565 258.3 565 258.3 565 258.4L558 267.8C557.8 268.1 557.7 268.1 557.6 268.1ZM554.4 266.4L557.5 267.6L564.2 258.6L557.5 256.6L554.4 266.4Z" fill="white"/>
<path id="Vector_37" fill-rule="evenodd" clip-rule="evenodd" d="M554.2 263.3L561 254.2L554 251.8L547.1 260.9L554.2 263.3Z" fill="black"/>
<path id="Vector_38" d="M554.2 263.5L547 261.1C546.9 261.1 546.9 261 546.8 261C546.8 260.9 546.8 260.8 546.8 260.8L553.7 251.7C553.8 251.6 553.9 251.6 554 251.6L561 254C561.1 254 561.1 254.1 561.1 254.1C561.1 254.2 561.1 254.2 561.1 254.3L554.3 263.4C554.3 263.5 554.2 263.5 554.2 263.5ZM547.4 260.8L554 263L560.5 254.3L554 252L547.4 260.8Z" fill="white"/>
<path id="Vector_39" fill-rule="evenodd" clip-rule="evenodd" d="M554.2 263.3L561 254.2V257.2L554.2 266.5V263.3Z" fill="black"/>
<path id="Vector_40" d="M554.2 266.8C554 266.8 554 266.7 554 266.6V263.4C554 263.3 554 263.3 554.1 263.3L560.9 254.2C561 254.1 561.1 254.1 561.2 254.1C561.3 254.1 561.4 254.2 561.4 254.3V257.3V257.4L554.6 266.7C554.3 266.7 554.2 266.8 554.2 266.8ZM554.4 263.4V265.8L560.7 257.1V254.9L554.4 263.4Z" fill="white"/>
<path id="Vector_41" fill-rule="evenodd" clip-rule="evenodd" d="M557.9 267.5L564.7 258.4V261.4L557.9 270.7V267.5Z" fill="black"/>
<path id="Vector_42" d="M557.9 271C557.7 271 557.7 270.9 557.7 270.8V267.6C557.7 267.5 557.7 267.5 557.7 267.5L564.5 258.4C564.6 258.3 564.7 258.3 564.8 258.3C564.9 258.3 565 258.4 565 258.5V261.5C565 261.5 565 261.6 564.9 261.6L558.1 270.9C558 271 558 271 557.9 271ZM558.1 267.6V270L564.4 261.3V259.1L558.1 267.6Z" fill="white"/>
<path id="Vector_43" d="M569.3 276.7L557.1 293.5L557.5 293.8L569.7 277L569.3 276.7Z" fill="white"/>
<path id="Vector_44" d="M616.8 342.9C616.7 342.9 616.6 342.8 616.6 342.7V328.6L569.6 309.6C569.5 309.5 569.4 309.4 569.5 309.3C569.5 309.2 569.7 309.1 569.8 309.2L616.9 328.2C617 328.2 617.1 328.3 617.1 328.4V342.6C617 342.8 616.9 342.9 616.8 342.9Z" fill="white"/>
<path id="Vector_45" d="M558.2 437.5C558 437.5 558 437.4 558 437.3V422.1V422L654 268.6C654.1 268.5 654.2 268.5 654.3 268.5C654.4 268.5 654.5 268.6 654.5 268.7V282.4V282.5L558.5 437.4C558.4 437.4 558.3 437.5 558.2 437.5ZM558.5 422.1V436.4L654 282.2V269.4L558.5 422.1Z" fill="white"/>
<path id="Vector_46" fill-rule="evenodd" clip-rule="evenodd" d="M403.2 337.4L366.8 320.2L349.9 340.4L386.6 358L403.2 337.4Z" fill="#6C7372"/>
<path id="Vector_47" d="M403.2 337.4L366.9 320.2L350 340.4L386.7 358L403.2 337.4Z" fill="black"/>
<path id="Vector_48" d="M386.6 358.2H386.5L349.8 340.6C349.7 340.6 349.7 340.5 349.7 340.4C349.7 340.3 349.7 340.2 349.7 340.2L366.6 320C366.7 319.9 366.8 319.9 366.9 319.9L403.3 337.1C403.4 337.1 403.4 337.2 403.4 337.3C403.4 337.4 403.4 337.4 403.4 337.5L386.8 358C386.8 358.2 386.7 358.2 386.6 358.2ZM350.3 340.3L386.5 357.7L402.8 337.6L366.9 320.6L350.3 340.3Z" fill="white"/>
<path id="Vector_49" fill-rule="evenodd" clip-rule="evenodd" d="M570.1 276.1L506.7 362.7L482.2 351.3L544.3 266.9L570.1 276.1Z" fill="#20221D"/>
<path id="Vector_50" d="M506.7 362.9H506.6L482.1 351.5C482 351.5 482 351.4 482 351.3C482 351.2 482 351.2 482 351.1L544.1 266.7C544.2 266.6 544.3 266.6 544.4 266.6L570.3 275.9C570.4 275.9 570.4 276 570.4 276C570.4 276.1 570.4 276.2 570.4 276.2L507 362.8C506.8 362.9 506.7 362.9 506.7 362.9ZM482.5 351.1L506.6 362.3L569.7 276.1L544.3 267L482.5 351.1Z" fill="white"/>
<path id="Vector_51" fill-rule="evenodd" clip-rule="evenodd" d="M403.2 337.2L419.8 317V330.6L403.2 351V337.2Z" fill="black"/>
<path id="Vector_52" d="M403.2 351.2C403 351.2 403 351.1 403 351V337.2C403 337.1 403 337.1 403 337L419.6 316.8C419.7 316.7 419.8 316.7 419.9 316.7C420 316.7 420.1 316.8 420.1 316.9V330.5C420.1 330.6 420.1 330.6 420 330.6L403.4 351C403.3 351.2 403.3 351.2 403.2 351.2ZM403.4 337.3V350.3L419.5 330.5V317.7L403.4 337.3Z" fill="white"/>
<path id="Vector_53" fill-rule="evenodd" clip-rule="evenodd" d="M419.8 317L383.5 299.8L366.6 320L403.3 337.6L419.8 317Z" fill="black"/>
<path id="Vector_54" d="M403.2 337.7H403.1L366.4 320.1C366.3 320.1 366.3 320 366.3 319.9C366.3 319.8 366.3 319.8 366.3 319.7L383.2 299.6C383.3 299.5 383.4 299.5 383.5 299.5L419.9 316.7C420 316.7 420 316.8 420 316.9C420 317 420 317 420 317.1L403.4 337.6C403.3 337.7 403.3 337.7 403.2 337.7ZM366.9 319.9L403.1 337.3L419.4 317.2L383.5 300.2L366.9 319.9Z" fill="white"/>
<path id="Vector_55" d="M421.4 469.5C421.3 469.5 421.2 469.4 421.2 469.3V453.1C421.2 453 421.2 453 421.3 453L451.7 412.8C451.8 412.7 451.9 412.7 452 412.7C452.1 412.8 452.1 412.9 452.1 413L421.7 453.2V469.3C421.7 469.4 421.6 469.5 421.4 469.5Z" fill="white"/>
<path id="Vector_56" d="M510.9 470.5C508.9 470.6 506.8 470.8 504.7 470.9C503.7 472.4 502.8 473.8 501.8 475.3C503.1 475.2 504.5 475.2 505.8 475.1C504.1 477.7 502.4 480.3 500.7 483C499 485.7 497.2 488.3 495.5 491C496.9 491.7 498.3 492.4 499.7 493.1C502 489.5 504.4 485.9 506.7 482.3C509 478.7 511.2 475.2 513.5 471.7C512.6 471.4 511.8 471 510.9 470.5ZM501.4 465.6C499.3 465.7 497.3 465.9 495.2 466C494.2 467.5 493.3 468.9 492.3 470.4C493.6 470.3 495 470.3 496.3 470.3C494.6 472.9 492.8 475.5 491.1 478.1C489.3 480.7 487.6 483.4 485.8 486.1C487.2 486.8 488.6 487.5 490 488.2C492.4 484.6 494.7 481 497.1 477.4C499.4 473.9 501.7 470.4 504 466.9C503.1 466.5 502.3 466 501.4 465.6ZM480.7 475.9C479.9 477.1 478.8 477.5 477.7 476.9C476.6 476.3 476.5 475.3 477.3 474.1C477.9 473.2 478.5 472.3 479.1 471.4C479.9 470.2 481.1 469.8 482.1 470.4C483.2 471 483.3 472 482.5 473.2C481.9 474.1 481.3 475 480.7 475.9ZM485.3 467C484.5 466.6 483.3 466.4 482.4 466.5C483 465.6 483.6 464.7 484.2 463.9C485 462.7 486 462.5 487.1 463C488.1 463.5 488.2 464.5 487.5 465.6C488.9 466.3 490.3 467 491.6 467.7C492.7 465.9 493.1 464.2 492.8 462.7C492.5 461.2 491.4 459.9 489.7 459.1C488 458.2 486.1 458 484.4 458.5C482.7 459 481.1 460.1 480 461.8C478.8 463.5 477.7 465.2 476.5 466.8C475.3 468.5 474.2 470.2 473 471.9C471.8 473.7 471.4 475.4 471.7 477C472 478.6 473.1 479.9 474.9 480.8C476.7 481.7 478.6 481.9 480.3 481.4C482 480.9 483.6 479.7 484.8 478C485.5 477 486.1 476 486.8 475C488.9 472 488.4 468.6 485.3 467Z" fill="white"/>
<path id="Vector_57" d="M412.2 443.5C410.8 442.8 410.7 441.7 411.8 440.2C412.8 438.9 413.7 437.6 414.7 436.3C415.6 435 416.6 433.8 417.5 432.5C418.6 431.1 419.8 430.7 421.1 431.3C422.4 432 422.6 433.1 421.5 434.5C420.6 435.8 419.7 437 418.7 438.3C417.8 439.6 416.8 440.9 415.9 442.2C414.8 443.8 413.6 444.2 412.2 443.5ZM409.6 447C411.5 448 413.4 448.2 415.1 447.7C416.8 447.2 418.4 446.1 419.7 444.3C420.6 443 421.6 441.7 422.5 440.4C423.4 439.1 424.3 437.8 425.2 436.5C426.4 434.8 426.8 433.2 426.5 431.8C426.2 430.4 425.1 429.2 423.3 428.3C421.5 427.4 419.8 427.2 418.1 427.6C416.5 428 414.9 429.1 413.7 430.7C412.8 431.9 411.8 433.2 410.8 434.5C409.8 435.8 408.9 437 407.9 438.3C406.6 440.1 406 441.7 406.3 443.2C406.7 444.7 407.8 446 409.6 447ZM412.3 423.1C410.4 423.2 408.5 423.2 406.5 423.3C405.6 424.5 404.6 425.7 403.6 426.9C404.8 426.9 406.1 426.9 407.4 426.9C405.7 429 404 431.2 402.3 433.4C400.5 435.6 398.7 437.9 396.9 440.2C398.2 440.9 399.5 441.5 400.8 442.2C403.2 439.1 405.6 436 407.9 433C410.2 430.1 412.4 427.2 414.6 424.3C413.9 423.9 413.1 423.5 412.3 423.1ZM392.6 431.1C391.8 432.1 390.7 432.4 389.7 431.9C388.7 431.4 388.6 430.5 389.4 429.5C390 428.8 390.6 428 391.3 427.3C392.1 426.3 393.2 426 394.2 426.5C395.2 427 395.3 427.9 394.4 428.9C393.8 429.6 393.2 430.4 392.6 431.1ZM397.3 423.8C396.5 423.4 395.5 423.2 394.6 423.3C395.2 422.6 395.8 421.9 396.4 421.2C397.2 420.2 398.2 420.1 399.1 420.5C400 421 400 421.7 399.4 422.7C400.7 423.3 401.9 424 403.2 424.6C404.3 423.2 404.7 421.7 404.4 420.5C404.1 419.3 403.2 418.2 401.7 417.4C400.1 416.6 398.5 416.4 396.9 416.7C395.3 417 393.8 417.9 392.6 419.3C391.5 420.7 390.3 422 389.1 423.4C387.9 424.8 386.7 426.2 385.5 427.6C384.3 429.1 383.7 430.6 384 431.9C384.2 433.3 385.2 434.5 386.8 435.3C388.4 436.2 390.2 436.4 391.9 436C393.6 435.6 395.2 434.6 396.4 433.1C397.1 432.2 397.8 431.4 398.4 430.6C400.5 428 400.2 425.2 397.3 423.8Z" fill="white"/>
<path id="Vector_58" d="M558.2 422.3L506.6 399.8C506.5 399.8 506.5 399.7 506.5 399.7C506.5 399.7 506.5 399.6 506.5 399.5L609.2 250.2C609.3 250.1 609.4 250.1 609.5 250.1L654.3 268.4C654.4 268.4 654.4 268.5 654.4 268.5C654.4 268.6 654.4 268.6 654.4 268.7L558.4 422.1C558.4 422.2 558.3 422.3 558.2 422.3ZM507 399.4L558.1 421.7L653.8 268.7L609.5 250.6L507 399.4Z" fill="white"/>
<path id="Vector_59" d="M589.3 341.2C591.1 341.9 592.8 342.6 594.6 343.3C596.4 344 598.1 344.7 599.8 345.4C600.5 344.3 601.2 343.2 601.8 342.1C599.6 341.2 597.4 340.3 595.2 339.5C596.1 338.1 598.6 337.3 601.3 336.3C604 335.3 606.8 334 608.2 331.8C608.9 330.7 609.2 329.4 608.9 328.2C608.6 327 607.7 325.9 606 325.1C604.5 324.5 603 324.4 601.7 324.9C600.3 325.4 599 326.5 597.9 328.1C599 328.6 600.2 329 601.3 329.5C602.1 328.3 603.1 327.9 604.1 328.3C605.1 328.7 605.1 329.7 604.6 330.4C603.7 331.9 601.1 332.6 598.4 333.6C595.6 334.7 592.6 336 590.8 338.9C590.3 339.7 589.8 340.4 589.3 341.2ZM596.2 321.3C594.4 321.5 592.6 321.7 590.8 321.9C590 323.1 589.2 324.4 588.4 325.6C589.6 325.5 590.7 325.4 591.9 325.3C590.5 327.5 589.1 329.7 587.6 331.9C586.2 334.1 584.7 336.4 583.3 338.6C584.5 339.1 585.8 339.6 587 340.1C588.9 337.1 590.9 334 592.8 331C594.7 328 596.6 325 598.5 322.1C597.7 322 597 321.7 596.2 321.3ZM578.3 330.8C577.6 331.8 576.6 332.2 575.7 331.8C574.7 331.4 574.5 330.6 575.2 329.6C575.7 328.8 576.2 328.1 576.7 327.3C577.4 326.3 578.4 325.9 579.4 326.3C580.4 326.7 580.5 327.5 579.9 328.6C579.3 329.3 578.8 330.1 578.3 330.8ZM582.1 323.3C581.3 323 580.3 322.9 579.5 323.1C580 322.3 580.5 321.6 581 320.8C581.7 319.7 582.6 319.5 583.5 319.9C584.4 320.3 584.5 321 584 322C585.2 322.5 586.5 323 587.7 323.5C588.6 322 588.9 320.5 588.6 319.3C588.2 318.1 587.3 317.1 585.7 316.4C584.1 315.7 582.5 315.7 581 316.2C579.5 316.7 578.2 317.7 577.2 319.2C576.2 320.6 575.3 322.1 574.3 323.6C573.3 325.1 572.4 326.5 571.4 328C570.4 329.5 570.1 331 570.5 332.3C570.9 333.6 571.9 334.6 573.5 335.2C575.1 335.8 576.8 335.9 578.3 335.4C579.8 334.9 581.2 333.8 582.2 332.3C582.8 331.4 583.3 330.6 583.9 329.7C585.5 327.2 584.9 324.5 582.1 323.3Z" fill="white"/>
<path id="Vector_60" d="M629.3 291.2C631.2 290.1 633.1 289 635 287.9C635.5 287.1 635.9 286.4 636.4 285.7C634.9 285.1 633.3 284.4 631.8 283.8C630.3 283.2 628.7 282.5 627.2 281.9C626.5 282.9 625.9 284 625.2 285C626.9 285.7 628.5 286.4 630.2 287.1C628.5 288.1 626.8 289.1 625.1 290C624.6 290.8 624.2 291.5 623.7 292.2C624.3 292.4 624.9 292.7 625.5 292.9C626.8 293.4 627.1 294.1 626.1 295.8C625.9 296.1 625.7 296.4 625.5 296.7C624.5 298.4 623.7 299 622.4 298.5C621.3 298.1 621.3 297.3 622 296C620.8 295.5 619.6 295 618.4 294.6C617.4 296.3 617.1 297.8 617.4 299.1C617.7 300.4 618.7 301.4 620.4 302C622.3 302.8 623.9 302.8 625.4 302.1C626.8 301.5 628.1 300.2 629.3 298.3C629.5 297.9 629.8 297.6 630 297.2C631.1 295 631.2 292.4 629.3 291.2ZM622.3 279.9C620.5 280.1 618.7 280.3 616.9 280.5C616.1 281.7 615.3 283 614.5 284.2C615.7 284.1 616.9 284 618 283.9C616.6 286.1 615.2 288.3 613.7 290.5C612.3 292.7 610.8 295 609.3 297.2C610.5 297.7 611.8 298.2 613 298.7C614.9 295.7 616.9 292.6 618.8 289.6C620.7 286.6 622.6 283.6 624.5 280.7C623.8 280.5 623 280.2 622.3 279.9ZM604.4 289.3C603.7 290.3 602.7 290.7 601.8 290.3C600.8 289.9 600.6 289.1 601.3 288.1C601.8 287.3 602.3 286.6 602.8 285.8C603.5 284.8 604.5 284.4 605.5 284.8C606.5 285.2 606.6 286 606 287.1C605.4 287.8 604.9 288.6 604.4 289.3ZM608.1 281.8C607.3 281.5 606.3 281.4 605.5 281.6C606 280.8 606.5 280.1 607 279.3C607.7 278.2 608.6 278 609.5 278.4C610.4 278.8 610.5 279.5 610 280.5C611.2 281 612.5 281.5 613.7 282C614.6 280.5 614.9 279 614.5 277.8C614.2 276.6 613.2 275.6 611.6 274.9C610 274.2 608.4 274.2 606.9 274.7C605.4 275.2 604 276.2 603 277.7C602 279.1 601.1 280.6 600.1 282.1C599.1 283.6 598.2 285 597.2 286.5C596.2 288 595.9 289.5 596.3 290.8C596.7 292.1 597.7 293.1 599.3 293.7C600.9 294.3 602.6 294.4 604.1 293.9C605.6 293.4 607 292.3 608 290.8C608.6 289.9 609.1 289.1 609.7 288.2C611.5 285.7 610.9 283 608.1 281.8Z" fill="white"/>
<path id="Vector_61" d="M531.2 342.5C531.1 342.5 531 342.4 531 342.3L530.9 329.5L505.4 319.7C505.3 319.6 505.2 319.5 505.3 319.4C505.3 319.3 505.5 319.2 505.6 319.3L531.2 329.1C531.3 329.1 531.4 329.2 531.4 329.3L531.5 342.3C531.4 342.4 531.3 342.5 531.2 342.5Z" fill="white"/>
<path id="Vector_62" d="M506.3 332.5C507.3 332.9 508.3 333.3 509.3 333.7C510.3 332.2 511.4 330.8 512.5 329.3C514.4 330.8 516.4 332.3 518.3 333.8C520.3 335.3 522.2 336.8 524.2 338.3C524.9 337.4 525.5 336.5 526.2 335.6C524.1 334 522.1 332.4 520.1 330.9C518.1 329.3 516.1 327.8 514 326.2C513.2 325.9 512.4 325.6 511.5 325.2C510.6 326.4 509.7 327.6 508.9 328.8C508.1 330 507.2 331.3 506.3 332.5ZM504.4 335.1C504.4 336.3 504.5 337.5 504.6 338.8C505.8 339.3 506.9 339.8 508.1 340.2C508.1 339.4 508.1 338.6 508.1 337.8C510.2 338.7 512.3 339.5 514.4 340.4C516.5 341.3 518.7 342.1 520.8 343C521.4 342.1 522.1 341.3 522.7 340.4C519.8 339.2 516.9 338.1 514 336.9C511.2 335.7 508.3 334.6 505.5 333.5C505.2 334 504.9 334.6 504.4 335.1ZM512.3 346.7C513.3 347.1 513.5 347.7 513 348.4C512.5 349.1 511.7 349.2 510.7 348.8C510 348.5 509.3 348.2 508.6 347.9C507.6 347.5 507.3 346.9 507.8 346.2C508.3 345.5 509.1 345.4 510.1 345.8C510.9 346.1 511.6 346.4 512.3 346.7ZM505.1 344.6C504.7 345.1 504.5 345.8 504.6 346.4C503.9 346.1 503.2 345.8 502.5 345.5C501.5 345.1 501.4 344.5 501.8 343.9C502.3 343.3 503 343.2 504 343.5C504.6 342.6 505.2 341.8 505.9 340.9C504.5 340.3 503 340.2 501.8 340.5C500.6 340.8 499.5 341.5 498.7 342.6C497.9 343.7 497.7 344.8 498 345.8C498.3 346.8 499.2 347.6 500.6 348.2C501.9 348.8 503.3 349.3 504.7 349.9C506.1 350.5 507.4 351 508.8 351.6C510.2 352.2 511.7 352.3 513 352C514.3 351.7 515.4 351 516.3 349.9C517.1 348.8 517.3 347.7 517 346.7C516.7 345.7 515.7 344.9 514.3 344.3C513.5 344 512.7 343.6 511.9 343.3C509.4 342.1 506.6 342.7 505.1 344.6Z" fill="white"/>
<path id="Vector_63" d="M542.7 305.7C543.6 306 543.8 306.6 543.4 307.2C543 307.8 542.2 308 541.3 307.6C540.7 307.3 540 307.1 539.4 306.8C538.5 306.4 538.3 305.9 538.7 305.3C539.1 304.7 539.9 304.6 540.8 304.9C541.4 305.2 542 305.5 542.7 305.7ZM536.2 303.9C535.8 304.4 535.7 305 535.8 305.5C535.2 305.3 534.5 305 533.9 304.7C533 304.3 532.9 303.8 533.3 303.3C533.7 302.7 534.4 302.6 535.3 302.9C535.9 302.1 536.4 301.3 537 300.6C535.7 300.1 534.4 300 533.3 300.3C532.2 300.6 531.2 301.2 530.5 302.2C529.8 303.2 529.6 304.1 529.9 305C530.2 305.9 531 306.6 532.3 307.1C533.5 307.6 534.7 308.1 536 308.6C537.2 309.1 538.5 309.6 539.7 310.1C541 310.6 542.3 310.7 543.5 310.4C544.7 310.1 545.7 309.5 546.4 308.5C547.1 307.5 547.3 306.5 547 305.6C546.7 304.7 545.8 304 544.6 303.5C543.9 303.2 543.1 302.9 542.4 302.6C540 301.7 537.5 302.2 536.2 303.9ZM526 308.7C526 309.8 526.1 310.9 526.1 311.9C527.1 312.3 528.2 312.7 529.2 313.2C529.2 312.5 529.2 311.8 529.2 311.1C531.1 311.9 532.9 312.6 534.8 313.4C536.7 314.2 538.6 314.9 540.5 315.7C541.1 314.9 541.6 314.2 542.2 313.4C539.6 312.4 537.1 311.3 534.5 310.3C532 309.3 529.5 308.3 527 307.3C526.7 307.7 526.4 308.2 526 308.7ZM533 319C533.8 319.4 534.1 319.9 533.6 320.5C533.2 321.1 532.4 321.2 531.6 320.9C531 320.6 530.3 320.4 529.7 320.1C528.8 319.7 528.6 319.2 529 318.6C529.4 318 530.2 317.9 531.1 318.2C531.8 318.5 532.4 318.7 533 319ZM526.7 317.1C526.4 317.6 526.2 318.2 526.3 318.7C525.7 318.4 525.1 318.2 524.4 317.9C523.5 317.5 523.4 317 523.8 316.5C524.2 315.9 524.9 315.9 525.7 316.1C526.2 315.3 526.8 314.6 527.4 313.8C526.1 313.3 524.9 313.2 523.8 313.5C522.7 313.8 521.7 314.4 521 315.3C520.3 316.3 520.1 317.2 520.4 318.1C520.7 319 521.5 319.7 522.7 320.2C523.9 320.7 525.1 321.2 526.3 321.7C527.5 322.2 528.7 322.7 529.9 323.2C531.2 323.7 532.4 323.8 533.6 323.6C534.8 323.3 535.8 322.7 536.5 321.7C537.2 320.7 537.4 319.7 537.1 318.8C536.8 317.9 536 317.2 534.7 316.6C534 316.3 533.3 316 532.5 315.7C530.4 314.9 527.9 315.4 526.7 317.1Z" fill="white"/>
<path id="Vector_64" d="M173.8 374.5L173.7 374.4L162 368L162.2 367.8C163.2 366.8 164.2 365.8 165.2 364.8C165.9 364.1 166.6 363.4 167.3 362.6L164.1 360.9C161.5 359.5 158.9 358.1 156.3 356.7C155.5 357.5 154.7 358.3 153.9 359C152.9 360 152 360.9 151 361.9L150.9 362L149.1 361C145.8 359.2 142.5 357.4 139.2 355.6L138.9 355.5L139.1 355.3C139.8 354.6 140.5 353.9 141.3 353.2C142.3 352.2 143.3 351.3 144.3 350.3L144.2 350.2C142.4 349.2 140.8 348.3 139.1 347.4L138.8 347.3L139 347.1C145.1 341.2 151.6 334.9 158.1 328.6C140.5 319.3 123 310.1 106.2 301.1L75.6003 284.9C57.1003 275.1 38.9003 265.5 21.1003 256.1L20.8003 255.9L29.4003 249C38.9003 241.3 48.2003 233.8 57.4003 226.3C56.9003 226.1 56.4003 225.8 56.0003 225.6L55.2003 225.2C54.6003 224.9 54.0003 224.6 53.4003 224.3C52.8003 224 52.2003 223.7 51.6003 223.4L51.3003 223.2L52.1003 222.5C53.3003 221.5 54.6003 220.5 55.9003 219.4C64.4003 212.6 72.7003 205.9 81.0003 199.3C87.6003 194 94.1003 188.8 100.5 183.7C101.8 182.6 103.2 181.5 104.5 180.5L104.6 180.4L104.7 180.5C105.9 181.1 107 181.6 108.2 182.2C108.6 182.4 109 182.6 109.4 182.8C109.8 183 110.2 183.2 110.6 183.4C111.8 182.4 113 181.4 114.2 180.5C115.5 179.4 116.9 178.4 118.2 177.3L118.3 177.2L118.4 177.3C121.7 178.8 125 180.4 128.2 181.9L128.8 182.2C132.8 178.9 136.8 175.6 140.8 172.4L145.1 168.9C143 167.9 141 167 139 166.1L135 164.2L135.3 164C145.3 155.9 155.1 148 164.8 140.2L164.9 140.1L165 140.2L249.6 176.8L249.3 177L204.6 216.5L281.4 252.3L281.5 252.2L293.7 257.9L293.5 258.1L212.2 337.1L173.8 374.5ZM162.8 367.9L173.8 373.9L293 257.7L281.7 252.4L281.6 252.5L281.5 252.4L203.9 216.2L248.9 176.4L165.1 140.1C155.5 147.8 145.9 155.6 136 163.6L139.3 165.1C141.5 166.1 143.6 167.1 145.8 168.1L146.1 168.3L141.2 172.3C137.2 175.6 133.2 178.9 129.1 182.2L129 182.3L128.1 181.9C125 180.4 121.7 178.9 118.5 177.4C117.2 178.4 115.9 179.5 114.6 180.5C113.3 181.5 112.1 182.5 110.8 183.5L110.7 183.6L110.6 183.5C110.1 183.3 109.7 183.1 109.2 182.9C108.8 182.7 108.4 182.5 108 182.4C106.9 181.9 105.8 181.3 104.6 180.8C103.3 181.9 102 182.9 100.7 184C94.3003 189.2 87.8003 194.4 81.2003 199.6C73.0003 206.2 64.6003 212.9 56.1003 219.7C54.8003 220.7 53.6003 221.7 52.3003 222.7L52.0003 222.9C52.5003 223.2 53.0003 223.4 53.5003 223.7C54.1003 224 54.7003 224.3 55.3003 224.6C55.6003 224.7 55.8003 224.9 56.1003 225C56.7003 225.3 57.3003 225.6 57.9003 225.9L58.2003 226.1L57.9003 226.3C48.6003 233.8 39.2003 241.5 29.6003 249.2L21.6003 255.7C39.3003 265.1 57.4003 274.6 75.8003 284.4L106.4 300.6C123.4 309.6 140.9 318.9 158.6 328.2L158.9 328.3L158.7 328.5C152.2 334.8 145.7 341.1 139.6 347C141.2 347.9 142.8 348.7 144.4 349.6L145.1 350L144.9 350.2C143.8 351.3 142.8 352.3 141.7 353.3C141.1 353.9 140.4 354.6 139.8 355.2C142.9 356.9 146.1 358.7 149.4 360.4L150.9 361.2C151.8 360.3 152.7 359.4 153.6 358.5C154.4 357.7 155.3 356.9 156.1 356L156.2 355.9L156.4 356C159 357.4 161.7 358.9 164.4 360.3L168.1 362.3L167.9 362.5C167.1 363.3 166.3 364.1 165.5 364.9C164.6 366 163.7 366.9 162.8 367.9Z" fill="#20221D"/>
<path id="Vector_65" fill-rule="evenodd" clip-rule="evenodd" d="M167.8 310.9L39.5 244.8V257.1L167.8 324.6V310.9Z" fill="#20221D"/>
<path id="Vector_66" d="M167.8 324.9H167.7L39.4003 257.4C39.3003 257.4 39.3003 257.3 39.3003 257.2V244.9C39.3003 244.8 39.3003 244.7 39.4003 244.7C39.5003 244.6 39.6003 244.6 39.6003 244.7L167.9 310.8C168 310.8 168 310.9 168 311V324.8C168 324.9 168 325 167.9 325C167.9 324.9 167.8 324.9 167.8 324.9ZM39.7003 257L167.5 324.3V311.1L39.7003 245.3V257Z" fill="white"/>
<path id="Vector_67" fill-rule="evenodd" clip-rule="evenodd" d="M249.4 281.5L217 266V276.8L249.4 293.7V281.5Z" fill="#6C7372"/>
<path id="Vector_68" d="M249.4 281.5L217 266V276.8L249.4 293.7V281.5Z" fill="black"/>
<path id="Vector_69" d="M249.4 293.8H249.3L216.9 276.9C216.8 276.9 216.8 276.8 216.8 276.7V265.9C216.8 265.8 216.8 265.7 216.9 265.7C217 265.7 217 265.7 217.1 265.7L249.5 281.2C249.6 281.2 249.6 281.3 249.6 281.4V293.5C249.6 293.6 249.6 293.7 249.5 293.7C249.5 293.8 249.5 293.8 249.4 293.8ZM217.3 276.5L249.2 293.1V281.5L217.3 266.2V276.5Z" fill="white"/>
<path id="Vector_70" fill-rule="evenodd" clip-rule="evenodd" d="M167.8 324.6V310.8L196.4 284.6V297.2L167.8 324.6Z" fill="#20221D"/>
<path id="Vector_71" d="M167.8 324.9C167.6 324.8 167.6 324.8 167.6 324.7V310.9C167.6 310.8 167.6 310.8 167.7 310.7L196.3 284.5C196.4 284.4 196.5 284.4 196.5 284.5C196.6 284.5 196.6 284.6 196.6 284.7V297.3C196.6 297.4 196.6 297.4 196.5 297.5L167.9 324.8C168 324.8 167.9 324.9 167.8 324.9ZM168 311V324.1L196.1 297.2V285.2L168 311Z" fill="white"/>
<path id="Vector_72" fill-rule="evenodd" clip-rule="evenodd" d="M39.5 244.8L69.9 221.4L196.3 284.7L167.7 310.9L39.5 244.8Z" fill="#20221D"/>
<path id="Vector_73" d="M167.8 311.1H167.7L39.4003 245C39.3003 245 39.3003 244.9 39.3003 244.8C39.3003 244.7 39.3003 244.6 39.4003 244.6L69.8003 221.2C69.9003 221.1 70.0003 221.1 70.0003 221.2L196.4 284.5C196.5 284.5 196.5 284.6 196.5 284.7C196.5 284.8 196.5 284.8 196.4 284.9L167.9 311.1C167.9 311 167.8 311.1 167.8 311.1ZM39.9003 244.7L167.7 310.6L195.9 284.7L69.9003 221.6L39.9003 244.7Z" fill="white"/>
<path id="Vector_74" fill-rule="evenodd" clip-rule="evenodd" d="M201.5 269V258.5L234.2 228.2V237L201.5 269Z" fill="#20221D"/>
<path id="Vector_75" d="M201.5 269.2C201.3 269.1 201.3 269.1 201.3 269V258.5C201.3 258.4 201.3 258.4 201.4 258.3L234.1 228C234.2 227.9 234.3 227.9 234.3 228C234.4 228 234.4 228.1 234.4 228.2V237C234.4 237.1 234.4 237.1 234.3 237.2L201.6 269.2C201.7 269.2 201.6 269.2 201.5 269.2ZM201.7 258.6V268.5L233.9 236.9V228.7L201.7 258.6Z" fill="white"/>
<path id="Vector_76" fill-rule="evenodd" clip-rule="evenodd" d="M201.4 258.5L140 229.1V238.8L201.4 269.1V258.5Z" fill="#20221D"/>
<path id="Vector_77" d="M201.4 269.2H201.3L139.9 238.9C139.8 238.9 139.8 238.8 139.8 238.7V229C139.8 228.9 139.8 228.8 139.9 228.8C140 228.8 140 228.7 140.1 228.8L201.5 258.2C201.6 258.2 201.6 258.3 201.6 258.4V268.9C201.6 269 201.6 269.1 201.5 269.1C201.5 269.2 201.5 269.2 201.4 269.2ZM140.3 238.5L201.2 268.6V258.6L140.3 229.4V238.5Z" fill="white"/>
<path id="Vector_78" fill-rule="evenodd" clip-rule="evenodd" d="M105.5 177.1L89.1001 189.7L128.4 208.4L145.2 195.1L105.5 177.1Z" fill="black"/>
<path id="Vector_79" d="M128.5 208.6L89.1 189.9C89 189.9 89 189.8 89 189.7C89 189.6 89 189.5 89.1 189.5L105.5 176.9C105.6 176.8 105.7 176.8 105.7 176.9L145.5 194.9C145.6 194.9 145.6 195 145.6 195.1C145.6 195.2 145.6 195.3 145.5 195.3L128.7 208.6C128.6 208.6 128.5 208.6 128.5 208.6ZM89.6 189.7L128.5 208.1L144.9 195.2L105.6 177.4L89.6 189.7Z" fill="white"/>
<path id="Vector_80" fill-rule="evenodd" clip-rule="evenodd" d="M215.5 191L173.6 171.7L145.3 195.2L121.2 184.3L151.1 161.1L175.2 142.4L241.1 169.5L215.5 191Z" fill="#20221D"/>
<path id="Vector_81" d="M145.3 195.4H145.2L121.1 184.5C121 184.5 121 184.4 121 184.3C121 184.2 121 184.1 121.1 184.1L175.2 142.2C175.3 142.1 175.3 142.1 175.4 142.2L241.3 169.3C241.4 169.3 241.4 169.4 241.4 169.5C241.4 169.6 241.4 169.7 241.3 169.7L215.7 191.3C215.6 191.4 215.5 191.4 215.5 191.3L173.7 172L145.5 195.4C145.4 195.3 145.3 195.4 145.3 195.4ZM121.6 184.2L145.2 194.9L173.4 171.5C173.5 171.4 173.6 171.4 173.6 171.5L215.4 190.8L240.6 169.6L175.2 142.7L121.6 184.2Z" fill="white"/>
<path id="Vector_82" fill-rule="evenodd" clip-rule="evenodd" d="M128.5 208.4V217.8L89 198.4V189.8L128.5 208.4Z" fill="black"/>
<path id="Vector_83" d="M128.5 218L88.9003 198.6C88.8003 198.6 88.8003 198.5 88.8003 198.4V189.8C88.8003 189.7 88.8003 189.6 88.9003 189.6C89.0003 189.6 89.1003 189.5 89.1003 189.6L128.6 208.3C128.7 208.3 128.7 208.4 128.7 208.5V217.9C128.7 218 128.7 218.1 128.6 218.1C128.6 218 128.5 218 128.5 218ZM89.2003 198.2L128.2 217.4V208.5L89.2003 190.1V198.2Z" fill="white"/>
<path id="Vector_84" fill-rule="evenodd" clip-rule="evenodd" d="M173.4 171.5V180.4L128.5 217.8V208.4L173.4 171.5Z" fill="#20221D"/>
<path id="Vector_85" d="M128.5 218C128.3 217.9 128.3 217.9 128.3 217.8V208.4C128.3 208.3 128.3 208.3 128.4 208.2L173.3 171.3C173.4 171.2 173.5 171.2 173.5 171.3C173.5 171.4 173.6 171.4 173.6 171.5V180.4C173.6 180.5 173.6 180.5 173.5 180.6L128.6 218H128.5ZM128.7 208.5V217.3L173.2 180.3V172L128.7 208.5Z" fill="white"/>
<path id="Vector_86" fill-rule="evenodd" clip-rule="evenodd" d="M128.5 217.6V208.4L145.3 195.1V204L128.5 217.6Z" fill="black"/>
<path id="Vector_87" d="M128.5 217.8C128.3 217.7 128.3 217.7 128.3 217.6V208.4C128.3 208.3 128.3 208.3 128.4 208.2L145.2 194.9C145.3 194.8 145.4 194.8 145.4 194.9C145.5 194.9 145.5 195 145.5 195.1V204C145.5 204.1 145.5 204.1 145.4 204.2L128.6 217.7C128.6 217.8 128.5 217.8 128.5 217.8ZM128.7 208.5V217.1L145 203.9V195.6L128.7 208.5Z" fill="white"/>
<path id="Vector_88" fill-rule="evenodd" clip-rule="evenodd" d="M234.2 228.2L173.8 200.3L140 229.1L201.5 258.5L234.2 228.2Z" fill="#20221D"/>
<path id="Vector_89" d="M201.5 258.7L139.9 229.3C139.8 229.3 139.8 229.2 139.8 229.1C139.8 229 139.8 228.9 139.9 228.9L173.7 200.1C173.8 200 173.9 200 173.9 200.1L234.3 228C234.4 228 234.4 228.1 234.4 228.2C234.4 228.3 234.4 228.4 234.3 228.4L201.6 258.7C201.6 258.7 201.6 258.7 201.5 258.7ZM140.5 229L201.5 258.2L233.8 228.2L173.9 200.5L140.5 229Z" fill="white"/>
<path id="Vector_90" fill-rule="evenodd" clip-rule="evenodd" d="M307.5 424.4L307.7 422.1L323.4 430.1L323.2 432.4L307.5 424.4Z" fill="black"/>
<path id="Vector_91" d="M323.2 432.6H323.1L307.4 424.6C307.3 424.6 307.3 424.5 307.3 424.4L307.5 422.1C307.5 422 307.5 422 307.6 421.9C307.7 421.9 307.7 421.9 307.8 421.9L323.5 429.9C323.6 429.9 323.6 430 323.6 430.1L323.4 432.4C323.4 432.5 323.4 432.5 323.3 432.6H323.2ZM307.8 424.2L323 432L323.2 430.2L308 422.4L307.8 424.2Z" fill="white"/>
<path id="Vector_92" fill-rule="evenodd" clip-rule="evenodd" d="M309.8 419.7L310 417.5L325.6 425.4L325.4 427.6L309.8 419.7Z" fill="black"/>
<path id="Vector_93" d="M325.4 427.8H325.3L309.7 420C309.6 420 309.6 419.9 309.6 419.8L309.8 417.6C309.8 417.5 309.9 417.4 309.9 417.4C310 417.4 310 417.4 310.1 417.4L325.7 425.3C325.8 425.3 325.8 425.4 325.8 425.5L325.6 427.7C325.6 427.8 325.5 427.8 325.5 427.9C325.4 427.8 325.4 427.8 325.4 427.8ZM310 419.6L325.1 427.2L325.2 425.5L310.1 417.9L310 419.6Z" fill="white"/>
<path id="Vector_94" fill-rule="evenodd" clip-rule="evenodd" d="M329.8 420.3L325.6 425.3L310 417.4L314.2 412.4L329.8 420.3Z" fill="black"/>
<path id="Vector_95" d="M325.5 425.6H325.4L309.8 417.8C309.7 417.8 309.7 417.7 309.7 417.6C309.7 417.5 309.7 417.5 309.8 417.4L314 412.4C314.1 412.3 314.2 412.3 314.3 412.3L329.9 420.2C330 420.2 330 420.3 330 420.4C330 420.5 330 420.5 330 420.6L325.8 425.6C325.7 425.5 325.6 425.6 325.5 425.6ZM310.3 417.4L325.4 425L329.3 420.4L314.1 412.7L310.3 417.4Z" fill="white"/>
<path id="Vector_96" fill-rule="evenodd" clip-rule="evenodd" d="M325.3 427.6L323.4 430.1L307.7 422.1L309.7 419.8L325.3 427.6Z" fill="black"/>
<path id="Vector_97" d="M323.4 430.3H323.3L307.6 422.3C307.5 422.3 307.5 422.2 307.5 422.1C307.5 422 307.5 422 307.6 421.9L309.6 419.6C309.7 419.5 309.8 419.5 309.9 419.5L325.5 427.3C325.6 427.3 325.6 427.4 325.6 427.5C325.6 427.6 325.6 427.6 325.6 427.7L323.7 430.2C323.5 430.3 323.5 430.3 323.4 430.3ZM308.1 422L323.3 429.8L325 427.7L309.9 420.1L308.1 422Z" fill="white"/>
<path id="Vector_98" fill-rule="evenodd" clip-rule="evenodd" d="M305.3 429.2L305.5 426.9L321.2 434.9L321 437.2L305.3 429.2Z" fill="black"/>
<path id="Vector_99" d="M321 437.5H320.9L305.2 429.5C305.1 429.5 305.1 429.4 305.1 429.3L305.3 427C305.3 426.9 305.3 426.8 305.4 426.8C305.5 426.8 305.5 426.8 305.6 426.8L321.3 434.8C321.4 434.8 321.4 434.9 321.4 435L321.2 437.3C321.2 437.4 321.2 437.5 321.1 437.5H321ZM305.6 429.1L320.8 436.9L321 435.1L305.8 427.3L305.6 429.1Z" fill="white"/>
<path id="Vector_100" fill-rule="evenodd" clip-rule="evenodd" d="M323.2 432.4L321.2 434.9L305.5 426.9L307.5 424.5L323.2 432.4Z" fill="black"/>
<path id="Vector_101" d="M321.2 435.1H321.1L305.4 427.1C305.3 427.1 305.3 427 305.3 426.9C305.3 426.8 305.3 426.8 305.4 426.7L307.4 424.4C307.5 424.3 307.6 424.3 307.7 424.3L323.3 432.1C323.4 432.1 323.4 432.2 323.4 432.3C323.4 432.4 323.4 432.4 323.4 432.5L321.5 435C321.3 435.1 321.3 435.1 321.2 435.1ZM305.9 426.8L321.1 434.6L322.8 432.5L307.7 424.9L305.9 426.8Z" fill="white"/>
<path id="Vector_102" fill-rule="evenodd" clip-rule="evenodd" d="M321 437.2L319 439.7L303.3 431.7L305.3 429.4L321 437.2Z" fill="black"/>
<path id="Vector_103" d="M319 440H318.9L303.2 432C303.1 432 303.1 431.9 303.1 431.8C303.1 431.7 303.1 431.7 303.2 431.6L305.2 429.3C305.3 429.2 305.4 429.2 305.5 429.2L321.1 437C321.2 437 321.2 437.1 321.2 437.2C321.2 437.3 321.2 437.3 321.2 437.4L319.3 439.9C319.2 439.9 319.1 440 319 440ZM303.7 431.7L318.9 439.5L320.6 437.4L305.4 429.8L303.7 431.7Z" fill="white"/>
<path id="Vector_104" fill-rule="evenodd" clip-rule="evenodd" d="M165.1 336.5L165.2 334.3L180.1 342.3L180 344.5L165.1 336.5Z" fill="black"/>
<path id="Vector_105" d="M180 344.7H179.9L165 336.7C164.9 336.7 164.9 336.6 164.9 336.5L165 334.3C165 334.2 165.1 334.2 165.1 334.1C165.2 334.1 165.3 334.1 165.3 334.1L180.2 342.1C180.3 342.1 180.3 342.2 180.3 342.3L180.2 344.5C180.2 344.6 180.2 344.6 180.1 344.7C180.1 344.7 180.1 344.7 180 344.7ZM165.3 336.3L179.7 344.1L179.8 342.5L165.4 334.7L165.3 336.3Z" fill="white"/>
<path id="Vector_106" fill-rule="evenodd" clip-rule="evenodd" d="M167.2 332.4L167.3 330.3L182.1 338.2L182 340.3L167.2 332.4Z" fill="black"/>
<path id="Vector_107" d="M182 340.5H181.9L167.1 332.6C167 332.6 167 332.5 167 332.4L167.1 330.3C167.1 330.2 167.1 330.2 167.2 330.1C167.3 330.1 167.4 330.1 167.4 330.1L182.2 338C182.3 338 182.3 338.1 182.3 338.2L182.2 340.3C182.2 340.4 182.1 340.5 182.1 340.5H182ZM167.4 332.3L181.7 339.9L181.8 338.3L167.5 330.7L167.4 332.3Z" fill="white"/>
<path id="Vector_108" fill-rule="evenodd" clip-rule="evenodd" d="M186.4 333.6L182.1 338.2L167.3 330.3L172.3 325.9L186.4 333.6Z" fill="black"/>
<path id="Vector_109" d="M182.1 338.4H182L167.2 330.5C167.1 330.5 167.1 330.4 167.1 330.3C167.1 330.2 167.1 330.2 167.2 330.1L172.2 325.7C172.3 325.6 172.4 325.6 172.5 325.7L186.6 333.3C186.7 333.3 186.7 333.4 186.7 333.5C186.7 333.6 186.7 333.6 186.6 333.7L182.3 338.3C182.3 338.4 182.1 338.4 182.1 338.4ZM167.7 330.3L182 337.9L186 333.7L172.3 326.3L167.7 330.3Z" fill="white"/>
<path id="Vector_110" fill-rule="evenodd" clip-rule="evenodd" d="M182 340.3L180.1 342.4L165.2 334.4L167.1 332.5L182 340.3Z" fill="black"/>
<path id="Vector_111" d="M180.1 342.6H180L165.1 334.6C165 334.6 165 334.5 165 334.4C165 334.3 165 334.3 165.1 334.2L167 332.3C167.1 332.2 167.2 332.2 167.3 332.3L182.1 340.1C182.2 340.1 182.2 340.2 182.2 340.3C182.2 340.4 182.2 340.4 182.1 340.5L180.2 342.6C180.3 342.5 180.2 342.6 180.1 342.6ZM165.6 334.3L180 342.1L181.5 340.4L167.1 332.8L165.6 334.3Z" fill="white"/>
<path id="Vector_112" fill-rule="evenodd" clip-rule="evenodd" d="M163 340.4L163.1 338.3L178 346.3L177.9 348.5L163 340.4Z" fill="black"/>
<path id="Vector_113" d="M177.9 348.7H177.8L162.9 340.7C162.8 340.7 162.8 340.6 162.8 340.5L162.9 338.3C162.9 338.2 163 338.2 163 338.1C163.1 338.1 163.2 338.1 163.2 338.1L178.1 346.1C178.2 346.1 178.2 346.2 178.2 346.3L178.1 348.5C178.1 348.6 178 348.6 178 348.7C178 348.7 178 348.7 177.9 348.7ZM163.3 340.3L177.7 348.1L177.8 346.5L163.4 338.7L163.3 340.3Z" fill="white"/>
<path id="Vector_114" fill-rule="evenodd" clip-rule="evenodd" d="M180 344.5L178.1 346.3L163.2 338.3L165.2 336.6L180 344.5Z" fill="black"/>
<path id="Vector_115" d="M178.1 346.5H178L163.1 338.5C163 338.5 163 338.4 163 338.3C163 338.2 163 338.2 163.1 338.1L165.1 336.4C165.2 336.3 165.3 336.3 165.4 336.4L180.2 344.2C180.3 344.2 180.3 344.3 180.3 344.4C180.3 344.5 180.3 344.5 180.2 344.6L178.3 346.4C178.2 346.5 178.1 346.5 178.1 346.5ZM163.6 338.3L178 346.1L179.6 344.6L165.2 337L163.6 338.3Z" fill="white"/>
<path id="Vector_116" fill-rule="evenodd" clip-rule="evenodd" d="M177.9 348.5L175.5 350.7L160.6 342.7L163.1 340.7L177.9 348.5Z" fill="black"/>
<path id="Vector_117" d="M175.6 350.9H175.5L160.6 342.9C160.5 342.9 160.5 342.8 160.5 342.7C160.5 342.6 160.5 342.5 160.6 342.5L163.1 340.5C163.2 340.4 163.3 340.4 163.4 340.5L178.2 348.3C178.3 348.3 178.3 348.4 178.3 348.5C178.3 348.6 178.3 348.6 178.2 348.7L175.8 350.9C175.7 350.8 175.6 350.8 175.6 350.9ZM161.1 342.6L175.5 350.4L177.5 348.6L163.1 341L161.1 342.6Z" fill="white"/>
<path id="Vector_118" fill-rule="evenodd" clip-rule="evenodd" d="M91.9004 212.2L80.4004 221.1L83.3004 222.8L94.8004 213.6L91.9004 212.2Z" fill="black"/>
<path id="Vector_119" d="M83.3002 223H83.2002L80.3002 221.3C80.2002 221.3 80.2002 221.2 80.2002 221.1C80.2002 221 80.2002 221 80.3002 220.9L91.8002 212C91.9002 211.9 92.0002 211.9 92.0002 212L94.8002 213.3C94.9002 213.3 94.9002 213.4 94.9002 213.5C94.9002 213.6 94.9002 213.7 94.8002 213.7L83.3002 222.9C83.4002 222.9 83.3002 223 83.3002 223ZM80.8002 221.1L83.2002 222.5L94.3002 213.6L91.9002 212.5L80.8002 221.1Z" fill="white"/>
<path id="Vector_120" fill-rule="evenodd" clip-rule="evenodd" d="M89 207.9L77.5 216.7L80.4 218.4L91.9 209.2L89 207.9Z" fill="black"/>
<path id="Vector_121" d="M80.4003 218.7H80.3003L77.4003 217C77.3003 217 77.3003 216.9 77.3003 216.8C77.3003 216.7 77.3003 216.7 77.4003 216.6L88.9003 207.7C89.0003 207.7 89.1003 207.6 89.1003 207.7L91.9003 209C92.0003 209 92.0003 209.1 92.0003 209.2C92.0003 209.3 92.0003 209.4 91.9003 209.4L80.4003 218.6C80.5003 218.6 80.4003 218.7 80.4003 218.7ZM77.9003 216.8L80.3003 218.2L91.4003 209.3L89.0003 208.2L77.9003 216.8Z" fill="white"/>
<path id="Vector_122" fill-rule="evenodd" clip-rule="evenodd" d="M86.1001 203.7L74.6001 212.5L77.5001 214.2L89.0001 205L86.1001 203.7Z" fill="black"/>
<path id="Vector_123" d="M77.5004 214.4H77.4004L74.5004 212.7C74.4004 212.7 74.4004 212.6 74.4004 212.5C74.4004 212.4 74.4004 212.4 74.5004 212.3L86.0004 203.4C86.1004 203.4 86.2004 203.3 86.2004 203.4L89.0004 204.7C89.1004 204.7 89.1004 204.8 89.1004 204.9C89.1004 205 89.1004 205.1 89.0004 205.1L77.5004 214.3C77.6004 214.4 77.5004 214.4 77.5004 214.4ZM75.1004 212.5L77.5004 213.9L88.6004 205L86.2004 203.9L75.1004 212.5Z" fill="white"/>
<path id="Vector_124" fill-rule="evenodd" clip-rule="evenodd" d="M79.5 197.5L68 206.4L74.6 210L86.1 200.8L79.5 197.5Z" fill="black"/>
<path id="Vector_125" d="M74.6003 210.2H74.5003L67.9003 206.6C67.8003 206.6 67.8003 206.5 67.8003 206.4C67.8003 206.3 67.8003 206.2 67.9003 206.2L79.4003 197.3C79.5003 197.2 79.6003 197.2 79.6003 197.3L86.2003 200.5C86.3003 200.5 86.3003 200.6 86.3003 200.7C86.3003 200.8 86.3003 200.9 86.2003 200.9L74.7003 210.1C74.8003 210.1 74.7003 210.2 74.6003 210.2ZM68.5003 206.3L74.6003 209.6L85.7003 200.7L79.6003 197.8L68.5003 206.3Z" fill="white"/>
<path id="Vector_126" fill-rule="evenodd" clip-rule="evenodd" d="M74.6 212.5L86 203.6V200.7L74.5 209.9L74.6 212.5Z" fill="black"/>
<path id="Vector_127" d="M74.6004 212.8C74.4004 212.7 74.4004 212.7 74.4004 212.6V210C74.4004 209.9 74.4004 209.9 74.5004 209.8L86.0004 200.6C86.1004 200.5 86.2004 200.5 86.2004 200.6C86.3004 200.6 86.3004 200.7 86.3004 200.8V203.7C86.3004 203.8 86.3004 203.8 86.2004 203.9L74.7004 212.9C74.8004 212.7 74.7004 212.8 74.6004 212.8ZM74.9004 210V212L85.9004 203.4V201.1L74.9004 210Z" fill="white"/>
<path id="Vector_128" fill-rule="evenodd" clip-rule="evenodd" d="M77.5 216.8L89 207.9V205L77.5 214.2V216.8Z" fill="black"/>
<path id="Vector_129" d="M77.5003 217C77.3003 216.9 77.3003 216.9 77.3003 216.8V214.2C77.3003 214.1 77.3003 214.1 77.4003 214L88.9003 204.8C89.0003 204.7 89.1003 204.7 89.1003 204.8C89.2003 204.8 89.2003 204.9 89.2003 205V207.9C89.2003 208 89.2003 208 89.1003 208.1L77.6003 217.1C77.7003 217 77.6003 217 77.5003 217ZM77.8003 214.3V216.3L88.8003 207.7V205.4L77.8003 214.3Z" fill="white"/>
<path id="Vector_130" fill-rule="evenodd" clip-rule="evenodd" d="M80.4004 221.1L91.9004 212.1V209.2L80.4004 218.4V221.1Z" fill="black"/>
<path id="Vector_131" d="M80.4002 221.3C80.2002 221.2 80.2002 221.2 80.2002 221.1V218.5C80.2002 218.4 80.2002 218.4 80.3002 218.3L91.8002 209.1C91.9002 209 92.0002 209 92.0002 209.1C92.1002 209.1 92.1002 209.2 92.1002 209.3V212.2C92.1002 212.3 92.1002 212.3 92.0002 212.4L80.5002 221.4C80.5002 221.3 80.4002 221.3 80.4002 221.3ZM80.6002 218.5V220.6L91.6002 212V209.7L80.6002 218.5Z" fill="white"/>
<path id="Vector_132" d="M157.3 170.9C156.4 169.9 155.5 169 154.7 168C154 167.7 153.4 167.4 152.8 167.2C152.1 167.8 151.3 168.4 150.6 169C149.9 169.6 149.1 170.2 148.4 170.8C149.3 171.2 150.2 171.6 151.1 172C151.9 171.3 152.7 170.7 153.5 170C154.3 170.9 155 171.7 155.8 172.6C156.5 172.9 157.2 173.2 157.9 173.5C158.2 173.3 158.5 173 158.8 172.8C159.4 172.3 160.1 172.2 161.7 172.9C162 173 162.3 173.1 162.5 173.3C164.1 174 164.7 174.4 164 175C163.5 175.5 162.6 175.3 161.4 174.9C160.8 175.4 160.2 175.9 159.6 176.4C161.2 177.1 162.8 177.5 164.1 177.5C165.4 177.5 166.5 177.2 167.4 176.5C168.3 175.7 168.5 174.9 167.9 174.2C167.3 173.4 166.1 172.7 164.3 171.9C163.9 171.8 163.6 171.6 163.2 171.5C161.2 170.5 158.6 170.2 157.3 170.9ZM158.1 180.1C157.5 180.6 156.4 180.6 155.1 179.9C153.9 179.3 152.8 178.7 151.6 178.2C150.5 177.6 149.4 177.1 148.3 176.5C147.1 175.9 146.7 175.3 147.3 174.8C147.9 174.3 148.9 174.4 150.2 175C151.3 175.5 152.4 176.1 153.6 176.6C154.7 177.2 155.9 177.7 157.1 178.3C158.3 179 158.7 179.6 158.1 180.1ZM161.2 181.7C162.1 180.9 162.3 180.1 161.8 179.3C161.4 178.5 160.3 177.6 158.7 176.9C157.5 176.3 156.3 175.8 155.2 175.3C154.1 174.8 152.9 174.2 151.8 173.7C150.3 173 148.9 172.7 147.7 172.6C146.5 172.6 145.4 172.9 144.6 173.6C143.8 174.3 143.6 175 143.9 175.8C144.2 176.6 145.1 177.3 146.6 178.1C147.7 178.7 148.8 179.2 149.9 179.8C151 180.4 152.2 181 153.3 181.6C154.9 182.4 156.4 182.8 157.8 182.9C159.2 182.8 160.4 182.4 161.2 181.7ZM150.8 184.1C151.7 184.6 152 185.1 151.5 185.5C151 185.9 150.2 185.9 149.3 185.4C148.6 185 147.9 184.6 147.3 184.3C146.4 183.8 146.1 183.3 146.6 182.9C147.1 182.5 147.9 182.6 148.8 183C149.5 183.3 150.2 183.7 150.8 184.1ZM144.1 181.1C143.7 181.4 143.5 181.9 143.6 182.3C143 182 142.3 181.6 141.7 181.3C140.8 180.8 140.7 180.4 141.2 180C141.7 179.6 142.4 179.7 143.2 180.1C143.8 179.6 144.4 179.1 145 178.6C143.7 178 142.4 177.6 141.3 177.6C140.2 177.6 139.2 177.9 138.4 178.5C137.6 179.1 137.4 179.9 137.6 180.6C137.8 181.4 138.6 182.1 139.8 182.8C141 183.5 142.2 184.2 143.5 184.9C144.8 185.6 146.1 186.3 147.4 187.1C148.8 187.9 150.2 188.3 151.5 188.3C152.8 188.4 154 188 154.8 187.3C155.6 186.6 155.8 185.8 155.4 184.9C155 184.1 154.1 183.2 152.7 182.5C151.9 182.1 151.1 181.7 150.4 181.3C148.1 180.1 145.5 180 144.1 181.1Z" fill="white"/>
<path id="Vector_133" fill-rule="evenodd" clip-rule="evenodd" d="M217.1 265.9L234.6 249.9L266.2 264.8L249.5 281.4L217.1 265.9Z" fill="#6C7372"/>
<path id="Vector_134" d="M217.1 265.9L234.6 249.9L266.1 264.8L249.4 281.4L217.1 265.9Z" fill="black"/>
<path id="Vector_135" d="M249.4 281.7L216.9 266.2C216.8 266.2 216.8 266.1 216.8 266C216.8 265.9 216.8 265.8 216.9 265.8L234.4 249.8C234.5 249.7 234.6 249.7 234.7 249.8L266.3 264.7C266.4 264.7 266.4 264.8 266.4 264.9C266.4 265 266.4 265.1 266.3 265.1L249.6 281.7C249.6 281.6 249.5 281.7 249.4 281.7ZM217.5 265.9L249.4 281.2L265.7 264.9L234.6 250.2L217.5 265.9Z" fill="white"/>
<path id="Vector_136" fill-rule="evenodd" clip-rule="evenodd" d="M249.4 281.5L266 265.2V277.1L249.4 293.7V281.5Z" fill="black"/>
<path id="Vector_137" d="M249.4 293.8C249.2 293.7 249.2 293.7 249.2 293.6V281.5C249.2 281.4 249.2 281.4 249.3 281.3L265.9 265C266 264.9 266.1 264.9 266.2 264.9C266.3 264.9 266.3 265 266.3 265.1V277C266.3 277.1 266.3 277.1 266.2 277.2L249.6 293.8C249.6 293.7 249.5 293.8 249.4 293.8ZM249.7 281.5V292.9L265.8 276.8V265.6L249.7 281.5Z" fill="white"/>
<path id="Vector_138" d="M208.1 240.4C206.3 240.4 204.5 240.5 202.7 240.5C201.6 241.4 200.6 242.4 199.6 243.4C200.8 243.4 201.9 243.4 203.1 243.4C201.2 245.1 199.3 246.9 197.4 248.6C195.5 250.4 193.5 252.2 191.5 254C192.6 254.6 193.7 255.1 194.7 255.7C197.3 253.2 200 250.8 202.5 248.4C205 246 207.6 243.7 210 241.4C209.5 241.1 208.8 240.8 208.1 240.4ZM185.7 247.4C184.6 246.9 184.7 246 186 244.9C187.1 243.9 188.2 243 189.3 242C190.4 241 191.5 240.1 192.5 239.1C193.7 238 194.9 237.7 196 238.2C197.1 238.7 197 239.5 195.8 240.6C194.7 241.6 193.6 242.5 192.6 243.5C191.6 244.5 190.4 245.4 189.3 246.4C188 247.6 186.8 247.9 185.7 247.4ZM182.8 249.9C184.3 250.6 185.9 250.8 187.5 250.5C189.1 250.2 190.8 249.3 192.3 247.9C193.4 246.9 194.5 245.9 195.6 244.9C196.7 243.9 197.8 243 198.8 242C200.2 240.7 200.9 239.5 200.9 238.4C200.9 237.3 200.1 236.4 198.7 235.8C197.3 235.1 195.7 235 194.1 235.3C192.5 235.6 191 236.4 189.5 237.7C188.4 238.6 187.3 239.6 186.3 240.5C185.2 241.4 184.1 242.4 183 243.4C181.5 244.7 180.7 246 180.7 247.1C180.7 248.2 181.4 249.2 182.8 249.9ZM177.9 241.5C177 242.3 176 242.5 175.3 242.1C174.5 241.7 174.6 241 175.5 240.3C176.2 239.7 176.8 239.2 177.5 238.6C178.4 237.8 179.4 237.6 180.2 238C181 238.4 180.9 239 180 239.8C179.2 240.3 178.6 240.9 177.9 241.5ZM183.3 235.9C182.7 235.6 181.8 235.5 181 235.5C181.6 235 182.3 234.4 182.9 233.9C183.8 233.1 184.6 233 185.4 233.4C186.1 233.7 186 234.3 185.3 235.1C186.3 235.6 187.3 236 188.3 236.5C189.5 235.4 190.1 234.3 190.1 233.3C190.1 232.4 189.5 231.5 188.2 231C187 230.4 185.5 230.3 184.1 230.6C182.7 230.9 181.2 231.5 179.9 232.6C178.7 233.6 177.4 234.7 176.2 235.7C175 236.8 173.7 237.8 172.4 238.9C171.1 240 170.4 241.1 170.4 242.1C170.4 243.1 171 244 172.2 244.7C173.5 245.3 175 245.5 176.5 245.2C178 244.9 179.6 244.2 180.9 243C181.6 242.4 182.4 241.7 183.1 241.1C185.4 239.1 185.6 237 183.3 235.9Z" fill="white"/>
<path id="Vector_139" fill-rule="evenodd" clip-rule="evenodd" d="M234.6 249.9L252.1 233.9L282.7 248.2L266 264.8L234.6 249.9Z" fill="black"/>
<path id="Vector_140" d="M266 265.1H265.9L234.4 250.2C234.3 250.2 234.3 250.1 234.3 250C234.3 249.9 234.3 249.8 234.4 249.8L251.9 233.8C252 233.7 252.1 233.7 252.2 233.8L282.8 248.1C282.9 248.1 282.9 248.2 282.9 248.3C282.9 248.4 282.9 248.4 282.8 248.5L266.1 265.1C266.2 265 266.1 265.1 266 265.1ZM235 249.9L266 264.6L282.3 248.3L252.1 234.2L235 249.9Z" fill="white"/>
<path id="Vector_141" fill-rule="evenodd" clip-rule="evenodd" d="M266 264.9L282.6 248.5V260.4L266 277V264.9Z" fill="black"/>
<path id="Vector_142" d="M266 277.2C265.8 277.1 265.8 277.1 265.8 277V264.9C265.8 264.8 265.8 264.8 265.9 264.7L282.5 248.4C282.6 248.3 282.7 248.3 282.8 248.3C282.9 248.3 282.9 248.4 282.9 248.5V260.4C282.9 260.5 282.9 260.5 282.8 260.6L266.2 277.2C266.2 277.2 266.1 277.2 266 277.2ZM266.2 265V276.4L282.3 260.3V249.1L266.2 265Z" fill="white"/>
<path id="Vector_143" d="M170.9 289.1C170 289.9 169 290.7 168.1 291.5C169.7 292.4 171.4 293.3 173 294.1C170.2 295.7 167.3 297.3 164.4 298.9C161.4 300.5 158.4 302.2 155.4 303.9C156.5 304.5 157.6 305 158.6 305.6C161.7 303.8 164.9 302.1 167.9 300.4C170.9 298.7 173.8 297.1 176.8 295.4C177.5 294.7 178.3 294.1 179 293.4C177.7 292.7 176.3 292 175 291.2C173.7 290.4 172.3 289.9 170.9 289.1ZM151.7 298.1C150.6 297.5 150.8 296.6 152.2 295.5C153.4 294.5 154.7 293.5 155.9 292.5C157.1 291.5 158.3 290.5 159.5 289.5C160.9 288.4 162.1 288.1 163.1 288.6C164.1 289.2 164 290 162.6 291.2C161.4 292.2 160.2 293.2 159 294.2C157.8 295.2 156.6 296.2 155.4 297.2C154.1 298.3 152.8 298.7 151.7 298.1ZM148.5 300.7C150 301.5 151.7 301.7 153.4 301.3C155.1 300.9 156.8 300.1 158.5 298.7C159.7 297.7 160.9 296.7 162.1 295.7C163.3 294.7 164.4 293.7 165.6 292.7C167.2 291.4 168 290.1 168.1 289C168.2 287.9 167.5 286.9 166.2 286.2C164.8 285.5 163.3 285.2 161.7 285.5C160.1 285.8 158.4 286.6 156.8 287.9C155.6 288.9 154.4 289.8 153.2 290.8C152 291.8 150.7 292.8 149.5 293.8C147.8 295.2 146.9 296.5 146.7 297.7C146.3 299 147 300 148.5 300.7ZM143.8 291.7C142.8 292.5 141.7 292.7 140.9 292.3C140.1 291.9 140.2 291.1 141.2 290.3C142 289.7 142.7 289.1 143.5 288.5C144.5 287.7 145.6 287.5 146.5 287.9C147.3 288.3 147.2 289.1 146.1 289.9C145.3 290.5 144.6 291.1 143.8 291.7ZM150.1 285.8C149.5 285.5 148.5 285.3 147.7 285.3C148.4 284.7 149.2 284.2 149.9 283.6C150.9 282.8 151.8 282.7 152.6 283.1C153.4 283.5 153.2 284.1 152.3 284.9C153.3 285.4 154.3 286 155.3 286.5C156.7 285.3 157.4 284.2 157.5 283.2C157.6 282.2 157 281.3 155.7 280.6C154.4 279.9 152.9 279.7 151.3 279.9C149.7 280.1 148.1 280.8 146.6 281.9C145.2 283 143.7 284.1 142.3 285.2C140.8 286.3 139.4 287.5 137.9 288.6C136.3 289.8 135.5 291 135.4 292.1C135.3 293.2 135.9 294.2 137.3 294.9C138.7 295.6 140.3 295.8 142 295.5C143.7 295.2 145.4 294.4 146.9 293.2C147.8 292.5 148.6 291.8 149.4 291.2C152 289.3 152.4 287 150.1 285.8Z" fill="white"/>
<path id="Vector_144" fill-rule="evenodd" clip-rule="evenodd" d="M173.4 171.5V180.4L215.5 200.3V190.9L173.4 171.5Z" fill="#20221D"/>
<path id="Vector_145" d="M215.5 200.6H215.4L173.3 180.7C173.2 180.7 173.2 180.6 173.2 180.5V171.6C173.2 171.5 173.2 171.5 173.3 171.4C173.4 171.4 173.4 171.3 173.5 171.4L215.6 190.9C215.7 190.9 215.7 191 215.7 191.1V200.5C215.7 200.6 215.7 200.7 215.6 200.7C215.6 200.6 215.5 200.6 215.5 200.6ZM173.6 180.3L215.2 200V191.1L173.6 171.8V180.3Z" fill="white"/>
<path id="Vector_146" fill-rule="evenodd" clip-rule="evenodd" d="M241.1 169.4V178.3L215.5 200.3V190.9L241.1 169.4Z" fill="#20221D"/>
<path id="Vector_147" d="M215.5 200.6H215.4C215.3 200.6 215.3 200.5 215.3 200.4V191C215.3 190.9 215.3 190.9 215.4 190.8L241 169.2C241.1 169.1 241.2 169.1 241.2 169.2C241.3 169.2 241.3 169.3 241.3 169.4V178.3C241.3 178.4 241.3 178.4 241.2 178.5L215.6 200.5L215.5 200.6ZM215.7 191.1V199.9L240.8 178.3V170L215.7 191.1Z" fill="white"/>
<path id="Vector_148" d="M204.7 185.5C205.9 186.1 207.2 186.7 208.4 187.3C209.7 187.9 210.9 188.5 212.2 189.2C213 188.4 213.8 187.6 214.6 186.9C213 186.1 211.4 185.4 209.8 184.6C210.8 183.7 213 183.2 215.4 182.6C217.8 182 220.3 181.3 221.9 179.7C222.7 178.9 223.2 178 223.2 177.2C223.2 176.3 222.7 175.5 221.4 175C220.3 174.5 219.2 174.4 218 174.7C216.8 175 215.6 175.7 214.3 176.8C215.1 177.2 215.9 177.5 216.7 177.9C217.6 177.1 218.5 176.9 219.2 177.2C219.9 177.5 219.7 178.2 219.2 178.7C218.1 179.7 216 180.1 213.5 180.7C211 181.3 208.3 182.1 206.2 184.1C205.8 184.5 205.3 185 204.7 185.5ZM202 181C201.1 180.6 201.2 179.9 202.3 178.9C203.2 178.1 204.2 177.2 205.1 176.4C206 175.6 206.9 174.8 207.9 174C209 173.1 209.9 172.8 210.8 173.2C211.7 173.6 211.6 174.3 210.5 175.2C209.6 176 208.7 176.8 207.8 177.7C206.9 178.5 205.9 179.4 205 180.2C203.9 181.1 202.8 181.4 202 181ZM199.5 183.2C200.7 183.8 202 183.9 203.4 183.6C204.8 183.3 206.1 182.5 207.4 181.4C208.3 180.6 209.3 179.7 210.2 178.8C211.1 178 212 177.1 212.9 176.3C214.1 175.2 214.7 174.2 214.7 173.3C214.7 172.4 214.1 171.7 213 171.2C211.9 170.7 210.6 170.6 209.3 170.9C208 171.2 206.7 171.9 205.5 173C204.6 173.8 203.7 174.6 202.7 175.4C201.8 176.2 200.8 177 199.9 177.9C198.6 179 197.9 180.1 197.8 181C197.8 181.8 198.3 182.6 199.5 183.2ZM195.7 176.2C194.9 176.9 194.1 177.1 193.5 176.8C192.9 176.5 192.9 175.9 193.7 175.3C194.3 174.8 194.8 174.3 195.4 173.9C196.2 173.3 197 173 197.6 173.3C198.2 173.6 198.1 174.2 197.4 174.8C196.9 175.3 196.3 175.8 195.7 176.2ZM200.4 171.5C199.9 171.3 199.2 171.2 198.5 171.3C199.1 170.8 199.6 170.4 200.1 169.9C200.9 169.3 201.6 169.1 202.2 169.4C202.8 169.7 202.7 170.2 202.1 170.8C202.9 171.2 203.7 171.5 204.5 171.9C205.6 171 206.1 170 206.1 169.3C206.1 168.5 205.6 167.9 204.6 167.4C203.6 167 202.4 166.9 201.2 167.1C200 167.3 198.8 167.9 197.7 168.9C196.6 169.8 195.6 170.7 194.5 171.6C193.4 172.5 192.3 173.4 191.2 174.3C190.1 175.2 189.4 176.2 189.4 177.1C189.3 178 189.8 178.7 190.8 179.2C191.8 179.7 193.1 179.8 194.4 179.5C195.7 179.2 197 178.6 198.1 177.6C198.7 177 199.4 176.5 200 175.9C202 174.1 202.2 172.3 200.4 171.5Z" fill="white"/>
<path id="Vector_149" d="M550.9 302.5L525.7 292.8C525.6 292.8 525.6 292.7 525.6 292.7C525.6 292.6 525.6 292.5 525.6 292.5L544 266.7C544.1 266.6 544.2 266.6 544.3 266.6L570.2 275.9C570.3 275.9 570.3 276 570.4 276C570.4 276.1 570.4 276.2 570.4 276.2L551.2 302.4C551.1 302.5 551 302.5 550.9 302.5ZM526.2 292.5L550.9 302L569.8 276.2L544.4 267.1L526.2 292.5Z" fill="white"/>
<path id="Vector_150" d="M551.1 314.6C550.9 314.6 550.9 314.5 550.9 314.4V302.6V302.5L569.9 276.3C570 276.2 570.1 276.2 570.2 276.2C570.3 276.2 570.4 276.3 570.4 276.4V287.3V287.4L551.4 314.6C551.2 314.5 551.2 314.6 551.1 314.6ZM551.3 302.6V313.6L569.8 287.1V277L551.3 302.6Z" fill="white"/>
<path id="Vector_151" d="M396.8 341C394.8 340.1 392.8 339.2 390.8 338.3C390.2 339 389.7 339.6 389.2 340.3C389.8 340.6 390.5 340.9 391.2 341.2C390 342.6 388.9 344 387.7 345.4C386.5 346.8 385.4 348.2 384.2 349.6C384.9 349.9 385.6 350.3 386.3 350.6C387.5 349.2 388.6 347.8 389.8 346.4C391 345 392.1 343.6 393.3 342.2C394 342.5 394.6 342.8 395.3 343.1C395.7 342.3 396.3 341.7 396.8 341ZM379.9 344.5C380.7 343.5 381.5 342.5 382.4 341.5C383.2 340.5 384 339.5 384.9 338.5C385 338.5 385.1 338.6 385.2 338.6C385.9 338.9 386.1 339.7 384.9 341.2C384.3 341.9 383.7 342.7 383.1 343.4C382 344.8 380.9 345 380.2 344.6C380.1 344.6 380 344.6 379.9 344.5ZM377.7 343.5C377 343.2 376.8 342.4 377.9 341C378.5 340.3 379.1 339.6 379.7 338.8C380.9 337.4 381.9 337.2 382.7 337.5C382.8 337.5 382.9 337.6 383 337.6C382.2 338.6 381.4 339.6 380.5 340.6C379.7 341.6 378.9 342.6 378 343.6C377.9 343.6 377.8 343.5 377.7 343.5ZM375.3 346.7C375.9 347 376.6 347.3 377.2 347.6C377.5 347.2 377.8 346.8 378.2 346.4C378.3 346.4 378.3 346.5 378.4 346.5C379.3 346.9 380.5 347 381.6 346.6C382.8 346.2 384 345.4 385 344.2C385.6 343.5 386.2 342.8 386.8 342C387.8 340.8 388.3 339.6 388.2 338.6C388.1 337.6 387.6 336.9 386.6 336.5C386.5 336.5 386.5 336.4 386.4 336.4C386.7 336 387 335.7 387.3 335.3C386.6 335 386 334.7 385.3 334.4C385 334.8 384.7 335.1 384.4 335.5C384.3 335.5 384.3 335.4 384.2 335.4C383.3 335 382.1 335 380.9 335.3C379.7 335.7 378.5 336.5 377.5 337.7C376.9 338.4 376.3 339.1 375.7 339.9C374.7 341.1 374.3 342.3 374.3 343.2C374.4 344.1 374.9 344.9 375.9 345.3C376 345.3 376 345.4 376.1 345.4C376 346 375.7 346.4 375.3 346.7ZM365.4 340.7C366 341 366.7 341.3 367.3 341.6C368.1 341.1 368.9 340.5 369.7 340C370.5 339.5 371.3 339 372.1 338.4C373.1 337.7 374.1 337 375 336.3C375 336.3 375 336.3 375 336.4C374.4 337 373.7 337.8 373 338.5C372.3 339.3 371.7 340 371.2 340.6C370.6 341.3 370.1 342 369.5 342.7C370.1 343 370.8 343.3 371.4 343.6C372.8 341.9 374.2 340.2 375.6 338.5C377 336.8 378.4 335.1 379.8 333.4C379.2 333.1 378.5 332.8 377.9 332.5C377 333.1 376.1 333.7 375.1 334.3C374.2 334.9 373.3 335.5 372.3 336.1C371.5 336.6 370.8 337.2 370 337.7C370 337.7 370 337.7 370 337.6C370.6 337 371.3 336.3 371.9 335.6C372.5 334.9 373.1 334.2 373.5 333.8C374.1 333 374.8 332.2 375.5 331.5C374.9 331.2 374.2 330.9 373.6 330.6C372.2 332.3 370.8 334 369.4 335.7C368.2 337.3 366.8 339 365.4 340.7ZM366.8 327.4C364.9 329.5 363.7 330.9 362.7 331.9C361.8 332.9 361.1 333.6 360.6 334C359.3 335.2 358.8 335.2 358.3 335C357.8 335.6 357.3 336.2 356.8 336.8C358.3 337.5 359.7 337.6 362 335.4C362.6 334.9 363.2 334.2 364 333.3C364.8 332.4 365.8 331.4 367 330.1C367.5 330.3 368 330.6 368.6 330.8C367.5 332.2 366.3 333.5 365.2 334.9C364.1 336.3 363 337.6 361.8 339C362.4 339.3 363.1 339.6 363.7 339.9C365.1 338.2 366.5 336.5 367.9 334.9C369.3 333.2 370.7 331.5 372.1 329.8C370.3 329 368.6 328.2 366.8 327.4Z" fill="white"/>
<path id="Vector_152" d="M258.4 266.9C256.8 266.1 255.2 265.4 253.6 264.7C253.1 265.2 252.6 265.7 252.1 266.2C252.6 266.4 253.1 266.7 253.7 266.9C252.6 268 251.5 269.1 250.4 270.2C249.3 271.3 248.2 272.4 247 273.6C247.6 273.9 248.1 274.2 248.7 274.4C249.8 273.3 250.9 272.1 252.1 271C253.2 269.9 254.3 268.8 255.4 267.7C255.9 267.9 256.5 268.2 257 268.4C257.4 267.9 257.9 267.4 258.4 266.9ZM243.8 269.5C244.6 268.7 245.4 267.9 246.2 267.1C247 266.3 247.8 265.5 248.6 264.8C248.7 264.8 248.7 264.9 248.8 264.9C249.4 265.2 249.5 265.8 248.3 266.9C247.7 267.5 247.1 268 246.6 268.6C245.5 269.7 244.6 269.8 244 269.6C244 269.5 243.9 269.5 243.8 269.5ZM242 268.6C241.4 268.3 241.3 267.7 242.4 266.6C243 266 243.6 265.5 244.2 264.9C245.3 263.8 246.3 263.6 246.8 263.9C246.9 263.9 246.9 264 247 264C246.2 264.8 245.4 265.6 244.6 266.3C243.8 267.1 243 267.9 242.2 268.7C242.2 268.7 242.1 268.6 242 268.6ZM239.6 271.2C240.1 271.5 240.7 271.7 241.2 272C241.5 271.7 241.8 271.4 242.2 271.1C242.3 271.1 242.3 271.2 242.4 271.2C243.2 271.6 244.1 271.6 245.2 271.3C246.2 271 247.3 270.4 248.3 269.4C248.9 268.8 249.5 268.2 250 267.7C251 266.7 251.4 265.8 251.5 265C251.5 264.2 251.1 263.6 250.4 263.3C250.4 263.3 250.3 263.3 250.3 263.2C250.6 262.9 250.9 262.6 251.2 262.4C250.7 262.2 250.2 261.9 249.6 261.7C249.3 262 249 262.3 248.7 262.5L248.6 262.4C247.9 262 246.9 262 245.9 262.3C244.9 262.6 243.8 263.2 242.8 264.2C242.2 264.8 241.6 265.3 241 265.9C240 266.9 239.5 267.8 239.5 268.5C239.5 269.3 239.9 269.9 240.6 270.2C240.6 270.2 240.7 270.2 240.7 270.3C240.3 270.6 240 270.9 239.6 271.2ZM231.7 266.2C232.2 266.4 232.7 266.7 233.2 267C234 266.6 234.7 266.2 235.5 265.8C236.3 265.4 237 265 237.8 264.6C238.7 264.1 239.6 263.5 240.6 263C240.6 263 240.6 263 240.6 263.1C240 263.6 239.3 264.2 238.6 264.8C237.9 265.4 237.3 266 236.8 266.4C236.2 267 235.7 267.5 235.1 268C235.6 268.2 236.1 268.5 236.6 268.8C238 267.4 239.4 266.1 240.8 264.8C242.2 263.5 243.6 262.2 244.9 260.9C244.4 260.7 243.9 260.4 243.4 260.2C242.6 260.6 241.7 261.1 240.9 261.5C240.1 261.9 239.2 262.4 238.4 262.8C237.7 263.2 237 263.6 236.2 264C236.2 264 236.2 264 236.2 263.9C236.8 263.4 237.5 262.9 238.1 262.3C238.7 261.8 239.3 261.3 239.7 260.9C240.3 260.3 241 259.7 241.6 259.1C241.1 258.9 240.6 258.6 240.1 258.4C238.7 259.7 237.3 261 236 262.3C234.5 263.5 233.1 264.8 231.7 266.2ZM234.5 255.7C232.7 257.2 231.4 258.3 230.4 259.1C229.5 259.9 228.8 260.4 228.3 260.7C227 261.6 226.6 261.7 226.2 261.4C225.7 261.9 225.1 262.4 224.6 262.8C225.9 263.4 227 263.5 229.4 261.7C230 261.3 230.6 260.8 231.4 260.1C232.2 259.4 233.2 258.6 234.3 257.6C234.7 257.8 235.1 258 235.5 258.2C234.4 259.2 233.2 260.3 232.1 261.3C231 262.4 229.8 263.4 228.6 264.5C229.1 264.7 229.6 265 230.2 265.3C231.6 264 233.1 262.7 234.5 261.3C235.9 260 237.3 258.7 238.7 257.5C237.3 257 235.9 256.3 234.5 255.7Z" fill="white"/>
<path id="Vector_153" d="M537.8 279.1H499.8V279.6H537.8V279.1Z" fill="#939A9A"/>
<path id="Vector_154" fill-rule="evenodd" clip-rule="evenodd" d="M539.7 276.5C538 276.5 536.7 277.8 536.7 279.5C536.7 281.1 538 282.5 539.7 282.5C541.3 282.5 542.7 281.2 542.7 279.5C542.7 277.8 541.3 276.5 539.7 276.5Z" fill="#939A9A"/>
<path id="Vector_155" d="M489.7 281.5L488.5 288.3H487.6L486.5 282.8L485.4 288.3H484.5L483.3 281.5H484.2L484.9 287L485.9 281.5H486.8L487.8 287L488.5 281.5H489.7ZM493.6 286.7C493.6 287.3 493.4 287.8 493.1 288.1C492.8 288.3 492.5 288.5 492 288.5C491.5 288.5 491.1 288.3 490.8 288C490.3 287.5 490.3 286.9 490.3 285C490.3 283.1 490.3 282.5 490.8 282C491.1 281.7 491.4 281.5 492 281.5C492.5 281.5 492.8 281.6 493.1 281.9C493.4 282.2 493.6 282.7 493.6 283.3H492.8C492.8 283 492.7 282.7 492.6 282.5C492.5 282.4 492.3 282.3 492.1 282.3C491.8 282.3 491.6 282.4 491.5 282.6C491.3 282.9 491.2 283.5 491.2 285.1C491.2 286.7 491.2 287.3 491.5 287.6C491.6 287.7 491.8 287.9 492.1 287.9C492.4 287.9 492.5 287.8 492.6 287.7C492.8 287.5 492.8 287.2 492.8 286.9H493.6V286.7Z" fill="#20221D"/>
<path id="Vector_156" d="M485.3 280.7H483.8V276.8L483 279.4H482.2L481.4 276.8V280.7H479.9V273.2H481.2L482.6 276.9L484 273.2H485.3V280.7ZM489.2 272.4L487.2 281.5H485.9L487.9 272.4H489.2ZM497.3 280.7H495.7L494.1 276.8L495.5 273.2H497.1L495.6 276.7L497.3 280.7ZM494.1 280.7H492.6V273.2H494.1V280.7ZM492.6 276.8L491 280.7H489.4L491.1 276.7L489.6 273.2H491.2L492.6 276.8Z" fill="#20221D"/>
<path id="Vector_157" d="M495.5 292.7H482.2C479.2 292.7 476.8 290.3 476.8 287.3V273.9C476.8 270.9 479.2 268.5 482.2 268.5H495.6C498.6 268.5 501 270.9 501 273.9V287.3C500.9 290.2 498.5 292.7 495.5 292.7ZM482.2 270.6C480.4 270.6 478.9 272.1 478.9 273.9V287.3C478.9 289.1 480.4 290.6 482.2 290.6H495.6C497.4 290.6 498.9 289.1 498.9 287.3V273.9C498.9 272.1 497.4 270.6 495.6 270.6H482.2Z" fill="#21231E"/>
<path id="Vector_158" d="M173.9 171.7L151.4 160.9" stroke="white" stroke-width="0.25" stroke-miterlimit="10"/>
<path id="Vector_159" d="M79.2 277.6C79.1 277.6 79 277.5 79 277.4V265.1C79 265 79 265 79.1 264.9L108.3 239.5C108.4 239.4 108.5 239.4 108.6 239.5C108.7 239.6 108.7 239.7 108.6 239.8L79.5 265.1V277.2C79.4 277.5 79.3 277.6 79.2 277.6Z" fill="white"/>
<path id="Vector_160" d="M77.5002 256.9C76.6002 257.7 75.6002 257.9 74.9002 257.5C74.2002 257.1 74.3002 256.4 75.2002 255.7C75.9002 255.1 76.5002 254.5 77.2002 254C78.1002 253.2 79.1002 253 79.8002 253.4C80.5002 253.8 80.4002 254.4 79.5002 255.2C78.9002 255.7 78.2002 256.3 77.5002 256.9ZM83.1002 251.2C82.5002 250.9 81.7002 250.8 80.9002 250.9C81.6002 250.3 82.2002 249.8 82.8002 249.3C83.7002 248.5 84.5002 248.4 85.2002 248.8C85.9002 249.1 85.7002 249.7 85.0002 250.4C85.9002 250.9 86.9002 251.3 87.8002 251.8C89.0002 250.7 89.7002 249.6 89.7002 248.7C89.7002 247.8 89.2002 247 88.0002 246.4C86.8002 245.8 85.5002 245.7 84.1002 246C82.7002 246.3 81.3002 247 80.0002 248C78.8002 249 77.5002 250.1 76.2002 251.1C74.9002 252.2 73.6002 253.3 72.3002 254.3C70.9002 255.4 70.2002 256.6 70.1002 257.6C70.0002 258.6 70.5002 259.5 71.8002 260.2C73.0002 260.8 74.5002 261 76.0002 260.6C77.5002 260.3 79.0002 259.5 80.4002 258.3C81.2002 257.6 81.9002 257 82.6002 256.3C84.9002 254.4 85.1002 252.2 83.1002 251.2ZM65.0002 252.6C64.0002 252.1 64.2002 251.3 65.6002 250.2C66.8002 249.3 67.9002 248.4 69.1002 247.4C70.2002 246.5 71.3002 245.6 72.5002 244.7C73.8002 243.7 74.9002 243.4 75.8002 243.8C76.7002 244.3 76.6002 245 75.3002 246.1C74.2002 247 73.1002 247.9 72.0002 248.8C70.9002 249.7 69.7002 250.6 68.6002 251.6C67.1002 252.8 65.9002 253.1 65.0002 252.6ZM61.9002 255.1C63.2002 255.8 64.7002 255.9 66.3002 255.6C67.9002 255.3 69.5002 254.4 71.1002 253.1C72.3002 252.2 73.4002 251.2 74.5002 250.3C75.6002 249.4 76.7002 248.5 77.8002 247.5C79.3002 246.3 80.1002 245.1 80.2002 244.2C80.3002 243.2 79.7002 242.4 78.5002 241.8C77.3002 241.2 75.8002 241.1 74.4002 241.4C72.9002 241.7 71.4002 242.5 69.9002 243.6C68.8002 244.5 67.7002 245.4 66.5002 246.3C65.3002 247.2 64.2002 248.1 63.0002 249C61.4002 250.2 60.5002 251.4 60.3002 252.5C60.1002 253.5 60.6002 254.4 61.9002 255.1ZM58.3002 247.2C57.4002 247.9 56.4002 248.1 55.7002 247.8C55.0002 247.5 55.2002 246.8 56.1002 246.1C56.8002 245.6 57.5002 245 58.2002 244.5C59.1002 243.8 60.1002 243.6 60.8002 243.9C61.5002 244.2 61.3002 244.9 60.4002 245.6C59.7002 246.1 59.0002 246.6 58.3002 247.2ZM64.1002 241.9C63.6002 241.6 62.8002 241.5 62.0002 241.6C62.7002 241.1 63.4002 240.6 64.0002 240.1C64.9002 239.4 65.8002 239.3 66.4002 239.6C67.1002 239.9 66.8002 240.5 66.1002 241.2C67.0002 241.6 67.9002 242.1 68.8002 242.5C70.1002 241.4 70.8002 240.4 70.9002 239.6C71.0002 238.7 70.5002 238 69.4002 237.4C68.3002 236.9 67.0002 236.7 65.6002 237C64.2002 237.2 62.7002 237.9 61.4002 238.9C60.1002 239.9 58.8002 240.9 57.5002 241.8C56.2002 242.8 54.8002 243.8 53.4002 244.8C52.0002 245.9 51.2002 246.9 51.0002 247.9C50.8002 248.9 51.3002 249.7 52.4002 250.3C53.6002 250.9 55.0002 251 56.5002 250.7C58.0002 250.4 59.6002 249.7 61.0002 248.6C61.8002 248 62.6002 247.4 63.4002 246.8C65.7002 244.9 66.1002 242.8 64.1002 241.9Z" fill="white"/>
<path id="Vector_161" d="M105.3 187.4H65.5V186.9H105.3" fill="#939A9A"/>
<path id="Vector_162" d="M53.8004 188L52.6004 194.8H51.7004L50.6004 189.3L49.5004 194.8H48.6004L47.4004 188H48.3004L49.0004 193.5L50.0004 188H51.2004L52.2004 193.5L52.9004 188H53.8004ZM57.8004 193.2C57.8004 193.8 57.6004 194.3 57.3004 194.6C57.0004 194.8 56.7004 195 56.2004 195C55.7004 195 55.3004 194.8 55.0004 194.5C54.5004 194 54.5004 193.4 54.5004 191.5C54.5004 189.6 54.5004 189 55.0004 188.5C55.3004 188.2 55.6004 188 56.2004 188C56.7004 188 57.0004 188.1 57.3004 188.4C57.6004 188.7 57.8004 189.2 57.8004 189.8H57.0004C57.0004 189.5 56.9004 189.2 56.8004 189C56.7004 188.9 56.5004 188.8 56.3004 188.8C56.0004 188.8 55.8004 188.9 55.7004 189.1C55.5004 189.4 55.4004 190 55.4004 191.6C55.4004 193.2 55.4004 193.8 55.7004 194.1C55.8004 194.2 56.0004 194.4 56.3004 194.4C56.6004 194.4 56.7004 194.3 56.8004 194.2C57.0004 194 57.0004 193.7 57.0004 193.4H57.8004V193.2Z" fill="#20221D"/>
<path id="Vector_163" d="M49.8004 187.3H48.3004V183.4L47.5004 186H46.7004L45.9004 183.4V187.3H44.4004V179.8H45.7004L47.1004 183.5L48.5004 179.8H49.8004V187.3ZM53.7004 179L51.7004 188.1H50.4004L52.4004 179H53.7004ZM61.8004 187.3H60.2004L58.6004 183.4L60.0004 179.8H61.6004L60.1004 183.3L61.8004 187.3ZM58.6004 187.3H57.1004V179.8H58.6004V187.3ZM57.1004 183.3L55.5004 187.2H53.9004L55.6004 183.2L54.1004 179.7H55.7004L57.1004 183.3Z" fill="#20221D"/>
<path id="Vector_164" d="M59.8 199.2H46.4C43.4 199.2 41 196.8 41 193.8V180.4C41 177.4 43.4 175 46.4 175H59.8C62.8 175 65.2 177.4 65.2 180.4V193.8C65.2 196.8 62.8 199.2 59.8 199.2ZM46.4 177.1C44.6 177.1 43.1 178.6 43.1 180.4V193.8C43.1 195.6 44.6 197.1 46.4 197.1H59.8C61.6 197.1 63.1 195.6 63.1 193.8V180.4C63.1 178.6 61.6 177.1 59.8 177.1H46.4Z" fill="#21231E"/>
<path id="Vector_165" fill-rule="evenodd" clip-rule="evenodd" d="M106.3 189.8C108 189.8 109.3 188.5 109.3 186.8C109.3 185.1 108 183.8 106.3 183.8C104.6 183.8 103.3 185.2 103.3 186.8C103.3 188.5 104.7 189.8 106.3 189.8Z" fill="#939A9A"/>
</g>
</svg>
